# SSTK version 0.8.0
# 5
mtllib original-5.mtl
o #ID43
v 0.643135 0.684799 -0.241676
v 0.698875 0.609697 -0.256611
v 0.633348 0.609697 -0.239053
v 0.698875 0.684799 -0.256611
v 0.698875 0.684799 -0.256611
v 0.643135 0.684799 -0.241676
v 0.698875 0.609697 -0.256611
v 0.633348 0.609697 -0.239053
v 0.724573 0.684799 -0.160706
v 0.724573 0.609697 -0.160706
v 0.724573 0.609697 -0.160706
v 0.724573 0.684799 -0.160706
v 0.659045 0.609697 -0.143148
v 0.668833 0.684799 -0.145771
v 0.668833 0.684799 -0.145771
v 0.659045 0.609697 -0.143148
vt 0.03609951 1.000778
vt 0.00714897 0.9426553
vt 0.04118322 0.9426553
vt 0.00714897 1.000778
vn -0.25881900959356186 0.0 -0.9659258358036644
vn 0.5000000318364611 0.0 -0.8660253854036486
vn -0.5000000318364611 0.0 0.8660253854036486
vn 0.25881900959356186 0.0 0.9659258358036644
vn 0.8660253854036486 0.0 0.5000000318364611
vn -0.8660253854036486 0.0 -0.5000000318364611
usemtl material_0_0
f 1/1/1 2/2/2 3/3/1
f 2/2/2 1/1/1 4/4/2
f 5/4/3 6/1/4 7/2/3
f 8/3/4 7/2/3 6/1/4
f 9/4/5 2/2/2 4/4/2
f 2/2/2 9/4/5 10/2/5
f 11/2/6 12/4/6 7/2/3
f 5/4/3 7/2/3 12/4/6
f 9/4/5 13/3/4 10/2/5
f 13/3/4 9/4/5 14/1/4
f 15/1/1 12/4/6 16/3/1
f 11/2/6 16/3/1 12/4/6