# Blender v2.92.0 OBJ File: ''
# www.blender.org
mtllib original-7.mtl
o #ID81
v -0.326938 0.855714 0.021313
v -0.326938 0.855714 0.033810
v -0.399524 0.748884 0.033810
v -0.403571 0.751920 0.033810
v -0.323888 0.851328 0.033810
v -0.399524 0.748884 0.021313
v -0.403571 0.751920 0.021313
v -0.323888 0.851328 0.021313
vt -2.819600 1.968734
vt -2.813225 1.963951
vt -2.694082 2.125322
vt -2.698887 2.132232
vt 2.813225 1.963951
vt 2.819600 1.968734
vt 2.694082 2.125322
vt 2.698887 2.132232
vt -4.198195 0.112306
vt -4.178510 -0.090926
vt -4.178510 0.112306
vt -4.198195 -0.090926
vt 4.198195 -0.090986
vt 4.178510 0.109601
vt 4.178510 -0.090986
vt 4.198195 0.109601
vn -0.5675 0.4190 0.7088
vn 0.5702 -0.4210 0.7054
vn 0.5129 -0.3787 0.7704
vn -0.6307 0.4657 0.6207
vn 0.5702 -0.4210 -0.7054
vn -0.5675 0.4190 -0.7088
vn 0.5129 -0.3787 -0.7704
vn -0.6307 0.4657 -0.6207
usemtl material_0_2.006
s 1
f 4/1/1 3/2/2 5/3/3
f 4/1/1 5/3/3 2/4/4
f 6/5/5 7/6/6 8/7/7
f 8/7/7 7/6/6 1/8/8
f 1/9/8 4/10/1 2/11/4
f 4/10/1 1/9/8 7/12/6
f 6/13/5 5/14/3 3/15/2
f 5/14/3 6/13/5 8/16/7
o #ID81.001
v -0.444361 0.496802 0.033810
v -0.451465 0.496802 0.033810
v -0.447913 0.496368 0.033810
v -0.441018 0.498080 0.033810
v -0.454808 0.498080 0.033810
v -0.438081 0.500125 0.033810
v -0.457744 0.500125 0.033810
v -0.435724 0.502817 0.033810
v -0.460102 0.502817 0.033810
v -0.434085 0.505997 0.033810
v -0.433260 0.509480 0.033810
v -0.453811 0.548164 0.033810
v -0.461741 0.505997 0.033810
v -0.462566 0.509480 0.033810
v -0.451465 0.496802 0.021313
v -0.444361 0.496802 0.021313
v -0.447913 0.496368 0.021313
v -0.454808 0.498080 0.021313
v -0.441018 0.498080 0.021313
v -0.457744 0.500125 0.021313
v -0.438081 0.500125 0.021313
v -0.460102 0.502817 0.021313
v -0.435724 0.502817 0.021313
v -0.461741 0.505997 0.021313
v -0.462566 0.509480 0.021313
v -0.453811 0.548164 0.021313
v -0.434085 0.505997 0.021313
v -0.433260 0.509480 0.021313
vt 2.898740 1.647772
vt 2.867667 1.581351
vt 0.000000 0.000000
vt 2.908649 1.576340
vt 0.000000 0.000000
vt 0.000000 0.000000
vt -2.870249 1.576340
vt 0.000000 0.000000
vt -4.198195 3.276624
vt -4.178510 3.282261
vt -4.198195 3.282261
vt -4.178510 3.276624
vt -4.198195 3.263614
vt -4.178510 3.269251
vt -4.198195 3.269251
vt -4.178510 3.263614
vt -4.198195 3.058165
vt -4.178510 3.063802
vt -4.198195 3.063802
vt -4.178510 3.058165
vt 4.198195 -2.672381
vt 4.178510 -2.678018
vt 4.198195 -2.678018
vt 4.178510 -2.672381
vt 4.198195 -0.710475
vt 4.178510 -0.704838
vt 4.178510 -0.710475
vt 4.198195 -0.704838
vt 4.198195 2.815140
vt -4.198195 2.215278
vt 0.000000 0.000000
vt 4.178510 2.815140
vt 4.198195 0.877984
vt 4.178510 0.883621
vt 4.178510 0.877984
vt 4.198195 0.883621
vt 4.198195 2.746139
vt 4.178510 2.746139
vt -2.912530 1.586836
vt -4.198195 2.209641
vt -4.178510 2.209641
vt 2.866368 1.586836
vt 2.873962 1.572099
vt 2.878588 1.568877
vt 2.883854 1.566865
vt 2.889449 1.566181
vt 2.895044 1.566865
vt 2.900310 1.568877
vt 2.904936 1.572099
vt 2.912530 1.586836
vt -4.198195 2.733643
vt -4.178510 2.733643
vt -2.908649 1.576340
vt -2.904936 1.572099
vt -2.900310 1.568877
vt -2.895044 1.566865
vt -2.889449 1.566181
vt -2.883854 1.566865
vt -2.878588 1.568877
vt -2.873962 1.572099
vt -2.866368 1.586836
vt -2.898740 1.647772
vt -4.198195 3.096428
vt -4.178510 3.096428
vt 4.198195 -2.128989
vn -0.0000 0.0000 -1.0000
vn 0.0000 0.0000 1.0000
vn -0.3426 -0.6474 -0.6808
vn -0.4884 -0.5458 0.6808
vn -0.4884 -0.5459 -0.6808
vn -0.3426 -0.6474 0.6808
vn -0.1765 -0.7109 -0.6808
vn -0.1765 -0.7109 0.6808
vn -0.0000 -0.7325 -0.6808
vn -0.0000 -0.7325 0.6808
vn 0.1765 -0.7109 -0.6808
vn 0.1765 -0.7109 0.6808
vn 0.4884 -0.5459 -0.6808
vn 0.7892 -0.5370 0.2979
vn 0.4884 -0.5459 0.6808
vn 0.6915 -0.4706 -0.5480
vn -0.1321 0.9880 -0.0797
vn -0.7515 -0.0038 -0.6597
vn -0.7515 -0.0038 0.6597
vn -0.1111 0.8310 0.5451
vn 0.9170 -0.3391 -0.2101
vn 0.7657 0.0984 0.6357
vn 0.8119 -0.3003 0.5006
vn 0.7657 0.0985 -0.6357
vn -0.9296 -0.3438 -0.1330
vn -0.7005 -0.2591 0.6650
vn 0.3426 -0.6474 -0.6808
vn -0.6669 -0.4539 -0.5910
vn -0.6055 -0.4122 0.6808
vn 0.3426 -0.6474 0.6808
usemtl material_0_2.006
s off
f 34/17/9 35/18/9 31/19/9
f 34/17/9 30/20/9 32/21/9
f 21/22/10 16/23/10 18/24/10
s 1
f 26/25/11 15/26/12 28/27/13
f 15/26/12 26/25/11 13/28/14
f 23/29/15 13/30/14 26/31/11
f 13/30/14 23/29/15 10/32/16
f 25/33/17 10/34/16 23/35/15
f 10/34/16 25/33/17 11/36/18
f 24/37/19 11/38/18 25/39/17
f 11/38/18 24/37/19 9/40/20
f 29/41/21 16/42/22 14/43/23
f 16/42/22 29/41/21 31/44/24
f 34/45/25 33/46/26 22/47/27 20/48/28
f 35/49/29 19/50/30 18/51/31
f 19/50/30 35/49/29 36/52/32
f 36/53/32 20/48/28 19/54/30
f 20/48/28 36/53/32 34/45/25
f 22/55/27 33/46/26 32/56/33 21/57/34
f 34/17/25 36/58/32 35/18/29
f 34/17/9 31/19/24 29/59/21
f 34/17/9 29/59/21 27/60/35
f 34/17/9 27/60/35 24/61/19
f 34/17/9 24/61/19 25/62/17
f 34/17/9 25/62/17 23/63/15
f 34/17/9 23/63/15 26/64/11
f 34/17/9 26/64/11 28/65/13
f 34/17/9 28/65/13 30/20/36
f 34/17/25 32/21/33 33/66/26
f 21/22/34 32/56/33 30/67/36 17/68/37
f 21/22/34 17/69/37 15/70/12
f 21/22/34 15/70/12 13/71/14
f 21/22/34 13/71/14 10/72/16
f 21/22/34 10/72/16 11/73/18
f 21/22/34 11/73/18 9/74/20
f 21/22/34 9/74/20 12/75/38
f 21/22/34 12/75/38 14/76/23
f 21/22/34 14/76/23 16/23/22
f 21/22/34 18/24/31 19/77/30
f 21/22/34 19/77/30 20/78/28
f 21/22/34 20/78/28 22/47/27
f 17/69/37 30/67/36 28/79/13 15/80/12
f 31/44/24 35/18/29 18/24/31 16/23/22
f 27/81/35 29/59/21 14/76/23 12/75/38
f 24/37/19 27/60/35 12/75/38 9/74/20
o #ID81.002
v 0.494451 0.496189 0.033810
v 0.487329 0.496189 0.033810
v 0.490889 0.495720 0.033810
v 0.497769 0.497564 0.033810
v 0.484010 0.497564 0.033810
v 0.500619 0.499751 0.033810
v 0.481161 0.499751 0.033810
v 0.502806 0.502600 0.033810
v 0.502920 0.502877 0.033810
v 0.504180 0.505919 0.033810
v 0.504649 0.509480 0.033810
v 0.492519 0.552269 0.033810
v 0.478974 0.502600 0.033810
v 0.478859 0.502877 0.033810
v 0.477599 0.505919 0.033810
v 0.477130 0.509480 0.033810
v 0.487329 0.496189 0.021313
v 0.494451 0.496189 0.021313
v 0.490889 0.495720 0.021313
v 0.484010 0.497564 0.021313
v 0.497769 0.497564 0.021313
v 0.481161 0.499751 0.021313
v 0.500619 0.499751 0.021313
v 0.478974 0.502600 0.021313
v 0.478859 0.502877 0.021313
v 0.477599 0.505919 0.021313
v 0.477130 0.509480 0.021313
v 0.492519 0.552269 0.021313
v 0.502806 0.502600 0.021313
v 0.502920 0.502877 0.021313
v 0.504180 0.505919 0.021313
v 0.504649 0.509480 0.021313
vt -1.431560 1.581226
vt -1.388951 1.586836
vt 0.000000 0.000000
vt -4.198195 2.082299
vt -4.178510 2.087957
vt -4.198195 2.087957
vt -4.178510 2.082299
vt -4.198195 1.907674
vt -4.178510 1.913332
vt -4.198195 1.913332
vt -4.178510 1.907674
vt -4.198195 1.602851
vt -4.178510 1.608509
vt -4.198195 1.608509
vt -4.178510 1.602851
vt 4.198195 -1.188604
vt 4.178510 -1.194262
vt 4.198195 -1.194262
vt 4.178510 -1.188604
vt 4.198195 0.397359
vt 4.178510 0.403017
vt 4.178510 0.397359
vt 4.198195 0.403017
vt 4.198195 0.923393
vt 4.178510 0.923865
vt 4.178510 0.923393
vt 4.198195 0.923865
vt 4.178510 0.929052
vt 4.198195 0.929052
vt 4.198195 1.386308
vt 4.178510 1.391966
vt 4.178510 1.386308
vt 4.198195 1.391966
vt -4.198195 1.080109
vt -4.178510 1.008481
vt -4.178510 1.080109
vt -4.198195 1.008481
vt -1.432299 1.586836
vt -4.198195 1.754555
vt -4.178510 1.754555
vt -4.198195 2.003511
vt -4.178510 2.003511
vt 0.000000 0.000000
vt 1.388951 1.586836
vt 1.389689 1.581226
vt 1.391674 1.576435
vt 1.391854 1.575999
vt 1.395299 1.571510
vt 1.399788 1.568066
vt 1.405015 1.565900
vt 1.410625 1.565162
vt 1.416234 1.565900
vt 1.421462 1.568066
vt 1.425951 1.571510
vt 1.429395 1.575999
vt 1.429575 1.576435
vt 1.431560 1.581226
vt 1.432299 1.586836
vt -1.429575 1.576435
vt -1.429395 1.575999
vt -1.425951 1.571510
vt -1.421462 1.568066
vt -1.416234 1.565900
vt -1.410625 1.565162
vt -1.405015 1.565900
vt -1.399788 1.568066
vt -1.395299 1.571510
vt -1.391854 1.575999
vt -1.391674 1.576435
vt -1.389689 1.581226
vt -4.198195 2.003039
vt -4.178510 2.003039
vt -4.198195 2.114826
vt -4.178510 2.114826
vt 4.198195 -0.693163
vn 0.0000 0.0000 1.0000
vn -0.3672 -0.6358 -0.6789
vn -0.5192 -0.5192 0.6789
vn -0.5192 -0.5192 -0.6789
vn -0.3672 -0.6358 0.6789
vn -0.1901 -0.7092 -0.6789
vn -0.1901 -0.7092 0.6789
vn -0.0000 -0.7343 -0.6789
vn -0.0000 -0.7343 0.6789
vn 0.1901 -0.7092 -0.6789
vn 0.1901 -0.7092 0.6789
vn 0.5191 -0.5192 -0.6789
vn 0.6362 -0.3673 0.6785
vn 0.5191 -0.5192 0.6789
vn 0.6368 -0.3671 -0.6781
vn 0.6538 -0.2700 0.7068
vn 0.6539 -0.2697 -0.7069
vn 0.7092 -0.1901 0.6789
vn 0.7092 -0.1900 -0.6789
vn 0.9178 0.0668 0.3915
vn 0.7455 0.0543 -0.6643
vn 0.0290 0.8391 -0.5432
vn -0.7490 0.0806 0.6577
vn 0.0345 0.9988 0.0352
vn -0.7490 0.0806 -0.6577
vn -0.7092 -0.1901 -0.6789
vn -0.8420 -0.2256 0.4901
vn -0.6532 -0.2712 -0.7070
vn -0.6572 -0.2699 0.7037
vn 0.3672 -0.6358 -0.6789
vn -0.6357 -0.3676 -0.6788
vn -0.6355 -0.3676 0.6790
vn 0.3672 -0.6358 0.6789
usemtl material_0_2.006
s off
f 51/82/39 47/83/39 48/84/39
s 1
f 56/85/40 43/86/41 58/87/42
f 43/86/41 56/85/40 41/88/43
f 53/89/44 41/90/43 56/91/40
f 41/90/43 53/89/44 38/92/45
f 55/93/46 38/94/45 53/95/44
f 38/94/45 55/93/46 39/96/47
f 54/97/48 39/98/47 55/99/46
f 39/98/47 54/97/48 37/100/49
f 59/101/50 44/102/51 42/103/52
f 44/102/51 59/101/50 65/104/53
f 65/105/53 45/106/54 44/107/51
f 45/106/54 65/105/53 66/108/55
f 66/108/55 46/109/56 45/106/54
f 46/109/56 66/108/55 67/110/57
f 67/111/57 47/112/58 46/113/56
f 47/112/58 67/111/57 68/114/59
f 64/115/60 52/116/61 48/117/62
f 52/116/61 64/115/60 63/118/63
f 52/119/61 63/118/63 62/120/64 51/121/65
f 51/82/65 62/120/64 61/122/66 50/123/67
f 64/124/60 68/125/59 67/126/57
f 64/124/60 67/126/57 66/127/55
f 64/124/60 66/127/55 65/128/53
f 64/124/60 65/128/53 59/129/50
f 64/124/60 59/129/50 57/130/68
f 64/124/60 57/130/68 54/131/48
f 64/124/60 54/131/48 55/132/46
f 64/124/60 55/132/46 53/133/44
f 64/124/60 53/133/44 56/134/40
f 64/124/60 56/134/40 58/135/42
f 64/124/60 58/135/42 60/136/69
f 64/124/60 60/136/69 61/137/66
f 64/124/60 61/137/66 62/138/64
f 64/124/60 62/138/64 63/139/63
f 68/114/59 64/124/60 48/84/62 47/83/58
f 51/82/65 50/140/67 49/141/70
f 51/82/65 49/141/70 43/142/41
f 51/82/65 43/142/41 41/143/43
f 51/82/65 41/143/43 38/144/45
f 51/82/65 38/144/45 39/145/47
f 51/82/65 39/145/47 37/146/49
f 51/82/65 37/146/49 40/147/71
f 51/82/65 40/147/71 42/148/52
f 51/82/65 42/148/52 44/149/51
f 51/82/65 44/149/51 45/150/54
f 51/82/65 45/150/54 46/151/56
f 51/82/65 46/151/56 47/83/58
f 51/82/65 48/84/62 52/119/61
f 50/140/67 61/122/66 60/152/69 49/153/70
f 49/141/70 60/152/69 58/154/42 43/155/41
f 57/156/68 59/129/50 42/148/52 40/147/71
f 54/97/48 57/130/68 40/147/71 37/146/49
o #ID81.003
v 0.504649 0.509480 0.033810
v 0.497561 0.518940 0.033810
v 0.492176 0.631582 0.033810
v 0.496863 0.518940 0.033810
v 0.495466 0.537890 0.033810
v 0.492519 0.552269 0.033810
v 0.484567 0.630112 0.033810
v 0.495466 0.537890 0.021313
v 0.497561 0.518940 0.021313
v 0.492519 0.552269 0.021313
v 0.504649 0.509480 0.021313
v 0.492176 0.631582 0.021313
v 0.484567 0.630112 0.021313
vt -1.400116 1.601738
vt -1.388951 1.586836
vt -1.408599 1.779173
vt -1.401215 1.601738
vt -1.403416 1.631588
vt -1.408058 1.654237
vt -1.420584 1.776858
vt 1.388951 1.586836
vt 1.400116 1.601738
vt 1.408599 1.779173
vt 1.403416 1.631588
vt 1.408058 1.654237
vt 1.420584 1.776858
vt 4.198195 1.719774
vt 4.178510 1.913112
vt 4.178510 1.719774
vt 4.198195 1.913112
vt -4.198195 1.912026
vt -4.178510 1.788768
vt -4.178510 1.912026
vt -4.198195 1.788768
vn 0.0000 -0.0000 1.0000
vn 0.9406 0.0961 0.3258
vn 0.7237 0.0739 0.6862
vn -0.1221 -0.0170 0.9924
vn -0.4565 -0.0466 0.8885
vn -0.6838 -0.0699 0.7263
vn 0.9406 0.0961 -0.3258
vn 0.0000 0.0000 -1.0000
vn 0.7237 0.0739 -0.6862
vn 0.1729 -0.1951 -0.9654
vn -0.4565 -0.0466 -0.8885
vn -0.6838 -0.0699 -0.7263
usemtl material_0_2.006
s 1
f 70/157/72 69/158/73 71/159/74
f 70/157/72 71/159/74 72/160/72
f 72/160/72 71/159/74 73/161/75
f 73/161/75 71/159/74 74/162/76
f 74/162/76 71/159/74 75/163/77
f 79/164/78 77/165/79 80/166/80
f 80/166/80 77/165/79 76/167/81
f 80/166/80 76/167/81 78/168/82
f 80/166/80 78/168/82 81/169/83
f 79/170/78 71/171/74 69/172/73
f 71/171/74 79/170/78 80/173/80
f 81/174/83 74/175/76 75/176/77
f 74/175/76 81/174/83 78/177/82
o #ID81.004
v 0.492176 0.631582 0.033810
v 0.484567 0.630112 0.033810
v 0.438651 0.748884 0.033810
v 0.445654 0.751920 0.033810
v 0.492176 0.631582 0.021313
v 0.484567 0.630112 0.021313
v 0.438651 0.748884 0.021313
v 0.445654 0.751920 0.021313
vt -1.420584 1.776858
vt -1.408599 1.779173
vt -1.492913 1.963951
vt -1.481881 1.968734
vt 1.408599 1.779173
vt 1.420584 1.776858
vt 1.492913 1.963951
vt 1.481881 1.968734
vt 4.198195 2.167399
vt 4.178510 2.370632
vt 4.178510 2.167399
vt 4.198195 2.370632
vt -4.198195 2.370149
vt -4.178510 2.169561
vt -4.178510 2.370149
vt -4.198195 2.169561
vn -0.6233 -0.2409 0.7440
vn 0.6979 0.2698 0.6634
vn -0.6512 -0.2517 0.7160
vn 0.6680 0.2583 0.6979
vn 0.6979 0.2698 -0.6634
vn -0.6233 -0.2409 -0.7440
vn -0.6512 -0.2517 -0.7160
vn 0.6680 0.2583 -0.6979
usemtl material_0_2.006
s 1
f 83/178/84 82/179/85 84/180/86
f 84/180/86 82/179/85 85/181/87
f 86/182/88 87/183/89 88/184/90
f 86/182/88 88/184/90 89/185/91
f 86/186/88 85/187/87 82/188/85
f 85/187/87 86/186/88 89/189/91
f 88/190/90 83/191/84 84/192/86
f 83/191/84 88/190/90 87/193/89
o #ID81.005
v 0.438651 0.748884 0.033810
v 0.445654 0.751920 0.033810
v 0.363015 0.851328 0.033810
v 0.369022 0.855714 0.033810
v 0.438651 0.748884 0.021313
v 0.445654 0.751920 0.021313
v 0.363015 0.851328 0.021313
v 0.369022 0.855714 0.021313
vt -1.492913 1.963951
vt -1.481881 1.968734
vt -1.612055 2.125322
vt -1.602594 2.132232
vt 1.481881 1.968734
vt 1.492913 1.963951
vt 1.612055 2.125322
vt 1.602594 2.132232
vt 4.198195 2.464014
vt 4.178510 2.667246
vt 4.178510 2.464014
vt 4.198195 2.667246
vt -4.198195 2.667307
vt -4.178510 2.466719
vt -4.178510 2.667307
vt -4.198195 2.466719
vn -0.5293 -0.3908 0.7530
vn 0.6113 0.4513 0.6501
vn -0.5698 -0.4207 0.7059
vn 0.5679 0.4193 0.7083
vn 0.6113 0.4513 -0.6501
vn -0.5293 -0.3908 -0.7530
vn -0.5698 -0.4207 -0.7059
vn 0.5679 0.4193 -0.7083
usemtl material_0_2.006
s 1
f 90/194/92 91/195/93 92/196/94
f 92/196/94 91/195/93 93/197/95
f 95/198/96 94/199/97 96/200/98
f 95/198/96 96/200/98 97/201/99
f 95/202/96 93/203/95 91/204/93
f 93/203/95 95/202/96 97/205/99
f 96/206/98 90/207/92 92/208/94
f 90/207/92 96/206/98 94/209/97
o #ID81.006
v 0.363015 0.851328 0.033810
v 0.369022 0.855714 0.033810
v 0.263025 0.930176 0.033810
v 0.267713 0.935602 0.033810
v 0.363015 0.851328 0.021313
v 0.369022 0.855714 0.021313
v 0.263025 0.930176 0.021313
v 0.267713 0.935602 0.021313
vt -1.612055 2.125322
vt -1.602594 2.132232
vt -1.769563 2.249526
vt -1.762179 2.258074
vt 1.602594 2.132232
vt 1.612055 2.125322
vt 1.769563 2.249526
vt 1.762179 2.258074
vt 4.178510 2.578689
vt 4.198195 2.781922
vt 4.178510 2.781922
vt 4.198195 2.578689
vt -4.198195 2.581840
vt -4.178510 2.782428
vt -4.198195 2.782428
vt -4.178510 2.581840
vn -0.4016 -0.5093 0.7611
vn 0.4773 0.6052 0.6371
vn -0.4441 -0.5632 0.6968
vn 0.4316 0.5474 0.7170
vn 0.4773 0.6052 -0.6371
vn -0.4016 -0.5093 -0.7611
vn -0.4441 -0.5632 -0.6968
vn 0.4316 0.5474 -0.7170
usemtl material_0_2.006
s 1
f 98/210/100 99/211/101 100/212/102
f 100/212/102 99/211/101 101/213/103
f 103/214/104 102/215/105 104/216/106
f 103/214/104 104/216/106 105/217/107
f 99/218/101 105/219/107 101/220/103
f 105/219/107 99/218/101 103/221/104
f 102/222/105 100/223/102 104/224/106
f 100/223/102 102/222/105 98/225/100
o #ID81.007
v 0.263025 0.930176 0.033810
v 0.267713 0.935602 0.033810
v 0.145769 0.979839 0.033810
v 0.148911 0.985920 0.033810
v 0.263025 0.930176 0.021313
v 0.267713 0.935602 0.021313
v 0.145769 0.979839 0.021313
v 0.148911 0.985920 0.021313
vt -1.769563 2.249526
vt -1.762179 2.258074
vt -1.954267 2.327756
vt -1.949318 2.337335
vt 1.762179 2.258074
vt 1.769563 2.249526
vt 1.954267 2.327756
vt 1.949318 2.337335
vt 4.178510 2.503294
vt 4.198195 2.706526
vt 4.178510 2.706526
vt 4.198195 2.503294
vt -4.198195 2.506760
vt -4.178510 2.707348
vt -4.198195 2.707348
vt -4.178510 2.506760
vn -0.2498 -0.5899 0.7678
vn 0.3043 0.7185 0.6254
vn -0.2825 -0.6671 0.6893
vn 0.2692 0.6355 0.7237
vn 0.3043 0.7185 -0.6254
vn -0.2498 -0.5899 -0.7678
vn -0.2825 -0.6671 -0.6893
vn 0.2692 0.6355 -0.7237
usemtl material_0_2.006
s 1
f 106/226/108 107/227/109 108/228/110
f 108/228/110 107/227/109 109/229/111
f 111/230/112 110/231/113 112/232/114
f 111/230/112 112/232/114 113/233/115
f 107/234/109 113/235/115 109/236/111
f 113/235/115 107/234/109 111/237/112
f 110/238/113 108/239/110 112/240/114
f 108/239/110 110/238/113 106/241/108
o #ID81.008
v 0.145769 0.979839 0.033810
v 0.148911 0.985920 0.033810
v 0.019564 0.996794 0.033810
v 0.021042 1.003098 0.033810
v 0.021042 1.003098 0.021313
v 0.019564 0.996794 0.021313
v 0.145769 0.979839 0.021313
v 0.148911 0.985920 0.021313
vt -1.954267 2.327756
vt -1.949318 2.337335
vt -2.153069 2.354464
vt -2.150741 2.364395
vt 1.949318 2.337335
vt 1.954267 2.327756
vt 2.153069 2.354464
vt 2.150741 2.364395
vt 4.178510 2.243174
vt 4.198195 2.446406
vt 4.178510 2.446406
vt 4.198195 2.243174
vt -4.198195 2.246804
vt -4.178510 2.447391
vt -4.198195 2.447391
vt -4.178510 2.246804
vn -0.0845 -0.6287 0.7730
vn 0.1049 0.7810 0.6157
vn -0.0971 -0.7227 0.6843
vn 0.0913 0.6796 0.7279
vn 0.1049 0.7810 -0.6157
vn -0.0845 -0.6287 -0.7730
vn -0.0971 -0.7227 -0.6843
vn 0.0913 0.6796 -0.7279
usemtl material_0_2.006
s 1
f 114/242/116 115/243/117 116/244/118
f 116/244/118 115/243/117 117/245/119
f 121/246/120 120/247/121 119/248/122
f 121/246/120 119/248/122 118/249/123
f 115/250/117 118/251/123 117/252/119
f 118/251/123 115/250/117 121/253/120
f 120/254/121 116/255/118 119/256/122
f 116/255/118 120/254/121 114/257/116
o #ID81.009
v -0.106828 0.985920 0.033810
v -0.106828 0.985920 0.021313
v 0.019564 0.996794 0.033810
v 0.021042 1.003098 0.033810
v -0.106642 0.979839 0.033810
v 0.021042 1.003098 0.021313
v -0.106642 0.979839 0.021313
v 0.019564 0.996794 0.021313
vt -2.352163 2.337335
vt -2.351871 2.327756
vt -2.153069 2.354464
vt -2.150741 2.364395
vt -4.178510 -1.816775
vt -4.198195 -2.020007
vt -4.178510 -2.020007
vt -4.198195 -1.816775
vt 2.351871 2.327756
vt 2.352163 2.337335
vt 2.153069 2.354464
vt 2.150741 2.364395
vt 4.198195 -1.820405
vt 4.178510 -2.020993
vt 4.198195 -2.020993
vt 4.178510 -1.820405
vn -0.0911 0.6782 0.7292
vn 0.0973 -0.7241 0.6828
vn 0.0839 -0.6247 0.7763
vn -0.1056 0.7859 0.6093
vn -0.0911 0.6782 -0.7292
vn -0.1056 0.7859 -0.6093
vn 0.0973 -0.7241 -0.6828
vn 0.0839 -0.6247 -0.7763
usemtl material_0_2.006
s 1
f 122/258/124 126/259/125 124/260/126
f 122/258/124 124/260/126 125/261/127
f 125/262/127 123/263/128 122/264/124
f 123/263/128 125/262/127 127/265/129
f 128/266/130 123/267/128 129/268/131
f 129/268/131 123/267/128 127/269/129
f 129/270/131 126/271/125 128/272/130
f 126/271/125 129/270/131 124/273/126
o #ID81.010
v -0.106828 0.985920 0.033810
v -0.225629 0.935602 0.021313
v -0.225629 0.935602 0.033810
v -0.106828 0.985920 0.021313
v -0.223897 0.930176 0.033810
v -0.106642 0.979839 0.033810
v -0.223897 0.930176 0.021313
v -0.106642 0.979839 0.021313
vt -4.178510 -1.254336
vt -4.198195 -1.457568
vt -4.178510 -1.457568
vt -4.198195 -1.254336
vt -2.539302 2.258074
vt -2.536574 2.249526
vt -2.351871 2.327756
vt -2.352163 2.337335
vt 2.536574 2.249526
vt 2.539302 2.258074
vt 2.351871 2.327756
vt 2.352163 2.337335
vt 4.198195 -1.257802
vt 4.178510 -1.458390
vt 4.198195 -1.458390
vt 4.178510 -1.257802
vn -0.3099 0.7316 0.6073
vn -0.2679 0.6324 -0.7269
vn -0.2679 0.6324 0.7269
vn -0.3099 0.7316 -0.6073
vn 0.2839 -0.6704 0.6855
vn 0.2454 -0.5793 0.7773
vn 0.2839 -0.6704 -0.6855
vn 0.2454 -0.5793 -0.7773
usemtl material_0_2.006
s 1
f 130/274/132 131/275/133 132/276/134
f 131/275/133 130/274/132 133/277/135
f 132/278/134 134/279/136 135/280/137
f 132/278/134 135/280/137 130/281/132
f 136/282/138 131/283/133 137/284/139
f 137/284/139 131/283/133 133/285/135
f 137/286/139 134/287/136 136/288/138
f 134/287/136 137/286/139 135/289/137
o #ID81.011
v -0.225629 0.935602 0.021313
v -0.225629 0.935602 0.033810
v -0.326938 0.855714 0.021313
v -0.326938 0.855714 0.033810
v -0.323888 0.851328 0.033810
v -0.223897 0.930176 0.033810
v -0.323888 0.851328 0.021313
v -0.223897 0.930176 0.021313
vt -4.178510 -0.595741
vt -4.198195 -0.798973
vt -4.178510 -0.798973
vt -4.198195 -0.595741
vt -2.698887 2.132232
vt -2.694082 2.125322
vt -2.536574 2.249526
vt -2.539302 2.258074
vt 2.694082 2.125322
vt 2.698887 2.132232
vt 2.536574 2.249526
vt 2.539302 2.258074
vt 4.198195 -0.598891
vt 4.178510 -0.799479
vt 4.198195 -0.799479
vt 4.178510 -0.598891
vn -0.4902 0.6217 0.6109
vn -0.4295 0.5447 -0.7203
vn -0.4295 0.5447 0.7203
vn -0.4902 0.6217 -0.6109
vn 0.4463 -0.5660 0.6932
vn 0.3909 -0.4957 0.7755
vn 0.4463 -0.5660 -0.6932
vn 0.3909 -0.4957 -0.7755
usemtl material_0_2.006
s 1
f 139/290/140 140/291/141 141/292/142
f 140/291/141 139/290/140 138/293/143
f 141/294/142 142/295/144 143/296/145
f 141/294/142 143/296/145 139/297/140
f 144/298/146 140/299/141 145/300/147
f 145/300/147 140/299/141 138/301/143
f 145/302/147 142/303/144 144/304/146
f 142/303/144 145/302/147 143/305/145
o #ID81.012
v -0.453811 0.548164 0.033810
v -0.454952 0.536994 0.033810
v -0.462566 0.509480 0.033810
v -0.455839 0.528315 0.033810
v -0.450092 0.631582 0.033810
v -0.445440 0.630112 0.033810
v -0.462566 0.509480 0.021313
v -0.458434 0.509480 0.021313
v -0.450092 0.631582 0.021313
v -0.455839 0.528315 0.021313
v -0.454952 0.536994 0.021313
v -0.453811 0.548164 0.021313
v -0.445440 0.630112 0.021313
vt -2.912530 1.586836
vt -2.901934 1.616504
vt -2.892882 1.779173
vt -2.900538 1.630176
vt -2.898740 1.647772
vt -2.885553 1.776858
vt 2.906022 1.586836
vt 2.912530 1.586836
vt 2.892882 1.779173
vt 2.901934 1.616504
vt 2.900538 1.630176
vt 2.898740 1.647772
vt 2.885553 1.776858
vt -4.198195 1.475970
vt -4.178510 1.282632
vt -4.178510 1.475970
vt -4.198195 1.282632
vt 4.198195 1.344654
vt 4.178510 1.474412
vt 4.178510 1.344654
vt 4.198195 1.474412
vn -0.9833 0.1005 0.1518
vn 0.4419 -0.0913 0.8924
vn -0.7506 0.0767 0.6563
vn 0.1576 -0.0161 0.9874
vn 0.4449 -0.0454 0.8944
vn 0.6593 -0.0673 0.7489
vn 0.0682 -0.3811 -0.9220
vn -0.7266 0.0742 -0.6830
vn -0.7506 0.0767 -0.6563
vn 0.4470 -0.0616 -0.8924
vn -0.0000 -0.0000 -1.0000
vn 0.4449 -0.0454 -0.8944
vn 0.6593 -0.0673 -0.7489
usemtl material_0_2.006
s 1
f 148/306/148 149/307/149 150/308/150
f 150/308/150 149/307/149 147/309/151
f 150/308/150 147/309/151 146/310/152
f 150/308/150 146/310/152 151/311/153
f 153/312/154 152/313/155 154/314/156
f 153/312/154 154/314/156 155/315/157
f 155/315/157 154/314/156 156/316/158
f 156/316/158 154/314/156 157/317/159
f 157/317/159 154/314/156 158/318/160
f 154/319/156 148/320/148 150/321/150
f 148/320/148 154/319/156 152/322/155
f 157/323/159 151/324/153 146/325/152
f 151/324/153 157/323/159 158/326/160
o #ID81.013
v -0.450092 0.631582 0.033810
v -0.445440 0.630112 0.033810
v -0.399524 0.748884 0.033810
v -0.403571 0.751920 0.033810
v -0.450092 0.631582 0.021313
v -0.445440 0.630112 0.021313
v -0.399524 0.748884 0.021313
v -0.403571 0.751920 0.021313
vt -2.892882 1.779173
vt -2.885553 1.776858
vt -2.813225 1.963951
vt -2.819600 1.968734
vt 2.885553 1.776858
vt 2.892882 1.779173
vt 2.813225 1.963951
vt 2.819600 1.968734
vt -4.198195 0.819596
vt -4.178510 0.616364
vt -4.178510 0.819596
vt -4.198195 0.616364
vt 4.198195 0.616846
vt 4.178510 0.817434
vt 4.178510 0.616846
vt 4.198195 0.817434
vn -0.6729 0.2601 0.6925
vn 0.6465 -0.2499 0.7208
vn 0.6046 -0.2337 0.7615
vn -0.7194 0.2781 0.6364
vn 0.6465 -0.2499 -0.7208
vn -0.6729 0.2601 -0.6925
vn 0.6046 -0.2337 -0.7615
vn -0.7194 0.2781 -0.6364
usemtl material_0_2.006
s 1
f 159/327/161 160/328/162 161/329/163
f 159/327/161 161/329/163 162/330/164
f 164/331/165 163/332/166 165/333/167
f 165/333/167 163/332/166 166/334/168
f 166/335/168 159/336/161 162/337/164
f 159/336/161 166/335/168 163/338/166
f 164/339/165 161/340/163 160/341/162
f 161/340/163 164/339/165 165/342/167
