# Blender v2.79 (sub 0) OBJ File: ''
# www.blender.org
mtllib 102352_link_0_9.mtl
o Shape_IndexedFaceSet.009_Shape_IndexedFaceSet.16460
v 0.555660 0.065207 0.440989
v 0.407472 -0.023669 0.614239
v 0.411277 -0.030083 0.609866
v 0.562513 0.072067 0.520774
v 0.551101 0.019646 0.497988
v 0.405177 -0.060160 0.559525
v 0.405177 0.010523 0.566364
v 0.560218 0.110838 0.482024
v 0.405177 -0.019125 0.536738
v 0.437119 -0.053318 0.573220
v 0.560218 0.083453 0.438703
v 0.562513 0.028751 0.475185
v 0.450795 -0.019125 0.591453
v 0.405177 0.008225 0.586899
v 0.557939 0.108540 0.466077
v 0.555660 0.049260 0.525345
v 0.407472 -0.035090 0.536738
v 0.562513 0.058383 0.443274
v 0.405177 -0.064722 0.584613
v 0.430265 -0.057880 0.561810
v 0.441677 -0.000880 0.596006
v 0.432545 -0.025968 0.605131
v 0.560218 0.108540 0.486578
v 0.405177 -0.012283 0.541309
v 0.560218 0.028751 0.497988
v 0.560218 0.028751 0.472900
v 0.555660 0.069786 0.525345
vn -0.0001 0.7072 0.7070
vn -1.0000 0.0000 0.0000
vn -0.5495 0.0327 -0.8349
vn -0.5033 0.8587 0.0961
vn -0.5579 0.8289 -0.0397
vn 0.9449 0.2767 -0.1749
vn -0.5061 -0.0727 -0.8594
vn -0.9588 -0.1378 -0.2482
vn 0.9987 0.0503 -0.0089
vn 0.1626 -0.1626 -0.9732
vn 0.9953 0.0817 -0.0516
vn 1.0000 0.0000 0.0000
vn -0.2107 -0.4940 -0.8435
vn -0.0430 -0.6698 -0.7413
vn -0.0498 -0.5826 0.8112
vn -0.9967 -0.0025 0.0807
vn 0.5434 -0.8394 0.0092
vn 0.5031 -0.8594 -0.0914
vn 0.3768 -0.9157 0.1398
vn 0.1051 -0.9784 -0.1779
vn -0.0276 0.6494 0.7599
vn 0.2743 -0.4253 0.8625
vn 0.6236 -0.5471 0.5583
vn 0.6417 -0.3027 0.7047
vn 0.2827 -0.5971 0.7507
vn 0.4505 -0.6450 0.6173
vn 0.3507 0.2047 0.9138
vn 0.9912 0.1184 0.0597
vn -0.2751 0.8583 0.4331
vn -0.6662 0.4143 -0.6201
vn -0.6756 0.5452 -0.4963
vn -0.6710 0.5180 -0.5306
vn 0.6596 -0.6605 0.3588
vn 0.9895 -0.1048 0.0996
vn 0.7049 -0.7058 0.0709
vn 0.6707 -0.5396 0.5089
vn 0.9245 -0.2147 0.3150
vn 0.6718 -0.5346 0.5127
vn 0.5609 -0.6067 -0.5633
vn 0.0108 -0.7074 -0.7067
vn 0.3447 -0.8725 -0.3463
vn 0.1262 -0.7964 -0.5915
vn 0.5549 0.0000 0.8319
vn -0.0000 0.7071 0.7071
vn 0.5438 0.0000 0.8392
vn 0.4483 0.1569 0.8800
vn 0.2433 0.6715 0.6999
usemtl Shape.16473
s off
f 23//1 14//1 27//1
f 6//2 7//2 9//2
f 1//3 9//3 11//3
f 7//2 6//2 14//2
f 8//4 7//4 14//4
f 7//5 8//5 15//5
f 8//6 11//6 15//6
f 9//7 1//7 17//7
f 6//8 9//8 17//8
f 8//9 4//9 18//9
f 1//10 11//10 18//10
f 11//11 8//11 18//11
f 4//12 12//12 18//12
f 17//13 1//13 18//13
f 6//14 17//14 18//14
f 3//15 2//15 19//15
f 2//16 14//16 19//16
f 14//2 6//2 19//2
f 5//17 10//17 20//17
f 12//18 5//18 20//18
f 10//19 19//19 20//19
f 19//20 6//20 20//20
f 14//21 2//21 21//21
f 2//22 3//22 22//22
f 10//23 13//23 22//23
f 13//24 16//24 22//24
f 3//25 19//25 22//25
f 19//26 10//26 22//26
f 21//27 2//27 22//27
f 4//28 8//28 23//28
f 8//29 14//29 23//29
f 9//2 7//2 24//2
f 11//30 9//30 24//30
f 7//31 15//31 24//31
f 15//32 11//32 24//32
f 10//33 5//33 25//33
f 12//34 4//34 25//34
f 5//35 12//35 25//35
f 13//36 10//36 25//36
f 4//37 16//37 25//37
f 16//38 13//38 25//38
f 18//39 12//39 26//39
f 6//40 18//40 26//40
f 12//41 20//41 26//41
f 20//42 6//42 26//42
f 16//43 4//43 27//43
f 14//44 21//44 27//44
f 22//45 16//45 27//45
f 21//46 22//46 27//46
f 4//47 23//47 27//47
