# Blender v2.79 (sub 0) OBJ File: ''
# www.blender.org
mtllib 102352_link_1_9.mtl
o Shape_IndexedFaceSet.009_Shape_IndexedFaceSet.7635
v -0.450644 0.501682 -0.619091
v -0.013517 0.543706 -0.812415
v -0.013517 0.585715 -0.812415
v 0.020115 0.484875 -0.669527
v -0.295806 0.633797 -0.632141
v 0.020115 0.644578 -0.711542
v -0.349747 0.619329 -0.719926
v -0.349747 0.510093 -0.711542
v 0.020115 0.644578 -0.795572
v -0.450644 0.644578 -0.627494
v 0.020115 0.501682 -0.795572
v -0.341304 0.484875 -0.661106
v -0.208221 0.493173 -0.629136
v -0.195521 0.540758 -0.773944
v -0.450644 0.526900 -0.652703
v 0.020115 0.627740 -0.694736
v -0.072385 0.484875 -0.745135
v -0.173381 0.617936 -0.776057
v -0.358190 0.543706 -0.719926
v -0.459087 0.619329 -0.644300
v -0.251814 0.604285 -0.632998
v -0.064036 0.526900 -0.803975
v -0.187425 0.632526 -0.762120
v -0.383379 0.484875 -0.627494
vn 0.0465 -0.8936 0.4465
vn 0.4478 0.0000 -0.8941
vn 1.0000 0.0000 0.0000
vn 0.0340 0.0587 0.9977
vn 0.0756 0.9029 0.4233
vn 0.0000 1.0000 0.0000
vn -0.2845 -0.8757 -0.3902
vn 0.0430 0.0481 0.9979
vn -0.4351 -0.7202 -0.5404
vn 0.1520 0.6982 0.6996
vn 0.1074 -0.9855 -0.1314
vn -0.1406 -0.8329 -0.5353
vn 0.0000 -1.0000 0.0000
vn -0.1329 -0.8952 -0.4254
vn -0.1412 0.3461 -0.9275
vn -0.3023 0.0607 -0.9513
vn -0.3144 0.0351 -0.9486
vn -0.3054 -0.3020 -0.9031
vn -0.5161 -0.3271 -0.7916
vn -0.5903 0.0194 -0.8070
vn -0.4578 0.5936 -0.6619
vn -0.9077 0.0246 0.4190
vn -0.9943 -0.0850 -0.0638
vn -0.5677 0.0634 -0.8208
vn 0.0579 0.0574 0.9967
vn 0.1769 0.1034 0.9788
vn 0.2042 0.1701 0.9640
vn 0.1925 0.2594 0.9464
vn -0.1648 0.0000 -0.9863
vn -0.0245 -0.3888 -0.9210
vn -0.1620 -0.7531 -0.6377
vn -0.2430 -0.4862 -0.8394
vn -0.2133 0.0431 -0.9760
vn -0.2189 0.0361 -0.9751
vn -0.1865 0.8769 -0.4431
vn -0.1010 0.9538 -0.2828
vn -0.1614 0.5960 -0.7866
vn -0.2535 0.5294 -0.8096
vn -0.2676 -0.9034 -0.3350
vn 0.0259 -0.3622 0.9317
usemtl Shape.7641
s off
f 4//1 13//1 24//1
f 2//2 3//2 9//2
f 6//3 4//3 9//3
f 1//4 5//4 10//4
f 5//5 6//5 10//5
f 6//6 9//6 10//6
f 2//2 9//2 11//2
f 9//3 4//3 11//3
f 1//7 8//7 12//7
f 5//8 1//8 13//8
f 8//9 1//9 15//9
f 6//10 5//10 16//10
f 4//3 6//3 16//3
f 11//11 4//11 17//11
f 8//12 11//12 17//12
f 4//13 12//13 17//13
f 12//14 8//14 17//14
f 9//15 3//15 18//15
f 14//16 7//16 18//16
f 7//17 14//17 19//17
f 14//18 8//18 19//18
f 8//19 15//19 19//19
f 19//20 15//20 20//20
f 10//21 7//21 20//21
f 1//22 10//22 20//22
f 15//23 1//23 20//23
f 7//24 19//24 20//24
f 5//25 13//25 21//25
f 13//26 4//26 21//26
f 4//27 16//27 21//27
f 16//28 5//28 21//28
f 3//29 2//29 22//29
f 2//30 11//30 22//30
f 11//31 8//31 22//31
f 8//32 14//32 22//32
f 18//33 3//33 22//33
f 14//34 18//34 22//34
f 7//35 10//35 23//35
f 10//36 9//36 23//36
f 9//37 18//37 23//37
f 18//38 7//38 23//38
f 1//39 12//39 24//39
f 12//13 4//13 24//13
f 13//40 1//40 24//40
