# Blender v2.79 (sub 0) OBJ File: ''
# www.blender.org
mtllib 102352_link_1_17.mtl
o Shape_IndexedFaceSet.017_Shape_IndexedFaceSet.7643
v -0.345806 -0.630929 -0.373486
v -0.069872 -0.593644 -0.530081
v -0.067914 -0.585729 -0.531909
v 0.050602 -0.642385 -0.417119
v -0.307691 -0.582859 -0.308015
v 0.045292 -0.582859 -0.467704
v 0.036236 -0.640523 -0.530597
v -0.250900 -0.646920 -0.287119
v -0.406554 -0.583130 -0.309099
v -0.223824 -0.636886 -0.467869
v -0.349725 -0.591268 -0.400497
v -0.388770 -0.640164 -0.314149
v 0.039652 -0.583590 -0.540465
v -0.226332 -0.586206 -0.477831
v -0.116850 -0.637496 -0.512145
v 0.045292 -0.633288 -0.417316
vn 0.3811 0.2418 0.8923
vn -0.0939 -0.2019 -0.9749
vn 0.0076 -0.9998 -0.0174
vn -0.0027 1.0000 -0.0059
vn -0.0113 0.3010 0.9535
vn -0.5422 -0.5089 -0.6686
vn -0.1972 -0.1473 0.9692
vn -0.3329 -0.8649 -0.3757
vn -0.0369 -0.9975 -0.0609
vn -0.6864 -0.4545 -0.5677
vn -0.8376 -0.2168 -0.5015
vn 0.9967 0.0231 -0.0775
vn 0.9886 -0.0812 -0.1265
vn -0.0749 -0.1659 -0.9833
vn -0.0040 0.9999 -0.0097
vn -0.0189 0.9991 -0.0384
vn -0.1541 0.9711 -0.1823
vn -0.5158 -0.1897 -0.8354
vn -0.0250 0.9976 -0.0643
vn -0.2081 -0.1709 -0.9630
vn -0.1206 -0.2624 -0.9574
vn -0.0267 -0.9980 -0.0577
vn -0.0305 -0.9977 -0.0600
vn -0.3224 -0.0560 -0.9449
vn -0.3759 -0.1966 -0.9056
vn 0.3048 0.6732 0.6737
vn 0.7642 0.4559 0.4563
vn 0.3186 0.5372 0.7810
usemtl Shape.7649
s off
f 8//1 4//1 16//1
f 2//2 3//2 7//2
f 7//3 4//3 8//3
f 5//4 6//4 9//4
f 8//5 5//5 9//5
f 10//6 1//6 11//6
f 8//7 9//7 12//7
f 1//8 10//8 12//8
f 10//9 8//9 12//9
f 11//10 1//10 12//10
f 9//11 11//11 12//11
f 6//12 4//12 13//12
f 4//13 7//13 13//13
f 7//14 3//14 13//14
f 9//15 6//15 13//15
f 9//16 13//16 14//16
f 11//17 9//17 14//17
f 10//18 11//18 14//18
f 13//19 3//19 14//19
f 3//20 2//20 15//20
f 2//21 7//21 15//21
f 7//22 8//22 15//22
f 8//23 10//23 15//23
f 14//24 3//24 15//24
f 10//25 14//25 15//25
f 6//26 5//26 16//26
f 4//27 6//27 16//27
f 5//28 8//28 16//28
