# Blender v2.79 (sub 0) OBJ File: ''
# www.blender.org
mtllib 102352_link_1_4.mtl
o Shape_IndexedFaceSet.004_Shape_IndexedFaceSet.7630
v 0.356795 -0.661195 -0.395544
v 0.526802 -0.650958 -0.036915
v 0.521971 -0.659665 -0.041912
v 0.049663 -0.650707 -0.035034
v 0.045337 -0.717367 -0.030559
v 0.045337 -0.717367 -0.459289
v 0.465647 -0.717367 -0.106252
v 0.055490 -0.651510 -0.524479
v 0.163039 -0.708946 -0.476077
v 0.465647 -0.717367 -0.030559
v 0.461259 -0.652444 -0.275005
v 0.440446 -0.717367 -0.190388
v 0.249553 -0.652042 -0.472927
v 0.353368 -0.690870 -0.368410
v 0.498425 -0.668246 -0.166484
v 0.045337 -0.708946 -0.492914
v 0.129437 -0.717367 -0.459289
vn 0.0000 -0.9700 -0.2429
vn 0.0000 -1.0000 0.0000
vn 0.0005 1.0000 -0.0016
vn 0.6979 -0.6062 0.3815
vn 0.0040 0.0916 0.9958
vn 0.0000 0.0670 0.9978
vn 0.7156 -0.6985 0.0000
vn 0.0041 1.0000 -0.0051
vn 0.2426 -0.3181 -0.9165
vn 0.4273 -0.6129 -0.6647
vn 0.0104 0.9999 -0.0091
vn 0.3239 0.8811 -0.3447
vn 0.4244 -0.6372 -0.6433
vn 0.6492 -0.5527 -0.5225
vn 0.2326 -0.9390 -0.2535
vn 0.5917 -0.7033 -0.3941
vn 0.8978 -0.4172 -0.1410
vn 0.7659 -0.6350 -0.1010
vn 0.8863 0.3922 -0.2464
vn 0.6804 -0.7039 -0.2038
vn 0.6857 -0.6491 -0.3294
vn -0.9979 0.0648 0.0012
vn -1.0000 0.0000 0.0000
vn -0.9858 0.1677 -0.0120
vn 0.1231 -0.4946 -0.8604
vn 0.0519 -0.9304 -0.3628
vn 0.1543 -0.9718 -0.1785
usemtl Shape.7636
s off
f 6//1 16//1 17//1
f 5//2 6//2 7//2
f 4//3 2//3 8//3
f 3//4 2//4 10//4
f 2//5 4//5 10//5
f 4//6 5//6 10//6
f 5//2 7//2 10//2
f 7//7 3//7 10//7
f 7//2 6//2 12//2
f 8//8 2//8 13//8
f 9//9 8//9 13//9
f 1//10 9//10 13//10
f 2//11 11//11 13//11
f 11//12 1//12 13//12
f 9//13 1//13 14//13
f 1//14 11//14 14//14
f 12//15 9//15 14//15
f 11//16 12//16 14//16
f 2//17 3//17 15//17
f 3//18 7//18 15//18
f 11//19 2//19 15//19
f 7//20 12//20 15//20
f 12//21 11//21 15//21
f 5//22 4//22 16//22
f 6//23 5//23 16//23
f 4//24 8//24 16//24
f 8//25 9//25 16//25
f 16//26 9//26 17//26
f 12//2 6//2 17//2
f 9//27 12//27 17//27
