# Blender v2.79 (sub 0) OBJ File: ''
# www.blender.org
mtllib 102352_link_0_11.mtl
o Shape_IndexedFaceSet.011_Shape_IndexedFaceSet.16462
v 0.808774 0.462020 0.139970
v 0.785983 0.462020 0.139970
v 0.822454 0.571425 0.028249
v 0.813334 0.379926 0.135410
v 0.833856 0.500753 0.030546
v 0.785983 0.557740 0.030546
v 0.765461 0.377661 0.139970
v 0.790543 0.480214 0.028249
v 0.820177 0.450618 0.137684
v 0.767737 0.443766 0.137684
v 0.836133 0.560024 0.032821
v 0.781423 0.493900 0.028249
v 0.804208 0.368524 0.137684
v 0.827020 0.484783 0.028260
v 0.797372 0.571425 0.030546
v 0.774580 0.379926 0.126289
v 0.815611 0.386779 0.139970
v 0.772297 0.455167 0.139970
v 0.829297 0.562308 0.039655
v 0.831573 0.505321 0.069302
v 0.765461 0.407297 0.128564
v 0.820177 0.455167 0.053347
vn 0.0823 -0.6552 -0.7510
vn 0.0000 0.0000 1.0000
vn 0.3343 0.0233 -0.9422
vn -0.0783 0.0414 -0.9961
vn 0.0000 0.0000 -1.0000
vn 0.9059 -0.3547 -0.2314
vn 0.2856 0.0149 -0.9582
vn 0.0003 -0.0001 -1.0000
vn 0.0000 0.7072 0.7070
vn -0.0909 0.0757 -0.9930
vn -0.6809 -0.4537 -0.5750
vn -0.7171 -0.4292 -0.5491
vn -0.2355 -0.9213 -0.3095
vn 0.0056 -0.6995 -0.7146
vn 0.9624 -0.2519 -0.1019
vn 0.2153 0.0196 0.9764
vn 0.7511 -0.5201 0.4066
vn 0.0254 -0.1398 0.9898
vn -0.9236 0.3305 0.1943
vn -0.5403 0.0477 0.8401
vn -0.3416 0.6822 0.6465
vn -0.6865 0.5714 0.4497
vn 0.6149 0.4913 0.6169
vn 0.5528 0.7804 0.2922
vn 0.7053 0.4342 0.5604
vn 0.0002 0.7072 0.7070
vn 0.0552 0.7958 0.6030
vn 0.9971 -0.0407 0.0635
vn 0.9761 0.0581 0.2092
vn 0.9933 -0.0924 0.0694
vn 0.9915 -0.0669 0.1117
vn -0.9933 0.0824 -0.0815
vn -0.9945 0.0376 0.0977
vn -0.9928 0.0743 -0.0938
vn -0.9689 -0.0889 -0.2309
vn 0.6258 -0.6002 -0.4981
vn 0.0150 -0.6988 -0.7151
vn 0.7359 -0.5285 -0.4233
usemtl Shape.16475
s off
f 8//1 14//1 22//1
f 1//2 2//2 7//2
f 5//3 3//3 11//3
f 6//4 3//4 12//4
f 3//5 8//5 12//5
f 5//6 4//6 14//6
f 3//7 5//7 14//7
f 8//8 3//8 14//8
f 2//9 1//9 15//9
f 3//10 6//10 15//10
f 12//11 8//11 16//11
f 7//12 12//12 16//12
f 13//13 7//13 16//13
f 8//14 13//14 16//14
f 4//15 5//15 17//15
f 1//2 7//2 17//2
f 9//16 1//16 17//16
f 13//17 4//17 17//17
f 7//18 13//18 17//18
f 7//2 2//2 18//2
f 6//19 10//19 18//19
f 10//20 7//20 18//20
f 2//21 15//21 18//21
f 15//22 6//22 18//22
f 1//23 9//23 19//23
f 11//24 3//24 19//24
f 9//25 11//25 19//25
f 15//26 1//26 19//26
f 3//27 15//27 19//27
f 5//28 11//28 20//28
f 11//29 9//29 20//29
f 17//30 5//30 20//30
f 9//31 17//31 20//31
f 10//32 6//32 21//32
f 7//33 10//33 21//33
f 6//34 12//34 21//34
f 12//35 7//35 21//35
f 4//36 13//36 22//36
f 13//37 8//37 22//37
f 14//38 4//38 22//38
