# Blender v2.79 (sub 0) OBJ File: ''
# www.blender.org
mtllib 102352_link_0_0.mtl
o Shape_IndexedFaceSet_Shape_IndexedFaceSet.16451
v -0.249216 -0.105773 0.618837
v -0.167134 -0.021415 0.607445
v -0.167134 -0.021415 0.602878
v 0.138390 -0.137696 0.648459
v 0.138390 -0.064750 0.568677
v 0.129252 -0.089811 0.682673
v -0.171703 -0.098936 0.673551
v 0.138390 -0.021428 0.609728
v -0.267491 -0.071587 0.570960
v -0.267491 -0.046501 0.639338
v 0.017531 -0.149096 0.648471
v 0.015227 -0.124009 0.691794
v -0.267491 -0.051063 0.568664
v -0.189939 -0.126297 0.637055
v -0.267491 -0.023702 0.616553
v 0.006089 -0.098923 0.691794
v 0.138390 -0.048789 0.573231
v 0.138390 -0.073875 0.573231
v -0.189939 -0.121735 0.618837
v 0.006089 -0.144533 0.668985
v 0.138390 -0.023702 0.616553
v -0.267491 -0.073875 0.641621
v 0.138390 -0.105773 0.682673
v -0.267491 -0.023702 0.596040
v 0.138390 -0.135421 0.634784
v 0.138390 -0.023702 0.598323
v -0.192243 -0.076137 0.668985
v -0.265187 -0.098936 0.598323
v -0.185409 -0.124022 0.646176
v 0.095044 -0.142246 0.657593
v -0.000744 -0.105760 0.694077
v -0.192243 -0.098936 0.668985
v -0.267491 -0.094374 0.621120
v 0.038032 -0.103486 0.694077
v 0.138390 -0.055626 0.568677
v -0.258354 -0.060188 0.648471
v -0.267491 -0.067038 0.568664
v 0.122418 -0.112610 0.682673
v -0.005274 -0.146821 0.662135
v -0.189939 -0.126297 0.627958
v -0.265187 -0.021415 0.611999
v -0.178536 -0.082974 0.673551
vn -0.3030 -0.0124 0.9529
vn 0.0000 1.0000 0.0000
vn 1.0000 -0.0000 0.0000
vn -1.0000 0.0000 0.0000
vn 0.0002 -0.6904 -0.7234
vn 0.0000 0.7072 0.7071
vn 0.0000 0.7072 0.7070
vn 0.7387 0.4229 0.5249
vn 0.0926 -0.9822 -0.1634
vn 0.0035 -0.7225 -0.6913
vn 0.0049 -0.7071 -0.7071
vn 0.0044 0.9807 -0.1955
vn 0.0040 0.7072 -0.7070
vn 0.0019 0.9395 -0.3425
vn 0.0040 0.7073 -0.7069
vn -0.0003 0.7069 0.7073
vn -0.0001 0.7070 0.7072
vn -0.0221 -0.7080 -0.7058
vn -0.4080 -0.8175 0.4065
vn -0.1579 -0.7017 0.6947
vn 0.0938 -0.9943 -0.0503
vn 0.0565 -0.9674 0.2467
vn 0.1018 -0.7594 0.6426
vn -0.1251 -0.2302 0.9651
vn -0.1607 -0.6721 0.7229
vn -0.1609 -0.6876 0.7080
vn -0.4273 -0.6692 0.6080
vn -0.5149 -0.8491 0.1179
vn -0.9859 -0.1523 -0.0692
vn -0.4234 -0.7733 0.4720
vn -0.4419 -0.6343 0.6343
vn 0.0203 0.5572 0.8302
vn 0.1050 -0.2244 0.9688
vn 0.1141 0.0653 0.9913
vn 0.0069 -0.1182 0.9930
vn -0.0196 0.3342 0.9423
vn 0.0000 0.0000 -1.0000
vn 0.0063 0.5543 -0.8323
vn -0.6571 0.0627 0.7512
vn -0.1542 0.4751 0.8663
vn -0.3908 -0.1899 0.9007
vn 0.0025 -0.4465 -0.8948
vn 0.0025 -0.4506 -0.8927
vn 0.2987 -0.6978 0.6511
vn 0.1088 -0.2542 0.9610
vn 0.2124 -0.7381 0.6404
vn 0.1343 -0.7095 0.6918
vn 0.0488 -0.9689 0.2427
vn -0.1462 -0.9404 0.3072
vn -0.1525 -0.8333 0.5314
vn -0.3272 -0.9450 0.0000
vn -0.0540 -0.8931 -0.4467
vn -0.3170 -0.9460 -0.0685
vn -0.1474 -0.8846 -0.4424
vn -0.1078 -0.9941 -0.0144
vn -0.1105 -0.9939 0.0000
vn 0.0000 1.0000 0.0008
vn 0.0018 0.9487 0.3161
vn -0.0000 0.8936 0.4488
vn -0.0130 0.9901 -0.1400
vn -0.7045 0.7097 0.0000
vn -0.0432 0.4935 0.8687
vn -0.1211 -0.0518 0.9913
vn -0.0597 0.3694 0.9274
vn -0.2161 -0.0925 0.9720
vn -0.2766 0.0848 0.9572
usemtl Shape.16464
s off
f 36//1 32//1 42//1
f 3//2 2//2 8//2
f 4//3 5//3 8//3
f 9//4 10//4 13//4
f 13//4 10//4 15//4
f 8//3 5//3 17//3
f 5//3 4//3 18//3
f 9//5 18//5 19//5
f 4//3 8//3 21//3
f 16//6 6//6 21//6
f 15//7 16//7 21//7
f 10//4 9//4 22//4
f 4//3 21//3 23//3
f 21//8 6//8 23//8
f 13//4 15//4 24//4
f 4//9 11//9 25//9
f 18//3 4//3 25//3
f 11//10 19//10 25//10
f 19//11 18//11 25//11
f 3//12 8//12 26//12
f 8//3 17//3 26//3
f 17//13 13//13 26//13
f 24//14 3//14 26//14
f 13//15 24//15 26//15
f 15//16 10//16 27//16
f 16//17 15//17 27//17
f 9//18 19//18 28//18
f 1//19 14//19 29//19
f 20//20 12//20 29//20
f 11//21 4//21 30//21
f 20//22 11//22 30//22
f 12//23 20//23 30//23
f 7//24 12//24 31//24
f 12//25 7//25 32//25
f 29//26 12//26 32//26
f 29//27 32//27 33//27
f 22//4 9//4 33//4
f 28//28 1//28 33//28
f 9//29 28//29 33//29
f 1//30 29//30 33//30
f 32//31 22//31 33//31
f 6//32 16//32 34//32
f 12//33 23//33 34//33
f 23//34 6//34 34//34
f 31//35 12//35 34//35
f 16//36 31//36 34//36
f 5//37 13//37 35//37
f 17//3 5//3 35//3
f 13//38 17//38 35//38
f 10//39 22//39 36//39
f 27//40 10//40 36//40
f 22//41 32//41 36//41
f 13//37 5//37 37//37
f 9//4 13//4 37//4
f 5//42 18//42 37//42
f 18//43 9//43 37//43
f 4//44 23//44 38//44
f 23//45 12//45 38//45
f 30//46 4//46 38//46
f 12//47 30//47 38//47
f 11//48 20//48 39//48
f 29//49 14//49 39//49
f 20//50 29//50 39//50
f 14//51 1//51 40//51
f 19//52 11//52 40//52
f 1//53 28//53 40//53
f 28//54 19//54 40//54
f 11//55 39//55 40//55
f 39//56 14//56 40//56
f 2//2 3//2 41//2
f 8//57 2//57 41//57
f 21//58 8//58 41//58
f 15//59 21//59 41//59
f 3//60 24//60 41//60
f 24//61 15//61 41//61
f 16//62 27//62 42//62
f 7//63 31//63 42//63
f 31//64 16//64 42//64
f 32//65 7//65 42//65
f 27//66 36//66 42//66
