# SSTK version 0.8.0
# 6
mtllib original-6.mtl
o #ID51
v 0.673855 0.644689 -0.188611
v 0.667947 0.647248 -0.210656
v 0.670327 0.626203 -0.201775
v 0.731713 0.644689 -0.204114
v 0.670327 0.626203 -0.201775
v 0.728186 0.626203 -0.217278
v 0.673855 0.644689 -0.188611
v 0.667947 0.647248 -0.210656
v 0.734262 0.647248 -0.228425
v 0.746401 0.616314 -0.208272
v 0.749928 0.634799 -0.195108
v 0.766589 0.629697 -0.212442
v 0.769093 0.507147 -0.06106
v 0.77262 0.525633 -0.047895
v 0.790689 0.513761 -0.0561
v 0.739439 0.391659 0.109056
v 0.742966 0.410145 0.12222
v 0.760264 0.395274 0.118434
v 0.656746 0.291833 0.271391
v 0.660273 0.310319 0.284555
v 0.675424 0.292854 0.284986
v 0.530518 0.233368 0.427378
v 0.526991 0.214883 0.414213
v 0.542299 0.213905 0.431518
v 0.363078 0.184855 0.540366
v 0.359551 0.166369 0.527202
v 0.37051 0.164131 0.547441
v 0.170055 0.168284 0.615355
v 0.166527 0.149799 0.602191
v 0.172472 0.147131 0.624378
v -0.038131 0.166369 0.63376
v -0.034603 0.184855 0.646925
v -0.037501 0.164131 0.656768
v -0.239632 0.214883 0.619629
v -0.236105 0.233368 0.632794
v -0.244237 0.213905 0.64227
v -0.423415 0.291833 0.560819
v -0.419887 0.310319 0.573983
v -0.432793 0.292854 0.581931
v -0.572669 0.410145 0.474743
v -0.576196 0.391659 0.461579
v -0.589543 0.395274 0.480114
v -0.683408 0.525633 0.342246
v -0.686935 0.507147 0.329082
v -0.703158 0.513761 0.344175
v -0.737362 0.634799 0.20341
v -0.740889 0.616314 0.190246
v -0.760458 0.629697 0.196729
v -0.72609 0.644689 0.186503
v -0.729618 0.626203 0.173339
v -0.740453 0.647248 0.166724
v -0.663429 0.644689 0.169713
v -0.666956 0.626203 0.156549
v -0.669336 0.647248 0.147668
v -0.663429 0.644689 0.169713
v -0.666956 0.626203 0.156549
v -0.669336 0.647248 0.147668
vt 0.005770052 0.7511722
vt -0.008 0.7527168
vt -0.002452601 0.7400193
vt 0.002377329 -0.3844743
vt -0.0334341 -0.3871956
vt 0.002377329 -0.3914025
vt -0.0334341 -0.3802674
vt -0.03182112 -0.3734335
vt 0.009224199 -0.3782552
vt 0.01015114 -0.4011029
vt 0.01015114 -0.3941747
vt 0.02302102 -0.3954713
vt -0.01444225 -0.4952144
vt -0.01444225 -0.4882862
vt -0.003097528 -0.4954191
vt -0.07367313 -0.5908739
vt -0.07367313 -0.5839457
vt -0.06386687 -0.5935633
vt -0.1601888 -0.6694122
vt -0.1601888 -0.662484
vt -0.1526297 -0.6741415
vt -0.2677366 -0.718225
vt -0.2677366 -0.7251532
vt -0.262971 -0.7313303
vt -0.3885443 -0.7471403
vt -0.3885443 -0.7540685
vt -0.3869166 -0.7609967
vt -0.5138811 -0.7471403
vt -0.5138811 -0.7540685
vt -0.5155088 -0.7609967
vt -0.6346888 -0.7251532
vt -0.6346888 -0.718225
vt -0.6394544 -0.7313303
vt -0.7422366 -0.6694122
vt -0.7422366 -0.662484
vt -0.7497957 -0.6741415
vt -0.8287523 -0.5908739
vt -0.8287523 -0.5839457
vt -0.8385585 -0.5935633
vt -0.8879831 -0.4882862
vt -0.8879831 -0.4952144
vt -0.8993279 -0.4954191
vt -0.9156487 -0.3824186
vt -0.9156487 -0.3893468
vt -0.927712 -0.3868017
vt -0.9104045 -0.2860341
vt -0.9104045 -0.2929623
vt -0.9221426 -0.28444
vt -0.8999278 -0.2784777
vt -0.8999278 -0.2854059
vt -0.9035487 -0.271029
vt -0.8611435 -0.2830338
vt -0.8611435 -0.289962
vt -0.8595306 -0.2761999
vt -0.005770052 0.7511722
vt 0.002452601 0.7400193
vt 0.008 0.7527168
vn -0.9659258358036644 0.0 0.25881900959356186
vn 0.08376210911113921 0.5944776867701677 0.7997375750892564
vn -0.028850272007496364 -0.9937679220324558 -0.10767069677673695
vn -0.20798301189238363 -0.9344418097147834 -0.2890701835560583
vn 0.23717209736778616 0.4003490036024196 0.8851384476705975
vn -0.2083218167637678 0.5934188797693867 -0.7774677188111989
vn 0.1984584375699379 0.543134896599584 -0.8158546026425654
vn -0.4112295392600425 -0.8240948806682149 -0.38956115527143326
vn -0.11948442428321285 0.7048245768870639 0.6992465860979805
vn 0.84788131963928 0.1905490907146646 -0.4947608632810071
vn -0.5745608779949077 -0.6640735784780407 -0.47842040074090697
vn -0.2990286520899632 0.7798806659476322 0.5498799979180342
vn 0.9880841017428504 -0.13098509001854913 -0.0808252069335852
vn -0.557596815307793 -0.5980076742051794 -0.575736583126623
vn -0.2820645918841109 0.8459465519955315 0.4525638045316055
vn 0.9497092243023607 -0.2804342896364999 0.13931618165554183
vn -0.5102915422704267 -0.5409010556649633 -0.6686019666945332
vn -0.23475935419594404 0.9030532060340584 0.35969841908064004
vn 0.8426989429177538 -0.40961661165159335 0.3493890711862184
vn -0.16053171343632822 0.947073477054158 0.27799532017957423
vn -0.43606393640451435 -0.49688078588150275 -0.7503050899395389
vn 0.6747869363309217 -0.5091958695723892 0.5342117154907287
vn -0.0647461931015817 0.9748260496265979 0.2133590950680442
vn -0.34027840725067965 -0.4691281806656418 -0.814941320380974
vn 0.4581080785938968 -0.5719756940993093 0.6804269201660247
vn 0.04567487777588137 0.9843052659516629 0.17046098955474995
vn -0.22985733889520363 -0.4596489735673879 -0.8578393933915965
vn 0.20832181676376915 -0.5934188797693867 0.7774677188111986
vn -0.11278085075322403 -0.4691281806656419 -0.8758990979609032
vn 0.16275138435329967 0.9748260496265977 0.1524013118725906
vn -0.05651983382372776 -0.5719756940993092 0.8183210334240174
vn 0.0024899654352986468 -0.49688078588150286 -0.8678152364955981
vn 0.2780221902393154 0.9470734770541579 0.16048517313160582
vn -0.31727683008014057 -0.5091958695723889 0.8000343614525043
vn 0.10762451692622756 -0.5409010556649634 -0.834172051400024
vn 0.3831567597771108 0.9030532060340583 0.19412831969785901
vn -0.5551042099415241 -0.40961661165159297 0.7239292420977789
vn 0.4705569858986115 0.8459465519955315 0.2508994902124863
vn 0.19502477271950683 -0.5980076742051796 -0.7774009001907682
vn -0.7528142674099645 -0.2804342896364995 0.5955059092738463
vn 0.5339063841086417 0.779880665947632 0.32669576043945464
vn 0.2583741675780175 -0.6640735784780409 -0.7016046407313278
vn -0.8961185678287814 -0.13098509001854874 0.4240453025153402
vn 0.45309979970417213 0.7048245768870638 0.5458231282421171
vn 0.16135469007199418 -0.824094880668215 -0.5429846145593916
vn -0.9816671935089769 0.190549090714665 -0.0045348887553040345
vn 0.32732861917896067 0.5944776867701675 0.7344741350100665
vn 0.03558350612810308 -0.9344418097147834 -0.35433362576615807
vn -0.5797973052000136 0.5431348965995841 -0.6073216355264821
vn 0.9659258358036644 0.0 -0.25881900959356186
usemtl material_0_0
f 1/1/1 2/2/1 3/3/1
f 4/4/2 5/5/3 6/6/4
f 5/5/3 4/4/2 7/7/5
f 8/8/6 4/4/2 9/9/7
f 4/4/2 8/8/6 7/7/5
f 8/8/6 6/6/4 5/5/3
f 6/6/4 8/8/6 9/9/7
f 10/10/8 4/4/2 6/6/4
f 4/4/2 10/10/8 11/11/9
f 9/9/7 11/11/9 12/12/10
f 11/11/9 9/9/7 4/4/2
f 6/6/4 12/12/10 10/10/8
f 12/12/10 6/6/4 9/9/7
f 13/13/11 11/11/9 10/10/8
f 11/11/9 13/13/11 14/14/12
f 11/11/9 15/15/13 12/12/10
f 15/15/13 11/11/9 14/14/12
f 15/15/13 10/10/8 12/12/10
f 10/10/8 15/15/13 13/13/11
f 16/16/14 14/14/12 13/13/11
f 14/14/12 16/16/14 17/17/15
f 15/15/13 17/17/15 18/18/16
f 17/17/15 15/15/13 14/14/12
f 18/18/16 13/13/11 15/15/13
f 13/13/11 18/18/16 16/16/14
f 19/19/17 17/17/15 16/16/14
f 17/17/15 19/19/17 20/20/18
f 18/18/16 20/20/18 21/21/19
f 20/20/18 18/18/16 17/17/15
f 21/21/19 16/16/14 18/18/16
f 16/16/14 21/21/19 19/19/17
f 22/22/20 19/19/17 23/23/21
f 19/19/17 22/22/20 20/20/18
f 21/21/19 22/22/20 24/24/22
f 22/22/20 21/21/19 20/20/18
f 24/24/22 19/19/17 21/21/19
f 19/19/17 24/24/22 23/23/21
f 25/25/23 23/23/21 26/26/24
f 23/23/21 25/25/23 22/22/20
f 24/24/22 25/25/23 27/27/25
f 25/25/23 24/24/22 22/22/20
f 27/27/25 23/23/21 24/24/22
f 23/23/21 27/27/25 26/26/24
f 28/28/26 26/26/24 29/29/27
f 26/26/24 28/28/26 25/25/23
f 27/27/25 28/28/26 30/30/28
f 28/28/26 27/27/25 25/25/23
f 30/30/28 26/26/24 27/27/25
f 26/26/24 30/30/28 29/29/27
f 31/31/29 28/28/26 29/29/27
f 28/28/26 31/31/29 32/32/30
f 28/28/26 33/33/31 30/30/28
f 33/33/31 28/28/26 32/32/30
f 33/33/31 29/29/27 30/30/28
f 29/29/27 33/33/31 31/31/29
f 34/34/32 32/32/30 31/31/29
f 32/32/30 34/34/32 35/35/33
f 32/32/30 36/36/34 33/33/31
f 36/36/34 32/32/30 35/35/33
f 33/33/31 34/34/32 31/31/29
f 34/34/32 33/33/31 36/36/34
f 37/37/35 35/35/33 34/34/32
f 35/35/33 37/37/35 38/38/36
f 35/35/33 39/39/37 36/36/34
f 39/39/37 35/35/33 38/38/36
f 36/36/34 37/37/35 34/34/32
f 37/37/35 36/36/34 39/39/37
f 40/40/38 37/37/35 41/41/39
f 37/37/35 40/40/38 38/38/36
f 38/38/36 42/42/40 39/39/37
f 42/42/40 38/38/36 40/40/38
f 39/39/37 41/41/39 37/37/35
f 41/41/39 39/39/37 42/42/40
f 43/43/41 41/41/39 44/44/42
f 41/41/39 43/43/41 40/40/38
f 40/40/38 45/45/43 42/42/40
f 45/45/43 40/40/38 43/43/41
f 42/42/40 44/44/42 41/41/39
f 44/44/42 42/42/40 45/45/43
f 46/46/44 44/44/42 47/47/45
f 44/44/42 46/46/44 43/43/41
f 46/46/44 45/45/43 43/43/41
f 45/45/43 46/46/44 48/48/46
f 45/45/43 47/47/45 44/44/42
f 47/47/45 45/45/43 48/48/46
f 49/49/47 47/47/45 50/50/48
f 47/47/45 49/49/47 46/46/44
f 51/51/49 46/46/44 49/49/47
f 46/46/44 51/51/49 48/48/46
f 48/48/46 50/50/48 47/47/45
f 50/50/48 48/48/46 51/51/49
f 52/52/5 50/50/48 53/53/3
f 50/50/48 52/52/5 49/49/47
f 51/51/49 52/52/5 54/54/6
f 52/52/5 51/51/49 49/49/47
f 51/51/49 53/53/3 50/50/48
f 53/53/3 51/51/49 54/54/6
f 55/55/50 56/56/50 57/57/50
