# SSTK version 0.8.0
# 3
mtllib original-3.mtl
o #ID27
v 0.608911 0.684799 -0.369404
v 0.596645 0.684799 -0.362322
v 0.643135 0.684799 -0.241676
v 0.351697 0.684799 -0.626618
v 0.668833 0.684799 -0.145771
v 0.703058 0.684799 -0.018043
v 0.688894 0.684799 -0.018043
v 0.344615 0.684799 -0.614352
v 0.000336 0.684799 -0.720765
v 0.000336 0.684799 -0.706601
v -0.351025 0.684799 -0.626618
v -0.343943 0.684799 -0.614352
v -0.595973 0.684799 -0.362322
v -0.608239 0.684799 -0.369404
v -0.688222 0.684799 -0.018043
v -0.702385 0.684799 -0.018043
v 0.608911 0.684799 0.333318
v 0.596645 0.684799 0.326236
v 0.351697 0.684799 0.590532
v 0.344615 0.684799 0.578266
v 0.000336 0.684799 0.684679
v 0.000336 0.684799 0.670515
v -0.343943 0.684799 0.578266
v -0.351025 0.684799 0.590532
v -0.595973 0.684799 0.326236
v -0.608239 0.684799 0.333318
v -0.668161 0.684799 0.109685
v -0.642463 0.684799 0.20559
v -0.642463 0.684799 0.20559
v -0.668161 0.684799 0.109685
v -0.608239 0.684799 0.333318
v -0.702385 0.684799 -0.018043
v -0.688222 0.684799 -0.018043
v -0.595973 0.684799 0.326236
v -0.351025 0.684799 0.590532
v -0.343943 0.684799 0.578266
v 0.000336 0.684799 0.684679
v 0.000336 0.684799 0.670515
v 0.344615 0.684799 0.578266
v 0.351697 0.684799 0.590532
v 0.596645 0.684799 0.326236
v 0.608911 0.684799 0.333318
v 0.688894 0.684799 -0.018043
v 0.703058 0.684799 -0.018043
v -0.608239 0.684799 -0.369404
v -0.595973 0.684799 -0.362322
v -0.351025 0.684799 -0.626618
v -0.343943 0.684799 -0.614352
v 0.000336 0.684799 -0.706601
v 0.000336 0.684799 -0.720765
v 0.344615 0.684799 -0.614352
v 0.351697 0.684799 -0.626618
v 0.596645 0.684799 -0.362322
v 0.668833 0.684799 -0.145771
v 0.643135 0.684799 -0.241676
v 0.608911 0.684799 -0.369404
v 0.351697 0.684799 0.590532
v 0.000336 -0.600348 0.505164
v 0.26194 -0.600348 0.435068
v 0.000336 0.684799 0.684679
v 0.000336 0.684799 0.684679
v 0.351697 0.684799 0.590532
v 0.000336 -0.600348 0.505164
v 0.26194 -0.600348 0.435068
v 0.608911 0.684799 0.333318
v 0.453447 -0.600348 0.243561
v 0.608911 0.684799 0.333318
v 0.453447 -0.600348 0.243561
v 0.703058 0.684799 -0.018043
v 0.523543 -0.600348 -0.018043
v 0.703058 0.684799 -0.018043
v 0.523543 -0.600348 -0.018043
v 0.643135 0.684799 -0.241676
v 0.453447 -0.600348 -0.279647
v 0.608911 0.684799 -0.369404
v 0.668833 0.684799 -0.145771
v 0.668833 0.684799 -0.145771
v 0.643135 0.684799 -0.241676
v 0.453447 -0.600348 -0.279647
v 0.608911 0.684799 -0.369404
v 0.26194 -0.600348 -0.471154
v 0.351697 0.684799 -0.626618
v 0.26194 -0.600348 -0.471154
v 0.351697 0.684799 -0.626618
v 0.000336 0.684799 -0.720765
v 0.000336 -0.600348 -0.54125
v 0.000336 0.684799 -0.720765
v 0.000336 -0.600348 -0.54125
v -0.351025 0.684799 -0.626618
v -0.261268 -0.600348 -0.471154
v -0.351025 0.684799 -0.626618
v -0.261268 -0.600348 -0.471154
v -0.608239 0.684799 -0.369404
v -0.452775 -0.600348 -0.279647
v -0.608239 0.684799 -0.369404
v -0.452775 -0.600348 -0.279647
v -0.702385 0.684799 -0.018043
v -0.522871 -0.600348 -0.018043
v -0.522871 -0.600348 -0.018043
v -0.702385 0.684799 -0.018043
v -0.668161 0.684799 0.109685
v -0.452775 -0.600348 0.243561
v -0.642463 0.684799 0.20559
v -0.608239 0.684799 0.333318
v -0.608239 0.684799 0.333318
v -0.452775 -0.600348 0.243561
v -0.642463 0.684799 0.20559
v -0.668161 0.684799 0.109685
v -0.261268 -0.600348 0.435068
v -0.351025 0.684799 0.590532
v -0.351025 0.684799 0.590532
v -0.261268 -0.600348 0.435068
v 0.523543 -0.600348 -0.018043
v 0.514964 -0.600348 -0.018043
v 0.453447 -0.600348 -0.279647
v 0.453447 -0.600348 0.243561
v 0.446017 -0.600348 0.239271
v 0.26194 -0.600348 0.435068
v 0.25765 -0.600348 0.427638
v 0.000336 -0.600348 0.505164
v 0.000336 -0.600348 0.496585
v -0.256978 -0.600348 0.427638
v -0.261268 -0.600348 0.435068
v -0.445345 -0.600348 0.239271
v -0.452775 -0.600348 0.243561
v -0.514292 -0.600348 -0.018043
v 0.446017 -0.600348 -0.275357
v 0.26194 -0.600348 -0.471154
v 0.25765 -0.600348 -0.463724
v 0.000336 -0.600348 -0.54125
v 0.000336 -0.600348 -0.532671
v -0.261268 -0.600348 -0.471154
v -0.256978 -0.600348 -0.463724
v -0.445345 -0.600348 -0.275357
v -0.452775 -0.600348 -0.279647
v -0.522871 -0.600348 -0.018043
v -0.452775 -0.600348 0.243561
v -0.514292 -0.600348 -0.018043
v -0.522871 -0.600348 -0.018043
v -0.452775 -0.600348 -0.279647
v -0.445345 -0.600348 -0.275357
v -0.261268 -0.600348 -0.471154
v -0.256978 -0.600348 -0.463724
v 0.000336 -0.600348 -0.532671
v 0.000336 -0.600348 -0.54125
v 0.25765 -0.600348 -0.463724
v 0.26194 -0.600348 -0.471154
v 0.446017 -0.600348 -0.275357
v 0.514964 -0.600348 -0.018043
v 0.453447 -0.600348 -0.279647
v -0.445345 -0.600348 0.239271
v -0.261268 -0.600348 0.435068
v -0.256978 -0.600348 0.427638
v 0.000336 -0.600348 0.505164
v 0.000336 -0.600348 0.496585
v 0.25765 -0.600348 0.427638
v 0.26194 -0.600348 0.435068
v 0.446017 -0.600348 0.239271
v 0.453447 -0.600348 0.243561
v 0.523543 -0.600348 -0.018043
vt 0.7171704 1.000778
vt 0.710307 1.000778
vt 0.6259242 1.000778
vt 0.6208998 1.000778
vt 0.4678811 1.000778
vt 0.4660421 1.000778
vt 0.2853888 1.000778
vt 0.2872278 1.000778
vt 0.1323701 1.000778
vt 0.1273457 1.000778
vt 0.04296293 1.000778
vt 0.03609951 1.000778
vt 0.3199444 0.0234
vt 0.3199444 -0.0234
vt 0.3199444 0.08572884
vt 0.3199444 -0.08572884
vt 0.313496 -0.08400099
vt 0.313496 0.08400099
vt 0.2342155 0.2342155
vt 0.229495 0.229495
vt 0.08572884 0.3199444
vt 0.08400099 0.313496
vt -0.08400099 0.313496
vt -0.08572884 0.3199444
vt -0.229495 0.229495
vt -0.2342155 0.2342155
vt -0.313496 0.08400099
vt -0.3199444 0.08572884
vt 0.2342155 -0.2342155
vt 0.229495 -0.229495
vt 0.08572884 -0.3199444
vt 0.08400099 -0.313496
vt -0.08400099 -0.313496
vt -0.08572884 -0.3199444
vt -0.229495 -0.229495
vt -0.2342155 -0.2342155
vt -0.313496 -0.08400099
vt -0.3199444 0.0234
vt -0.3199444 -0.0234
vt -0.3199444 -0.08572884
vt 0.3086981 0.006187432
vt 0.4445718 0.006187432
vt -0.08572884 0.6413567
vt 0.08572884 0.6413567
vt -0.06382892 0.03010783
vt 0.06382892 0.03010783
vt 0.5622418 0.006187432
vt 0.6301787 0.006187432
vt -0.0234 0.6413567
vt 0.0234 0.6413567
vt 0.1910281 0.006187432
vt 0.1230912 0.006187432
vt 0.6260212 0.006187432
vt 0.5591984 0.006187432
vt 0.4434578 0.006187432
vt 0.3098121 0.006187432
vt 0.1940715 0.006187432
vt 0.1272487 0.006187432
vt -0.2382128 0.06382892
vt -0.2343067 -0.06278229
vt -0.2382128 -0.06382892
vt -0.1743838 -0.1743838
vt -0.1715244 -0.1715244
vt -0.06382892 -0.2382128
vt -0.06278229 -0.2343067
vt 0.06278229 -0.2343067
vt 0.06382892 -0.2382128
vt 0.1715244 -0.1715244
vt 0.1743838 -0.1743838
vt 0.2343067 -0.06278229
vt 0.2343067 0.06278229
vt 0.2382128 -0.06382892
vt -0.2343067 0.06278229
vt -0.1743838 0.1743838
vt -0.1715244 0.1715244
vt -0.06382892 0.2382128
vt -0.06278229 0.2343067
vt 0.06278229 0.2343067
vt 0.06382892 0.2382128
vt 0.1715244 0.1715244
vt 0.1743838 0.1743838
vt 0.2382128 0.06382892
vn 0.0 1.0 0.0
vn 0.0 -1.0 0.0
vn 0.49519229745780935 -0.1383405921155304 0.857698355549071
vn -4.398519828219918e-09 -0.1383405921155303 0.9903847134185404
vn 4.398519828219918e-09 0.1383405921155303 -0.9903847134185404
vn -0.49519229745780935 0.1383405921155304 -0.857698355549071
vn 0.8576983017111469 -0.13834060389556638 0.4951923874168751
vn -0.8576983017111469 0.13834060389556638 -0.4951923874168751
vn 0.9903847134185404 -0.13834059211553051 4.3985197975021356e-09
vn -0.9903847134185404 0.13834059211553051 -4.3985197975021356e-09
vn 0.9572519823702872 -0.13371249048821363 -0.2564948579125806
vn 0.857698355549071 -0.1383405921155305 -0.4951922974578094
vn -0.9572519823702872 0.13371249048821363 0.2564948579125806
vn -0.857698355549071 0.1383405921155305 0.4951922974578094
vn 0.49519238741687505 -0.1383406038955663 -0.8576983017111469
vn -0.49519238741687505 0.1383406038955663 0.8576983017111469
vn 4.398519766784353e-09 -0.1383405921155303 -0.9903847134185404
vn -4.398519766784353e-09 0.1383405921155303 0.9903847134185404
vn -0.49519229745780946 -0.13834059211553018 -0.857698355549071
vn 0.49519229745780946 0.13834059211553018 0.857698355549071
vn -0.857698301711147 -0.13834060389556602 -0.4951923874168752
vn 0.857698301711147 0.13834060389556602 0.4951923874168752
vn -0.9903847134185404 -0.13834059211553007 -4.3985197975021356e-09
vn 0.9903847134185404 0.13834059211553007 4.3985197975021356e-09
vn -0.9572519823702871 -0.13371249048821318 0.2564948579125809
vn -0.857698355549071 -0.1383405921155301 0.4951922974578094
vn 0.857698355549071 0.1383405921155301 -0.4951922974578094
vn 0.9572519823702871 0.13371249048821318 -0.2564948579125809
vn -0.49519238741687516 -0.13834060389556607 0.8576983017111469
vn 0.49519238741687516 0.13834060389556607 -0.8576983017111469
usemtl material_0_0
f 1/1/1 2/2/1 3/1/1
f 2/2/1 1/1/1 4/3/1
f 3/1/1 2/2/1 5/1/1
f 5/1/1 2/2/1 6/1/1
f 6/1/1 2/2/1 7/2/1
f 2/2/1 4/3/1 8/4/1
f 8/4/1 4/3/1 9/5/1
f 8/4/1 9/5/1 10/6/1
f 10/6/1 9/5/1 11/7/1
f 10/6/1 11/7/1 12/8/1
f 12/8/1 11/7/1 13/9/1
f 13/9/1 11/7/1 14/10/1
f 13/9/1 14/10/1 15/11/1
f 15/11/1 14/10/1 16/12/1
f 7/2/1 17/3/1 6/1/1
f 17/3/1 7/2/1 18/4/1
f 17/3/1 18/4/1 19/5/1
f 19/5/1 18/4/1 20/6/1
f 19/5/1 20/6/1 21/7/1
f 21/7/1 20/6/1 22/8/1
f 21/7/1 22/8/1 23/9/1
f 21/7/1 23/9/1 24/10/1
f 24/10/1 23/9/1 25/11/1
f 24/10/1 25/11/1 26/12/1
f 26/12/1 25/11/1 15/11/1
f 26/12/1 15/11/1 16/12/1
f 26/12/1 16/12/1 27/12/1
f 26/12/1 27/12/1 28/12/1
f 29/13/2 30/14/2 31/15/2
f 30/14/2 32/16/2 31/15/2
f 32/16/2 33/17/2 31/15/2
f 33/17/2 34/18/2 31/15/2
f 31/15/2 34/18/2 35/19/2
f 34/18/2 36/20/2 35/19/2
f 35/19/2 36/20/2 37/21/2
f 36/20/2 38/22/2 37/21/2
f 38/22/2 39/23/2 37/21/2
f 37/21/2 39/23/2 40/24/2
f 39/23/2 41/25/2 40/24/2
f 40/24/2 41/25/2 42/26/2
f 41/25/2 43/27/2 42/26/2
f 44/28/2 42/26/2 43/27/2
f 32/16/2 45/29/2 33/17/2
f 33/17/2 45/29/2 46/30/2
f 45/29/2 47/31/2 46/30/2
f 46/30/2 47/31/2 48/32/2
f 48/32/2 47/31/2 49/33/2
f 47/31/2 50/34/2 49/33/2
f 49/33/2 50/34/2 51/35/2
f 50/34/2 52/36/2 51/35/2
f 51/35/2 52/36/2 53/37/2
f 43/27/2 53/37/2 44/28/2
f 44/28/2 53/37/2 54/38/2
f 54/38/2 53/37/2 55/39/2
f 52/36/2 56/40/2 53/37/2
f 55/39/2 53/37/2 56/40/2
f 57/5/3 58/41/4 59/42/3
f 58/41/4 57/5/3 60/7/4
f 61/43/5 62/44/6 63/45/5
f 64/46/6 63/45/5 62/44/6
f 65/3/7 59/42/3 66/47/7
f 59/42/3 65/3/7 57/5/3
f 62/43/6 67/44/8 64/45/6
f 68/46/8 64/45/6 67/44/8
f 69/1/9 66/47/7 70/48/9
f 66/47/7 69/1/9 65/3/7
f 67/43/8 71/44/10 68/45/8
f 72/46/10 68/45/8 71/44/10
f 73/1/11 74/48/12 75/1/12
f 74/48/12 73/1/11 70/48/9
f 70/48/9 73/1/11 76/1/11
f 70/48/9 76/1/11 69/1/9
f 71/43/10 77/49/13 72/45/10
f 77/49/13 78/50/13 72/45/10
f 72/45/10 78/50/13 79/46/14
f 80/44/14 79/46/14 78/50/13
f 75/1/12 81/47/15 82/3/15
f 81/47/15 75/1/12 74/48/12
f 79/45/14 80/43/14 83/46/16
f 84/44/16 83/46/16 80/43/14
f 85/5/17 81/47/15 86/42/17
f 81/47/15 85/5/17 82/3/15
f 84/43/16 87/44/18 83/45/16
f 88/46/18 83/45/16 87/44/18
f 89/7/19 86/42/17 90/41/19
f 86/42/17 89/7/19 85/5/17
f 87/43/18 91/44/20 88/45/18
f 92/46/20 88/45/18 91/44/20
f 93/10/21 90/41/19 94/51/21
f 90/41/19 93/10/21 89/7/19
f 91/43/20 95/44/22 92/45/20
f 96/46/22 92/45/20 95/44/22
f 94/51/21 97/12/23 93/10/21
f 97/12/23 94/51/21 98/52/23
f 99/46/24 96/45/22 100/44/24
f 95/43/22 100/44/24 96/45/22
f 98/52/23 101/12/25 97/12/23
f 101/12/25 98/52/23 102/52/26
f 101/12/25 102/52/26 103/12/25
f 103/12/25 102/52/26 104/12/26
f 105/44/27 106/46/27 107/50/28
f 107/50/28 106/46/27 108/49/28
f 106/46/27 99/45/24 108/49/28
f 100/43/24 108/49/28 99/45/24
f 109/51/29 104/12/26 102/52/26
f 104/12/26 109/51/29 110/10/29
f 111/44/30 112/46/30 105/43/27
f 106/45/27 105/43/27 112/46/30
f 60/7/4 109/51/29 58/41/4
f 109/51/29 60/7/4 110/10/29
f 111/43/30 61/44/5 112/45/30
f 63/46/5 112/45/30 61/44/5
f 113/48/2 114/53/2 115/48/2
f 114/53/2 113/48/2 116/47/2
f 114/53/2 116/47/2 117/54/2
f 117/54/2 116/47/2 118/42/2
f 117/54/2 118/42/2 119/55/2
f 119/55/2 118/42/2 120/41/2
f 119/55/2 120/41/2 121/56/2
f 121/56/2 120/41/2 122/57/2
f 122/57/2 120/41/2 123/51/2
f 122/57/2 123/51/2 124/58/2
f 124/58/2 123/51/2 125/52/2
f 124/58/2 125/52/2 126/58/2
f 115/48/2 127/53/2 128/47/2
f 127/53/2 115/48/2 114/53/2
f 128/47/2 127/53/2 129/54/2
f 128/47/2 129/54/2 130/42/2
f 130/42/2 129/54/2 131/55/2
f 130/42/2 131/55/2 132/41/2
f 132/41/2 131/55/2 133/56/2
f 132/41/2 133/56/2 134/57/2
f 132/41/2 134/57/2 135/51/2
f 135/51/2 134/57/2 126/58/2
f 135/51/2 126/58/2 136/52/2
f 136/52/2 126/58/2 125/52/2
f 137/59/1 138/60/1 139/61/1
f 139/61/1 138/60/1 140/62/1
f 138/60/1 141/63/1 140/62/1
f 140/62/1 141/63/1 142/64/1
f 141/63/1 143/65/1 142/64/1
f 143/65/1 144/66/1 142/64/1
f 142/64/1 144/66/1 145/67/1
f 144/66/1 146/68/1 145/67/1
f 145/67/1 146/68/1 147/69/1
f 146/68/1 148/70/1 147/69/1
f 149/71/1 150/72/1 148/70/1
f 147/69/1 148/70/1 150/72/1
f 138/60/1 137/59/1 151/73/1
f 137/59/1 152/74/1 151/73/1
f 151/73/1 152/74/1 153/75/1
f 152/74/1 154/76/1 153/75/1
f 153/75/1 154/76/1 155/77/1
f 155/77/1 154/76/1 156/78/1
f 154/76/1 157/79/1 156/78/1
f 156/78/1 157/79/1 158/80/1
f 157/79/1 159/81/1 158/80/1
f 158/80/1 159/81/1 149/71/1
f 159/81/1 160/82/1 149/71/1
f 150/72/1 149/71/1 160/82/1
