# SSTK version 0.8.0
# 2
mtllib original-2.mtl
o #ID22
v -0.22027242316327122 -0.41416616000000006 0.4493590976434542
v -0.32935452080592964 -0.41872646000000013 0.3791775603920454
v -0.22003011254342664 -0.41872646000000013 0.44882460859157786
v -0.32972802585104777 -0.41416616000000006 0.3796284697145114
v -0.32972802585104777 -0.41416616000000006 0.3796284697145114
v -0.22027242316327122 -0.41416616000000006 0.4493590976434542
v -0.32935452080592964 -0.41872646000000013 0.3791775603920454
v -0.22003011254342664 -0.41872646000000013 0.44882460859157786
v -0.0964057380378715 -0.41872646000000013 0.48780295344301905
v -0.22027242316327122 -0.41416616000000006 0.4493590976434542
v -0.22003011254342664 -0.41872646000000013 0.44882460859157786
v -0.09649969360123037 -0.41416616000000006 0.4883842183396694
v -0.09649969360123037 -0.41416616000000006 0.4883842183396694
v -0.0964057380378715 -0.41872646000000013 0.48780295344301905
v -0.22027242316327122 -0.41416616000000006 0.4493590976434542
v -0.22003011254342664 -0.41872646000000013 0.44882460859157786
v -0.2953203692623561 -0.41416616000000006 -0.4084386589091066
v -0.053500345452797284 -0.41416616000000006 -0.49645356398861756
v -0.18020381219616305 -0.41416616000000006 -0.46836425278547617
v -0.3910037876212555 -0.41416616000000006 -0.320760312861956
v 0.07615587635251515 -0.41416616000000006 -0.49079260961020116
v -0.4607344155501984 -0.41416616000000006 -0.21130471017417946
v 0.19992939226743536 -0.41416616000000006 -0.4517667025611066
v 0.30938420860233257 -0.41416616000000006 -0.3820360746321637
v -0.4997603225992928 -0.41416616000000006 -0.0875319806121386
v -0.5054212769777094 -0.41416616000000006 0.04212502754605317
v 0.3970625546494831 -0.41416616000000006 -0.28635265627326434
v -0.47733196577456793 -0.41416616000000006 0.16882849428941896
v 0.45698814852585273 -0.41416616000000006 -0.17123609920707128
v 0.48507745972899413 -0.41416616000000006 -0.04453263246370551
v -0.41740637189819846 -0.41416616000000006 0.2839442650027326
v 0.4794165053505776 -0.41416616000000006 0.08512358934160692
v -0.32972802585104777 -0.41416616000000006 0.3796284697145114
v -0.22027242316327122 -0.41416616000000006 0.4493590976434542
v 0.44039138465436245 -0.41416616000000006 0.20889710525652713
v -0.09649969360123037 -0.41416616000000006 0.4883842183396694
v 0.37066075672541965 -0.41416616000000006 0.31835192159142434
v 0.033157314556961394 -0.41416616000000006 0.49404517271808596
v 0.27497655201364085 -0.41416616000000006 0.4060302676385749
v 0.1598607813003272 -0.41416616000000006 0.4659558615149445
v 0.1598607813003272 -0.41416616000000006 0.4659558615149445
v 0.033157314556961394 -0.41416616000000006 0.49404517271808596
v 0.27497655201364085 -0.41416616000000006 0.4060302676385749
v 0.37066075672541965 -0.41416616000000006 0.31835192159142434
v -0.09649969360123037 -0.41416616000000006 0.4883842183396694
v 0.44039138465436245 -0.41416616000000006 0.20889710525652713
v -0.22027242316327122 -0.41416616000000006 0.4493590976434542
v 0.4794165053505776 -0.41416616000000006 0.08512358934160692
v -0.32972802585104777 -0.41416616000000006 0.3796284697145114
v -0.41740637189819846 -0.41416616000000006 0.2839442650027326
v 0.48507745972899413 -0.41416616000000006 -0.04453263246370551
v -0.47733196577456793 -0.41416616000000006 0.16882849428941896
v 0.45698814852585273 -0.41416616000000006 -0.17123609920707128
v 0.3970625546494831 -0.41416616000000006 -0.28635265627326434
v -0.5054212769777094 -0.41416616000000006 0.04212502754605317
v 0.30938420860233257 -0.41416616000000006 -0.3820360746321637
v -0.4997603225992928 -0.41416616000000006 -0.0875319806121386
v -0.4607344155501984 -0.41416616000000006 -0.21130471017417946
v 0.19992939226743536 -0.41416616000000006 -0.4517667025611066
v 0.07615587635251515 -0.41416616000000006 -0.49079260961020116
v -0.3910037876212555 -0.41416616000000006 -0.320760312861956
v -0.053500345452797284 -0.41416616000000006 -0.49645356398861756
v -0.2953203692623561 -0.41416616000000006 -0.4084386589091066
v -0.18020381219616305 -0.41416616000000006 -0.46836425278547617
v -0.32972802585104777 -0.41416616000000006 0.3796284697145114
v -0.41692777483461696 -0.41872646000000013 0.28360804358967157
v -0.32935452080592964 -0.41872646000000013 0.3791775603920454
v -0.41740637189819846 -0.41416616000000006 0.2839442650027326
v -0.41740637189819846 -0.41416616000000006 0.2839442650027326
v -0.32972802585104777 -0.41416616000000006 0.3796284697145114
v -0.41692777483461696 -0.41872646000000013 0.28360804358967157
v -0.32935452080592964 -0.41872646000000013 0.3791775603920454
v 0.03309586211698108 -0.41872646000000013 0.49345712255290713
v -0.09649969360123037 -0.41416616000000006 0.4883842183396694
v -0.0964057380378715 -0.41872646000000013 0.48780295344301905
v 0.033157314556961394 -0.41416616000000006 0.49404517271808596
v 0.033157314556961394 -0.41416616000000006 0.49404517271808596
v 0.03309586211698108 -0.41872646000000013 0.49345712255290713
v -0.09649969360123037 -0.41416616000000006 0.4883842183396694
v -0.0964057380378715 -0.41872646000000013 0.48780295344301905
v 0.30938420860233257 -0.41416616000000006 -0.3820360746321637
v 0.3965649222638847 -0.41872646000000013 -0.2860053148993617
v 0.3089916682351975 -0.41872646000000013 -0.3815740462913855
v 0.3970625546494831 -0.41416616000000006 -0.28635265627326434
v 0.3970625546494831 -0.41416616000000006 -0.28635265627326434
v 0.30938420860233257 -0.41416616000000006 -0.3820360746321637
v 0.3965649222638847 -0.41872646000000013 -0.2860053148993617
v 0.3089916682351975 -0.41872646000000013 -0.3815740462913855
v 0.19992939226743536 -0.41416616000000006 -0.4517667025611066
v 0.3089916682351975 -0.41872646000000013 -0.3815740462913855
v 0.19966804538304453 -0.41872646000000013 -0.451221094490918
v 0.30938420860233257 -0.41416616000000006 -0.3820360746321637
v 0.30938420860233257 -0.41416616000000006 -0.3820360746321637
v 0.19992939226743536 -0.41416616000000006 -0.4517667025611066
v 0.3089916682351975 -0.41872646000000013 -0.3815740462913855
v 0.19966804538304453 -0.41872646000000013 -0.451221094490918
v 0.19992939226743536 -0.41416616000000006 -0.4517667025611066
v 0.07604288546713935 -0.41872646000000013 -0.49020022475270925
v 0.07615587635251515 -0.41416616000000006 -0.49079260961020116
v 0.19966804538304453 -0.41872646000000013 -0.451221094490918
v 0.19966804538304453 -0.41872646000000013 -0.451221094490918
v 0.19992939226743536 -0.41416616000000006 -0.4517667025611066
v 0.07604288546713935 -0.41872646000000013 -0.49020022475270925
v 0.07615587635251515 -0.41416616000000006 -0.49079260961020116
v 0.07615587635251515 -0.41416616000000006 -0.49079260961020116
v -0.05345792927736321 -0.41872646000000013 -0.4958543938625973
v -0.053500345452797284 -0.41416616000000006 -0.49645356398861756
v 0.07604288546713935 -0.41872646000000013 -0.49020022475270925
v 0.07604288546713935 -0.41872646000000013 -0.49020022475270925
v 0.07615587635251515 -0.41416616000000006 -0.49079260961020116
v -0.05345792927736321 -0.41872646000000013 -0.4958543938625973
v -0.053500345452797284 -0.41416616000000006 -0.49645356398861756
v -0.053500345452797284 -0.41416616000000006 -0.49645356398861756
v -0.18000952815749158 -0.41872646000000013 -0.467798750749066
v -0.18020381219616305 -0.41416616000000006 -0.46836425278547617
v -0.05345792927736321 -0.41872646000000013 -0.4958543938625973
v -0.05345792927736321 -0.41872646000000013 -0.4958543938625973
v -0.053500345452797284 -0.41416616000000006 -0.49645356398861756
v -0.18000952815749158 -0.41872646000000013 -0.467798750749066
v -0.18020381219616305 -0.41416616000000006 -0.46836425278547617
v -0.18020381219616305 -0.41416616000000006 -0.46836425278547617
v -0.2949881055298827 -0.41872646000000013 -0.40794498420409586
v -0.2953203692623561 -0.41416616000000006 -0.4084386589091066
v -0.18000952815749158 -0.41872646000000013 -0.467798750749066
v -0.18000952815749158 -0.41872646000000013 -0.467798750749066
v -0.18020381219616305 -0.41416616000000006 -0.46836425278547617
v -0.2949881055298827 -0.41872646000000013 -0.40794498420409586
v -0.2953203692623561 -0.41416616000000006 -0.4084386589091066
v -0.2953203692623561 -0.41416616000000006 -0.4084386589091066
v -0.3905568369219065 -0.41872646000000013 -0.32037173017540865
v -0.3910037876212555 -0.41416616000000006 -0.320760312861956
v -0.2949881055298827 -0.41872646000000013 -0.40794498420409586
v -0.2949881055298827 -0.41872646000000013 -0.40794498420409586
v -0.2953203692623561 -0.41416616000000006 -0.4084386589091066
v -0.3905568369219065 -0.41872646000000013 -0.32037173017540865
v -0.3910037876212555 -0.41416616000000006 -0.320760312861956
v -0.3910037876212555 -0.41416616000000006 -0.320760312861956
v -0.460203885121439 -0.41872646000000013 -0.21104732191290562
v -0.4607344155501984 -0.41416616000000006 -0.21130471017417946
v -0.3905568369219065 -0.41872646000000013 -0.32037173017540865
v -0.3905568369219065 -0.41872646000000013 -0.32037173017540865
v -0.3910037876212555 -0.41416616000000006 -0.320760312861956
v -0.460203885121439 -0.41872646000000013 -0.21104732191290562
v -0.4607344155501984 -0.41416616000000006 -0.21130471017417946
v -0.4997603225992928 -0.41416616000000006 -0.0875319806121386
v -0.460203885121439 -0.41872646000000013 -0.21104732191290562
v -0.4991830153832301 -0.41872646000000013 -0.0874229474073505
v -0.4607344155501984 -0.41416616000000006 -0.21130471017417946
v -0.4607344155501984 -0.41416616000000006 -0.21130471017417946
v -0.4997603225992928 -0.41416616000000006 -0.0875319806121386
v -0.460203885121439 -0.41872646000000013 -0.21104732191290562
v -0.4991830153832301 -0.41872646000000013 -0.0874229474073505
v -0.5054212769777094 -0.41416616000000006 0.04212502754605317
v -0.4991830153832301 -0.41872646000000013 -0.0874229474073505
v -0.5048371844931183 -0.41872646000000013 0.042078652747502096
v -0.4997603225992928 -0.41416616000000006 -0.0875319806121386
v -0.4997603225992928 -0.41416616000000006 -0.0875319806121386
v -0.5054212769777094 -0.41416616000000006 0.04212502754605317
v -0.4991830153832301 -0.41872646000000013 -0.0874229474073505
v -0.5048371844931183 -0.41872646000000013 0.042078652747502096
v -0.47733196577456793 -0.41416616000000006 0.16882849428941896
v -0.5048371844931183 -0.41872646000000013 0.042078652747502096
v -0.476781541379587 -0.41872646000000013 0.16863025162763048
v -0.5054212769777094 -0.41416616000000006 0.04212502754605317
v -0.5054212769777094 -0.41416616000000006 0.04212502754605317
v -0.47733196577456793 -0.41416616000000006 0.16882849428941896
v -0.5048371844931183 -0.41872646000000013 0.042078652747502096
v -0.476781541379587 -0.41872646000000013 0.16863025162763048
v -0.41740637189819846 -0.41416616000000006 0.2839442650027326
v -0.476781541379587 -0.41872646000000013 0.16863025162763048
v -0.41692777483461696 -0.41872646000000013 0.28360804358967157
v -0.47733196577456793 -0.41416616000000006 0.16882849428941896
v -0.47733196577456793 -0.41416616000000006 0.16882849428941896
v -0.41740637189819846 -0.41416616000000006 0.2839442650027326
v -0.476781541379587 -0.41872646000000013 0.16863025162763048
v -0.41692777483461696 -0.41872646000000013 0.28360804358967157
v 0.15964746099710947 -0.41872646000000013 0.4654014794393759
v 0.033157314556961394 -0.41416616000000006 0.49404517271808596
v 0.03309586211698108 -0.41872646000000013 0.49345712255290713
v 0.1598607813003272 -0.41416616000000006 0.4659558615149445
v 0.1598607813003272 -0.41416616000000006 0.4659558615149445
v 0.15964746099710947 -0.41872646000000013 0.4654014794393759
v 0.033157314556961394 -0.41416616000000006 0.49404517271808596
v 0.03309586211698108 -0.41872646000000013 0.49345712255290713
v 0.2746252529591506 -0.41872646000000013 0.4055477128944058
v 0.1598607813003272 -0.41416616000000006 0.4659558615149445
v 0.15964746099710947 -0.41872646000000013 0.4654014794393759
v 0.27497655201364085 -0.41416616000000006 0.4060302676385749
v 0.27497655201364085 -0.41416616000000006 0.4060302676385749
v 0.2746252529591506 -0.41872646000000013 0.4055477128944058
v 0.1598607813003272 -0.41416616000000006 0.4659558615149445
v 0.15964746099710947 -0.41872646000000013 0.4654014794393759
v 0.37019476976152443 -0.41872646000000013 0.31797445886571857
v 0.27497655201364085 -0.41416616000000006 0.4060302676385749
v 0.2746252529591506 -0.41872646000000013 0.4055477128944058
v 0.37066075672541965 -0.41416616000000006 0.31835192159142434
v 0.37066075672541965 -0.41416616000000006 0.31835192159142434
v 0.37019476976152443 -0.41872646000000013 0.31797445886571857
v 0.27497655201364085 -0.41416616000000006 0.4060302676385749
v 0.2746252529591506 -0.41872646000000013 0.4055477128944058
v 0.43984181796105687 -0.41872646000000013 0.20865083601356552
v 0.37066075672541965 -0.41416616000000006 0.31835192159142434
v 0.37019476976152443 -0.41872646000000013 0.31797445886571857
v 0.44039138465436245 -0.41416616000000006 0.20889710525652713
v 0.44039138465436245 -0.41416616000000006 0.20889710525652713
v 0.43984181796105687 -0.41872646000000013 0.20865083601356552
v 0.37066075672541965 -0.41416616000000006 0.31835192159142434
v 0.37019476976152443 -0.41872646000000013 0.31797445886571857
v 0.4794165053505776 -0.41416616000000006 0.08512358934160692
v 0.43984181796105687 -0.41872646000000013 0.20865083601356552
v 0.478820162812498 -0.41872646000000013 0.08502567609766035
v 0.44039138465436245 -0.41416616000000006 0.20889710525652713
v 0.44039138465436245 -0.41416616000000006 0.20889710525652713
v 0.4794165053505776 -0.41416616000000006 0.08512358934160692
v 0.43984181796105687 -0.41872646000000013 0.20865083601356552
v 0.478820162812498 -0.41872646000000013 0.08502567609766035
v 0.48507745972899413 -0.41416616000000006 -0.04453263246370551
v 0.478820162812498 -0.41872646000000013 0.08502567609766035
v 0.48447433192238604 -0.41872646000000013 -0.0444751386468422
v 0.4794165053505776 -0.41416616000000006 0.08512358934160692
v 0.4794165053505776 -0.41416616000000006 0.08512358934160692
v 0.48507745972899413 -0.41416616000000006 -0.04453263246370551
v 0.478820162812498 -0.41872646000000013 0.08502567609766035
v 0.48447433192238604 -0.41872646000000013 -0.0444751386468422
v 0.45698814852585273 -0.41416616000000006 -0.17123609920707128
v 0.48447433192238604 -0.41872646000000013 -0.0444751386468422
v 0.4564186888088549 -0.41872646000000013 -0.1710267375269706
v 0.48507745972899413 -0.41416616000000006 -0.04453263246370551
v 0.48507745972899413 -0.41416616000000006 -0.04453263246370551
v 0.45698814852585273 -0.41416616000000006 -0.17123609920707128
v 0.48447433192238604 -0.41872646000000013 -0.0444751386468422
v 0.4564186888088549 -0.41872646000000013 -0.1710267375269706
v 0.3970625546494831 -0.41416616000000006 -0.28635265627326434
v 0.4564186888088549 -0.41872646000000013 -0.1710267375269706
v 0.3965649222638847 -0.41872646000000013 -0.2860053148993617
v 0.45698814852585273 -0.41416616000000006 -0.17123609920707128
v 0.45698814852585273 -0.41416616000000006 -0.17123609920707128
v 0.3970625546494831 -0.41416616000000006 -0.28635265627326434
v 0.4564186888088549 -0.41872646000000013 -0.1710267375269706
v 0.3965649222638847 -0.41872646000000013 -0.2860053148993617
vn -0.5372996070702792 0 0.8433914466261343
vn -0.30070580094780397 0 0.9537169502930833
vn 0 1 0
vn -0.7372773486058706 0 0.6755901947428615
vn -0.04361936992203958 0 0.9990482223434484
vn 0.7372773486058706 0 -0.6755901947428615
vn 0.5372996070702792 0 -0.8433914466261343
vn 0.30070580094780397 0 -0.9537169502930833
vn 0.04361936992203958 0 -0.9990482223434484
vn -0.216439611329772 0 -0.9762960076981863
vn -0.461748615604826 0 -0.887010831944586
vn -0.6755901947428616 0 -0.7372773486058706
vn -0.8433914466261343 0 -0.5372996070702792
vn -0.9537169502930833 0 -0.300705800947804
vn -0.9990482223434484 0 -0.04361936992203969
vn -0.9762960076981863 0 0.21643961132977188
vn -0.887010831944586 0 0.4617486156048259
vn 0.216439611329772 0 0.9762960076981863
vn 0.461748615604826 0 0.887010831944586
vn 0.6755901947428616 0 0.7372773486058706
vn 0.8433914466261343 0 0.5372996070702792
vn 0.9537169502930833 0 0.300705800947804
vn 0.9990482223434484 0 0.04361936992203969
vn 0.9762960076981863 0 -0.21643961132977188
vn 0.887010831944586 0 -0.4617486156048259
vn 0 -1 0
usemtl material_0_0
f 1//1 2//1 3//1
f 2//1 1//1 4//1
f 9//2 10//2 11//2
f 10//2 9//2 12//2
f 17//3 18//3 19//3
f 18//3 17//3 20//3
f 18//3 20//3 21//3
f 21//3 20//3 22//3
f 21//3 22//3 23//3
f 23//3 22//3 24//3
f 24//3 22//3 25//3
f 24//3 25//3 26//3
f 24//3 26//3 27//3
f 27//3 26//3 28//3
f 27//3 28//3 29//3
f 29//3 28//3 30//3
f 30//3 28//3 31//3
f 30//3 31//3 32//3
f 32//3 31//3 33//3
f 32//3 33//3 34//3
f 32//3 34//3 35//3
f 35//3 34//3 36//3
f 35//3 36//3 37//3
f 37//3 36//3 38//3
f 37//3 38//3 39//3
f 39//3 38//3 40//3
f 65//4 66//4 67//4
f 66//4 65//4 68//4
f 73//5 74//5 75//5
f 74//5 73//5 76//5
f 81//6 82//6 83//6
f 82//6 81//6 84//6
f 89//7 90//7 91//7
f 90//7 89//7 92//7
f 97//8 98//8 99//8
f 98//8 97//8 100//8
f 105//9 106//9 107//9
f 106//9 105//9 108//9
f 113//10 114//10 115//10
f 114//10 113//10 116//10
f 121//11 122//11 123//11
f 122//11 121//11 124//11
f 129//12 130//12 131//12
f 130//12 129//12 132//12
f 137//13 138//13 139//13
f 138//13 137//13 140//13
f 145//14 146//14 147//14
f 146//14 145//14 148//14
f 153//15 154//15 155//15
f 154//15 153//15 156//15
f 161//16 162//16 163//16
f 162//16 161//16 164//16
f 169//17 170//17 171//17
f 170//17 169//17 172//17
f 177//18 178//18 179//18
f 178//18 177//18 180//18
f 185//19 186//19 187//19
f 186//19 185//19 188//19
f 193//20 194//20 195//20
f 194//20 193//20 196//20
f 201//21 202//21 203//21
f 202//21 201//21 204//21
f 209//22 210//22 211//22
f 210//22 209//22 212//22
f 217//23 218//23 219//23
f 218//23 217//23 220//23
f 225//24 226//24 227//24
f 226//24 225//24 228//24
f 233//25 234//25 235//25
f 234//25 233//25 236//25
usemtl material_1_0
f 5//7 6//7 7//7
f 8//7 7//7 6//7
f 13//8 14//8 15//8
f 16//8 15//8 14//8
f 41//26 42//26 43//26
f 43//26 42//26 44//26
f 42//26 45//26 44//26
f 44//26 45//26 46//26
f 45//26 47//26 46//26
f 46//26 47//26 48//26
f 47//26 49//26 48//26
f 49//26 50//26 48//26
f 48//26 50//26 51//26
f 50//26 52//26 51//26
f 51//26 52//26 53//26
f 53//26 52//26 54//26
f 52//26 55//26 54//26
f 54//26 55//26 56//26
f 55//26 57//26 56//26
f 57//26 58//26 56//26
f 56//26 58//26 59//26
f 59//26 58//26 60//26
f 58//26 61//26 60//26
f 60//26 61//26 62//26
f 61//26 63//26 62//26
f 64//26 62//26 63//26
f 69//6 70//6 71//6
f 72//6 71//6 70//6
f 77//9 78//9 79//9
f 80//9 79//9 78//9
f 85//4 86//4 87//4
f 88//4 87//4 86//4
f 93//1 94//1 95//1
f 96//1 95//1 94//1
f 101//2 102//2 103//2
f 104//2 103//2 102//2
f 109//5 110//5 111//5
f 112//5 111//5 110//5
f 117//18 118//18 119//18
f 120//18 119//18 118//18
f 125//19 126//19 127//19
f 128//19 127//19 126//19
f 133//20 134//20 135//20
f 136//20 135//20 134//20
f 141//21 142//21 143//21
f 144//21 143//21 142//21
f 149//22 150//22 151//22
f 152//22 151//22 150//22
f 157//23 158//23 159//23
f 160//23 159//23 158//23
f 165//24 166//24 167//24
f 168//24 167//24 166//24
f 173//25 174//25 175//25
f 176//25 175//25 174//25
f 181//10 182//10 183//10
f 184//10 183//10 182//10
f 189//11 190//11 191//11
f 192//11 191//11 190//11
f 197//12 198//12 199//12
f 200//12 199//12 198//12
f 205//13 206//13 207//13
f 208//13 207//13 206//13
f 213//14 214//14 215//14
f 216//14 215//14 214//14
f 221//15 222//15 223//15
f 224//15 223//15 222//15
f 229//16 230//16 231//16
f 232//16 231//16 230//16
f 237//17 238//17 239//17
f 240//17 239//17 238//17