# SSTK version 0.8.0
# 3
mtllib original-3.mtl
o mesh1/mesh1-geometry#mesh1-geometry
v -0.13813 -0.3160636859203303 0.514261
v -0.138134 -0.315351181595936 0.513837
v -0.138132 -0.3157439214097547 0.514014
v -0.138127 -0.316289245948537 0.514559
v -0.138135 -0.31491465660017115 0.51374
v -0.138124 -0.31640467961003094 0.514889
v -0.138136 -0.31446220972006234 0.513731
v -0.138121 -0.3164033527863356 0.515228
v -0.138135 -0.31402435790060224 0.51381
v -0.138118 -0.31628526547745084 0.515553
v -0.138134 -0.3136316180867833 0.513972
v -0.138116 -0.31605837862554886 0.515843
v -0.138132 -0.3133105267525126 0.514206
v -0.138114 -0.31573728729127803 0.516076
v -0.13813 -0.3130836399006105 0.514495
v -0.138113 -0.3153445474774593 0.516238
v -0.138127 -0.31296555259172576 0.51482
v -0.138113 -0.3149066956579991 0.516317
v -0.138124 -0.3129642257680305 0.51516
v -0.138113 -0.3144542487778904 0.516308
v -0.138121 -0.31307965942952454 0.51549
v -0.138114 -0.3140163969584302 0.516212
v -0.138118 -0.31330521945773127 0.515788
v -0.138116 -0.31362498396830674 0.516034
vn -0.9999606210553263 -0.0008944698224611963 0.008829284364133985
vn 0.9999606210553263 0.0008944698224611963 -0.008829284364133985
usemtl material_0_0
f 1//1 2//1 3//1
f 2//1 1//1 4//1
f 3//2 2//2 1//2
f 4//2 1//2 2//2
f 2//1 4//1 5//1
f 5//2 4//2 2//2
f 5//1 4//1 6//1
f 6//2 4//2 5//2
f 5//1 6//1 7//1
f 7//2 6//2 5//2
f 7//1 6//1 8//1
f 8//2 6//2 7//2
f 7//1 8//1 9//1
f 9//2 8//2 7//2
f 9//1 8//1 10//1
f 10//2 8//2 9//2
f 9//1 10//1 11//1
f 11//2 10//2 9//2
f 11//1 10//1 12//1
f 12//2 10//2 11//2
f 11//1 12//1 13//1
f 13//2 12//2 11//2
f 13//1 12//1 14//1
f 14//2 12//2 13//2
f 13//1 14//1 15//1
f 15//2 14//2 13//2
f 15//1 14//1 16//1
f 16//2 14//2 15//2
f 15//1 16//1 17//1
f 17//2 16//2 15//2
f 17//1 16//1 18//1
f 18//2 16//2 17//2
f 17//1 18//1 19//1
f 19//2 18//2 17//2
f 19//1 18//1 20//1
f 20//2 18//2 19//2
f 19//1 20//1 21//1
f 21//2 20//2 19//2
f 21//1 20//1 22//1
f 22//2 20//2 21//2
f 21//1 22//1 23//1
f 23//2 22//2 21//2
f 23//1 22//1 24//1
f 24//2 22//2 23//2