# Blender v2.79 (sub 0) OBJ File: ''
# www.blender.org
mtllib 102352_link_1_26.mtl
o Shape_IndexedFaceSet.026_Shape_IndexedFaceSet.7652
v 0.642208 0.383933 -0.375272
v 0.263920 -0.591261 -0.484544
v 0.280747 -0.591261 -0.484544
v 0.263460 0.500837 -0.711458
v 0.313961 -0.624602 -0.330457
v 0.574979 0.484738 -0.341620
v 0.263920 0.467990 -0.610625
v 0.527685 0.505108 -0.553371
v 0.440483 -0.574407 -0.350042
v 0.685504 0.505451 -0.325445
v 0.253348 -0.619453 -0.385253
v 0.404152 0.500887 -0.649872
v 0.390042 -0.582834 -0.408889
v 0.532912 0.400681 -0.526547
v 0.269085 -0.625190 -0.365996
v 0.432070 -0.591261 -0.341620
v 0.647196 0.499941 -0.405682
v 0.305987 -0.381012 -0.518232
v 0.272373 0.484844 -0.610625
v 0.558153 -0.069957 -0.350042
v 0.339601 -0.322129 -0.509774
v 0.516086 0.442710 -0.551778
v 0.415283 -0.549127 -0.392080
v 0.364842 0.417534 -0.652663
v 0.305987 -0.574407 -0.476158
vn 0.5499 -0.1819 -0.8152
vn 0.0000 -0.2034 -0.9791
vn -0.1531 0.0460 0.9871
vn -0.0260 0.9995 0.0165
vn -0.9934 -0.0238 -0.1125
vn -0.9999 0.0114 0.0083
vn 0.0425 0.9943 -0.0979
vn 0.0000 -0.9614 -0.2752
vn 0.2102 -0.9452 -0.2498
vn -0.6148 0.1524 0.7738
vn -0.6504 0.1630 0.7419
vn -0.0146 -0.9615 -0.2745
vn -0.7453 0.1423 0.6514
vn 0.2404 -0.9367 -0.2545
vn 0.1049 -0.0389 0.9937
vn 0.8676 -0.2072 0.4521
vn 0.2661 -0.9219 -0.2817
vn 0.6613 -0.5724 -0.4849
vn 0.8964 -0.1481 -0.4178
vn 0.2920 0.9345 -0.2036
vn 0.7694 -0.1225 -0.6269
vn 0.3244 -0.1875 -0.9271
vn -0.6303 0.3161 0.7091
vn -0.8840 0.4433 0.1485
vn -0.1649 0.9718 0.1687
vn -0.2126 0.9473 0.2395
vn 0.9216 -0.1895 -0.3387
vn 0.9397 -0.2192 0.2625
vn 0.8101 -0.1810 -0.5577
vn 0.7844 -0.1805 -0.5934
vn 0.6129 -0.1338 -0.7787
vn 0.6499 -0.1827 -0.7377
vn 0.6925 -0.1468 -0.7063
vn 0.6060 -0.1824 -0.7743
vn 0.5937 -0.1801 -0.7843
vn 0.7512 -0.2600 -0.6067
vn 0.7033 -0.1843 -0.6866
vn 0.7902 -0.1843 -0.5845
vn 0.7829 -0.1812 -0.5952
vn 0.3961 -0.1565 -0.9048
vn 0.3781 -0.1807 -0.9080
vn 0.4449 -0.1805 -0.8772
vn 0.5338 -0.4401 -0.7221
vn 0.4228 -0.1926 -0.8855
vn 0.5141 -0.1823 -0.8381
vn 0.6029 -0.1838 -0.7764
usemtl Shape.7658
s off
f 12//1 21//1 25//1
f 3//2 2//2 4//2
f 6//3 5//3 10//3
f 8//4 4//4 10//4
f 4//5 2//5 11//5
f 7//6 4//6 11//6
f 4//7 8//7 12//7
f 2//8 3//8 15//8
f 3//9 5//9 15//9
f 5//10 6//10 15//10
f 6//11 7//11 15//11
f 11//12 2//12 15//12
f 7//13 11//13 15//13
f 5//14 3//14 16//14
f 10//15 5//15 16//15
f 9//16 10//16 16//16
f 3//17 13//17 16//17
f 13//18 9//18 16//18
f 10//19 1//19 17//19
f 8//20 10//20 17//20
f 14//21 8//21 17//21
f 3//22 4//22 18//22
f 7//23 6//23 19//23
f 4//24 7//24 19//24
f 10//25 4//25 19//25
f 6//26 10//26 19//26
f 1//27 10//27 20//27
f 10//28 9//28 20//28
f 17//29 1//29 20//29
f 14//30 17//30 20//30
f 12//31 8//31 22//31
f 14//32 13//32 22//32
f 8//33 14//33 22//33
f 13//34 21//34 22//34
f 21//35 12//35 22//35
f 9//36 13//36 23//36
f 13//37 14//37 23//37
f 20//38 9//38 23//38
f 14//39 20//39 23//39
f 4//40 12//40 24//40
f 18//41 4//41 24//41
f 12//42 18//42 24//42
f 13//43 3//43 25//43
f 3//44 18//44 25//44
f 18//45 12//45 25//45
f 21//46 13//46 25//46
