# Blender v2.79 (sub 0) OBJ File: ''
# www.blender.org
mtllib 102352_link_0_6.mtl
o Shape_IndexedFaceSet.006_Shape_IndexedFaceSet.16457
v -0.358692 -0.035100 0.536762
v -0.267500 -0.055606 0.643891
v -0.269786 -0.055606 0.643891
v -0.356407 0.010508 0.575517
v -0.267500 -0.046489 0.570954
v -0.358692 -0.062452 0.589194
v -0.267500 -0.098943 0.602860
v -0.358692 -0.021419 0.611975
v -0.269786 -0.021419 0.614261
v -0.274347 -0.071580 0.639339
v -0.267500 -0.069298 0.568678
v -0.358692 -0.062452 0.561830
v -0.356407 -0.016855 0.539038
v -0.274347 -0.023701 0.589194
v -0.358692 -0.037382 0.611975
v -0.269786 -0.096661 0.616537
v -0.358692 0.008226 0.584631
v -0.356407 0.008226 0.564116
v -0.267500 -0.046489 0.639339
v -0.267500 -0.096661 0.596022
vn 0.0001 -0.7069 -0.7074
vn 1.0000 0.0000 0.0000
vn -1.0000 -0.0000 0.0000
vn 0.0000 -0.2741 0.9617
vn -0.3715 -0.9284 0.0000
vn 0.0046 -0.6756 -0.7372
vn 0.3535 0.0721 -0.9327
vn 0.3636 0.0925 -0.9270
vn 0.4021 0.9023 -0.1553
vn 0.8830 0.4249 -0.1993
vn -0.3379 0.0000 0.9412
vn -0.3622 -0.1583 0.9186
vn -0.4563 -0.5984 0.6586
vn -0.3816 -0.9200 0.0897
vn 0.9646 -0.1813 0.1915
vn 0.6380 -0.4513 0.6240
vn -0.4404 -0.6465 0.6230
vn 0.2153 0.9332 0.2876
vn -0.9801 0.1402 -0.1403
vn 0.4397 0.6351 -0.6351
vn 0.4039 0.8970 -0.1795
vn 0.4411 0.6379 -0.6313
vn -0.9865 0.1214 -0.1099
vn -0.8697 0.4840 -0.0969
vn 0.0000 0.4467 0.8947
vn -0.1330 0.4692 0.8730
vn 0.9959 0.0908 0.0000
vn -0.0342 0.6776 0.7346
vn 0.0002 0.7072 0.7070
vn -0.2308 -0.9230 -0.3080
usemtl Shape.16470
s off
f 12//1 11//1 20//1
f 5//2 2//2 7//2
f 1//3 6//3 8//3
f 2//4 3//4 10//4
f 5//2 7//2 11//2
f 6//3 1//3 12//3
f 7//5 6//5 12//5
f 1//6 11//6 12//6
f 11//7 1//7 13//7
f 5//8 11//8 13//8
f 4//9 9//9 14//9
f 9//10 5//10 14//10
f 3//11 8//11 15//11
f 8//3 6//3 15//3
f 10//12 3//12 15//12
f 6//13 10//13 15//13
f 6//14 7//14 16//14
f 7//15 2//15 16//15
f 2//16 10//16 16//16
f 10//17 6//17 16//17
f 1//3 8//3 17//3
f 9//18 4//18 17//18
f 13//19 1//19 18//19
f 5//20 13//20 18//20
f 4//21 14//21 18//21
f 14//22 5//22 18//22
f 1//23 17//23 18//23
f 17//24 4//24 18//24
f 3//25 2//25 19//25
f 2//2 5//2 19//2
f 8//26 3//26 19//26
f 5//27 9//27 19//27
f 17//28 8//28 19//28
f 9//29 17//29 19//29
f 11//2 7//2 20//2
f 7//30 12//30 20//30
