# Blender v2.79 (sub 0) OBJ File: ''
# www.blender.org
mtllib 102352_link_1_21.mtl
o Shape_IndexedFaceSet.021_Shape_IndexedFaceSet.7647
v -0.206885 0.350127 -0.686264
v -0.295568 -0.608406 -0.320422
v -0.302345 -0.594069 -0.325813
v -0.139621 -0.566027 -0.526602
v -0.139621 0.484844 -0.644259
v -0.301036 0.496092 -0.672400
v -0.299353 -0.574388 -0.442555
v -0.132143 -0.614440 -0.425117
v -0.290941 0.476378 -0.576960
v -0.136335 0.506807 -0.736434
v -0.240486 -0.582853 -0.484559
v -0.299353 0.484844 -0.585392
v -0.299353 0.249273 -0.627435
v -0.153898 0.506412 -0.736287
v -0.181665 -0.582853 -0.509777
v -0.139621 0.451191 -0.635828
v -0.267242 0.502408 -0.691380
vn -0.0222 0.9992 0.0331
vn -0.8846 -0.4556 -0.0995
vn -0.9996 -0.0073 -0.0269
vn -0.2737 0.2225 0.9357
vn 0.9964 -0.0192 -0.0826
vn 0.9991 0.0146 0.0391
vn -0.3080 -0.9189 -0.2464
vn -0.1678 -0.9640 -0.2064
vn -0.9998 0.0077 0.0203
vn -0.5931 0.1899 0.7824
vn 0.2131 0.7876 0.5782
vn 0.0862 0.9685 0.2338
vn -0.9866 -0.0357 -0.1591
vn -0.5884 -0.1771 -0.7889
vn -0.0039 -0.1919 -0.9814
vn 0.1795 -0.8827 -0.4343
vn -0.1216 -0.9512 -0.2837
vn -0.3789 -0.1819 -0.9074
vn -0.3874 -0.1826 -0.9036
vn -0.3310 -0.1840 -0.9255
vn -0.2996 -0.1869 -0.9356
vn 0.9907 0.0330 0.1317
vn 0.5362 0.1674 0.8273
vn 0.3847 0.2109 0.8986
vn 0.3855 0.2242 0.8950
vn -0.1114 0.9853 0.1295
vn 0.0258 0.9849 0.1710
vn -0.3798 -0.1810 -0.9072
vn -0.4600 -0.1622 -0.8730
vn -0.3575 -0.1725 -0.9178
usemtl Shape.7653
s off
f 10//1 14//1 17//1
f 2//2 3//2 7//2
f 3//3 6//3 7//3
f 3//4 2//4 9//4
f 8//5 4//5 10//5
f 5//6 8//6 10//6
f 2//7 7//7 11//7
f 8//8 2//8 11//8
f 6//9 3//9 12//9
f 3//10 9//10 12//10
f 9//11 5//11 12//11
f 5//12 10//12 12//12
f 7//13 6//13 13//13
f 11//14 7//14 13//14
f 10//15 4//15 14//15
f 4//16 8//16 15//16
f 8//17 11//17 15//17
f 13//18 1//18 15//18
f 11//19 13//19 15//19
f 1//20 14//20 15//20
f 14//21 4//21 15//21
f 8//22 5//22 16//22
f 2//23 8//23 16//23
f 9//24 2//24 16//24
f 5//25 9//25 16//25
f 6//26 12//26 17//26
f 12//27 10//27 17//27
f 1//28 13//28 17//28
f 13//29 6//29 17//29
f 14//30 1//30 17//30
