# Blender v2.79 (sub 0) OBJ File: ''
# www.blender.org
mtllib 102352_link_1_2.mtl
o Shape_IndexedFaceSet.002_Shape_IndexedFaceSet.7628
v 0.368752 0.619987 0.666173
v 0.448784 0.484844 0.448644
v 0.448784 0.510089 0.448644
v 0.003663 0.475604 0.618150
v 0.036930 0.644559 0.658779
v 0.181518 0.516235 0.720823
v 0.516033 0.644559 0.448644
v 0.583343 0.526891 0.532765
v 0.058133 0.615798 0.748780
v 0.629517 0.609171 0.455181
v 0.541334 0.484844 0.490720
v 0.129420 0.484844 0.692421
v 0.412817 0.517639 0.637119
v 0.405334 0.634750 0.637070
v 0.063138 0.530530 0.746208
v 0.250432 0.546632 0.719330
v 0.621910 0.520539 0.454941
v 0.036930 0.627740 0.641973
v 0.196143 0.636865 0.713638
v 0.490911 0.627740 0.448644
v 0.545304 0.629848 0.539455
v 0.413116 0.598331 0.651962
v 0.196223 0.644377 0.675856
v 0.206766 0.584522 0.733042
v 0.598691 0.639582 0.458875
v 0.064737 0.637608 0.730097
v 0.412804 0.554277 0.651759
v 0.558366 0.614164 0.540081
v 0.252092 0.612654 0.717186
vn 0.3175 0.0228 0.9480
vn -0.3559 0.0000 -0.9345
vn 0.0000 0.0000 -1.0000
vn -0.9562 0.1245 0.2651
vn 0.0113 -0.9996 -0.0248
vn 0.0332 -0.9971 0.0678
vn 0.3359 -0.8123 0.4768
vn 0.1998 -0.8187 0.5384
vn 0.1763 -0.9162 0.3600
vn -0.8939 -0.0658 0.4434
vn 0.0603 -0.7229 0.6883
vn -0.2127 -0.8583 0.4669
vn 0.2775 -0.5919 0.7568
vn 0.1615 -0.3203 0.9335
vn 0.0398 -0.0168 -0.9991
vn 0.0568 -0.0022 -0.9984
vn 0.8908 -0.0777 0.4478
vn 0.4973 -0.8093 0.3125
vn 0.1971 -0.8794 -0.4335
vn -0.9388 0.2434 -0.2436
vn -0.2963 0.6751 -0.6756
vn 0.2527 0.6969 0.6712
vn -0.3616 0.1295 -0.9233
vn -0.3819 0.2239 -0.8967
vn -0.3382 0.5051 -0.7941
vn 0.4559 0.4186 0.7854
vn 0.0009 1.0000 0.0021
vn 0.0811 0.9775 0.1945
vn 0.1002 -0.0241 0.9947
vn 0.1545 -0.1739 0.9726
vn 0.1338 0.2520 -0.9584
vn 0.6396 0.5882 0.4948
vn 0.2094 0.9446 0.2529
vn 0.0510 0.9961 0.0726
vn 0.0635 0.9934 0.0959
vn -0.7687 0.5341 0.3518
vn 0.1001 0.6297 0.7704
vn -0.0097 0.9949 0.1007
vn 0.0300 0.9803 0.1950
vn 0.5071 -0.3196 0.8004
vn 0.3745 -0.3439 0.8611
vn 0.5714 -0.0078 0.8207
vn 0.3845 -0.0070 0.9231
vn 0.7607 0.1651 0.6278
vn 0.6500 0.5618 0.5117
vn 0.5185 0.4606 0.7204
vn 0.5261 0.4158 0.7419
vn 0.5996 0.1051 0.7933
vn 0.1492 0.4721 0.8689
vn 0.2543 0.6874 0.6804
vn 0.3831 0.1918 0.9036
vn 0.3769 0.0206 0.9260
vn 0.1588 0.2781 0.9473
usemtl Shape.7634
s off
f 24//1 16//1 29//1
f 3//2 2//2 4//2
f 2//3 3//3 7//3
f 5//4 4//4 9//4
f 4//5 2//5 11//5
f 4//6 11//6 12//6
f 11//7 8//7 13//7
f 6//8 12//8 13//8
f 12//9 11//9 13//9
f 9//10 4//10 15//10
f 12//11 6//11 15//11
f 4//12 12//12 15//12
f 6//13 13//13 16//13
f 15//14 6//14 16//14
f 2//15 7//15 17//15
f 7//16 10//16 17//16
f 10//17 8//17 17//17
f 8//18 11//18 17//18
f 11//19 2//19 17//19
f 4//20 5//20 18//20
f 5//21 7//21 18//21
f 1//22 14//22 19//22
f 3//23 4//23 20//23
f 7//3 3//3 20//3
f 4//24 18//24 20//24
f 18//25 7//25 20//25
f 14//26 1//26 22//26
f 7//27 5//27 23//27
f 19//28 14//28 23//28
f 9//29 15//29 24//29
f 15//30 16//30 24//30
f 10//31 7//31 25//31
f 21//32 10//32 25//32
f 14//33 21//33 25//33
f 7//34 23//34 25//34
f 23//35 14//35 25//35
f 5//36 9//36 26//36
f 9//37 19//37 26//37
f 23//38 5//38 26//38
f 19//39 23//39 26//39
f 13//40 8//40 27//40
f 16//41 13//41 27//41
f 8//42 22//42 27//42
f 22//43 16//43 27//43
f 8//44 10//44 28//44
f 10//45 21//45 28//45
f 21//46 14//46 28//46
f 14//47 22//47 28//47
f 22//48 8//48 28//48
f 19//49 9//49 29//49
f 1//50 19//50 29//50
f 22//51 1//51 29//51
f 16//52 22//52 29//52
f 9//53 24//53 29//53
