# Blender v2.79 (sub 0) OBJ File: ''
# www.blender.org
mtllib 102352_link_0_20.mtl
o Shape_IndexedFaceSet.020_Shape_IndexedFaceSet.16471
v -0.730378 0.582843 -0.076637
v -0.728100 0.564608 -0.056119
v -0.737218 0.564608 -0.056119
v -0.737218 0.598808 -0.065242
v -0.723539 0.598808 -0.067518
vn 0.1569 0.2934 0.9430
vn 0.0000 -0.7475 -0.6643
vn 0.0000 0.2577 0.9662
vn -0.9112 -0.1062 -0.3981
vn -0.1386 0.5353 -0.8332
vn 0.9265 -0.2243 -0.3022
usemtl Shape.16484
s off
f 4//1 2//1 5//1
f 1//2 2//2 3//2
f 3//3 2//3 4//3
f 1//4 3//4 4//4
f 1//5 4//5 5//5
f 2//6 1//6 5//6
