# Blender v2.79 (sub 0) OBJ File: ''
# www.blender.org
mtllib 102352_link_0_5.mtl
o Shape_IndexedFaceSet.005_Shape_IndexedFaceSet.16456
v -0.486376 0.056102 0.452393
v -0.358723 -0.023687 0.611960
v -0.358723 -0.016845 0.609692
v -0.516021 0.072049 0.518506
v -0.388353 -0.055599 0.557242
v -0.360987 0.012787 0.564099
v -0.513742 0.110838 0.479753
v -0.516021 0.028751 0.472913
v -0.358723 -0.037371 0.536740
v -0.392911 -0.025968 0.598298
v -0.516021 0.028751 0.493432
v -0.513742 0.085733 0.438714
v -0.358723 -0.064722 0.584618
v -0.358723 -0.016845 0.536740
v -0.516021 0.058383 0.440982
v -0.511463 0.108540 0.463787
v -0.358723 0.008225 0.584618
v -0.386074 -0.055599 0.575493
v -0.516021 0.053821 0.518506
v -0.363281 -0.064722 0.564099
v -0.516021 0.106260 0.486592
v -0.386074 -0.014564 0.602852
v -0.365545 -0.039634 0.607423
v -0.511463 0.072049 0.520774
v -0.516021 0.031015 0.468342
vn -0.0000 -0.7072 -0.7070
vn 1.0000 0.0000 0.0000
vn -1.0000 0.0000 0.0000
vn -0.5512 -0.8343 0.0000
vn 0.5513 0.0000 -0.8343
vn 0.6256 0.2342 -0.7442
vn 0.3090 -0.3690 -0.8766
vn 0.3501 -0.1063 -0.9307
vn 0.5554 0.8306 -0.0403
vn -0.9416 0.2873 -0.1758
vn 0.6775 0.5263 -0.5139
vn 0.6749 0.5143 -0.5292
vn 0.4790 0.8666 0.1398
vn 0.9863 0.1459 -0.0764
vn -0.5745 -0.8153 0.0717
vn -0.6712 -0.5431 0.5045
vn -0.6757 -0.5213 0.5212
vn 0.9127 -0.3549 -0.2027
vn -0.3522 -0.9349 0.0440
vn -0.3380 -0.9382 0.0751
vn -0.9565 0.2488 -0.1522
vn -0.9939 0.0762 -0.0800
vn 0.1368 0.8015 0.5821
vn 0.0001 0.7072 0.7071
vn -0.2066 0.3079 0.9287
vn -0.5444 0.0000 0.8388
vn -0.5468 -0.0065 0.8372
vn 0.5962 -0.4451 0.6681
vn -0.5057 -0.5964 0.6233
vn -0.4263 -0.6692 0.6087
vn -0.3483 -0.1156 0.9302
vn -0.3757 -0.1406 0.9160
vn -0.0005 0.7068 0.7074
vn -0.3419 0.6410 0.6872
vn -0.1598 0.5472 0.8216
vn -0.4365 0.1994 0.8773
vn -0.2864 -0.8586 -0.4252
vn 0.0001 -0.7070 -0.7072
vn -0.1277 -0.7958 -0.5920
usemtl Shape.16469
s off
f 9//1 20//1 25//1
f 3//2 2//2 9//2
f 4//3 8//3 11//3
f 8//4 5//4 11//4
f 9//2 2//2 13//2
f 3//2 9//2 14//2
f 9//5 1//5 14//5
f 1//6 12//6 14//6
f 8//3 4//3 15//3
f 1//7 9//7 15//7
f 12//8 1//8 15//8
f 7//9 6//9 16//9
f 12//10 7//10 16//10
f 6//11 14//11 16//11
f 14//12 12//12 16//12
f 6//13 7//13 17//13
f 3//2 14//2 17//2
f 14//14 6//14 17//14
f 11//15 5//15 18//15
f 10//16 11//16 18//16
f 4//3 11//3 19//3
f 11//17 10//17 19//17
f 9//18 13//18 20//18
f 18//19 5//19 20//19
f 13//20 18//20 20//20
f 7//21 12//21 21//21
f 15//3 4//3 21//3
f 12//22 15//22 21//22
f 17//23 7//23 21//23
f 3//24 17//24 21//24
f 2//25 3//25 22//25
f 4//26 19//26 22//26
f 19//27 10//27 22//27
f 13//28 2//28 23//28
f 10//29 18//29 23//29
f 18//30 13//30 23//30
f 2//31 22//31 23//31
f 22//32 10//32 23//32
f 3//33 21//33 24//33
f 21//34 4//34 24//34
f 22//35 3//35 24//35
f 4//36 22//36 24//36
f 5//37 8//37 25//37
f 8//3 15//3 25//3
f 15//38 9//38 25//38
f 20//39 5//39 25//39
