# Blender v2.79 (sub 0) OBJ File: ''
# www.blender.org
mtllib 102352_link_1_18.mtl
o Shape_IndexedFaceSet.018_Shape_IndexedFaceSet.7644
v -0.440927 -0.593825 -0.239399
v -0.248911 -0.633288 -0.299573
v -0.238620 -0.644181 -0.310575
v -0.366367 -0.643520 -0.021964
v -0.417023 -0.582859 -0.030559
v -0.480292 -0.640666 -0.035418
v -0.404804 -0.638727 -0.293986
v -0.316203 -0.582859 -0.307992
v -0.491249 -0.583202 -0.032173
v -0.413941 -0.584820 -0.298745
v -0.464290 -0.638456 -0.158087
v -0.474955 -0.585274 -0.157733
vn -0.9723 -0.1941 -0.1303
vn 0.8323 0.4152 0.3674
vn 0.7040 0.6334 0.3212
vn -0.0241 -0.9997 -0.0084
vn -0.0345 -0.9992 -0.0176
vn 0.6035 0.7719 -0.1998
vn 0.5700 0.7951 0.2071
vn -0.0221 0.1221 0.9923
vn -0.1189 -0.0786 0.9898
vn -0.0046 1.0000 -0.0017
vn -0.0212 0.9997 -0.0122
vn -0.8831 -0.1876 -0.4300
vn -0.1022 -0.1047 -0.9892
vn -0.0924 -0.0751 -0.9929
vn -0.8889 -0.2427 -0.3886
vn -0.0650 -0.9975 -0.0264
vn -0.9760 -0.1791 -0.1237
vn -0.0649 0.9976 -0.0249
vn -0.9095 0.1350 -0.3931
vn -0.9144 -0.1810 -0.3621
usemtl Shape.7650
s off
f 11//1 6//1 12//1
f 3//2 2//2 4//2
f 4//3 2//3 5//3
f 3//4 4//4 6//4
f 3//5 6//5 7//5
f 2//6 3//6 8//6
f 5//7 2//7 8//7
f 4//8 5//8 9//8
f 6//9 4//9 9//9
f 5//10 8//10 9//10
f 9//11 8//11 10//11
f 7//12 1//12 10//12
f 3//13 7//13 10//13
f 8//14 3//14 10//14
f 1//15 7//15 11//15
f 7//16 6//16 11//16
f 6//17 9//17 12//17
f 9//18 10//18 12//18
f 10//19 1//19 12//19
f 1//20 11//20 12//20
