# Blender v2.79 (sub 0) OBJ File: ''
# www.blender.org
mtllib 102352_link_1_24.mtl
o Shape_IndexedFaceSet.024_Shape_IndexedFaceSet.7650
v 0.416025 -0.603509 -0.352205
v 0.537742 -0.592127 -0.036991
v 0.457261 -0.591261 -0.030559
v 0.397432 -0.651552 -0.019804
v 0.297549 -0.591261 -0.358391
v 0.390064 -0.650104 -0.391983
v 0.512564 -0.646760 -0.152310
v 0.291554 -0.651551 -0.275586
v 0.303966 -0.592810 -0.456218
v 0.473062 -0.595658 -0.277714
v 0.525997 -0.648313 -0.043867
v 0.302091 -0.649008 -0.443390
v 0.521233 -0.594288 -0.158657
vn 0.0505 0.9982 -0.0319
vn 0.0803 0.0972 0.9920
vn 0.0104 0.9999 -0.0050
vn -0.6452 0.6963 0.3143
vn -0.7863 0.5252 0.3255
vn 0.0099 -0.9999 -0.0041
vn 0.0228 0.9996 -0.0143
vn 0.6743 0.2248 -0.7034
vn 0.7869 0.0835 -0.6114
vn 0.8245 -0.3836 -0.4160
vn 0.4943 0.7398 -0.4565
vn 0.1855 -0.1575 0.9699
vn 0.0244 -0.9997 -0.0044
vn 0.9743 -0.1886 -0.1234
vn 0.0728 -0.9971 -0.0233
vn -0.9980 0.0134 -0.0625
vn -0.0035 -0.9999 -0.0154
vn 0.4914 -0.2094 -0.8454
vn -0.9977 0.0183 -0.0657
vn 0.9757 -0.1768 -0.1293
vn 0.0382 0.9990 -0.0229
vn 0.9100 -0.1946 -0.3660
usemtl Shape.7656
s off
f 10//1 9//1 13//1
f 2//2 3//2 4//2
f 3//3 2//3 5//3
f 4//4 3//4 5//4
f 4//5 5//5 8//5
f 6//6 4//6 8//6
f 5//7 2//7 9//7
f 1//8 6//8 9//8
f 6//9 1//9 10//9
f 7//10 6//10 10//10
f 1//11 9//11 10//11
f 2//12 4//12 11//12
f 4//13 6//13 11//13
f 7//14 2//14 11//14
f 6//15 7//15 11//15
f 8//16 5//16 12//16
f 6//17 8//17 12//17
f 9//18 6//18 12//18
f 5//19 9//19 12//19
f 2//20 7//20 13//20
f 9//21 2//21 13//21
f 7//22 10//22 13//22
