# Blender v2.79 (sub 0) OBJ File: ''
# www.blender.org
mtllib 102352_link_1_35.mtl
o Shape_IndexedFaceSet.035_Shape_IndexedFaceSet.7661
v 0.072680 -0.639470 0.472049
v 0.328819 -0.585142 0.386507
v 0.319140 -0.585569 0.393517
v 0.070596 -0.582859 0.406581
v 0.341389 -0.644012 0.193624
v 0.324357 -0.638468 0.377659
v 0.056857 -0.642826 0.365175
v 0.331139 -0.582859 0.280545
v 0.150115 -0.584942 0.472709
v 0.070781 -0.584684 0.481788
v 0.174253 -0.638917 0.454296
v 0.331139 -0.633288 0.204867
vn 0.2538 0.8049 -0.5364
vn 0.9906 -0.0986 0.0946
vn 0.5822 -0.1803 0.7928
vn 0.9910 0.1313 0.0245
vn 0.0894 0.9790 0.1831
vn 0.0116 0.9997 0.0218
vn 0.0096 0.9998 0.0199
vn -0.9871 -0.0605 0.1480
vn -0.9759 0.2183 0.0077
vn 0.1115 -0.1702 0.9791
vn 0.0060 0.9997 0.0242
vn 0.0193 -0.9993 0.0319
vn 0.4444 -0.2167 0.8692
vn 0.0107 -0.9995 0.0298
vn 0.0124 -0.9995 0.0275
vn 0.4209 -0.1186 0.8993
vn 0.1680 -0.2501 0.9535
vn -0.4266 0.5780 -0.6956
vn -0.4772 0.3764 -0.7941
vn -0.2591 0.8038 -0.5356
usemtl Shape.7667
s off
f 8//1 5//1 12//1
f 5//2 2//2 6//2
f 2//3 3//3 6//3
f 2//4 5//4 8//4
f 3//5 2//5 9//5
f 2//6 8//6 9//6
f 8//7 4//7 9//7
f 7//8 1//8 10//8
f 4//9 7//9 10//9
f 1//10 9//10 10//10
f 9//11 4//11 10//11
f 5//12 6//12 11//12
f 6//13 3//13 11//13
f 1//14 7//14 11//14
f 7//15 5//15 11//15
f 3//16 9//16 11//16
f 9//17 1//17 11//17
f 7//18 4//18 12//18
f 5//19 7//19 12//19
f 4//20 8//20 12//20
