# Blender v2.79 (sub 0) OBJ File: ''
# www.blender.org
mtllib 102352_link_1_3.mtl
o Shape_IndexedFaceSet.003_Shape_IndexedFaceSet.7629
v -0.402316 -0.690722 -0.230560
v -0.032579 -0.651705 -0.521421
v -0.080813 -0.659730 -0.512554
v 0.045337 -0.717359 -0.030559
v -0.480018 -0.642316 -0.034645
v 0.036164 -0.651142 -0.039294
v 0.045337 -0.717359 -0.459289
v -0.416962 -0.717359 -0.039002
v 0.039698 -0.642508 -0.529613
v -0.332383 -0.644478 -0.383978
v -0.089200 -0.717359 -0.459289
v -0.122847 -0.641703 -0.030559
v -0.314642 -0.704206 -0.325059
v -0.223230 -0.675747 -0.449696
v 0.045337 -0.641703 -0.375153
v -0.400165 -0.717359 -0.165108
v -0.455710 -0.643495 -0.178726
v -0.207585 -0.643796 -0.473358
v -0.408563 -0.717359 -0.030559
v -0.440543 -0.683406 -0.158666
v 0.034894 -0.691638 -0.500801
v -0.399000 -0.668080 -0.282770
v -0.296119 -0.690484 -0.377680
vn -0.6226 -0.5649 -0.5415
vn 0.0000 -1.0000 0.0000
vn 0.0625 0.1390 0.9883
vn -0.2500 -0.6373 -0.7289
vn 0.9895 0.1412 0.0310
vn 1.0000 -0.0000 0.0000
vn -0.0044 1.0000 -0.0050
vn 0.9985 0.0408 -0.0367
vn -0.0017 1.0000 -0.0008
vn 0.0609 0.9977 0.0297
vn -0.4706 -0.8225 -0.3193
vn -0.1534 -0.9748 -0.1622
vn -0.2283 0.3840 -0.8947
vn -0.1673 0.6735 -0.7200
vn -0.0070 0.9999 -0.0077
vn -0.3145 -0.4607 -0.8300
vn -0.5538 -0.3032 -0.7755
vn -0.0106 0.9999 -0.0100
vn -0.0156 0.9998 -0.0142
vn -0.5980 -0.5370 0.5949
vn 0.0000 0.0000 1.0000
vn -0.0115 0.0434 0.9990
vn -0.7661 -0.6419 -0.0312
vn -0.6446 -0.7153 -0.2699
vn -0.6492 -0.7557 -0.0865
vn -0.8975 -0.4155 -0.1480
vn -0.0641 -0.5412 -0.8384
vn -0.0339 -0.5031 -0.8636
vn 0.8485 -0.3270 -0.4160
vn -0.1088 -0.6661 -0.7378
vn 0.0000 -0.8501 -0.5267
vn -0.5158 -0.7735 -0.3682
vn -0.8390 0.2022 -0.5051
vn -0.7142 -0.6245 -0.3162
vn -0.8145 -0.4761 -0.3315
vn -0.2467 -0.9130 -0.3249
vn -0.2925 -0.8346 -0.4668
vn -0.5450 -0.5197 -0.6580
vn -0.5190 -0.7646 -0.3821
usemtl Shape.7635
s off
f 22//1 10//1 23//1
f 7//2 4//2 8//2
f 7//2 8//2 11//2
f 4//3 6//3 12//3
f 3//4 11//4 14//4
f 6//5 4//5 15//5
f 4//6 7//6 15//6
f 9//7 5//7 15//7
f 7//8 9//8 15//8
f 5//9 12//9 15//9
f 12//10 6//10 15//10
f 11//2 8//2 16//2
f 1//11 13//11 16//11
f 13//12 11//12 16//12
f 2//13 3//13 18//13
f 9//14 2//14 18//14
f 5//15 9//15 18//15
f 3//16 14//16 18//16
f 14//17 10//17 18//17
f 17//18 5//18 18//18
f 10//19 17//19 18//19
f 5//20 8//20 19//20
f 8//2 4//2 19//2
f 4//21 12//21 19//21
f 12//22 5//22 19//22
f 8//23 5//23 20//23
f 1//24 16//24 20//24
f 16//25 8//25 20//25
f 5//26 17//26 20//26
f 3//27 2//27 21//27
f 2//28 9//28 21//28
f 9//29 7//29 21//29
f 11//30 3//30 21//30
f 7//31 11//31 21//31
f 13//32 1//32 22//32
f 17//33 10//33 22//33
f 1//34 20//34 22//34
f 20//35 17//35 22//35
f 11//36 13//36 23//36
f 14//37 11//37 23//37
f 10//38 14//38 23//38
f 13//39 22//39 23//39
