# Blender v2.79 (sub 0) OBJ File: ''
# www.blender.org
mtllib 102352_link_1_40.mtl
o Shape_IndexedFaceSet.040_Shape_IndexedFaceSet.7666
v 0.617004 0.249378 0.314149
v 0.241244 -0.619839 0.339044
v 0.255513 -0.582853 0.440270
v 0.240269 0.497190 0.663480
v 0.566561 0.467913 0.297317
v 0.536950 0.497089 0.491571
v 0.432085 -0.582853 0.297317
v 0.255513 0.459552 0.557923
v 0.386020 0.497332 0.607101
v 0.398457 -0.557562 0.356212
v 0.672528 0.497904 0.292962
v 0.313105 -0.620055 0.285014
v 0.289142 -0.582853 0.431871
v 0.649421 0.497352 0.351480
v 0.474612 0.499381 0.544034
v 0.249253 -0.622546 0.329381
v 0.499303 0.173606 0.448669
v 0.474061 -0.380936 0.314149
v 0.264470 0.498203 0.657748
v 0.331199 -0.456707 0.431871
v 0.293832 -0.624471 0.292644
v 0.406884 -0.582853 0.339380
v 0.404668 0.497705 0.596330
v 0.558134 -0.044929 0.305750
vn 0.7870 -0.1822 0.5894
vn -0.9867 -0.0462 0.1559
vn -0.9863 0.0452 -0.1586
vn -0.3242 0.8752 -0.3589
vn -0.2705 0.9101 -0.3138
vn -0.0474 0.0223 -0.9986
vn 0.1117 -0.0289 -0.9933
vn 0.9165 -0.1740 0.3602
vn 0.0389 0.9989 0.0248
vn 0.1169 0.9885 0.0957
vn 0.0826 -0.9398 0.3317
vn -0.7421 0.1426 -0.6550
vn -0.6362 0.1630 -0.7541
vn 0.0828 -0.9397 0.3317
vn 0.7684 -0.1712 0.6166
vn 0.6304 -0.1737 0.7566
vn 0.6039 -0.1814 0.7761
vn 0.7791 -0.1811 0.6002
vn 0.2338 -0.1936 0.9528
vn -0.0570 0.9963 -0.0646
vn 0.2377 -0.1935 0.9519
vn 0.3772 -0.1812 0.9083
vn -0.0153 0.9997 -0.0180
vn 0.5883 -0.1961 0.7845
vn 0.6023 -0.1815 0.7774
vn -0.3860 0.1003 -0.9170
vn 0.2797 -0.9469 0.1584
vn -0.6238 0.1590 -0.7653
vn 0.1959 -0.9377 0.2869
vn 0.5888 -0.3026 0.7495
vn 0.7401 -0.1839 0.6468
vn 0.8376 -0.2160 0.5018
vn 0.7748 -0.1821 0.6054
vn 0.2790 -0.9456 0.1672
vn 0.2247 -0.9315 0.2860
vn 0.4945 -0.1822 0.8499
vn 0.0762 0.9832 0.1660
vn 0.0423 0.9952 0.0884
vn 0.5484 -0.1828 0.8160
vn 0.5917 -0.1809 0.7856
vn 0.9602 -0.1977 0.1973
vn 0.8415 -0.1893 -0.5060
vn 0.8545 -0.1848 0.4854
vn 0.9089 -0.2186 0.3550
usemtl Shape.7672
s off
f 14//1 18//1 24//1
f 2//2 3//2 4//2
f 2//3 4//3 8//3
f 4//4 5//4 8//4
f 5//5 4//5 11//5
f 5//6 11//6 12//6
f 11//7 7//7 12//7
f 1//8 11//8 14//8
f 14//9 11//9 15//9
f 6//10 14//10 15//10
f 3//11 2//11 16//11
f 2//12 8//12 16//12
f 8//13 5//13 16//13
f 13//14 3//14 16//14
f 14//15 6//15 17//15
f 6//16 15//16 17//16
f 15//17 10//17 17//17
f 14//18 17//18 18//18
f 4//19 3//19 19//19
f 11//20 4//20 19//20
f 3//21 13//21 19//21
f 13//22 9//22 19//22
f 15//23 11//23 19//23
f 13//24 10//24 20//24
f 10//25 15//25 20//25
f 5//26 12//26 21//26
f 12//27 7//27 21//27
f 16//28 5//28 21//28
f 13//29 16//29 21//29
f 10//30 13//30 22//30
f 17//31 10//31 22//31
f 7//32 18//32 22//32
f 18//33 17//33 22//33
f 21//34 7//34 22//34
f 13//35 21//35 22//35
f 9//36 13//36 23//36
f 19//37 9//37 23//37
f 15//38 19//38 23//38
f 13//39 20//39 23//39
f 20//40 15//40 23//40
f 11//41 1//41 24//41
f 7//42 11//42 24//42
f 1//43 14//43 24//43
f 18//44 7//44 24//44
