# Blender v2.79 (sub 0) OBJ File: ''
# www.blender.org
mtllib 102352_link_0_14.mtl
o Shape_IndexedFaceSet.014_Shape_IndexedFaceSet.16465
v -0.777425 0.533659 -0.026476
v -0.784053 0.535224 -0.032942
v -0.791937 0.598797 0.014565
v -0.737225 0.530411 0.023689
v -0.738960 0.565515 -0.069299
v -0.791937 0.598797 -0.076641
v -0.738927 0.614794 -0.000749
v -0.787378 0.530411 0.023689
v -0.791937 0.626157 -0.017362
v -0.737225 0.598797 -0.076641
v -0.792030 0.559439 -0.060142
v -0.738565 0.537069 -0.039504
v -0.737225 0.557771 0.023689
v -0.738502 0.626255 -0.046073
v -0.791937 0.621599 -0.062951
v -0.786001 0.554881 -0.062773
v -0.792211 0.540234 -0.007410
v -0.780537 0.576014 0.023689
v -0.738663 0.589163 0.016821
v -0.738583 0.626114 -0.019967
v -0.737225 0.530411 -0.001394
v -0.738395 0.617677 -0.063648
v -0.786107 0.569774 -0.071542
vn -0.6059 -0.4068 -0.6836
vn -0.1428 -0.9855 -0.0921
vn -0.0411 0.7587 0.6502
vn 0.0048 -0.9708 -0.2399
vn 0.9944 -0.0694 -0.0794
vn 0.0000 0.0000 1.0000
vn 1.0000 0.0000 0.0000
vn 0.0000 0.5147 -0.8573
vn -0.0552 0.9935 -0.0993
vn -0.6576 -0.6481 -0.3841
vn -0.0451 -0.8355 -0.5476
vn 0.0674 -0.7212 -0.6894
vn -0.7295 -0.6766 -0.1003
vn -0.9892 -0.0474 0.1387
vn -1.0000 0.0035 0.0030
vn -0.8569 -0.4833 -0.1790
vn -1.0000 0.0011 -0.0030
vn -1.0000 0.0016 -0.0026
vn -1.0000 0.0031 -0.0003
vn -0.5227 0.0784 0.8489
vn 0.0913 0.2168 0.9719
vn 0.0673 0.5646 0.8226
vn 0.9952 0.0622 0.0757
vn 0.0305 0.3847 0.9225
vn 0.0255 0.8612 0.5077
vn 0.9976 0.0501 0.0473
vn 0.9996 0.0269 0.0110
vn 0.9991 0.0428 0.0033
vn 0.0011 1.0000 0.0054
vn -0.0358 -0.9968 -0.0716
vn 0.0000 -1.0000 0.0000
vn 0.0284 -0.9845 -0.1730
vn 0.9979 -0.0478 -0.0434
vn 0.9956 0.0866 -0.0362
vn 0.0309 0.5679 -0.8225
vn 0.0600 0.8972 -0.4375
vn 0.0269 -0.2167 -0.9759
vn 0.0000 -0.1730 -0.9849
vn -0.7418 -0.2578 -0.6191
vn -0.0048 -0.5074 -0.8617
usemtl Shape.16478
s off
f 16//1 11//1 23//1
f 2//2 1//2 8//2
f 3//3 7//3 9//3
f 1//4 2//4 12//4
f 5//5 10//5 12//5
f 8//6 4//6 13//6
f 4//7 10//7 13//7
f 10//8 6//8 15//8
f 9//9 14//9 15//9
f 2//10 11//10 16//10
f 12//11 2//11 16//11
f 5//12 12//12 16//12
f 2//13 8//13 17//13
f 8//14 3//14 17//14
f 3//15 9//15 17//15
f 11//16 2//16 17//16
f 6//17 11//17 17//17
f 15//18 6//18 17//18
f 9//19 15//19 17//19
f 3//20 8//20 18//20
f 8//6 13//6 18//6
f 18//21 13//21 19//21
f 7//22 3//22 19//22
f 13//23 7//23 19//23
f 3//24 18//24 19//24
f 9//25 7//25 20//25
f 7//26 13//26 20//26
f 13//27 10//27 20//27
f 10//28 14//28 20//28
f 14//29 9//29 20//29
f 8//30 1//30 21//30
f 4//31 8//31 21//31
f 10//7 4//7 21//7
f 1//32 12//32 21//32
f 12//33 10//33 21//33
f 14//34 10//34 22//34
f 10//35 15//35 22//35
f 15//36 14//36 22//36
f 10//37 5//37 23//37
f 6//38 10//38 23//38
f 11//39 6//39 23//39
f 5//40 16//40 23//40
