# Blender v2.79 (sub 0) OBJ File: ''
# www.blender.org
mtllib 102352_link_1_27.mtl
o Shape_IndexedFaceSet.027_Shape_IndexedFaceSet.7653
v 0.339017 -0.592839 -0.341815
v 0.330975 -0.615216 -0.327224
v 0.583369 0.484844 -0.324792
v 0.457312 -0.532378 -0.341606
v 0.419368 -0.612581 -0.195883
v 0.633829 0.476417 -0.198714
v 0.671089 0.499314 -0.343542
v 0.516139 -0.591261 -0.198714
v 0.733563 0.504920 -0.196033
v 0.482562 -0.582834 -0.291164
v 0.737046 0.503444 -0.219141
v 0.574927 0.459563 -0.341606
v 0.642233 0.316623 -0.341606
v 0.440505 -0.591261 -0.341606
v 0.325658 -0.611944 -0.337739
v 0.499331 -0.591261 -0.249156
v 0.499331 -0.507098 -0.291164
vn 0.8959 -0.1984 -0.3974
vn -0.8200 0.1629 0.5486
vn -0.2749 0.9457 0.1732
vn -0.0293 0.0084 0.9995
vn -0.1567 0.9872 0.0288
vn 0.0311 -0.0086 0.9995
vn 0.0449 0.9974 -0.0569
vn 0.9685 -0.1925 0.1583
vn -0.0223 0.0052 -0.9997
vn -0.2607 0.5935 -0.7615
vn 0.1742 -0.0379 -0.9840
vn 0.8763 -0.1433 -0.4599
vn 0.0021 -0.0022 -1.0000
vn 0.0240 -0.0068 -0.9997
vn 0.7671 -0.2190 -0.6030
vn -0.8543 0.1796 0.4878
vn -0.9033 0.2078 0.3754
vn -0.4083 0.0917 -0.9082
vn -0.9634 0.2247 0.1459
vn 0.1533 -0.9189 -0.3634
vn 0.0053 -0.2122 -0.9772
vn 0.1887 -0.9761 -0.1074
vn 0.2126 -0.9746 -0.0709
vn 0.9308 -0.1936 -0.3101
vn 0.1963 -0.9726 -0.1249
vn 0.5974 -0.7061 -0.3801
vn 0.7980 -0.1767 -0.5762
vn 0.7977 -0.1738 -0.5774
vn 0.8916 -0.1801 -0.4155
vn 0.9082 -0.1869 -0.3745
usemtl Shape.7659
s off
f 16//1 10//1 17//1
f 2//2 5//2 6//2
f 3//3 6//3 9//3
f 6//4 5//4 9//4
f 7//5 3//5 9//5
f 5//6 8//6 9//6
f 7//7 9//7 11//7
f 9//8 8//8 11//8
f 7//9 1//9 12//9
f 3//10 7//10 12//10
f 4//11 7//11 13//11
f 7//12 11//12 13//12
f 1//13 7//13 14//13
f 7//14 4//14 14//14
f 4//15 10//15 14//15
f 2//16 6//16 15//16
f 6//17 3//17 15//17
f 12//18 1//18 15//18
f 3//19 12//19 15//19
f 14//20 2//20 15//20
f 1//21 14//21 15//21
f 5//22 2//22 16//22
f 8//23 5//23 16//23
f 11//24 8//24 16//24
f 2//25 14//25 16//25
f 14//26 10//26 16//26
f 10//27 4//27 17//27
f 4//28 13//28 17//28
f 13//29 11//29 17//29
f 11//30 16//30 17//30
