# Blender v2.79 (sub 0) OBJ File: ''
# www.blender.org
mtllib 102352_link_1_36.mtl
o Shape_IndexedFaceSet.036_Shape_IndexedFaceSet.7662
v 0.381632 -0.641697 0.347717
v 0.528753 -0.586534 0.046687
v 0.541353 -0.591268 0.028314
v 0.415247 -0.641697 -0.030559
v 0.339584 -0.582859 0.272070
v 0.532920 -0.641697 0.028314
v 0.465690 -0.582859 -0.030559
v 0.398460 -0.582859 0.347717
v 0.339584 -0.641697 0.187955
v 0.473865 -0.628981 0.205451
v 0.347998 -0.641697 0.372920
v 0.540243 -0.583183 -0.028292
v 0.341610 -0.583450 0.377252
v 0.529373 -0.640569 -0.022657
v 0.510012 -0.587939 0.137183
vn 0.1503 0.9871 0.0558
vn 0.0000 -1.0000 0.0000
vn -0.7238 0.6206 -0.3016
vn 0.0000 1.0000 0.0000
vn -0.8559 0.4237 -0.2964
vn 0.4453 -0.8702 0.2109
vn 0.8249 -0.2359 0.5137
vn 0.5910 -0.1690 0.7887
vn 0.4905 0.8640 0.1138
vn 0.9854 -0.1648 -0.0429
vn 0.0303 -0.0260 -0.9992
vn 0.0043 1.0000 0.0008
vn -0.0074 1.0000 0.0058
vn -0.9994 -0.0273 0.0191
vn 0.4611 -0.0154 0.8872
vn -0.9927 -0.1122 0.0452
vn 0.0115 -0.9997 -0.0229
vn 0.9786 -0.1925 -0.0724
vn 0.0697 -0.1106 -0.9914
vn 0.4923 0.8627 0.1154
vn 0.9475 -0.1585 0.2776
vn 0.9089 -0.2649 0.3220
vn 0.8836 0.0005 0.4682
vn 0.4733 0.8738 0.1116
usemtl Shape.7668
s off
f 12//1 8//1 15//1
f 1//2 4//2 6//2
f 4//3 5//3 7//3
f 7//4 5//4 8//4
f 4//2 1//2 9//2
f 5//5 4//5 9//5
f 1//6 6//6 10//6
f 8//7 1//7 10//7
f 1//8 8//8 11//8
f 9//2 1//2 11//2
f 2//9 3//9 12//9
f 3//10 6//10 12//10
f 4//11 7//11 12//11
f 7//12 8//12 12//12
f 8//13 5//13 13//13
f 5//14 9//14 13//14
f 11//15 8//15 13//15
f 9//16 11//16 13//16
f 6//17 4//17 14//17
f 12//18 6//18 14//18
f 4//19 12//19 14//19
f 3//20 2//20 15//20
f 6//21 3//21 15//21
f 10//22 6//22 15//22
f 8//23 10//23 15//23
f 2//24 12//24 15//24
