# Blender v2.79 (sub 0) OBJ File: ''
# www.blender.org
mtllib 102352_link_0_22.mtl
o Shape_IndexedFaceSet.022_Shape_IndexedFaceSet.16473
v -0.728100 0.628449 -0.024194
v -0.737218 0.605649 -0.008238
v -0.730378 0.605649 -0.008238
v -0.737218 0.619327 -0.035594
v -0.737218 0.619327 -0.003680
vn -1.0000 -0.0000 0.0000
vn 0.0000 -0.8944 -0.4472
vn 0.8476 -0.3584 -0.3912
vn -0.7073 0.7070 0.0000
vn 0.8359 0.2562 0.4855
vn 0.0000 -0.3161 0.9487
usemtl Shape.16486
s off
f 4//1 2//1 5//1
f 3//2 2//2 4//2
f 1//3 3//3 4//3
f 1//4 4//4 5//4
f 3//5 1//5 5//5
f 2//6 3//6 5//6
