# Blender v2.79 (sub 0) OBJ File: ''
# www.blender.org
mtllib 102358_link_1_38.mtl
o Shape_IndexedFaceSet.038_Shape_IndexedFaceSet.6445
v -0.027878 -0.473689 -0.470627
v -0.021969 -0.448872 -0.433591
v 0.144417 -0.478841 -0.449570
v -0.021969 0.092575 -0.554577
v 0.130906 0.213566 -0.497260
v -0.021969 0.213566 -0.516361
v 0.130906 -0.404221 -0.414462
v 0.039371 -0.085713 -0.532115
v 0.130906 0.213566 -0.541843
v -0.021969 0.219982 -0.560958
v 0.130906 0.092575 -0.535476
v 0.047307 -0.477846 -0.470429
v -0.021969 -0.404221 -0.433591
v 0.041741 0.092575 -0.554577
v -0.006723 -0.083660 -0.535288
v 0.105419 -0.448872 -0.414462
v 0.130906 0.175331 -0.490894
v 0.137282 0.168980 -0.535476
v 0.041741 0.219982 -0.560958
vn 0.2060 -0.0489 -0.9773
vn -0.0935 -0.8201 0.5645
vn -0.9944 -0.0053 -0.1057
vn -1.0000 0.0087 0.0012
vn -0.0178 0.9897 0.1424
vn 0.2355 -0.1390 -0.9619
vn -0.0546 -0.9767 0.2074
vn 0.2062 -0.1480 -0.9672
vn -0.9875 -0.0000 0.1576
vn -0.9918 0.0169 0.1265
vn 0.0000 -0.0500 -0.9987
vn 0.2078 -0.1250 -0.9701
vn 0.2092 -0.0514 -0.9765
vn -0.3683 -0.1326 -0.9202
vn -0.0064 -0.1632 -0.9866
vn 0.0610 -0.1539 -0.9862
vn 0.0000 -0.1088 -0.9941
vn 0.0626 -0.1256 -0.9901
vn -0.0883 -0.8039 0.5881
vn 0.5077 -0.2898 0.8113
vn -0.1485 -0.0000 0.9889
vn -0.1238 0.0707 0.9898
vn 0.9801 0.0326 0.1959
vn -0.1223 0.1630 0.9790
vn 0.9570 0.0379 0.2877
vn -0.1308 0.1317 0.9826
vn -0.1231 0.1298 0.9839
vn 0.9908 0.0284 0.1321
vn 0.9899 0.1416 0.0000
vn 0.8126 -0.0678 -0.5789
vn 0.5329 -0.0445 -0.8450
vn 0.0718 0.9974 0.0000
vn 0.0000 0.9950 0.1002
usemtl Shape.6453
s off
f 9//1 14//1 19//1
f 2//2 1//2 3//2
f 4//3 1//3 10//3
f 1//4 6//4 10//4
f 6//5 5//5 10//5
f 3//6 8//6 11//6
f 3//7 1//7 12//7
f 8//8 3//8 12//8
f 1//9 2//9 13//9
f 6//10 1//10 13//10
f 4//11 10//11 14//11
f 11//12 8//12 14//12
f 9//13 11//13 14//13
f 1//14 4//14 15//14
f 12//15 1//15 15//15
f 8//16 12//16 15//16
f 4//17 14//17 15//17
f 14//18 8//18 15//18
f 2//19 3//19 16//19
f 3//20 7//20 16//20
f 13//21 2//21 16//21
f 7//22 13//22 16//22
f 3//23 5//23 17//23
f 5//24 6//24 17//24
f 7//25 3//25 17//25
f 6//26 13//26 17//26
f 13//27 7//27 17//27
f 5//28 3//28 18//28
f 9//29 5//29 18//29
f 3//30 11//30 18//30
f 11//31 9//31 18//31
f 5//32 9//32 19//32
f 10//33 5//33 19//33
f 14//11 10//11 19//11
