# Blender v2.79 (sub 0) OBJ File: ''
# www.blender.org
mtllib 102358_link_1_43.mtl
o Shape_IndexedFaceSet.043_Shape_IndexedFaceSet.6450
v -0.021969 -0.264141 0.445496
v -0.013963 -0.251094 0.482811
v 0.150022 -0.264141 0.420014
v -0.021969 0.016141 0.483699
v 0.150022 0.016141 0.458248
v 0.150022 -0.257749 0.464619
v -0.021969 0.016141 0.521934
v 0.150022 0.016141 0.496451
v -0.002827 -0.092175 0.528305
v 0.130897 -0.085810 0.509193
v 0.143641 -0.232288 0.420014
v -0.021969 0.003383 0.477329
v 0.022628 -0.264141 0.483699
v -0.021969 -0.206801 0.502822
v 0.143641 -0.200408 0.483699
v 0.016281 0.016141 0.521934
v -0.021969 -0.238654 0.445496
vn -1.0000 0.0000 -0.0000
vn 1.0000 0.0000 -0.0000
vn -0.0000 1.0000 0.0000
vn -0.1465 -0.0293 -0.9888
vn 0.5593 0.1120 -0.8214
vn -0.1202 0.1540 -0.9807
vn -0.1312 0.4428 -0.8869
vn -0.3196 -0.8710 0.3731
vn 0.0000 -1.0000 -0.0000
vn 0.0707 -0.9874 0.1415
vn -0.9063 -0.2989 0.2989
vn -0.6317 -0.0662 0.7724
vn -0.1753 -0.4315 0.8849
vn 0.1136 -0.2337 0.9657
vn 0.8882 -0.0531 0.4565
vn 0.7568 -0.0606 0.6508
vn 0.1479 -0.1991 0.9688
vn 0.1560 -0.2962 0.9423
vn 0.1223 -0.2322 0.9650
vn 0.0000 0.0587 0.9983
vn 0.1865 0.0873 0.9786
vn 0.1398 0.0335 0.9896
vn -0.1521 0.0000 -0.9884
vn -0.1556 0.1288 -0.9794
usemtl Shape.6458
s off
f 1//1 12//1 17//1
f 3//2 5//2 6//2
f 4//1 1//1 7//1
f 5//3 4//3 7//3
f 5//3 7//3 8//3
f 6//2 5//2 8//2
f 3//4 1//4 11//4
f 5//5 3//5 11//5
f 5//6 11//6 12//6
f 1//1 4//1 12//1
f 4//7 5//7 12//7
f 2//8 1//8 13//8
f 1//9 3//9 13//9
f 3//10 6//10 13//10
f 1//11 2//11 14//11
f 7//1 1//1 14//1
f 9//12 7//12 14//12
f 2//13 13//13 14//13
f 13//14 9//14 14//14
f 6//15 8//15 15//15
f 8//16 10//16 15//16
f 10//17 9//17 15//17
f 13//18 6//18 15//18
f 9//19 13//19 15//19
f 8//3 7//3 16//3
f 7//20 9//20 16//20
f 10//21 8//21 16//21
f 9//22 10//22 16//22
f 11//23 1//23 17//23
f 12//24 11//24 17//24
