# Blender v2.79 (sub 0) OBJ File: ''
# www.blender.org
mtllib 102358_link_0_12.mtl
o Shape_IndexedFaceSet.012_Shape_IndexedFaceSet.4854
v 0.169548 0.633724 0.787723
v 0.173895 0.623576 0.750011
v 0.153584 0.625027 0.752906
v 0.005613 0.607613 0.796431
v -0.003117 0.648234 0.790624
v 0.179703 0.607613 0.773218
v -0.001656 0.625027 0.812395
v 0.181165 0.646783 0.761615
v -0.003117 0.613419 0.780480
v -0.003117 0.638074 0.777573
v 0.001248 0.645332 0.805134
v 0.181165 0.610516 0.757261
v 0.181165 0.645332 0.777573
v 0.173895 0.613419 0.783368
v 0.178260 0.640981 0.752906
v -0.003117 0.613419 0.808035
v 0.001248 0.625027 0.774672
v -0.003117 0.633724 0.812395
v 0.181165 0.620673 0.784816
v 0.021559 0.643880 0.777573
v -0.000195 0.607613 0.792077
v 0.037524 0.648234 0.792077
v 0.178260 0.633724 0.750011
v 0.111518 0.642429 0.792077
v 0.179703 0.614867 0.752906
v 0.181165 0.607613 0.764516
v 0.017212 0.610516 0.780480
vn -0.0525 -0.9271 -0.3710
vn -1.0000 -0.0000 0.0000
vn 1.0000 0.0000 0.0000
vn 0.0647 -0.8721 0.4850
vn 0.0734 -0.8470 0.5265
vn 0.1286 -0.3628 0.9229
vn -0.1414 -0.0048 -0.9899
vn -0.7106 -0.0824 -0.6987
vn 0.1414 0.0238 0.9897
vn -0.7904 0.5097 0.3397
vn -0.7808 -0.1312 0.6109
vn 0.1465 -0.0890 0.9852
vn 0.4864 0.2462 0.8383
vn 0.4845 -0.6106 0.6265
vn 0.1338 -0.3212 0.9375
vn -0.0578 0.9091 -0.4125
vn -0.1825 0.7758 -0.6040
vn -0.0690 0.8407 -0.5371
vn -0.1231 0.5231 -0.8434
vn 0.0000 -1.0000 0.0000
vn -0.2227 -0.9285 0.2970
vn -0.8933 -0.4496 0.0000
vn 0.0015 0.9992 -0.0407
vn -0.0071 0.9801 0.1982
vn 0.0293 0.9955 0.0905
vn 0.0552 0.9312 0.3603
vn -0.1367 0.0588 -0.9889
vn 0.9600 0.0334 -0.2779
vn 0.8983 0.1628 -0.4081
vn -0.1311 0.3673 -0.9208
vn -0.1411 0.0716 -0.9874
vn -0.1441 0.1686 -0.9751
vn 0.1457 0.5646 0.8124
vn 0.0921 0.7939 0.6010
vn 0.1291 0.4087 0.9035
vn 0.1150 0.4954 0.8610
vn -0.1333 -0.3916 -0.9104
vn -0.1334 -0.4029 -0.9055
vn 0.2878 -0.1238 -0.9497
vn 0.9558 0.0282 -0.2927
vn 0.9550 -0.2494 0.1604
vn -0.0468 -0.9502 -0.3081
vn -0.1284 -0.8994 -0.4179
vn -0.1005 -0.7038 -0.7033
vn -0.0973 -0.7202 -0.6869
usemtl Shape.4858
s off
f 12//1 26//1 27//1
f 9//2 5//2 10//2
f 12//3 8//3 13//3
f 4//4 6//4 16//4
f 5//2 9//2 16//2
f 6//5 14//5 16//5
f 14//6 7//6 16//6
f 3//7 2//7 17//7
f 9//8 10//8 17//8
f 7//9 1//9 18//9
f 11//10 5//10 18//10
f 5//2 16//2 18//2
f 16//11 7//11 18//11
f 1//12 7//12 19//12
f 13//13 1//13 19//13
f 12//3 13//3 19//3
f 14//14 6//14 19//14
f 7//15 14//15 19//15
f 5//16 8//16 20//16
f 10//17 5//17 20//17
f 8//18 15//18 20//18
f 15//19 10//19 20//19
f 6//20 4//20 21//20
f 4//21 16//21 21//21
f 16//22 9//22 21//22
f 8//23 5//23 22//23
f 5//24 11//24 22//24
f 13//25 8//25 22//25
f 11//26 13//26 22//26
f 2//27 3//27 23//27
f 8//28 12//28 23//28
f 15//29 8//29 23//29
f 10//30 15//30 23//30
f 3//31 17//31 23//31
f 17//32 10//32 23//32
f 1//33 13//33 24//33
f 13//34 11//34 24//34
f 18//35 1//35 24//35
f 11//36 18//36 24//36
f 17//37 2//37 25//37
f 9//38 17//38 25//38
f 2//39 23//39 25//39
f 23//40 12//40 25//40
f 19//41 6//41 26//41
f 12//3 19//3 26//3
f 6//20 21//20 26//20
f 26//42 21//42 27//42
f 21//43 9//43 27//43
f 9//44 25//44 27//44
f 25//45 12//45 27//45
