# Blender v2.79 (sub 0) OBJ File: ''
# www.blender.org
mtllib 102358_link_1_15.mtl
o Shape_IndexedFaceSet.015_Shape_IndexedFaceSet.6422
v -0.493352 0.149912 0.101532
v -0.525492 0.580273 0.225442
v -0.549934 0.580833 0.225652
v -0.569763 0.589444 0.063324
v -0.550683 0.169057 0.069678
v -0.493352 0.149912 0.228896
v -0.608013 0.544785 0.095161
v -0.455132 0.175425 0.222526
v -0.563403 0.538418 0.228896
v -0.512462 0.551196 0.203414
v -0.506102 0.175425 0.063324
v -0.608013 0.538418 0.063324
v -0.544293 0.156322 0.095161
v -0.557043 0.557564 0.063324
v -0.512462 0.576666 0.228896
v -0.455132 0.149912 0.228896
v -0.499742 0.149912 0.222526
v -0.608013 0.563888 0.095161
v -0.550683 0.169057 0.063324
v -0.601638 0.544785 0.120644
v -0.563403 0.576666 0.228896
vn -0.9429 0.0000 0.3330
vn 0.0233 0.9985 0.0501
vn 0.9522 0.0193 -0.3049
vn 0.0000 0.0000 -1.0000
vn -0.9878 -0.1528 0.0306
vn -0.9734 -0.1597 0.1643
vn 0.9466 0.1294 -0.2954
vn 0.9448 0.1259 -0.3025
vn 0.0226 0.7329 0.6800
vn 0.2716 0.9622 -0.0197
vn 0.0000 0.0000 1.0000
vn 0.9796 0.1422 -0.1422
vn 0.8914 0.3557 -0.2810
vn 0.9185 0.2797 -0.2796
vn 0.0000 -1.0000 0.0000
vn 0.9553 -0.0716 -0.2867
vn 0.8745 0.1175 0.4705
vn -0.7003 -0.1263 0.7025
vn -0.1240 -0.9923 -0.0066
vn -0.7214 0.5408 -0.4326
vn -1.0000 0.0000 0.0000
vn 0.1154 -0.8079 -0.5780
vn -0.9882 -0.1534 0.0000
vn -0.0724 -0.9310 -0.3579
vn -0.8938 -0.4485 0.0000
vn -0.9581 -0.1572 0.2397
vn -0.9339 -0.1583 0.3206
vn -0.9344 -0.1589 0.3188
vn -0.9701 0.0000 0.2427
vn -0.9471 0.0935 0.3070
vn -0.2759 0.9575 0.0845
vn 0.0000 0.6143 0.7891
vn -0.5032 0.8599 0.0857
usemtl Shape.6430
s off
f 20//1 9//1 21//1
f 3//2 2//2 4//2
f 8//3 1//3 11//3
f 4//4 11//4 12//4
f 5//5 7//5 12//5
f 7//6 5//6 13//6
f 10//7 8//7 14//7
f 8//8 11//8 14//8
f 11//4 4//4 14//4
f 2//9 3//9 15//9
f 4//10 2//10 15//10
f 9//11 6//11 15//11
f 8//12 10//12 15//12
f 14//13 4//13 15//13
f 10//14 14//14 15//14
f 6//15 1//15 16//15
f 1//16 8//16 16//16
f 15//11 6//11 16//11
f 8//17 15//17 16//17
f 1//15 6//15 17//15
f 6//18 9//18 17//18
f 13//19 1//19 17//19
f 4//20 12//20 18//20
f 12//21 7//21 18//21
f 11//22 1//22 19//22
f 12//4 11//4 19//4
f 5//23 12//23 19//23
f 1//24 13//24 19//24
f 13//25 5//25 19//25
f 7//26 13//26 20//26
f 17//27 9//27 20//27
f 13//28 17//28 20//28
f 18//29 7//29 20//29
f 18//30 20//30 21//30
f 3//31 4//31 21//31
f 15//32 3//32 21//32
f 9//11 15//11 21//11
f 4//33 18//33 21//33
