# Blender v2.79 (sub 0) OBJ File: ''
# www.blender.org
mtllib 102358_link_0_3.mtl
o Shape_IndexedFaceSet.003_Shape_IndexedFaceSet.4845
v -0.413755 0.616317 0.600542
v -0.525491 0.611968 0.530907
v -0.525491 0.619212 0.530907
v -0.410864 0.616317 0.660015
v -0.377495 0.640979 0.658574
v -0.381856 0.600362 0.657133
v -0.509517 0.594554 0.530907
v -0.486291 0.629368 0.530907
v -0.510971 0.632272 0.545418
v -0.489199 0.598908 0.530907
v -0.358646 0.614867 0.658574
v -0.402158 0.636626 0.660015
v -0.513878 0.603261 0.549766
v -0.396360 0.601811 0.660015
v -0.362991 0.633726 0.657133
v -0.515315 0.620661 0.551220
v -0.508063 0.635176 0.530907
v -0.481963 0.609064 0.530907
v -0.367336 0.606165 0.655667
v -0.389108 0.640979 0.660015
v -0.497904 0.635176 0.530907
v -0.415209 0.623565 0.655667
v -0.487761 0.596008 0.561383
v -0.434074 0.606165 0.632447
v -0.464552 0.619212 0.548312
v -0.423914 0.635171 0.639715
v -0.497904 0.611968 0.570079
v -0.500811 0.594554 0.530907
v -0.510971 0.598908 0.546859
vn -0.5109 -0.6866 0.5172
vn 0.0000 0.0000 -1.0000
vn 0.1514 -0.3346 0.9301
vn 0.0000 0.0000 1.0000
vn 0.1527 0.1102 0.9821
vn 0.7218 0.1141 -0.6826
vn -0.8941 0.0000 0.4479
vn -0.7973 0.4807 0.3651
vn -0.8684 -0.1121 0.4830
vn -0.6754 0.7373 0.0122
vn 0.7131 -0.1650 -0.6813
vn 0.6531 -0.4482 -0.6104
vn 0.3014 -0.5590 0.7724
vn 0.6479 -0.4616 -0.6060
vn 0.1227 0.0885 0.9885
vn 0.0408 -0.0076 0.9991
vn -0.0050 0.9992 -0.0403
vn -0.2110 0.9658 0.1510
vn 0.4052 0.8101 -0.4237
vn 0.3791 0.8366 -0.3955
vn 0.0000 0.9990 -0.0454
vn -0.4926 0.2112 0.8442
vn -0.0057 -0.9986 0.0517
vn -0.0737 -0.9892 0.1265
vn -0.5373 -0.5372 0.6502
vn 0.7130 0.1483 -0.6853
vn 0.6776 0.2984 -0.6722
vn 0.7157 -0.0311 -0.6978
vn 0.6579 0.1402 -0.7399
vn -0.6346 0.5221 0.5698
vn -0.2976 0.9223 0.2464
vn -0.3054 0.9156 0.2617
vn -0.6346 0.4177 0.6502
vn -0.6760 0.3694 0.6376
vn -0.7559 -0.1163 0.6443
vn -0.7182 -0.0132 0.6957
vn -0.7217 0.0520 0.6903
vn -0.6854 -0.2697 0.6764
vn -0.6790 -0.3085 0.6662
vn 0.0000 -0.9989 0.0460
vn 0.3332 -0.9026 -0.2725
vn 0.3373 -0.8997 -0.2772
vn -0.7319 -0.6714 0.1165
vn -0.7591 -0.6261 0.1784
vn -0.2621 -0.9368 0.2318
vn -0.3350 -0.8700 0.3616
vn -0.4127 -0.7984 0.4385
usemtl Shape.4849
s off
f 24//1 13//1 29//1
f 2//2 3//2 7//2
f 7//2 3//2 8//2
f 7//2 8//2 10//2
f 6//3 11//3 14//3
f 12//4 4//4 14//4
f 5//5 11//5 15//5
f 11//6 1//6 15//6
f 3//7 2//7 16//7
f 9//8 3//8 16//8
f 2//9 13//9 16//9
f 8//2 3//2 17//2
f 3//10 9//10 17//10
f 10//2 8//2 18//2
f 1//11 11//11 18//11
f 18//12 11//12 19//12
f 11//13 6//13 19//13
f 10//14 18//14 19//14
f 11//15 5//15 20//15
f 14//16 11//16 20//16
f 12//4 14//4 20//4
f 5//17 17//17 20//17
f 17//18 9//18 20//18
f 15//19 8//19 21//19
f 5//20 15//20 21//20
f 17//21 5//21 21//21
f 8//2 17//2 21//2
f 4//22 12//22 22//22
f 7//23 6//23 23//23
f 6//24 14//24 23//24
f 14//25 4//25 24//25
f 15//26 1//26 25//26
f 8//27 15//27 25//27
f 1//28 18//28 25//28
f 18//29 8//29 25//29
f 9//30 16//30 26//30
f 20//31 9//31 26//31
f 12//32 20//32 26//32
f 22//33 12//33 26//33
f 16//34 22//34 26//34
f 16//35 13//35 27//35
f 4//36 22//36 27//36
f 22//37 16//37 27//37
f 24//38 4//38 27//38
f 13//39 24//39 27//39
f 6//40 7//40 28//40
f 7//2 10//2 28//2
f 19//41 6//41 28//41
f 10//42 19//42 28//42
f 2//43 7//43 29//43
f 13//44 2//44 29//44
f 7//45 23//45 29//45
f 23//46 14//46 29//46
f 14//47 24//47 29//47
