# Blender v2.79 (sub 0) OBJ File: ''
# www.blender.org
mtllib 102358_link_1_29.mtl
o Shape_IndexedFaceSet.029_Shape_IndexedFaceSet.6436
v 0.213716 0.016141 0.420048
v 0.165557 0.561655 0.574226
v 0.152759 0.564829 0.575296
v 0.271038 0.582991 0.477352
v 0.277410 0.079891 0.458238
v 0.150022 0.035277 0.502812
v 0.150022 0.551172 0.528290
v 0.277410 0.544830 0.534673
v 0.277410 0.060755 0.394534
v 0.188253 0.079891 0.509177
v 0.150022 0.054413 0.458238
v 0.181882 0.544830 0.579265
v 0.271038 0.016141 0.445526
v 0.271038 0.105369 0.400935
v 0.277410 0.487478 0.458238
v 0.150022 0.532092 0.579265
v 0.150022 0.589444 0.541038
v 0.251923 0.570308 0.547403
v 0.169150 0.079891 0.515560
v 0.169150 0.016141 0.496447
v 0.271038 0.487478 0.458238
v 0.200997 0.538433 0.572882
v 0.277410 0.016141 0.394534
v 0.150022 0.016141 0.458238
v 0.239191 0.086232 0.483717
vn 0.4575 -0.2561 0.8515
vn 1.0000 0.0000 -0.0000
vn -1.0000 0.0000 -0.0000
vn 0.1827 0.4405 0.8789
vn -0.4135 0.0712 -0.9077
vn -0.4624 0.1086 -0.8800
vn -0.4667 0.1235 -0.8758
vn 0.9952 0.0781 -0.0586
vn 0.0402 0.1475 -0.9882
vn -0.0497 0.1243 0.9910
vn -0.4345 0.2846 -0.8545
vn -0.9834 0.1005 0.1508
vn 0.2013 0.5349 0.8206
vn 0.7451 0.5904 0.3102
vn 0.2188 0.4687 0.8558
vn 0.1165 0.8110 0.5734
vn 0.1668 0.9612 0.2195
vn -0.2908 -0.1455 0.9456
vn 0.0548 -0.1370 0.9891
vn 0.0000 -1.0000 0.0000
vn 0.4267 -0.2983 0.8538
vn 0.0314 -0.2870 0.9574
vn 0.3048 -0.2735 0.9123
vn -0.4211 0.1780 -0.8894
vn -0.4432 0.1329 -0.8865
vn 0.0000 0.1962 -0.9806
vn 0.0000 0.1483 -0.9889
vn 0.4522 -0.1351 0.8817
vn 0.4472 0.0005 0.8944
vn 0.3602 0.1592 0.9192
vn 0.3138 -0.1392 0.9392
vn 0.2719 -0.1379 0.9524
vn -0.3718 0.0000 -0.9283
vn 0.9848 -0.1230 0.1231
vn -0.5142 0.0000 -0.8576
vn -0.6189 -0.7217 0.3098
vn 0.5336 -0.1372 0.8345
vn 0.4564 -0.1357 0.8793
vn 0.5163 -0.2168 0.8285
usemtl Shape.6444
s off
f 10//1 13//1 25//1
f 8//2 5//2 9//2
f 6//3 7//3 11//3
f 2//4 3//4 12//4
f 9//5 1//5 14//5
f 1//6 11//6 14//6
f 11//7 7//7 14//7
f 4//8 8//8 15//8
f 8//2 9//2 15//2
f 9//9 14//9 15//9
f 7//3 6//3 16//3
f 12//10 3//10 16//10
f 4//11 7//11 17//11
f 16//12 3//12 17//12
f 7//3 16//3 17//3
f 3//13 2//13 18//13
f 8//14 4//14 18//14
f 2//15 12//15 18//15
f 17//16 3//16 18//16
f 4//17 17//17 18//17
f 16//18 6//18 19//18
f 12//19 16//19 19//19
f 1//20 13//20 20//20
f 13//21 10//21 20//21
f 19//22 6//22 20//22
f 10//23 19//23 20//23
f 7//24 4//24 21//24
f 14//25 7//25 21//25
f 4//26 15//26 21//26
f 15//27 14//27 21//27
f 10//28 8//28 22//28
f 8//29 18//29 22//29
f 18//30 12//30 22//30
f 19//31 10//31 22//31
f 12//32 19//32 22//32
f 1//33 9//33 23//33
f 9//2 5//2 23//2
f 13//20 1//20 23//20
f 5//34 13//34 23//34
f 11//35 1//35 24//35
f 6//3 11//3 24//3
f 1//20 20//20 24//20
f 20//36 6//36 24//36
f 5//37 8//37 25//37
f 8//38 10//38 25//38
f 13//39 5//39 25//39
