# Blender v2.79 (sub 0) OBJ File: ''
# www.blender.org
mtllib 102358_link_1_24.mtl
o Shape_IndexedFaceSet.024_Shape_IndexedFaceSet.6431
v 0.358568 -0.484446 -0.227725
v 0.417577 -0.448872 -0.223360
v 0.404396 -0.497163 -0.090034
v 0.525837 -0.085726 -0.102345
v 0.564062 0.538321 -0.223360
v 0.500370 0.519214 -0.223360
v 0.602286 0.538321 -0.095960
v 0.544961 0.544826 -0.095960
v 0.453604 -0.488669 -0.104812
v 0.487613 -0.085726 -0.216975
v 0.355552 -0.497734 -0.215397
v 0.525837 0.589444 -0.204243
v 0.595919 0.538321 -0.134182
v 0.454920 -0.464826 -0.094002
v 0.419407 -0.488005 -0.207603
v 0.588063 0.582197 -0.096849
v 0.564062 0.576638 -0.223360
v 0.411210 -0.397851 -0.102345
v 0.506713 0.519214 -0.197858
v 0.481269 -0.098430 -0.223360
v 0.551328 0.576638 -0.102345
vn -0.9238 0.2757 0.2657
vn 0.0006 0.0056 1.0000
vn 0.9355 -0.1658 -0.3120
vn -0.9860 0.1397 -0.0906
vn 0.1537 -0.9866 -0.0554
vn 0.9795 -0.1183 -0.1632
vn 0.9416 -0.1218 -0.3140
vn 0.9351 -0.1180 -0.3341
vn 0.0850 -0.0105 0.9963
vn 0.4458 -0.0638 0.8928
vn 0.3264 -0.4052 0.8540
vn 0.9493 -0.1718 0.2633
vn 0.2760 -0.3479 -0.8960
vn 0.9354 -0.1659 -0.3123
vn 0.8579 -0.1569 -0.4892
vn 0.1904 -0.6906 -0.6978
vn 0.1574 -0.9858 -0.0587
vn 0.0024 0.0210 0.9998
vn 0.9404 0.3017 -0.1567
vn 0.9256 0.3274 -0.1900
vn 0.0212 0.0000 -0.9998
vn -0.0045 0.0050 -1.0000
vn -0.3202 0.3552 -0.8782
vn 0.9417 0.0000 -0.3364
vn 0.2737 0.9572 -0.0940
vn -0.8661 0.1196 0.4854
vn -0.9265 0.1083 0.3605
vn -0.9302 0.1297 0.3434
vn -0.9610 0.1387 0.2390
vn -0.9384 0.1340 0.3186
vn -0.9330 0.2752 0.2321
vn 0.0828 -0.0150 -0.9965
vn 0.0601 -0.0078 -0.9982
vn 0.8355 -0.1519 -0.5280
vn 0.8014 -0.1042 -0.5889
vn -0.1777 0.2277 0.9574
vn -0.1717 0.9712 0.1650
vn -0.9267 0.2430 0.2867
usemtl Shape.6439
s off
f 12//1 19//1 21//1
f 3//2 7//2 8//2
f 4//3 9//3 10//3
f 6//4 1//4 11//4
f 9//5 3//5 11//5
f 7//6 4//6 13//6
f 4//7 10//7 13//7
f 10//8 5//8 13//8
f 7//9 3//9 14//9
f 4//10 7//10 14//10
f 3//11 9//11 14//11
f 9//12 4//12 14//12
f 1//13 2//13 15//13
f 10//14 9//14 15//14
f 2//15 10//15 15//15
f 11//16 1//16 15//16
f 9//17 11//17 15//17
f 8//18 7//18 16//18
f 7//19 13//19 16//19
f 16//20 13//20 17//20
f 5//21 1//21 17//21
f 1//22 6//22 17//22
f 6//23 12//23 17//23
f 13//24 5//24 17//24
f 12//25 16//25 17//25
f 3//26 8//26 18//26
f 11//27 3//27 18//27
f 8//28 11//28 18//28
f 6//29 11//29 19//29
f 11//30 8//30 19//30
f 12//31 6//31 19//31
f 2//32 1//32 20//32
f 1//33 5//33 20//33
f 10//34 2//34 20//34
f 5//35 10//35 20//35
f 8//36 16//36 21//36
f 16//37 12//37 21//37
f 19//38 8//38 21//38
