# Blender v2.79 (sub 0) OBJ File: ''
# www.blender.org
mtllib 102358_link_0_5.mtl
o Shape_IndexedFaceSet.005_Shape_IndexedFaceSet.4847
v -0.206276 0.622125 0.736944
v -0.357143 0.620672 0.700673
v -0.357143 0.627919 0.700673
v -0.204818 0.625022 0.780473
v -0.196108 0.646783 0.761599
v -0.193209 0.606162 0.768856
v -0.278811 0.617771 0.700673
v -0.303470 0.642429 0.700673
v -0.329586 0.603260 0.703571
v -0.228036 0.642434 0.761599
v -0.191768 0.609063 0.751443
v -0.191768 0.639528 0.748553
v -0.217884 0.611968 0.770309
v -0.342652 0.639528 0.700673
v -0.300572 0.604713 0.700673
v -0.191768 0.642434 0.776113
v -0.280252 0.632273 0.700673
v -0.338297 0.610516 0.709376
v -0.209174 0.630820 0.779012
v -0.191768 0.613417 0.779012
v -0.338297 0.638075 0.706478
v -0.220783 0.604709 0.748553
v -0.220783 0.623573 0.773215
v -0.207733 0.646783 0.760154
v -0.332500 0.626470 0.715180
v -0.275913 0.609067 0.706478
v -0.193209 0.630820 0.744194
vn 0.4238 0.3484 -0.8361
vn 0.0000 0.0000 -1.0000
vn 0.2042 0.8828 -0.4230
vn -0.1838 -0.8871 0.4234
vn -0.0810 -0.2870 -0.9545
vn 0.8030 0.5927 -0.0625
vn 1.0000 0.0000 0.0000
vn 0.4447 0.0442 -0.8946
vn 0.3009 0.6880 -0.6604
vn -0.5378 -0.8158 0.2126
vn -0.2751 -0.7800 0.5622
vn -0.0010 0.2436 0.9699
vn -0.2917 0.6192 0.7290
vn 0.9683 -0.2469 0.0390
vn -0.2677 -0.4107 0.8716
vn -0.1521 -0.7939 0.5887
vn 0.1959 0.0975 0.9758
vn -0.5208 0.6501 0.5534
vn -0.2338 0.8873 0.3975
vn -0.4038 0.4964 0.7685
vn -0.0368 -0.9920 0.1210
vn 0.1613 -0.9756 -0.1492
vn 0.0428 -0.9965 -0.0714
vn 0.1698 -0.9439 -0.2831
vn -0.3697 -0.3115 0.8754
vn -0.4250 -0.3184 0.8474
vn -0.4069 -0.0763 0.9103
vn 0.0113 0.9958 -0.0911
vn -0.0738 0.9962 0.0458
vn -0.1801 0.9386 0.2941
vn -0.1633 0.8982 0.4082
vn -0.0369 0.9542 0.2969
vn -0.5073 0.0000 0.8618
vn -0.4771 -0.1421 0.8673
vn -0.4528 0.3790 0.8071
vn -0.4338 0.3917 0.8114
vn -0.4587 -0.1518 0.8755
vn -0.4603 0.0275 0.8874
vn 0.4293 -0.3978 -0.8108
vn 0.4289 -0.4146 -0.8026
vn 0.2799 -0.4664 -0.8391
vn 0.2622 -0.8309 -0.4908
vn 0.5819 -0.2221 -0.7824
vn 0.9632 -0.0254 -0.2677
vn 0.4470 0.0717 -0.8916
usemtl Shape.4851
s off
f 17//1 12//1 27//1
f 2//2 3//2 7//2
f 7//2 3//2 8//2
f 8//3 5//3 12//3
f 9//4 6//4 13//4
f 8//2 3//2 14//2
f 2//2 7//2 15//2
f 9//5 2//5 15//5
f 12//6 5//6 16//6
f 11//7 12//7 16//7
f 1//8 7//8 17//8
f 7//2 8//2 17//2
f 8//9 12//9 17//9
f 2//10 9//10 18//10
f 9//11 13//11 18//11
f 4//12 16//12 19//12
f 16//13 10//13 19//13
f 6//14 11//14 20//14
f 4//15 13//15 20//15
f 13//16 6//16 20//16
f 16//17 4//17 20//17
f 11//7 16//7 20//7
f 14//18 3//18 21//18
f 10//19 14//19 21//19
f 19//20 10//20 21//20
f 6//21 9//21 22//21
f 11//22 6//22 22//22
f 9//23 15//23 22//23
f 15//24 11//24 22//24
f 13//25 4//25 23//25
f 18//26 13//26 23//26
f 4//27 19//27 23//27
f 5//28 8//28 24//28
f 8//29 14//29 24//29
f 14//30 10//30 24//30
f 10//31 16//31 24//31
f 16//32 5//32 24//32
f 3//33 2//33 25//33
f 2//34 18//34 25//34
f 21//35 3//35 25//35
f 19//36 21//36 25//36
f 18//37 23//37 25//37
f 23//38 19//38 25//38
f 7//39 1//39 26//39
f 1//40 11//40 26//40
f 15//41 7//41 26//41
f 11//42 15//42 26//42
f 11//43 1//43 27//43
f 12//44 11//44 27//44
f 1//45 17//45 27//45
