# Blender v2.79 (sub 0) OBJ File: ''
# www.blender.org
mtllib 102358_link_1_44.mtl
o Shape_IndexedFaceSet.044_Shape_IndexedFaceSet.6451
v 0.296533 -0.028450 0.369032
v 0.328408 -0.028450 0.330818
v 0.493994 0.557570 0.235283
v 0.458399 -0.054079 0.243285
v 0.468504 0.538457 0.375410
v 0.404829 0.576622 0.369032
v 0.349210 -0.049014 0.380073
v 0.411189 -0.009337 0.235283
v 0.551335 0.538457 0.235283
v 0.462144 0.092637 0.292631
v 0.525844 0.544808 0.311711
v 0.296533 -0.002926 0.369032
v 0.291882 -0.039729 0.377968
v 0.388747 -0.061082 0.340545
v 0.506739 0.589444 0.241661
v 0.385724 0.500172 0.369032
v 0.456776 -0.038322 0.233044
v 0.460853 0.579002 0.366879
v 0.398444 0.079936 0.362667
v 0.513099 0.544808 0.330818
v 0.481224 0.079936 0.248039
v 0.525844 0.570271 0.311711
v 0.411189 -0.028450 0.235283
v 0.451851 -0.058195 0.263468
v 0.551335 0.544808 0.248039
vn 0.7074 0.7068 0.0005
vn -0.7679 0.0000 -0.6405
vn -0.7582 0.0283 -0.6514
vn -0.7520 0.1098 -0.6499
vn -0.7543 -0.1874 -0.6292
vn -0.0821 0.0295 0.9962
vn -0.0343 0.0149 0.9993
vn -0.8870 0.0000 -0.4617
vn -0.3109 -0.9058 -0.2879
vn -0.1632 -0.9773 0.1351
vn -0.7340 0.4029 -0.5467
vn 0.0579 0.1736 -0.9831
vn -0.8018 0.2004 -0.5630
vn -0.7983 0.1415 -0.5855
vn -0.2123 0.0530 0.9758
vn -0.9643 0.1710 0.2022
vn -0.0449 0.0066 -0.9990
vn 0.9155 -0.1486 -0.3738
vn 0.0012 0.0037 -1.0000
vn 0.0286 0.2110 0.9771
vn -0.0397 0.9969 0.0686
vn 0.5758 -0.1105 0.8101
vn 0.6732 -0.1596 0.7221
vn 0.7447 -0.1531 0.6496
vn 0.8238 -0.1392 0.5495
vn 0.7103 -0.1278 0.6922
vn 0.7450 -0.1391 0.6524
vn 0.9528 -0.1530 -0.2621
vn 0.6437 0.2720 0.7153
vn 0.2806 0.9425 0.1814
vn 0.8319 0.0000 0.5549
vn 0.6805 0.1904 0.7076
vn -0.7558 0.0000 -0.6549
vn -0.7258 -0.2786 -0.6289
vn -0.3874 -0.8354 -0.3900
vn -0.0491 0.0000 -0.9988
vn -0.1593 -0.5495 -0.8202
vn 0.8920 -0.1437 0.4286
vn 0.7654 -0.1721 0.6202
vn -0.3060 -0.9085 -0.2846
vn 0.9469 -0.1709 0.2723
vn 0.8959 -0.1436 0.4203
vn 0.6924 0.6459 -0.3216
vn 0.9861 -0.1487 0.0740
vn 0.9194 -0.1387 0.3681
vn 0.9284 0.0000 0.3717
usemtl Shape.6459
s off
f 15//1 22//1 25//1
f 2//2 1//2 12//2
f 8//3 2//3 12//3
f 3//4 8//4 12//4
f 1//5 2//5 13//5
f 5//6 6//6 13//6
f 7//7 5//7 13//7
f 12//8 1//8 13//8
f 13//9 4//9 14//9
f 7//10 13//10 14//10
f 3//11 6//11 15//11
f 9//12 3//12 15//12
f 6//13 3//13 16//13
f 3//14 12//14 16//14
f 13//15 6//15 16//15
f 12//16 13//16 16//16
f 8//17 3//17 17//17
f 9//18 4//18 17//18
f 3//19 9//19 17//19
f 6//20 5//20 18//20
f 15//21 6//21 18//21
f 5//22 7//22 19//22
f 7//23 14//23 19//23
f 14//24 10//24 19//24
f 10//25 11//25 20//25
f 5//26 19//26 20//26
f 19//27 10//27 20//27
f 4//28 9//28 21//28
f 18//29 5//29 22//29
f 15//30 18//30 22//30
f 20//31 11//31 22//31
f 5//32 20//32 22//32
f 2//33 8//33 23//33
f 13//34 2//34 23//34
f 4//35 13//35 23//35
f 8//36 17//36 23//36
f 17//37 4//37 23//37
f 11//38 10//38 24//38
f 10//39 14//39 24//39
f 14//40 4//40 24//40
f 4//41 21//41 24//41
f 21//42 11//42 24//42
f 9//43 15//43 25//43
f 21//44 9//44 25//44
f 11//45 21//45 25//45
f 22//46 11//46 25//46
