# Blender v2.79 (sub 0) OBJ File: ''
# www.blender.org
mtllib 102358_link_1_33.mtl
o Shape_IndexedFaceSet.033_Shape_IndexedFaceSet.6440
v -0.206700 -0.181346 -0.471776
v -0.410502 -0.206826 -0.312558
v -0.410502 -0.206826 -0.306203
v -0.197544 -0.495891 -0.368178
v -0.289538 -0.480723 -0.388990
v -0.346818 -0.149489 -0.306203
v -0.287665 -0.497305 -0.298071
v -0.206700 -0.155867 -0.414440
v -0.314976 -0.143110 -0.414440
v -0.359546 -0.480723 -0.312558
v -0.206700 -0.480723 -0.427181
v -0.196838 -0.126772 -0.472801
v -0.410502 -0.143110 -0.306203
v -0.314976 -0.206826 -0.414440
v -0.213105 -0.194103 -0.471776
v -0.353182 -0.480723 -0.325299
v -0.219469 -0.480723 -0.427181
v -0.204164 -0.496527 -0.361139
v -0.359546 -0.480723 -0.306203
vn -0.2248 -0.9744 0.0000
vn -0.9831 -0.1829 0.0000
vn 0.9800 0.0525 0.1918
vn 0.3935 0.7945 0.4626
vn 0.5803 -0.1200 -0.8055
vn 0.9850 -0.0488 -0.1654
vn -1.0000 0.0000 0.0000
vn 0.0024 0.0238 0.9997
vn -0.0661 0.0000 0.9978
vn -0.7481 0.0659 -0.6603
vn 0.0972 0.9707 0.2199
vn -0.2331 0.9505 -0.2057
vn -0.7295 0.0000 -0.6840
vn -0.4905 0.0000 -0.8715
vn 0.2816 -0.1414 -0.9491
vn -0.4515 0.0956 -0.8872
vn 0.0583 -0.0293 -0.9979
vn -0.1734 -0.9695 -0.1732
vn -0.8825 -0.1642 -0.4408
vn -0.2041 -0.9736 -0.1019
vn -0.7013 -0.1303 -0.7008
vn -0.7242 -0.1200 -0.6790
vn -0.1132 -0.9716 -0.2077
vn 0.0000 -0.9685 -0.2490
vn -0.4748 -0.1250 -0.8712
vn -0.4747 -0.1250 -0.8712
vn 0.0000 -0.1537 -0.9881
vn -0.1159 -0.9735 -0.1970
vn 0.5976 0.1202 0.7927
vn -0.1235 -0.9767 -0.1756
vn 0.7187 0.1127 0.6861
vn 0.6100 0.1269 0.7822
vn -0.1174 -0.0218 0.9928
usemtl Shape.6448
s off
f 10//1 7//1 19//1
f 3//2 2//2 10//2
f 8//3 4//3 12//3
f 6//4 8//4 12//4
f 11//5 1//5 12//5
f 4//6 11//6 12//6
f 2//7 3//7 13//7
f 7//8 6//8 13//8
f 3//9 7//9 13//9
f 9//10 2//10 13//10
f 6//11 12//11 13//11
f 12//12 9//12 13//12
f 2//13 9//13 14//13
f 14//14 9//14 15//14
f 1//15 11//15 15//15
f 9//16 12//16 15//16
f 12//17 1//17 15//17
f 5//18 7//18 16//18
f 10//19 2//19 16//19
f 7//20 10//20 16//20
f 14//21 5//21 16//21
f 2//22 14//22 16//22
f 4//23 5//23 17//23
f 11//24 4//24 17//24
f 5//25 14//25 17//25
f 14//26 15//26 17//26
f 15//27 11//27 17//27
f 5//28 4//28 18//28
f 6//29 7//29 18//29
f 7//30 5//30 18//30
f 4//31 8//31 18//31
f 8//32 6//32 18//32
f 7//33 3//33 19//33
f 3//2 10//2 19//2
