# Blender v2.79 (sub 0) OBJ File: ''
# www.blender.org
mtllib 102358_link_1_39.mtl
o Shape_IndexedFaceSet.039_Shape_IndexedFaceSet.6446
v 0.156398 0.086159 -0.529103
v 0.200976 -0.404221 -0.382626
v 0.200976 -0.238579 -0.408109
v 0.137288 0.181747 -0.490887
v 0.136780 -0.454204 -0.446123
v 0.200976 0.079808 -0.516369
v 0.203544 -0.475843 -0.424650
v 0.200976 0.219982 -0.484512
v 0.137288 -0.436106 -0.408109
v 0.137288 0.181747 -0.535478
v 0.169129 -0.448872 -0.446326
v 0.204123 -0.481925 -0.375073
v 0.194604 0.219982 -0.529103
v 0.153059 -0.090369 -0.507284
v 0.137288 0.219982 -0.497261
v 0.195310 -0.090925 -0.495691
v 0.200976 0.207215 -0.478153
v 0.188232 -0.429755 -0.382626
vn -0.4467 -0.0065 0.8947
vn -0.2706 0.1464 0.9515
vn 0.9999 0.0027 -0.0118
vn -0.9999 0.0017 0.0126
vn 0.0863 -0.5549 -0.8274
vn 0.8102 0.0891 0.5793
vn -0.2729 -0.9553 -0.1140
vn 0.9999 0.0027 -0.0113
vn -0.6400 -0.6904 0.3372
vn 0.2640 -0.0754 -0.9616
vn 0.9894 0.0321 -0.1414
vn 0.1360 -0.0388 -0.9899
vn 0.2563 -0.1233 -0.9587
vn -0.2500 -0.1141 -0.9615
vn -0.5281 -0.1177 -0.8410
vn 0.0213 -0.1667 -0.9858
vn -1.0000 0.0014 0.0083
vn -1.0000 0.0007 -0.0007
vn -0.0000 1.0000 0.0000
vn -0.3657 0.6580 -0.6583
vn 0.7540 -0.1036 -0.6486
vn 0.4372 -0.1542 -0.8860
vn 0.2610 -0.1246 -0.9573
vn 0.2597 -0.1505 -0.9539
vn -0.2513 0.1502 0.9562
vn 0.8527 0.0811 0.5161
vn 0.9999 0.0065 0.0131
vn -0.2543 0.1590 0.9540
vn -0.1764 0.4389 0.8811
vn -0.2878 0.1437 0.9468
vn -0.4560 0.1182 0.8821
vn -0.1766 0.0881 0.9803
usemtl Shape.6454
s off
f 9//1 12//1 18//1
f 2//2 3//2 4//2
f 7//3 6//3 8//3
f 4//4 5//4 9//4
f 7//5 5//5 11//5
f 3//6 2//6 12//6
f 5//7 7//7 12//7
f 7//8 8//8 12//8
f 9//9 5//9 12//9
f 6//10 1//10 13//10
f 8//11 6//11 13//11
f 1//12 10//12 13//12
f 1//13 6//13 14//13
f 10//14 1//14 14//14
f 5//15 10//15 14//15
f 11//16 5//16 14//16
f 5//17 4//17 15//17
f 10//18 5//18 15//18
f 8//19 13//19 15//19
f 13//20 10//20 15//20
f 6//21 7//21 16//21
f 7//22 11//22 16//22
f 14//23 6//23 16//23
f 11//24 14//24 16//24
f 4//25 3//25 17//25
f 3//26 12//26 17//26
f 12//27 8//27 17//27
f 15//28 4//28 17//28
f 8//29 15//29 17//29
f 2//30 4//30 18//30
f 4//31 9//31 18//31
f 12//32 2//32 18//32
