# Blender v2.79 (sub 0) OBJ File: ''
# www.blender.org
mtllib 102358_link_0_16.mtl
o Shape_IndexedFaceSet.016_Shape_IndexedFaceSet.4858
v 0.519262 0.600349 0.024482
v 0.571488 0.593104 -0.026305
v 0.564233 0.590201 -0.024848
v 0.578737 0.580044 0.002712
v 0.578737 0.616311 -0.003079
v 0.533773 0.611957 -0.004531
v 0.527973 0.581496 0.002712
v 0.551172 0.614860 0.024482
v 0.545384 0.578593 0.024482
v 0.578737 0.578593 -0.017590
v 0.578737 0.610505 -0.023402
v 0.578737 0.598898 0.009971
v 0.533773 0.617763 0.024482
v 0.541028 0.600349 -0.016138
v 0.522168 0.606155 0.004164
v 0.549722 0.617763 -0.004531
v 0.543928 0.580044 -0.010337
v 0.536679 0.577142 0.020127
v 0.555527 0.587298 0.024482
v 0.552622 0.609054 -0.019047
v 0.523618 0.584399 0.024482
v 0.522168 0.594555 0.001261
vn -0.9014 -0.4146 -0.1250
vn 0.0000 0.0000 1.0000
vn 0.0284 -0.5042 -0.8631
vn 1.0000 0.0000 0.0000
vn 0.6360 -0.1383 -0.7592
vn 0.6094 0.4755 0.6345
vn 0.1608 0.9640 0.2116
vn -0.5374 0.8269 -0.1655
vn -0.7662 0.6385 0.0729
vn -0.6615 0.2815 -0.6951
vn 0.0617 0.9597 -0.2742
vn 0.0486 0.9985 0.0267
vn -0.3362 0.9235 -0.1848
vn -0.1778 -0.6718 -0.7191
vn -0.4485 -0.3042 -0.8404
vn 0.1119 -0.9881 0.1056
vn 0.0979 -0.9927 0.0709
vn -0.2032 -0.9690 -0.1407
vn -0.0642 -0.9919 -0.1098
vn 0.4728 -0.5509 0.6877
vn 0.6066 -0.2856 0.7419
vn 0.4998 0.0790 0.8625
vn -0.2490 0.1414 -0.9581
vn -0.1725 0.2316 -0.9574
vn -0.3115 0.0990 -0.9451
vn -0.5090 0.4284 -0.7466
vn -0.1348 0.8376 -0.5294
vn -0.2892 0.7943 -0.5343
vn -0.4803 -0.8769 0.0209
vn -0.1976 -0.7409 0.6419
vn -0.9907 0.0331 -0.1322
vn -0.6961 0.1743 -0.6965
vn -0.6118 -0.3507 -0.7090
vn -0.5961 -0.2981 -0.7455
vn -0.9632 -0.2630 -0.0549
usemtl Shape.4862
s off
f 7//1 21//1 22//1
f 8//2 1//2 9//2
f 3//3 2//3 10//3
f 5//4 4//4 10//4
f 10//5 2//5 11//5
f 5//4 10//4 11//4
f 4//4 5//4 12//4
f 5//6 8//6 12//6
f 1//2 8//2 13//2
f 8//7 5//7 13//7
f 13//8 6//8 15//8
f 1//9 13//9 15//9
f 6//10 14//10 15//10
f 5//11 11//11 16//11
f 13//12 5//12 16//12
f 6//13 13//13 16//13
f 3//14 10//14 17//14
f 14//15 3//15 17//15
f 4//16 9//16 18//16
f 10//17 4//17 18//17
f 7//18 17//18 18//18
f 17//19 10//19 18//19
f 9//20 4//20 19//20
f 8//2 9//2 19//2
f 4//21 12//21 19//21
f 12//22 8//22 19//22
f 2//23 3//23 20//23
f 11//24 2//24 20//24
f 3//25 14//25 20//25
f 14//26 6//26 20//26
f 16//27 11//27 20//27
f 6//28 16//28 20//28
f 9//2 1//2 21//2
f 7//29 18//29 21//29
f 18//30 9//30 21//30
f 1//31 15//31 22//31
f 15//32 14//32 22//32
f 17//33 7//33 22//33
f 14//34 17//34 22//34
f 21//35 1//35 22//35
