# Blender v2.79 (sub 0) OBJ File: ''
# www.blender.org
mtllib 102358_link_1_17.mtl
o Shape_IndexedFaceSet.017_Shape_IndexedFaceSet.6424
v 0.207337 -0.448877 -0.427212
v -0.009703 -0.491414 -0.474651
v -0.021969 -0.467986 -0.478155
v -0.021969 -0.487087 -0.420837
v 0.245573 -0.493458 -0.408104
v 0.150011 -0.448877 -0.401729
v -0.021969 -0.448877 -0.433579
v 0.119590 -0.498448 -0.393176
v 0.162712 -0.493458 -0.452672
v 0.048111 -0.448877 -0.471780
v 0.228636 -0.449647 -0.403050
v 0.041774 -0.493458 -0.478155
vn 0.2049 0.1099 -0.9726
vn -0.8647 -0.4765 -0.1588
vn -1.0000 0.0000 0.0000
vn 0.0000 1.0000 0.0000
vn -0.1730 0.3116 0.9343
vn -0.0913 -0.9941 0.0591
vn -0.1644 0.2648 0.9502
vn 0.4735 0.0288 -0.8803
vn 0.0324 -0.9977 -0.0602
vn -0.2100 0.8986 -0.3852
vn 0.2596 0.2698 -0.9273
vn 0.7095 0.3452 -0.6144
vn 0.0102 0.9997 0.0229
vn 0.1200 -0.0678 0.9904
vn 0.0181 0.1592 0.9871
vn -0.0741 -0.1853 -0.9799
vn -0.0411 -0.9989 -0.0210
vn 0.0153 -0.9972 -0.0726
vn 0.0535 0.1339 -0.9895
usemtl Shape.6432
s off
f 10//1 9//1 12//1
f 3//2 2//2 4//2
f 3//3 4//3 7//3
f 6//4 1//4 7//4
f 4//5 6//5 7//5
f 4//6 2//6 8//6
f 6//7 4//7 8//7
f 1//8 5//8 9//8
f 5//9 8//9 9//9
f 7//4 1//4 10//4
f 3//10 7//10 10//10
f 1//11 9//11 10//11
f 5//12 1//12 11//12
f 1//13 6//13 11//13
f 8//14 5//14 11//14
f 6//15 8//15 11//15
f 2//16 3//16 12//16
f 8//17 2//17 12//17
f 9//18 8//18 12//18
f 3//19 10//19 12//19
