# Blender v2.92.0 OBJ File: ''
# www.blender.org
mtllib original-3.mtl
o instance_1/Component_1/ID6#ID6
v -0.688042 0.626020 0.031893
v -0.732286 0.537257 0.195921
v -0.743255 0.622630 0.033844
v -0.677509 0.544037 0.187534
v -0.733339 0.561935 0.208991
v -0.689096 0.650698 0.044963
v -0.744308 0.647308 0.046914
v -0.678562 0.568715 0.200605
v -0.732286 0.537257 0.195921
v -0.733339 0.561935 0.208991
v -0.743255 0.622630 0.033844
v -0.744308 0.647308 0.046914
v -0.689096 0.650698 0.044963
v -0.743255 0.622630 0.033844
v -0.744308 0.647308 0.046914
v -0.688042 0.626020 0.031893
v -0.688042 0.626020 0.031893
v -0.678562 0.568715 0.200605
v -0.677509 0.544037 0.187534
v -0.689096 0.650698 0.044963
v -0.677509 0.544037 0.187534
v -0.732286 0.537257 0.195921
v -0.688042 0.626020 0.031893
v -0.743255 0.622630 0.033844
v -0.678562 0.568715 0.200605
v -0.733339 0.561935 0.208991
v -0.689096 0.650698 0.044963
v -0.744308 0.647308 0.046914
v -0.733339 0.561935 0.208991
v -0.732286 0.537257 0.195921
v -0.744308 0.647308 0.046914
v -0.743255 0.622630 0.033844
v -0.688042 0.626020 0.031893
v -0.689096 0.650698 0.044963
v -0.743255 0.622630 0.033844
v -0.744308 0.647308 0.046914
v -0.689096 0.650698 0.044963
v -0.688042 0.626020 0.031893
v -0.678562 0.568715 0.200605
v -0.677509 0.544037 0.187534
vn 0.0377 -0.8831 -0.4677
vn -0.0377 0.8831 0.4677
vn -0.9975 -0.0612 0.0353
vn -0.0598 0.4652 -0.8832
vn 0.9975 0.0613 -0.0352
vn 0.9975 0.0612 -0.0353
vn 0.0598 -0.4652 0.8832
vn -0.9975 -0.0613 0.0352
usemtl material_0_0.013
s 1
f 1//1 2//1 3//1
f 2//1 1//1 4//1
f 5//2 6//2 7//2
f 6//2 5//2 8//2
f 10//3 11//3 9//3
f 11//3 10//3 12//3
f 13//4 14//4 15//4
f 14//4 13//4 16//4
f 17//5 18//6 19//6
f 18//6 17//5 20//5
usemtl material_1_0.002
f 21//2 23//2 22//2
f 24//2 22//2 23//2
f 25//1 26//1 27//1
f 28//1 27//1 26//1
f 31//6 29//6 32//6
f 30//6 32//6 29//6
f 33//7 34//7 35//7
f 36//7 35//7 34//7
f 37//8 38//8 39//3
f 40//3 39//3 38//8
o instance_1/Component_1/ID6#ID6.001
v 0.711922 0.622630 0.151121
v 0.622412 0.544037 0.292300
v 0.657735 0.626020 0.140354
v 0.675139 0.537257 0.309351
v 0.621358 0.568715 0.305370
v 0.710869 0.647308 0.164192
v 0.656681 0.650698 0.153424
v 0.674085 0.561935 0.322421
v 0.710869 0.647308 0.164192
v 0.657735 0.626020 0.140354
v 0.656681 0.650698 0.153424
v 0.711922 0.622630 0.151121
v 0.711922 0.622630 0.151121
v 0.674085 0.561935 0.322421
v 0.675139 0.537257 0.309351
v 0.710869 0.647308 0.164192
v 0.622412 0.544037 0.292300
v 0.621358 0.568715 0.305370
v 0.657735 0.626020 0.140354
v 0.656681 0.650698 0.153424
v 0.675139 0.537257 0.309351
v 0.622412 0.544037 0.292300
v 0.711922 0.622630 0.151121
v 0.657735 0.626020 0.140354
v 0.674085 0.561935 0.322421
v 0.621358 0.568715 0.305370
v 0.710869 0.647308 0.164192
v 0.656681 0.650698 0.153424
v 0.711922 0.622630 0.151121
v 0.710869 0.647308 0.164192
v 0.657735 0.626020 0.140354
v 0.656681 0.650698 0.153424
v 0.710869 0.647308 0.164192
v 0.711922 0.622630 0.151121
v 0.674085 0.561935 0.322421
v 0.675139 0.537257 0.309351
v 0.621358 0.568715 0.305370
v 0.622412 0.544037 0.292300
v 0.656681 0.650698 0.153424
v 0.657735 0.626020 0.140354
vn 0.0377 -0.8831 -0.4677
vn -0.0377 0.8831 0.4677
vn 0.2004 0.4652 -0.8622
vn 0.9790 -0.0613 0.1945
vn 0.9790 -0.0612 0.1945
vn -0.9790 0.0612 -0.1946
vn -0.9790 0.0612 -0.1945
vn -0.2004 -0.4652 0.8622
vn -0.9790 0.0613 -0.1945
vn 0.9790 -0.0612 0.1946
usemtl material_0_0.013
s 1
f 41//9 42//9 43//9
f 42//9 41//9 44//9
f 45//10 46//10 47//10
f 46//10 45//10 48//10
f 49//11 50//11 51//11
f 50//11 49//11 52//11
f 53//12 54//13 55//13
f 54//13 53//12 56//12
f 58//14 59//15 57//14
f 59//15 58//14 60//15
usemtl material_1_0.002
f 61//10 63//10 62//10
f 64//10 62//10 63//10
f 65//9 66//9 67//9
f 68//9 67//9 66//9
f 69//16 70//16 71//16
f 72//16 71//16 70//16
f 73//17 74//17 75//15
f 76//15 75//15 74//17
f 79//13 77//18 80//13
f 78//18 80//13 77//18
o instance_1/Component_1/ID6#ID6.002
v 0.622412 0.544037 0.292300
v 0.543640 0.467641 0.430195
v 0.589852 0.454543 0.458650
v 0.542586 0.492319 0.443265
v 0.674085 0.561935 0.322421
v 0.675139 0.537257 0.309351
v 0.588799 0.479221 0.471720
v 0.621358 0.568715 0.305370
vn -0.8937 0.1795 -0.4111
vn -0.5598 -0.4064 0.7221
vn -0.0377 0.8831 0.4677
vn 0.0377 -0.8831 -0.4677
vn 0.2492 -0.3415 -0.9063
vn 0.7813 -0.3336 -0.5275
vn 0.6843 -0.7291 -0.0130
vn 0.8937 -0.1796 0.4111
vn 0.9253 0.2075 -0.3173
vn 0.3265 0.4532 -0.8294
usemtl material_0_0.013
s off
f 84//19 88//19 81//19 82//19
f 84//20 82//20 83//20 87//20
f 84//21 87//21 85//21 88//21
s 1
f 82//22 81//23 86//24 83//25
usemtl material_1_0.002
f 87//26 83//25 86//24 85//27
f 88//28 85//27 86//24 81//23
o instance_1/Component_1/ID6#ID6.003
v 0.589852 0.454543 0.458650
v 0.542586 0.492319 0.443265
v 0.588799 0.479221 0.471720
v 0.463336 0.383515 0.582562
v 0.425734 0.426716 0.557713
v 0.462282 0.408193 0.595633
v 0.426787 0.402038 0.544643
v 0.543640 0.467641 0.430195
vn -0.7476 0.2856 -0.5996
vn 0.7476 -0.2856 0.5996
vn -0.7550 -0.3318 0.5656
vn -0.0377 0.8831 0.4677
vn 0.5598 0.4064 -0.7221
vn 0.4381 -0.2972 -0.8484
vn 0.4074 -0.3733 -0.8335
vn 0.0377 -0.8831 -0.4677
usemtl material_0_0.013
s off
f 93//29 90//29 96//29 95//29
f 94//30 92//30 89//30 91//30
f 93//31 95//31 92//31 94//31
f 90//32 93//32 94//32 91//32
s 1
f 90//33 91//33 89//34 96//35
usemtl material_1_0.002
f 92//36 95//36 96//35 89//34
o instance_1/Component_1/ID6#ID6.004
v 0.463336 0.383515 0.582562
v 0.278763 0.376377 0.640913
v 0.462282 0.408193 0.595633
v 0.303157 0.353691 0.685713
v 0.304211 0.329013 0.672643
v 0.279817 0.351699 0.627843
v 0.426787 0.402038 0.544643
v 0.425734 0.426716 0.557713
vn -0.8987 -0.2346 0.3705
vn 0.5505 -0.3723 0.7472
vn 0.7550 0.3318 -0.5656
vn -0.0377 0.8831 0.4677
vn -0.4011 0.9014 -0.1632
vn 0.0377 -0.8831 -0.4677
vn -0.3457 -0.3964 -0.8505
usemtl material_0_0.013
s off
f 98//37 102//37 101//37 100//37
f 100//38 101//38 97//38 99//38
f 99//39 97//39 103//39 104//39
s 1
f 100//40 99//40 104//41 98//41
usemtl material_1_0.002
f 101//42 102//43 103//43 97//42
f 98//41 104//41 103//43 102//43
o instance_1/Component_1/ID6#ID6.005
v 0.304211 0.329013 0.672643
v 0.122268 0.319429 0.735824
v 0.303157 0.353691 0.685713
v 0.123322 0.294752 0.722754
v 0.111691 0.344733 0.687196
v 0.112745 0.320055 0.674126
v 0.279817 0.351699 0.627843
v 0.278763 0.376377 0.640913
vn -0.9812 -0.1215 0.1502
vn -0.0377 0.8831 0.4677
vn 0.3159 -0.4335 0.8440
vn 0.8987 0.2346 -0.3705
vn -0.3159 0.4335 -0.8440
vn -0.1866 -0.3549 -0.9161
vn 0.0377 -0.8831 -0.4677
usemtl material_0_0.013
s off
f 106//44 109//44 110//44 108//44
f 106//45 107//45 112//45 109//45
f 106//46 108//46 105//46 107//46
f 107//47 105//47 111//47 112//47
usemtl material_1_0.002
s 1
f 109//48 112//48 111//49 110//49
f 108//50 110//49 111//49 105//50
o instance_1/Component_1/ID6#ID6.006
v -0.063044 0.309262 0.680337
v -0.067004 0.283066 0.729479
v 0.112745 0.320055 0.674126
v 0.123322 0.294752 0.722754
v -0.064097 0.333940 0.693407
v -0.068057 0.307744 0.742549
v 0.111691 0.344733 0.687196
v 0.122268 0.319429 0.735824
v 0.123322 0.294752 0.722754
v 0.122268 0.319429 0.735824
v -0.067004 0.283066 0.729479
v -0.068057 0.307744 0.742549
v -0.064097 0.333940 0.693407
v -0.063044 0.309262 0.680337
v 0.111691 0.344733 0.687196
v 0.112745 0.320055 0.674126
v 0.123322 0.294752 0.722754
v 0.112745 0.320055 0.674126
v -0.067004 0.283066 0.729479
v -0.063044 0.309262 0.680337
v 0.122268 0.319429 0.735824
v 0.111691 0.344733 0.687196
v -0.068057 0.307744 0.742549
v -0.064097 0.333940 0.693407
v 0.123322 0.294752 0.722754
v 0.122268 0.319429 0.735824
v -0.067004 0.283066 0.729479
v -0.068057 0.307744 0.742549
v -0.063044 0.309262 0.680337
v -0.064097 0.333940 0.693407
v 0.112745 0.320055 0.674126
v 0.111691 0.344733 0.687196
vn 0.0377 -0.8831 -0.4677
vn -0.0377 0.8831 0.4677
vn 0.0598 -0.4652 0.8832
vn -0.0598 0.4652 -0.8832
usemtl material_0_0.013
s 1
f 114//51 113//51 115//51
f 114//51 115//51 116//51
f 117//52 118//52 119//52
f 119//52 118//52 120//52
f 123//53 122//53 124//53
f 122//53 123//53 121//53
f 127//54 126//54 125//54
f 126//54 127//54 128//54
usemtl material_1_0.002
f 129//52 130//52 131//52
f 130//52 132//52 131//52
f 133//51 135//51 134//51
f 134//51 135//51 136//51
f 137//54 139//54 138//54
f 140//54 138//54 139//54
f 143//53 144//53 141//53
f 142//53 141//53 144//53
o instance_1/Component_1/ID6#ID6.007
v -0.235568 0.320055 0.646054
v -0.253797 0.294752 0.692361
v -0.063044 0.309262 0.680337
v -0.067004 0.283066 0.729479
v -0.254850 0.319429 0.705431
v -0.253797 0.294752 0.692361
v -0.236621 0.344733 0.659124
v -0.254850 0.319429 0.705431
v -0.064097 0.333940 0.693407
v -0.068057 0.307744 0.742549
v -0.067004 0.283066 0.729479
v -0.068057 0.307744 0.742549
v -0.236621 0.344733 0.659124
v -0.235568 0.320055 0.646054
v -0.064097 0.333940 0.693407
v -0.063044 0.309262 0.680337
v -0.067004 0.283066 0.729479
v -0.063044 0.309262 0.680337
v -0.253797 0.294752 0.692361
v -0.235568 0.320055 0.646054
v -0.254850 0.319429 0.705431
v -0.253797 0.294752 0.692361
v -0.068057 0.307744 0.742549
v -0.064097 0.333940 0.693407
v -0.254850 0.319429 0.705431
v -0.236621 0.344733 0.659124
v -0.067004 0.283066 0.729479
v -0.068057 0.307744 0.742549
v -0.236621 0.344733 0.659124
v -0.235568 0.320055 0.646054
v -0.063044 0.309262 0.680337
v -0.064097 0.333940 0.693407
vn 0.0377 -0.8831 -0.4677
vn -0.0377 0.8831 0.4677
vn -0.2004 -0.4652 0.8622
vn 0.2004 0.4652 -0.8622
usemtl material_0_0.013
s 1
f 146//55 145//55 147//55
f 146//55 147//55 148//55
f 151//56 152//56 153//56
f 153//56 152//56 154//56
f 150//57 156//57 149//57
f 156//57 150//57 155//57
f 159//58 158//58 157//58
f 158//58 159//58 160//58
usemtl material_1_0.002
f 161//56 162//56 163//56
f 162//56 164//56 163//56
f 167//55 169//55 168//55
f 168//55 169//55 170//55
f 171//58 166//58 172//58
f 165//58 172//58 166//58
f 175//57 176//57 174//57
f 173//57 174//57 176//57
o instance_1/Component_1/ID6#ID6.008
v -0.425379 0.353691 0.626998
v -0.424326 0.329013 0.613928
v -0.393072 0.351699 0.573612
v -0.424326 0.329013 0.613928
v -0.235568 0.320055 0.646054
v -0.253797 0.294752 0.692361
v -0.254850 0.319429 0.705431
v -0.253797 0.294752 0.692361
v -0.394125 0.376377 0.586683
v -0.425379 0.353691 0.626998
v -0.236621 0.344733 0.659124
v -0.254850 0.319429 0.705431
v -0.394125 0.376377 0.586683
v -0.393072 0.351699 0.573612
v -0.236621 0.344733 0.659124
v -0.235568 0.320055 0.646054
v -0.425379 0.353691 0.626998
v -0.424326 0.329013 0.613928
v -0.253797 0.294752 0.692361
v -0.235568 0.320055 0.646054
v -0.424326 0.329013 0.613928
v -0.393072 0.351699 0.573612
v -0.254850 0.319429 0.705431
v -0.253797 0.294752 0.692361
v -0.254850 0.319429 0.705431
v -0.236621 0.344733 0.659124
v -0.425379 0.353691 0.626998
v -0.394125 0.376377 0.586683
v -0.394125 0.376377 0.586683
v -0.393072 0.351699 0.573612
v -0.236621 0.344733 0.659124
v -0.235568 0.320055 0.646054
vn 0.0377 -0.8831 -0.4677
vn -0.4470 -0.4335 0.7825
vn -0.0377 0.8831 0.4677
vn 0.4470 0.4335 -0.7825
usemtl material_0_0.013
s 1
f 180//59 179//59 181//59
f 180//59 181//59 182//59
f 183//60 178//60 184//60
f 178//60 183//60 177//60
f 185//61 186//61 187//61
f 187//61 186//61 188//61
f 190//62 191//62 192//62
f 191//62 190//62 189//62
usemtl material_1_0.002
f 195//61 196//61 197//61
f 196//61 198//61 197//61
f 193//62 199//62 194//62
f 200//62 194//62 199//62
f 201//59 203//59 202//59
f 202//59 203//59 204//59
f 205//60 206//60 207//60
f 208//60 207//60 206//60
o instance_1/Component_1/ID6#ID6.009
v -0.425379 0.353691 0.626998
v -0.566971 0.383515 0.499526
v -0.424326 0.329013 0.613928
v -0.568024 0.408193 0.512597
v -0.524821 0.402038 0.467949
v -0.566971 0.383515 0.499526
v -0.393072 0.351699 0.573612
v -0.424326 0.329013 0.613928
v -0.525874 0.426716 0.481019
v -0.568024 0.408193 0.512597
v -0.394125 0.376377 0.586683
v -0.425379 0.353691 0.626998
v -0.525874 0.426716 0.481019
v -0.524821 0.402038 0.467949
v -0.394125 0.376377 0.586683
v -0.393072 0.351699 0.573612
v -0.568024 0.408193 0.512597
v -0.425379 0.353691 0.626998
v -0.566971 0.383515 0.499526
v -0.424326 0.329013 0.613928
v -0.424326 0.329013 0.613928
v -0.393072 0.351699 0.573612
v -0.566971 0.383515 0.499526
v -0.524821 0.402038 0.467949
v -0.425379 0.353691 0.626998
v -0.394125 0.376377 0.586683
v -0.568024 0.408193 0.512597
v -0.525874 0.426716 0.481019
v -0.525874 0.426716 0.481019
v -0.524821 0.402038 0.467949
v -0.394125 0.376377 0.586683
v -0.393072 0.351699 0.573612
vn -0.6631 -0.3722 0.6494
vn -0.6631 -0.3723 0.6494
vn 0.0377 -0.8831 -0.4677
vn -0.0377 0.8831 0.4677
vn 0.6631 0.3722 -0.6494
vn 0.6631 0.3723 -0.6494
usemtl material_0_0.013
s 1
f 209//63 210//64 211//63
f 210//64 209//63 212//64
f 214//65 213//65 215//65
f 214//65 215//65 216//65
f 217//66 218//66 219//66
f 219//66 218//66 220//66
f 222//67 223//68 224//68
f 223//68 222//67 221//67
usemtl material_1_0.002
f 225//68 226//67 227//68
f 228//67 227//68 226//67
f 229//66 230//66 231//66
f 230//66 232//66 231//66
f 233//65 235//65 234//65
f 234//65 235//65 236//65
f 237//63 238//63 239//64
f 240//64 239//64 238//63
o instance_1/Component_1/ID6#ID6.010
v -0.566971 0.383515 0.499526
v -0.568024 0.408193 0.512597
v -0.672010 0.454543 0.356952
v -0.621837 0.467641 0.336265
v -0.524821 0.402038 0.467949
v -0.566971 0.383515 0.499526
v -0.673064 0.479221 0.370022
v -0.622891 0.492319 0.349335
v -0.525874 0.426716 0.481019
v -0.568024 0.408193 0.512597
v -0.672010 0.454543 0.356952
v -0.673064 0.479221 0.370022
v -0.622891 0.492319 0.349335
v -0.621837 0.467641 0.336265
v -0.525874 0.426716 0.481019
v -0.524821 0.402038 0.467949
v -0.568024 0.408193 0.512597
v -0.566971 0.383515 0.499526
v -0.566971 0.383515 0.499526
v -0.524821 0.402038 0.467949
v -0.672010 0.454543 0.356952
v -0.621837 0.467641 0.336265
v -0.568024 0.408193 0.512597
v -0.525874 0.426716 0.481019
v -0.673064 0.479221 0.370022
v -0.622891 0.492319 0.349335
v -0.673064 0.479221 0.370022
v -0.672010 0.454543 0.356952
v -0.622891 0.492319 0.349335
v -0.621837 0.467641 0.336265
v -0.525874 0.426716 0.481019
v -0.524821 0.402038 0.467949
vn 0.0377 -0.8831 -0.4677
vn -0.0377 0.8831 0.4677
vn -0.8340 -0.2856 0.4721
vn -0.8340 -0.2857 0.4721
vn 0.8340 0.2857 -0.4721
vn 0.8340 0.2856 -0.4721
usemtl material_0_0.013
s 1
f 243//69 244//69 245//69
f 243//69 245//69 246//69
f 248//70 247//70 249//70
f 249//70 247//70 250//70
f 242//71 251//72 241//71
f 251//72 242//71 252//72
f 254//73 255//74 256//74
f 255//74 254//73 253//73
usemtl material_1_0.002
f 259//70 260//70 261//70
f 260//70 262//70 261//70
f 263//69 265//69 264//69
f 264//69 265//69 266//69
f 267//73 257//74 268//73
f 258//74 268//73 257//74
f 269//72 270//72 271//71
f 272//71 271//71 270//72
o instance_1/Component_1/ID6#ID6.011
v -0.732286 0.537257 0.195921
v -0.677509 0.544037 0.187534
v -0.672010 0.454543 0.356952
v -0.621837 0.467641 0.336265
v -0.733339 0.561935 0.208991
v -0.678562 0.568715 0.200605
v -0.673064 0.479221 0.370022
v -0.622891 0.492319 0.349335
v -0.672010 0.454543 0.356952
v -0.673064 0.479221 0.370022
v -0.732286 0.537257 0.195921
v -0.733339 0.561935 0.208991
v -0.678562 0.568715 0.200605
v -0.677509 0.544037 0.187534
v -0.622891 0.492319 0.349335
v -0.621837 0.467641 0.336265
v -0.672010 0.454543 0.356952
v -0.621837 0.467641 0.336265
v -0.677509 0.544037 0.187534
v -0.732286 0.537257 0.195921
v -0.673064 0.479221 0.370022
v -0.622891 0.492319 0.349335
v -0.678562 0.568715 0.200605
v -0.733339 0.561935 0.208991
v -0.673064 0.479221 0.370022
v -0.672010 0.454543 0.356952
v -0.733339 0.561935 0.208991
v -0.732286 0.537257 0.195921
v -0.678562 0.568715 0.200605
v -0.677509 0.544037 0.187534
v -0.622891 0.492319 0.349335
v -0.621837 0.467641 0.336265
vn 0.0377 -0.8831 -0.4677
vn -0.0377 0.8831 0.4677
vn -0.9480 -0.1796 0.2626
vn 0.9480 0.1796 -0.2626
usemtl material_0_0.013
s 1
f 273//75 274//75 275//75
f 275//75 274//75 276//75
f 278//76 277//76 279//76
f 278//76 279//76 280//76
f 282//77 283//77 281//77
f 283//77 282//77 284//77
f 286//78 287//78 288//78
f 287//78 286//78 285//78
usemtl material_1_0.002
f 290//76 291//76 289//76
f 289//76 291//76 292//76
f 294//75 293//75 295//75
f 293//75 296//75 295//75
f 299//78 297//78 300//78
f 298//78 300//78 297//78
f 301//77 302//77 303//77
f 304//77 303//77 302//77
