# Blender v2.79 (sub 0) OBJ File: ''
# www.blender.org
mtllib 102367_link_1_5.mtl
o Shape_IndexedFaceSet.005_Shape_IndexedFaceSet.10830
v 0.700319 0.381167 0.358535
v 0.614742 0.381167 -0.021767
v 0.478044 -0.601060 0.364661
v 0.479259 0.419874 0.383788
v 0.671784 -0.579174 -0.012227
v 0.788236 0.388886 -0.024900
v 0.633756 -0.550503 0.234897
v 0.614178 -0.590576 -0.026395
v 0.785867 0.333602 0.082830
v 0.557729 -0.579174 0.368075
v 0.738318 0.304931 0.272981
v 0.662291 -0.579174 0.101872
v 0.681305 0.238376 0.368075
v 0.747839 0.381167 0.263479
v 0.487089 -0.592365 0.373430
v 0.662291 -0.426982 0.196852
v 0.576715 -0.522114 0.358535
v 0.671784 -0.579174 0.044823
v 0.785867 0.314425 0.054324
v 0.643249 -0.465053 0.244437
v 0.624264 -0.579174 0.244437
vn 0.8864 -0.1475 0.4388
vn -0.9482 0.0071 -0.3175
vn -0.0462 0.9928 -0.1102
vn -0.9444 0.0021 -0.3287
vn -0.0183 0.0048 -0.9998
vn 0.2465 -0.0423 -0.9682
vn 0.1579 -0.9870 0.0285
vn 0.1220 0.0500 0.9913
vn 0.8799 -0.0859 0.4674
vn 0.1818 0.9791 0.0909
vn 0.1641 0.9852 0.0494
vn 0.9621 0.2336 0.1410
vn 0.8931 -0.0559 0.4465
vn 0.9692 -0.0926 0.2284
vn -0.6897 -0.0127 0.7240
vn 0.1916 -0.7886 0.5843
vn 0.0689 -0.0097 0.9976
vn 0.0778 -0.0118 0.9969
vn 0.9669 -0.1236 0.2231
vn 0.9707 -0.1272 0.2038
vn 0.9599 -0.1485 0.2379
vn 0.6738 -0.1019 0.7318
vn 0.1942 -0.9810 0.0000
vn 0.9782 -0.1290 0.1628
vn 0.1619 -0.9864 0.0269
vn 0.9893 -0.1201 -0.0833
vn 0.9998 -0.0185 0.0125
vn 0.9919 -0.1266 0.0000
vn 0.9882 -0.1271 0.0855
vn 0.8872 -0.1260 0.4438
vn 0.9526 -0.1362 0.2722
vn 0.9519 -0.1279 0.2786
vn 0.8832 -0.1271 0.4514
vn 0.8847 -0.1472 0.4423
vn 0.2568 -0.9565 0.1382
vn 0.1881 -0.9809 0.0502
vn 0.9408 -0.2280 0.2509
vn 0.8611 -0.2091 0.4634
usemtl Shape.10833
s off
f 7//1 20//1 21//1
f 2//2 3//2 4//2
f 2//3 4//3 6//3
f 3//4 2//4 8//4
f 2//5 6//5 8//5
f 6//6 5//6 8//6
f 3//7 8//7 12//7
f 1//8 4//8 13//8
f 11//9 1//9 13//9
f 4//10 1//10 14//10
f 6//11 4//11 14//11
f 9//12 6//12 14//12
f 1//13 11//13 14//13
f 11//14 9//14 14//14
f 4//15 3//15 15//15
f 3//16 10//16 15//16
f 13//17 4//17 15//17
f 10//18 13//18 15//18
f 9//19 11//19 16//19
f 12//20 9//20 16//20
f 7//21 12//21 16//21
f 13//22 10//22 17//22
f 8//23 5//23 18//23
f 9//24 12//24 18//24
f 12//25 8//25 18//25
f 5//26 6//26 19//26
f 6//27 9//27 19//27
f 18//28 5//28 19//28
f 9//29 18//29 19//29
f 11//30 13//30 20//30
f 7//31 16//31 20//31
f 16//32 11//32 20//32
f 13//33 17//33 20//33
f 20//34 17//34 21//34
f 10//35 3//35 21//35
f 3//36 12//36 21//36
f 12//37 7//37 21//37
f 17//38 10//38 21//38
