# Blender v2.79 (sub 0) OBJ File: ''
# www.blender.org
mtllib 102367_link_1_25.mtl
o Shape_IndexedFaceSet.025_Shape_IndexedFaceSet.10850
v -0.279015 0.362086 -0.763380
v -0.397864 -0.596638 -0.481945
v -0.150685 -0.599856 -0.599919
v -0.145931 0.381167 -0.611308
v -0.401425 0.377037 -0.498478
v -0.402599 -0.531627 -0.573259
v -0.126904 0.352592 -0.801429
v -0.126904 -0.588682 -0.677855
v -0.402599 0.381167 -0.706322
v -0.298043 -0.579094 -0.630348
v -0.126904 0.381167 -0.620828
v -0.383625 0.381167 -0.497223
v -0.128039 -0.600064 -0.609132
v -0.155458 0.381167 -0.801429
v -0.174459 -0.464983 -0.687344
v -0.355071 0.343099 -0.734882
v -0.402599 -0.588682 -0.563770
v -0.125303 -0.594313 -0.620552
v -0.269515 -0.588682 -0.639806
v -0.155458 0.219494 -0.782420
v -0.374098 0.286043 -0.715842
v -0.317043 -0.455489 -0.639806
vn -0.5362 -0.1268 -0.8345
vn -0.0000 1.0000 -0.0000
vn -0.0742 0.0167 0.9971
vn -0.2274 0.9736 0.0206
vn 0.0129 -0.9984 0.0544
vn 0.4474 0.0101 0.8943
vn 0.4264 0.0079 0.9045
vn 0.4327 0.0099 0.9015
vn -0.3257 0.4214 -0.8464
vn 0.7030 0.7025 -0.1111
vn -0.3863 0.1941 -0.9017
vn -0.0575 -0.9940 -0.0933
vn -0.9983 -0.0027 0.0575
vn -1.0000 0.0008 0.0057
vn -1.0000 -0.0000 -0.0000
vn 0.9996 -0.0037 -0.0283
vn 1.0000 0.0016 -0.0003
vn 0.8321 -0.5492 -0.0772
vn 0.9723 0.0017 0.2338
vn -0.0552 -0.9920 -0.1134
vn -0.0437 -0.9855 -0.1639
vn -0.3081 -0.1256 -0.9430
vn -0.2540 -0.1707 -0.9520
vn -0.3205 -0.1252 -0.9389
vn -0.3503 -0.1269 -0.9280
vn -0.0588 -0.9929 -0.1029
vn -0.4217 -0.5267 -0.7381
vn -0.0532 -0.1300 -0.9901
vn -0.1161 -0.1160 -0.9864
vn -0.2766 -0.1122 -0.9544
vn -0.2892 -0.1238 -0.9492
vn -0.1479 -0.1320 -0.9802
vn -0.6303 -0.1120 -0.7682
vn -0.5631 -0.0865 -0.8218
vn -0.4868 -0.1261 -0.8643
vn -0.3691 -0.1272 -0.9206
vn -0.5277 -0.1394 -0.8379
vn -0.5220 -0.1446 -0.8406
usemtl Shape.10853
s off
f 6//1 21//1 22//1
f 9//2 4//2 11//2
f 5//3 2//3 12//3
f 4//2 9//2 12//2
f 9//4 5//4 12//4
f 2//5 3//5 13//5
f 11//6 4//6 13//6
f 12//7 2//7 13//7
f 4//8 12//8 13//8
f 1//9 9//9 14//9
f 11//10 7//10 14//10
f 9//2 11//2 14//2
f 9//11 1//11 16//11
f 3//12 2//12 17//12
f 2//13 5//13 17//13
f 5//14 9//14 17//14
f 9//15 6//15 17//15
f 8//16 7//16 18//16
f 7//17 11//17 18//17
f 13//18 8//18 18//18
f 11//19 13//19 18//19
f 13//20 3//20 19//20
f 8//21 13//21 19//21
f 1//22 15//22 19//22
f 15//23 8//23 19//23
f 16//24 1//24 19//24
f 10//25 16//25 19//25
f 3//26 17//26 19//26
f 17//27 10//27 19//27
f 7//28 8//28 20//28
f 14//29 7//29 20//29
f 1//30 14//30 20//30
f 15//31 1//31 20//31
f 8//32 15//32 20//32
f 6//33 9//33 21//33
f 9//34 16//34 21//34
f 21//35 16//35 22//35
f 16//36 10//36 22//36
f 17//37 6//37 22//37
f 10//38 17//38 22//38
