# Blender v2.79 (sub 0) OBJ File: ''
# www.blender.org
mtllib 102367_link_1_20.mtl
o Shape_IndexedFaceSet.020_Shape_IndexedFaceSet.10845
v 0.519663 0.381167 0.482175
v 0.837228 0.536708 0.144317
v 0.611175 0.388116 0.097418
v 0.519663 0.523774 0.339494
v 0.707209 0.552449 0.460342
v 0.681368 0.381167 0.406105
v 0.776358 0.571334 0.082825
v 0.785870 0.381167 0.082825
v 0.614751 0.571334 0.482175
v 0.624263 0.523774 0.082825
v 0.804894 0.495238 0.310997
v 0.709806 0.495238 0.482175
v 0.524812 0.522303 0.475996
v 0.531402 0.387876 0.308987
v 0.852454 0.495238 0.082825
v 0.784838 0.562189 0.265329
v 0.652799 0.381167 0.453639
v 0.785870 0.381167 0.101862
v 0.841834 0.547456 0.095569
v 0.792452 0.552846 0.290970
vn 0.8270 0.5275 0.1944
vn -0.0421 -0.9987 -0.0280
vn 0.0000 -1.0000 0.0000
vn -0.2950 0.9480 -0.1194
vn -0.9250 0.0487 -0.3769
vn -0.2963 0.9474 -0.1207
vn -0.0867 -0.0983 -0.9914
vn 0.0000 0.0000 -1.0000
vn -0.0000 0.0000 1.0000
vn 0.2827 0.3532 0.8918
vn 0.8529 0.2195 0.4738
vn 0.7686 -0.4763 0.4270
vn -0.9985 0.0381 0.0381
vn -0.0939 0.0470 0.9945
vn -0.4799 0.8769 0.0276
vn -0.1206 -0.9916 -0.0466
vn -0.9951 -0.0702 -0.0702
vn -0.9357 -0.0016 -0.3528
vn 0.9774 0.0568 0.2037
vn 0.2297 0.9632 0.1395
vn 0.1103 0.9929 0.0446
vn 0.1979 -0.3298 0.9231
vn 0.7487 -0.4867 0.4500
vn 0.7554 -0.6017 0.2595
vn 0.8636 -0.5041 0.0000
vn 0.8623 -0.4734 0.1797
vn 0.9774 0.1672 0.1292
vn 0.2811 0.2811 -0.9176
vn 0.3370 0.9410 0.0315
vn 0.5762 0.8080 0.1233
vn 0.9246 0.2869 0.2507
vn 0.8430 0.3298 0.4250
vn 0.4034 0.8917 0.2051
usemtl Shape.10848
s off
f 2//1 19//1 20//1
f 1//2 3//2 8//2
f 6//3 1//3 8//3
f 7//4 4//4 9//4
f 3//5 4//5 10//5
f 4//6 7//6 10//6
f 8//7 3//7 10//7
f 7//8 8//8 10//8
f 9//9 1//9 12//9
f 5//10 9//10 12//10
f 11//11 5//11 12//11
f 6//12 11//12 12//12
f 4//13 1//13 13//13
f 1//14 9//14 13//14
f 9//15 4//15 13//15
f 3//16 1//16 14//16
f 1//17 4//17 14//17
f 4//18 3//18 14//18
f 8//8 7//8 15//8
f 2//19 11//19 15//19
f 9//20 5//20 16//20
f 7//21 9//21 16//21
f 1//3 6//3 17//3
f 12//22 1//22 17//22
f 6//23 12//23 17//23
f 6//3 8//3 18//3
f 11//24 6//24 18//24
f 8//25 15//25 18//25
f 15//26 11//26 18//26
f 2//27 15//27 19//27
f 15//28 7//28 19//28
f 7//29 16//29 19//29
f 19//30 16//30 20//30
f 11//31 2//31 20//31
f 5//32 11//32 20//32
f 16//33 5//33 20//33
