# Blender v2.79 (sub 0) OBJ File: ''
# www.blender.org
mtllib 102367_link_1_2.mtl
o Shape_IndexedFaceSet.002_Shape_IndexedFaceSet.10827
v -0.306510 -0.608222 0.581085
v -0.668090 -0.607954 -0.012726
v -0.669852 -0.589307 -0.014273
v 0.101296 -0.598198 -0.021766
v 0.101296 -0.645732 -0.021766
v 0.095624 -0.589097 0.648410
v -0.260078 -0.645732 0.596162
v -0.659307 -0.645732 -0.021766
v 0.101296 -0.645732 0.634222
v -0.525308 -0.589887 0.411503
v -0.592756 -0.645732 0.292089
v -0.625647 -0.587457 -0.036473
v 0.114018 -0.587751 0.605158
v -0.095831 -0.589663 0.650998
v -0.656204 -0.589631 0.136789
v -0.395143 -0.626093 0.524903
v -0.069889 -0.645732 0.643737
v -0.360916 -0.590050 0.555835
v -0.640227 -0.645732 0.158949
v -0.609311 -0.589710 0.274769
v -0.224512 -0.589730 0.622702
vn -0.0066 0.9999 0.0086
vn -0.9128 -0.1187 -0.3909
vn 0.0000 -1.0000 -0.0000
vn 0.0202 0.0000 -0.9998
vn -0.4497 0.0345 -0.8925
vn 0.0000 -0.2447 -0.9696
vn -0.0053 1.0000 0.0066
vn 0.9998 0.0000 -0.0203
vn 0.9768 -0.2143 0.0000
vn 0.9203 -0.0058 0.3912
vn 0.0151 0.9997 -0.0170
vn -0.0025 0.9995 0.0300
vn -0.9922 -0.0863 0.0895
vn -0.0390 0.9992 0.0057
vn -0.3064 -0.8909 0.3352
vn -0.6483 -0.4803 0.5908
vn 0.0539 -0.2376 0.9699
vn 0.0138 -0.1221 0.9924
vn -0.4748 -0.2484 0.8443
vn -0.4798 -0.2627 0.8371
vn -0.6597 -0.0184 0.7513
vn -0.9633 -0.2483 0.1017
vn -0.9666 -0.2336 0.1055
vn -0.9374 -0.1411 0.3185
vn -0.8487 -0.0896 0.5213
vn -0.0106 0.9999 0.0078
vn -0.0232 0.9997 0.0085
vn -0.9279 -0.1719 0.3308
vn -0.4183 -0.1582 0.8944
vn -0.0055 1.0000 0.0071
vn -0.0048 0.9998 0.0196
vn -0.2321 -0.2923 0.9277
vn -0.2094 -0.2203 0.9527
vn -0.4390 -0.0695 0.8958
usemtl Shape.10830
s off
f 10//1 18//1 21//1
f 2//2 3//2 8//2
f 5//3 7//3 8//3
f 7//3 5//3 9//3
f 8//3 7//3 11//3
f 4//4 5//4 12//4
f 8//5 3//5 12//5
f 5//6 8//6 12//6
f 12//7 10//7 13//7
f 5//8 4//8 13//8
f 9//9 5//9 13//9
f 6//10 9//10 13//10
f 4//11 12//11 13//11
f 6//12 13//12 14//12
f 3//13 2//13 15//13
f 12//14 3//14 15//14
f 11//15 7//15 16//15
f 10//16 11//16 16//16
f 9//17 6//17 17//17
f 7//3 9//3 17//3
f 6//18 14//18 17//18
f 7//19 1//19 18//19
f 16//20 7//20 18//20
f 10//21 16//21 18//21
f 2//22 8//22 19//22
f 8//3 11//3 19//3
f 15//23 2//23 19//23
f 15//24 19//24 20//24
f 11//25 10//25 20//25
f 10//26 12//26 20//26
f 12//27 15//27 20//27
f 19//28 11//28 20//28
f 1//29 7//29 21//29
f 13//30 10//30 21//30
f 14//31 13//31 21//31
f 7//32 17//32 21//32
f 17//33 14//33 21//33
f 18//34 1//34 21//34
