# Blender v2.79 (sub 0) OBJ File: ''
# www.blender.org
mtllib 102367_link_1_3.mtl
o Shape_IndexedFaceSet.003_Shape_IndexedFaceSet.10828
v 0.324633 -0.590448 0.566684
v 0.648359 -0.580839 0.103451
v 0.631358 -0.580698 0.184194
v 0.614733 -0.645726 0.215996
v 0.101296 -0.645726 -0.021766
v 0.101296 -0.645726 0.634293
v 0.085859 -0.577356 0.611665
v 0.101296 -0.598196 -0.021766
v 0.643233 -0.645726 -0.021766
v 0.618558 -0.578641 -0.027309
v 0.446713 -0.625439 0.467334
v 0.537406 -0.581341 0.382465
v 0.272515 -0.645726 0.586715
v 0.104390 -0.579554 0.649602
v 0.421613 -0.581446 0.506291
v 0.660104 -0.579446 -0.019139
v 0.534931 -0.625575 0.372646
vn 0.2968 -0.9136 0.2778
vn 0.9678 -0.1476 0.2040
vn 0.0000 -1.0000 0.0000
vn -0.9754 -0.2202 0.0000
vn -0.9997 0.0000 -0.0244
vn 0.9489 -0.2945 0.1137
vn 0.0131 0.9999 0.0089
vn -0.0381 0.9987 -0.0338
vn -0.0107 0.0000 -0.9999
vn 0.0000 -0.0823 -0.9966
vn 0.9035 -0.0216 0.4281
vn 0.0138 0.9999 0.0098
vn -0.8983 -0.0587 0.4354
vn 0.3526 0.0066 0.9357
vn 0.2606 -0.2292 0.9379
vn 0.0176 0.9997 0.0173
vn 0.7179 -0.1847 0.6712
vn 0.5311 -0.2027 0.8227
vn 0.5570 -0.3494 0.7534
vn 0.0263 0.9986 0.0450
vn 0.2252 0.8436 0.4874
vn 0.1135 0.9933 0.0222
vn 0.9643 -0.2490 0.0896
vn 0.0177 0.9998 0.0087
vn 0.1928 -0.0102 -0.9812
vn 0.8727 -0.1518 0.4641
vn 0.7184 -0.1888 0.6696
vn 0.2864 -0.9209 0.2643
usemtl Shape.10831
s off
f 11//1 13//1 17//1
f 2//2 3//2 4//2
f 5//3 4//3 6//3
f 5//4 6//4 7//4
f 5//5 7//5 8//5
f 2//6 4//6 9//6
f 4//3 5//3 9//3
f 7//7 3//7 10//7
f 8//8 7//8 10//8
f 5//9 8//9 10//9
f 9//10 5//10 10//10
f 4//11 3//11 12//11
f 3//12 7//12 12//12
f 6//3 4//3 13//3
f 7//13 6//13 14//13
f 13//14 1//14 14//14
f 6//15 13//15 14//15
f 12//16 7//16 15//16
f 11//17 12//17 15//17
f 1//18 13//18 15//18
f 13//19 11//19 15//19
f 7//20 14//20 15//20
f 14//21 1//21 15//21
f 3//22 2//22 16//22
f 2//23 9//23 16//23
f 10//24 3//24 16//24
f 9//25 10//25 16//25
f 4//26 12//26 17//26
f 12//27 11//27 17//27
f 13//28 4//28 17//28
