# Blender v2.79 (sub 0) OBJ File: ''
# www.blender.org
mtllib 102367_link_1_11.mtl
o Shape_IndexedFaceSet.011_Shape_IndexedFaceSet.10836
v -0.098379 0.523774 -0.639832
v 0.481629 0.381167 -0.601775
v -0.092865 0.382975 -0.632383
v 0.072853 0.381167 -0.810956
v 0.481629 0.571334 -0.630304
v -0.098379 0.571334 -0.791927
v -0.080777 0.386938 -0.797653
v 0.310454 0.495238 -0.820457
v 0.238248 0.552532 -0.828641
v 0.443534 0.381167 -0.677890
v 0.472091 0.552310 -0.601775
v -0.098379 0.495238 -0.867988
v 0.462610 0.571334 -0.725394
v 0.082391 0.495238 -0.877516
v 0.481629 0.504768 -0.734922
v 0.067516 0.561892 -0.846662
v 0.338955 0.381167 -0.734922
v -0.078328 0.547051 -0.859115
v 0.187428 0.501964 -0.615334
v 0.262934 0.495238 -0.839459
v 0.187370 0.389339 -0.613624
v 0.054060 0.547296 -0.868428
vn -0.0395 0.8410 -0.5396
vn -0.0035 -1.0000 0.0069
vn -0.0829 0.9511 0.2974
vn -0.0398 -0.9988 -0.0269
vn 0.0000 -1.0000 -0.0000
vn -0.0778 0.8413 0.5350
vn 0.9361 0.0522 0.3478
vn -0.9992 -0.0389 0.0049
vn -1.0000 -0.0000 0.0000
vn -0.0925 -0.5529 -0.8281
vn -0.9751 -0.2080 -0.0763
vn 0.0000 1.0000 0.0000
vn 0.3691 0.3417 -0.8643
vn -0.0456 -0.5006 -0.8645
vn 1.0000 0.0000 0.0000
vn 0.8055 -0.4343 -0.4032
vn 0.9371 0.2946 -0.1874
vn 0.4223 0.2456 -0.8725
vn 0.0149 0.9919 -0.1259
vn 0.0891 0.9277 -0.3626
vn 0.4190 -0.4837 -0.7684
vn 0.4138 -0.4777 -0.7750
vn -0.8344 0.3897 -0.3898
vn -0.0645 0.9322 -0.3561
vn -0.0815 0.0495 0.9954
vn -0.0732 0.1484 0.9862
vn 0.3520 0.3179 -0.8803
vn 0.1778 -0.5070 -0.8434
vn 0.1989 0.2639 -0.9438
vn 0.2253 -0.5724 -0.7884
vn 0.3179 -0.5167 -0.7950
vn -0.0485 -0.4666 0.8831
vn -0.0403 -0.0022 0.9992
vn -0.0671 0.0152 0.9976
vn -0.0503 0.0152 0.9986
vn 0.1959 0.2711 -0.9424
vn -0.0521 0.1442 -0.9882
vn 0.1067 0.7940 -0.5984
vn -0.0692 0.1943 -0.9785
usemtl Shape.10839
s off
f 18//1 16//1 22//1
f 2//2 3//2 4//2
f 1//3 5//3 6//3
f 4//4 3//4 7//4
f 2//5 4//5 10//5
f 5//6 1//6 11//6
f 2//7 5//7 11//7
f 3//8 1//8 12//8
f 1//9 6//9 12//9
f 4//10 7//10 12//10
f 7//11 3//11 12//11
f 6//12 5//12 13//12
f 8//13 9//13 13//13
f 4//14 12//14 14//14
f 5//15 2//15 15//15
f 2//16 10//16 15//16
f 13//17 5//17 15//17
f 8//18 13//18 15//18
f 6//19 13//19 16//19
f 13//20 9//20 16//20
f 10//5 4//5 17//5
f 15//21 10//21 17//21
f 8//22 15//22 17//22
f 12//23 6//23 18//23
f 6//24 16//24 18//24
f 1//25 3//25 19//25
f 11//26 1//26 19//26
f 9//27 8//27 20//27
f 4//28 14//28 20//28
f 14//29 9//29 20//29
f 17//30 4//30 20//30
f 8//31 17//31 20//31
f 3//32 2//32 21//32
f 2//33 11//33 21//33
f 19//34 3//34 21//34
f 11//35 19//35 21//35
f 9//36 14//36 22//36
f 14//37 12//37 22//37
f 16//38 9//38 22//38
f 12//39 18//39 22//39
