# Blender v2.79 (sub 0) OBJ File: ''
# www.blender.org
mtllib 102367_link_0_13.mtl
o Shape_IndexedFaceSet.013_Shape_IndexedFaceSet.7918
v 0.861400 0.466334 -0.006188
v 0.853574 0.341109 0.159260
v 0.860281 0.341109 0.159260
v 0.856929 0.342239 0.200650
v 0.847983 0.456273 -0.022969
v 0.871464 0.458506 -0.021842
v 0.843512 0.341109 0.193928
v 0.869226 0.350067 0.176041
v 0.861400 0.449561 -0.022969
v 0.851338 0.471929 -0.021842
v 0.868109 0.341109 0.169320
v 0.868109 0.473046 -0.021842
v 0.846867 0.342239 0.165959
v 0.851338 0.345601 0.196184
v 0.863635 0.364594 0.163726
v 0.853574 0.450678 -0.024097
v 0.866990 0.447315 -0.015142
v 0.847983 0.466334 -0.024097
v 0.871464 0.467450 -0.024097
vn -0.0173 0.3647 -0.9309
vn 0.0000 -1.0000 0.0000
vn 0.0000 -0.8593 -0.5114
vn 0.0559 -0.9969 0.0559
vn 0.8769 -0.3537 0.3257
vn 0.9948 -0.0939 -0.0402
vn -0.0617 0.9266 0.3709
vn -0.2303 -0.9708 -0.0669
vn -0.9725 -0.1969 -0.1246
vn -0.4422 0.3573 0.8226
vn -0.2863 0.8290 0.4804
vn -0.5397 0.7284 0.4220
vn 0.5821 0.6444 0.4959
vn 0.3142 0.8163 0.4847
vn 0.7276 0.5845 0.3591
vn 0.0298 0.8577 0.5132
vn 0.0869 0.8451 0.5275
vn -0.0485 -0.8574 -0.5124
vn -0.5491 -0.7174 -0.4287
vn -0.6923 -0.6160 -0.3759
vn 0.3454 -0.8074 -0.4784
vn 0.5774 -0.5768 -0.5779
vn 0.5420 -0.7268 -0.4218
vn 0.8141 -0.5012 -0.2935
vn -0.9998 -0.0025 -0.0219
vn -0.8727 0.4308 0.2295
vn -0.0258 0.3870 -0.9217
vn -0.2978 -0.1064 -0.9487
vn 0.0000 0.0000 -1.0000
vn 0.9999 0.0033 0.0131
vn 0.3098 -0.2324 -0.9219
vn 0.8711 0.4193 0.2556
vn 0.1230 -0.1313 -0.9837
usemtl Shape.7926
s off
f 18//1 12//1 19//1
f 2//2 3//2 7//2
f 3//3 2//3 9//3
f 7//2 3//2 11//2
f 4//4 7//4 11//4
f 8//5 4//5 11//5
f 6//6 8//6 11//6
f 10//7 1//7 12//7
f 2//8 7//8 13//8
f 7//9 5//9 13//9
f 7//10 4//10 14//10
f 1//11 10//11 14//11
f 10//12 7//12 14//12
f 4//13 8//13 15//13
f 12//14 1//14 15//14
f 8//15 12//15 15//15
f 1//16 14//16 15//16
f 14//17 4//17 15//17
f 9//18 2//18 16//18
f 2//19 13//19 16//19
f 13//20 5//20 16//20
f 3//21 9//21 17//21
f 9//22 6//22 17//22
f 11//23 3//23 17//23
f 6//24 11//24 17//24
f 5//25 7//25 18//25
f 7//26 10//26 18//26
f 10//27 12//27 18//27
f 16//28 5//28 18//28
f 16//29 18//29 19//29
f 8//30 6//30 19//30
f 6//31 9//31 19//31
f 12//32 8//32 19//32
f 9//33 16//33 19//33
