# Blender v2.79 (sub 0) OBJ File: ''
# www.blender.org
mtllib 102367_link_1_23.mtl
o Shape_IndexedFaceSet.023_Shape_IndexedFaceSet.10848
v -0.630838 0.314524 -0.506638
v -0.574736 0.334491 -0.271514
v -0.416530 0.343894 -0.486560
v -0.394862 -0.599574 -0.478367
v -0.640352 -0.588682 -0.250010
v -0.402645 0.381167 -0.696823
v -0.763927 0.381167 -0.278529
v -0.459729 -0.579094 -0.525665
v -0.553469 -0.601250 -0.259511
v -0.573825 -0.588682 -0.392605
v -0.535769 0.381167 -0.620758
v -0.763927 0.324112 -0.250010
v -0.402645 -0.550614 -0.563720
v -0.687851 0.381167 -0.440108
v -0.573698 -0.595217 -0.247000
v -0.735420 0.162439 -0.288065
v -0.450215 0.362086 -0.677796
v -0.649830 -0.474571 -0.278529
v -0.573825 -0.512545 -0.411633
v -0.431187 -0.588682 -0.544693
v -0.402645 0.324112 -0.696823
v -0.659344 0.210001 -0.449644
v -0.507228 0.286043 -0.630250
v -0.535769 0.314524 -0.611266
v -0.744899 0.362086 -0.326076
vn -0.8814 -0.1260 -0.4552
vn 0.9973 0.0235 0.0700
vn 0.2270 0.9513 0.2086
vn 0.2132 0.9595 0.1842
vn 0.8047 0.0259 0.5931
vn 0.8094 0.0237 0.5868
vn -0.1503 -0.9861 -0.0701
vn -0.0981 -0.9921 -0.0787
vn 0.0000 1.0000 -0.0000
vn 0.0769 0.4458 0.8918
vn -0.7650 -0.0115 -0.6440
vn 0.5308 0.0229 0.8472
vn -0.1063 -0.9520 0.2872
vn 0.1115 0.0263 0.9934
vn -0.0457 -0.0062 0.9989
vn -0.9659 -0.1158 -0.2316
vn -0.9766 -0.1322 -0.1699
vn -0.4651 0.3479 -0.8140
vn -0.8917 -0.1780 -0.4160
vn -0.9683 -0.1333 -0.2114
vn -0.7373 -0.1270 -0.6635
vn -0.7433 -0.1622 -0.6490
vn -0.5658 -0.6312 -0.5306
vn -0.1093 -0.9887 -0.1025
vn 0.6001 -0.6691 -0.4385
vn -0.4573 -0.1323 -0.8794
vn 0.9994 0.0000 -0.0356
vn 0.9949 -0.0151 -0.0994
vn -0.3714 -0.0000 -0.9285
vn -0.4167 -0.1368 -0.8987
vn -0.8032 -0.1011 -0.5871
vn -0.8794 -0.1269 -0.4589
vn -0.7771 -0.1244 -0.6169
vn -0.8505 -0.1275 -0.5102
vn -0.5661 -0.0881 -0.8196
vn -0.5797 -0.1291 -0.8045
vn -0.5289 -0.1280 -0.8390
vn -0.7342 -0.1264 -0.6671
vn -0.7367 -0.0953 -0.6694
vn -0.6341 -0.1270 -0.7627
vn -0.6243 -0.1101 -0.7734
vn -0.8935 0.1573 -0.4207
vn -0.9372 -0.1077 -0.3318
vn -0.8890 -0.1260 -0.4403
vn -0.8795 -0.1208 -0.4602
usemtl Shape.10851
s off
f 22//1 18//1 25//1
f 3//2 4//2 6//2
f 2//3 3//3 7//3
f 3//4 6//4 7//4
f 3//5 2//5 9//5
f 4//6 3//6 9//6
f 9//7 5//7 10//7
f 4//8 9//8 10//8
f 7//9 6//9 11//9
f 2//10 7//10 12//10
f 11//11 1//11 14//11
f 7//9 11//9 14//9
f 9//12 2//12 15//12
f 5//13 9//13 15//13
f 2//14 12//14 15//14
f 12//15 5//15 15//15
f 12//16 7//16 16//16
f 5//17 12//17 16//17
f 11//18 6//18 17//18
f 10//19 5//19 18//19
f 5//20 16//20 18//20
f 1//21 8//21 19//21
f 8//22 10//22 19//22
f 10//23 8//23 20//23
f 4//24 10//24 20//24
f 13//25 4//25 20//25
f 20//26 17//26 21//26
f 6//27 4//27 21//27
f 4//28 13//28 21//28
f 17//29 6//29 21//29
f 13//30 20//30 21//30
f 14//31 1//31 22//31
f 10//32 18//32 22//32
f 1//33 19//33 22//33
f 19//34 10//34 22//34
f 11//35 17//35 23//35
f 20//36 8//36 23//36
f 17//37 20//37 23//37
f 8//38 1//38 24//38
f 1//39 11//39 24//39
f 23//40 8//40 24//40
f 11//41 23//41 24//41
f 7//42 14//42 25//42
f 16//43 7//43 25//43
f 18//44 16//44 25//44
f 14//45 22//45 25//45
