# Blender v2.79 (sub 0) OBJ File: ''
# www.blender.org
mtllib 102367_link_0_8.mtl
o Shape_IndexedFaceSet.008_Shape_IndexedFaceSet.7913
v 0.455483 0.028021 0.683720
v 0.508040 0.060443 0.671422
v 0.505804 0.060443 0.672541
v 0.449921 0.029140 0.704956
v 0.399601 0.033610 0.703840
v 0.472253 0.047019 0.670299
v 0.503567 0.041429 0.670299
v 0.397364 0.017961 0.703840
v 0.447684 0.041429 0.704956
v 0.492383 0.043667 0.687076
v 0.493496 0.060443 0.670299
v 0.425317 0.019075 0.704956
v 0.426441 0.041429 0.704956
v 0.475614 0.036967 0.670299
v 0.485673 0.033610 0.683720
vn 0.3462 -0.8464 0.4047
vn -0.4276 0.0611 -0.9019
vn 0.4131 0.3847 0.8255
vn 0.7977 -0.2208 0.5612
vn 0.3073 0.4707 0.8270
vn 0.3677 0.0669 0.9275
vn 0.0000 1.0000 0.0000
vn -0.4133 0.6540 -0.6337
vn 0.0000 0.0000 -1.0000
vn 0.0769 0.0407 -0.9962
vn 0.0506 -0.9441 -0.3258
vn 0.0000 0.0000 1.0000
vn -0.0433 0.0062 0.9990
vn 0.0000 0.8626 0.5060
vn -0.0683 0.9245 0.3750
vn -0.2792 0.9602 -0.0133
vn -0.0400 0.0020 0.9992
vn 0.1452 -0.9099 -0.3886
vn -0.0912 -0.7601 -0.6434
vn -0.3658 -0.1223 -0.9226
vn 0.1729 -0.9337 -0.3135
vn 0.6334 -0.5898 0.5009
vn 0.4769 -0.5476 0.6876
vn 0.1799 -0.9716 -0.1538
usemtl Shape.7921
s off
f 4//1 12//1 15//1
f 5//2 6//2 8//2
f 2//3 3//3 10//3
f 7//4 2//4 10//4
f 3//5 9//5 10//5
f 9//6 4//6 10//6
f 3//7 2//7 11//7
f 6//8 5//8 11//8
f 7//9 6//9 11//9
f 2//10 7//10 11//10
f 8//11 1//11 12//11
f 4//12 9//12 12//12
f 12//12 9//12 13//12
f 5//13 8//13 13//13
f 9//14 3//14 13//14
f 3//15 11//15 13//15
f 11//16 5//16 13//16
f 8//17 12//17 13//17
f 7//18 1//18 14//18
f 6//9 7//9 14//9
f 1//19 8//19 14//19
f 8//20 6//20 14//20
f 1//21 7//21 15//21
f 7//22 10//22 15//22
f 10//23 4//23 15//23
f 12//24 1//24 15//24
