# Blender v2.79 (sub 0) OBJ File: ''
# www.blender.org
mtllib 102367_link_1_4.mtl
o Shape_IndexedFaceSet.004_Shape_IndexedFaceSet.10829
v 0.788181 0.388546 -0.018873
v 0.793663 0.406024 -0.161955
v 0.481629 0.381167 -0.392569
v 0.603836 -0.602856 -0.022267
v 0.614761 0.381167 -0.021767
v 0.470417 -0.603935 -0.395690
v 0.662265 -0.588682 -0.135874
v 0.690798 0.343099 -0.402100
v 0.614761 -0.588682 -0.297486
v 0.671796 -0.569600 -0.021767
v 0.548195 -0.588682 -0.402100
v 0.719300 0.381167 -0.364051
v 0.480977 -0.590761 -0.402915
v 0.776365 0.247975 -0.031297
v 0.671796 -0.484064 -0.164391
v 0.719300 0.286043 -0.335534
v 0.605260 -0.474571 -0.345027
v 0.700328 0.381167 -0.392569
vn 0.8306 -0.0696 -0.5525
vn -0.0167 -0.0003 0.9999
vn -0.0442 0.9919 0.1195
vn -0.1077 0.9934 0.0387
vn -0.9411 0.0103 0.3379
vn -0.9417 0.0097 0.3364
vn 0.1356 -0.9897 -0.0456
vn 0.1524 -0.9873 -0.0448
vn -0.0063 -0.0023 1.0000
vn 0.4361 -0.8928 0.1129
vn 0.9894 -0.1323 -0.0605
vn 0.1820 -0.9765 -0.1158
vn -0.5724 0.0091 -0.8200
vn -0.0436 0.0107 -0.9990
vn 0.0259 -0.4966 -0.8676
vn 0.0122 -0.0019 -0.9999
vn 0.9959 -0.0862 0.0276
vn 0.9916 -0.1271 -0.0225
vn 0.9102 -0.1118 0.3989
vn 0.9776 -0.1334 -0.1627
vn 0.9467 -0.1621 -0.2783
vn 0.9441 -0.1284 -0.3036
vn 0.9404 -0.1261 -0.3157
vn 0.9377 -0.0998 -0.3328
vn 0.8991 -0.1257 -0.4193
vn 0.8152 -0.1248 -0.5656
vn 0.8339 -0.1516 -0.5306
vn 0.8499 -0.1246 -0.5120
vn 0.8695 -0.1265 -0.4774
vn 0.0000 0.9942 -0.1072
vn 0.0000 0.2429 -0.9701
vn 0.3705 0.8955 -0.2465
usemtl Shape.10832
s off
f 12//1 8//1 18//1
f 4//2 1//2 5//2
f 1//3 2//3 5//3
f 2//4 3//4 5//4
f 3//5 4//5 5//5
f 4//6 3//6 6//6
f 4//7 6//7 9//7
f 7//8 4//8 9//8
f 1//9 4//9 10//9
f 4//10 7//10 10//10
f 7//11 2//11 10//11
f 9//12 6//12 11//12
f 6//13 3//13 13//13
f 3//14 8//14 13//14
f 11//15 6//15 13//15
f 8//16 11//16 13//16
f 2//17 1//17 14//17
f 10//18 2//18 14//18
f 1//19 10//19 14//19
f 2//20 7//20 15//20
f 7//21 9//21 15//21
f 9//22 2//22 15//22
f 2//23 9//23 16//23
f 12//24 2//24 16//24
f 9//25 12//25 16//25
f 11//26 8//26 17//26
f 9//27 11//27 17//27
f 8//28 12//28 17//28
f 12//29 9//29 17//29
f 3//30 2//30 18//30
f 8//31 3//31 18//31
f 2//32 12//32 18//32
