# Blender v2.79 (sub 0) OBJ File: ''
# www.blender.org
mtllib 102367_link_1_16.mtl
o Shape_IndexedFaceSet.016_Shape_IndexedFaceSet.10841
v -0.583286 0.523792 0.263498
v -0.402645 0.514257 0.472667
v -0.401107 0.379953 0.474610
v -0.583286 0.381167 0.472667
v -0.573773 0.381167 0.244467
v -0.581213 0.522156 0.470048
v -0.573773 0.514257 0.244467
v -0.585739 0.379231 0.241368
v -0.402645 0.514257 0.463151
v -0.412176 0.523792 0.472667
vn 0.7073 0.7070 0.0000
vn 0.2507 0.0000 -0.9681
vn -0.0068 -0.9999 0.0084
vn 0.1962 -0.9687 -0.1523
vn -0.9998 0.0154 0.0102
vn -0.9998 0.0149 0.0105
vn -0.8726 0.0884 -0.4804
vn 0.9999 0.0115 0.0000
vn 0.7991 -0.0420 -0.5997
vn 0.7875 0.0000 -0.6163
vn 0.4573 0.8142 -0.3578
vn 0.0146 0.0146 0.9998
vn -0.0106 0.0127 0.9999
vn -0.0098 0.9999 0.0080
vn -0.0157 0.0188 0.9997
vn 0.3412 0.8976 -0.2791
usemtl Shape.10844
s off
f 2//1 9//1 10//1
f 7//2 5//2 8//2
f 3//3 4//3 8//3
f 5//4 3//4 8//4
f 6//5 1//5 8//5
f 4//6 6//6 8//6
f 1//7 7//7 8//7
f 2//8 3//8 9//8
f 3//9 5//9 9//9
f 5//10 7//10 9//10
f 9//11 7//11 10//11
f 3//12 2//12 10//12
f 4//13 3//13 10//13
f 1//14 6//14 10//14
f 6//15 4//15 10//15
f 7//16 1//16 10//16
