# Blender v2.79 (sub 0) OBJ File: ''
# www.blender.org
mtllib 102367_link_0_1.mtl
o Shape_IndexedFaceSet.001_Shape_IndexedFaceSet.7906
v -0.752142 0.225928 0.458969
v -0.714137 0.180100 0.488028
v -0.717490 0.181217 0.486907
v -0.751019 0.221458 0.432130
v -0.701838 0.194634 0.489143
v -0.732014 0.194634 0.490270
v -0.752142 0.204693 0.452259
v -0.751019 0.231521 0.436603
v -0.718607 0.205811 0.490270
v -0.700710 0.183453 0.489143
v -0.752142 0.204693 0.464546
vn -0.5609 -0.8279 0.0000
vn -0.4267 -0.6256 0.6530
vn -0.1408 -0.8793 -0.4549
vn 0.0997 -0.7673 -0.6335
vn -0.9989 0.0139 -0.0441
vn -0.9988 0.0201 -0.0451
vn 0.7882 0.2500 -0.5623
vn 0.5564 0.8287 0.0609
vn -0.4141 0.4967 0.7628
vn 0.3203 0.9151 0.2449
vn 0.2314 -0.7028 -0.6727
vn 0.7727 0.0780 -0.6299
vn -0.0334 -0.1924 0.9808
vn 0.0719 0.0072 0.9974
vn 0.0252 -0.0302 0.9992
vn -0.6372 -0.7420 0.2084
vn -0.7427 0.1701 0.6477
vn -1.0000 0.0000 0.0000
usemtl Shape.7914
s off
f 7//1 3//1 11//1
f 3//2 2//2 6//2
f 2//3 3//3 7//3
f 4//4 2//4 7//4
f 1//5 4//5 7//5
f 4//6 1//6 8//6
f 5//7 4//7 8//7
f 5//8 8//8 9//8
f 1//9 6//9 9//9
f 8//10 1//10 9//10
f 2//11 4//11 10//11
f 4//12 5//12 10//12
f 6//13 2//13 10//13
f 5//14 9//14 10//14
f 9//15 6//15 10//15
f 3//16 6//16 11//16
f 6//17 1//17 11//17
f 1//18 7//18 11//18
