# Blender v2.79 (sub 0) OBJ File: ''
# www.blender.org
mtllib 102367_link_1_21.mtl
o Shape_IndexedFaceSet.021_Shape_IndexedFaceSet.10846
v -0.014391 0.511640 0.622245
v 0.196638 0.537403 0.824312
v 0.203413 0.383230 0.580248
v -0.022312 0.381167 0.786440
v -0.013272 0.555025 0.833304
v 0.205888 0.523774 0.586786
v 0.186856 0.381167 0.767411
v -0.013393 0.388600 0.614335
v 0.205888 0.571334 0.748355
v -0.022312 0.571334 0.786440
v 0.072801 0.485744 0.843472
v -0.012796 0.523774 0.615316
v 0.177340 0.504768 0.577258
v -0.022312 0.485744 0.843472
v 0.196372 0.495238 0.833944
v 0.170144 0.554607 0.823950
vn 0.1297 0.2200 0.9668
vn -0.0010 -0.9999 -0.0111
vn -0.9986 -0.0048 -0.0520
vn -0.0318 -0.9985 -0.0448
vn 0.9998 -0.0179 0.0053
vn -0.9988 -0.0000 -0.0482
vn 0.0768 -0.5303 0.8443
vn -0.9767 0.0059 -0.2145
vn -0.0368 0.9587 -0.2822
vn -0.0450 0.9619 -0.2698
vn -0.9932 0.0855 -0.0790
vn 0.2927 0.0393 -0.9554
vn -0.1565 -0.0578 -0.9860
vn -0.1064 0.5687 -0.8156
vn -0.1955 0.0080 -0.9807
vn -1.0000 -0.0000 0.0000
vn -0.9574 0.1602 0.2404
vn 0.0000 -0.4788 0.8779
vn 0.0000 0.1452 0.9894
vn 0.9875 -0.1325 0.0859
vn 0.9911 0.0237 0.1313
vn 0.9965 -0.0625 0.0552
vn 0.1049 -0.5076 0.8552
vn 0.0608 0.1918 0.9796
vn 0.4943 0.7697 0.4040
vn 0.0390 0.9716 0.2334
vn 0.0187 0.9454 0.3254
vn 0.0503 0.2059 0.9773
usemtl Shape.10849
s off
f 15//1 2//1 16//1
f 4//2 3//2 7//2
f 4//3 1//3 8//3
f 3//4 4//4 8//4
f 3//5 6//5 9//5
f 1//6 4//6 10//6
f 4//7 7//7 11//7
f 8//8 1//8 12//8
f 9//9 6//9 12//9
f 10//10 9//10 12//10
f 1//11 10//11 12//11
f 6//12 3//12 13//12
f 3//13 8//13 13//13
f 12//14 6//14 13//14
f 8//15 12//15 13//15
f 10//16 4//16 14//16
f 5//17 10//17 14//17
f 4//18 11//18 14//18
f 11//19 5//19 14//19
f 7//20 3//20 15//20
f 9//21 2//21 15//21
f 3//22 9//22 15//22
f 11//23 7//23 15//23
f 11//24 15//24 16//24
f 2//25 9//25 16//25
f 9//26 10//26 16//26
f 10//27 5//27 16//27
f 5//28 11//28 16//28
