# Blender v2.79 (sub 0) OBJ File: ''
# www.blender.org
mtllib 102367_link_1_19.mtl
o Shape_IndexedFaceSet.019_Shape_IndexedFaceSet.10844
v 0.386572 0.514257 0.482175
v 0.510128 0.381167 0.330042
v 0.522339 0.378491 0.327187
v 0.377066 0.381167 0.482175
v 0.519663 0.381167 0.482175
v 0.519663 0.523792 0.349058
v 0.518178 0.522307 0.480591
v 0.500622 0.504750 0.339557
v 0.377066 0.504750 0.472659
vn -0.7329 -0.0040 -0.6803
vn -0.2587 -0.9391 -0.2263
vn 0.0000 0.0000 1.0000
vn 0.0000 -0.9999 0.0173
vn -0.0609 0.9981 0.0106
vn 0.0113 0.0113 0.9999
vn 0.9998 0.0107 0.0171
vn 0.9998 0.0167 0.0115
vn -0.2151 0.0585 -0.9748
vn 0.3202 0.1468 -0.9359
vn -0.4999 0.7313 -0.4640
vn -0.7517 -0.0506 -0.6575
vn -0.7321 0.0523 0.6791
vn -0.4371 0.8159 -0.3785
usemtl Shape.10847
s off
f 8//1 2//1 9//1
f 2//2 3//2 4//2
f 1//3 4//3 5//3
f 4//4 3//4 5//4
f 6//5 1//5 7//5
f 1//6 5//6 7//6
f 5//7 3//7 7//7
f 3//8 6//8 7//8
f 3//9 2//9 8//9
f 6//10 3//10 8//10
f 6//11 8//11 9//11
f 2//12 4//12 9//12
f 4//13 1//13 9//13
f 1//14 6//14 9//14
