# Blender v2.92.0 OBJ File: ''
# www.blender.org
mtllib original-1.mtl
o #ID6.006
v 0.000336 -0.577707 0.496585
v -0.514292 -0.577707 -0.018043
v -0.445345 -0.577707 -0.275357
v 0.514964 -0.577707 -0.018043
v 0.257650 -0.600348 0.427638
v 0.257650 -0.577707 0.427638
v 0.000336 -0.600348 0.496585
v -0.256978 -0.577707 0.427638
v -0.256978 -0.600348 0.427638
v -0.445345 -0.600348 0.239271
v -0.445345 -0.577707 0.239271
v -0.514292 -0.600348 -0.018043
v -0.445345 -0.600348 -0.275357
v -0.256978 -0.577707 -0.463724
v -0.256978 -0.600348 -0.463724
v 0.000336 -0.577707 -0.532671
v 0.000336 -0.600348 -0.532671
v 0.257650 -0.577707 -0.463724
v 0.257650 -0.600348 -0.463724
v 0.446017 -0.600348 -0.275357
v 0.446017 -0.577707 -0.275357
v 0.514964 -0.600348 -0.018043
v 0.446017 -0.600348 0.239271
v 0.446017 -0.577707 0.239271
vt 0.000000 0.000000
vt 0.000000 0.000000
vt 0.000000 0.000000
vt 0.000000 0.000000
vt 0.062782 -0.001760
vt 0.000000 0.000000
vt 0.000000 0.000000
vt 0.000000 0.000000
vt 0.062782 -0.001760
vt 0.000000 0.000000
vt 0.000000 0.000000
vt 0.062782 -0.001760
vt 0.062782 0.008912
vt -0.234307 -0.062782
vt 0.000000 0.000000
vt 0.000000 0.000000
vt 0.000000 0.000000
vt 0.000000 0.000000
vt -0.062782 0.008912
vt 0.000000 0.000000
vt 0.000000 0.000000
vt -0.171524 -0.171524
vt -0.062782 -0.001760
vt 0.000000 0.000000
vt 0.062782 -0.001760
vt 0.000000 0.000000
vt 0.062782 -0.001760
vt 0.000000 0.000000
vt 0.062782 0.008912
vt -0.062782 0.008912
vt 0.062782 0.008912
vt 0.062782 -0.001760
vt 0.062782 -0.001760
vt 0.062782 0.008912
vt 0.062782 0.008912
vt -0.062782 0.008912
vt 0.062782 -0.001760
vt 0.062782 0.008912
vt -0.062782 -0.001760
vt -0.062782 -0.001760
vt 0.062782 0.008912
vn 0.0000 -1.0000 0.0000
vn 0.0000 1.0000 0.0000
vn -0.9659 0.0000 -0.2588
vn 0.9659 0.0000 0.2588
vn -0.4841 0.2506 -0.8384
vn -0.5000 0.0000 -0.8660
vn -0.7071 0.0000 -0.7071
vn -0.3638 0.8575 -0.3638
vn 0.5000 0.0000 -0.8660
vn 0.0000 0.0000 -1.0000
vn 0.0000 0.6532 -0.7572
vn 0.3786 0.6532 -0.6557
vn 0.8660 0.0000 -0.5000
vn 0.8534 0.1700 -0.4927
vn 0.4243 -0.8000 0.4243
vn 0.4841 -0.2506 0.8384
vn -0.8187 -0.3262 0.4726
vn -0.6286 -0.7593 0.1684
vn 0.9659 0.0000 -0.2588
vn 0.4591 0.3961 0.7952
vn 0.5000 0.7071 0.5000
vn -0.9659 0.0000 0.2588
vn -0.8660 0.0000 0.5000
vn -0.5000 0.0000 0.8660
vn 0.0000 0.0000 1.0000
usemtl material_0_0.107
s off
f 19/1/1 20/2/1 22/3/1
f 19/1/1 22/3/1 23/4/1
f 19/1/1 5/5/1 7/6/1
f 19/1/1 7/6/1 9/7/1
f 19/1/1 9/7/1 10/8/1
f 19/1/1 12/9/1 13/10/1
f 19/1/1 13/10/1 15/11/1
f 19/1/1 15/11/1 17/12/1
f 14/13/2 2/14/2 11/15/2
f 14/13/2 11/15/2 8/16/2
f 14/13/2 8/16/2 1/17/2
f 14/13/2 1/17/2 6/18/2
f 14/13/2 24/19/2 4/20/2
f 14/13/2 4/20/2 21/21/2
f 3/22/3 13/23/3 12/24/3 2/14/3
f 23/25/4 22/3/4 4/20/4 24/19/4
s 1
f 14/13/5 15/11/6 13/23/7 3/26/8
f 19/27/9 17/12/10 16/28/11 18/29/12
f 20/2/13 19/1/9 18/30/12 21/31/14
f 19/1/1 23/4/15 5/5/16
f 19/1/1 10/8/17 12/9/18
f 22/32/19 20/2/13 21/21/14 4/20/19
f 14/13/5 3/26/8 2/14/2
f 14/13/2 6/18/20 24/19/21
f 14/13/5 21/21/14 18/30/12
f 14/13/5 18/30/12 16/28/11
f 2/14/22 12/24/18 10/33/17 11/34/23
f 16/35/11 17/12/10 15/11/6 14/36/5
f 11/15/23 10/33/17 9/37/24 8/38/24
f 5/39/16 23/40/15 24/19/21 6/41/20
f 8/16/24 9/37/24 7/6/25 1/17/25
f 7/6/25 5/5/16 6/18/20 1/17/25
o #ID27.001
v -0.343943 0.684799 -0.614352
v 0.000336 0.684799 -0.706601
v 0.000336 0.684799 -0.720765
v 0.000336 -0.600348 -0.541250
v -0.351025 0.684799 -0.626618
v 0.000336 -0.600348 -0.532671
v -0.261268 -0.600348 -0.471154
v -0.256978 -0.600348 -0.463724
vt 0.000000 0.000000
vt 0.000000 0.000000
vt 0.000000 0.000000
vt 0.000000 0.000000
vt 0.000000 0.000000
vt 0.085729 0.641357
vt -0.085729 0.641357
vt -0.063829 0.030108
vt 0.308698 0.006187
vt 0.000000 0.000000
vt 0.000000 0.000000
vn 0.2566 0.1296 0.9578
vn -0.8660 0.0000 0.5000
vn 0.2565 0.1337 0.9573
vn -0.1870 -0.6914 -0.6978
vn 0.5728 -0.6225 -0.5333
vn 0.6169 -0.7871 0.0000
vn 0.0000 -1.0000 0.0000
vn -0.2565 -0.1337 -0.9573
vn 0.7381 0.6747 0.0000
vn -0.0000 1.0000 0.0000
vn 0.6812 0.7321 0.0000
usemtl material_0_0.109
s off
f 30/42/26 26/43/26 25/44/26 32/45/26
f 31/46/27 32/45/27 25/44/27 29/47/27
s 1
f 27/48/28 29/47/28 28/49/28
f 31/50/29 28/49/30 30/42/31 32/45/32
f 28/49/30 31/46/29 29/47/33
f 27/51/34 29/47/35 25/44/35 26/43/36
f 28/52/30 27/48/34 26/43/36 30/42/31
o #ID35.001
v -0.698203 0.609697 0.220525
v -0.698203 0.684799 0.220525
v -0.642463 0.684799 0.205590
v -0.632675 0.609697 0.202967
v -0.723901 0.684799 0.124620
v -0.723901 0.609697 0.124620
v -0.668161 0.684799 0.109685
v -0.658373 0.609697 0.107062
vt 0.000000 0.000000
vt 0.036100 1.000778
vt 0.036100 1.000778
vt 0.007149 1.000778
vt 0.041183 0.942655
vt 0.041183 0.942655
vt 0.000000 0.000000
vt 0.007149 0.942655
vt 0.007149 1.000778
vt 0.007149 0.942655
vn 0.0000 1.0000 0.0000
vn 0.0000 -1.0000 0.0000
vn -0.5000 -0.0000 0.8660
vn -0.9659 0.0000 0.2588
vn 0.2588 -0.0000 0.9659
vn 0.8810 0.0987 0.4626
vn 0.8390 0.0906 0.5366
vn 0.9573 0.1337 -0.2565
usemtl material_0_0.110
s off
f 34/53/37 35/54/37 39/55/37 37/56/37
f 40/57/38 36/58/38 33/59/38 38/60/38
s 1
f 33/59/39 34/61/39 37/56/40 38/60/40
f 39/55/41 37/56/41 40/57/41
f 38/60/41 40/57/41 37/56/41
f 34/61/39 33/62/39 36/58/42 35/54/43
f 39/55/44 35/54/43 36/58/42 40/57/44
o #ID43
v 0.633348 0.609697 -0.239053
v 0.698875 0.684799 -0.256611
v 0.643135 0.684799 -0.241676
v 0.698875 0.609697 -0.256611
v 0.724573 0.684799 -0.160706
v 0.724573 0.609697 -0.160706
v 0.659045 0.609697 -0.143148
v 0.668833 0.684799 -0.145771
vt 0.000000 0.000000
vt 0.000000 0.000000
vt 0.000000 0.000000
vt 0.000000 0.000000
vt 0.007149 1.000778
vt 0.041183 0.942655
vt 0.007149 0.942655
vt 0.036100 1.000778
vt 0.000000 0.000000
vt 0.000000 0.000000
vt 0.000000 0.000000
vn -0.2588 -0.0000 -0.9659
vn 0.7071 0.5774 0.4082
vn -0.4495 -0.5405 0.7112
vn 0.7071 -0.5774 0.4082
vn -0.3644 0.6108 0.7030
vn 0.6830 0.7071 -0.1830
vn 0.6830 -0.7071 -0.1830
vn -0.7272 -0.6581 0.1949
vn -0.6357 0.7529 0.1703
usemtl material_0_0.111
s off
f 41/63/45 43/64/45 42/65/45 44/66/45
s 1
f 45/67/46 47/68/47 46/69/48
f 47/68/47 45/67/46 48/70/49
f 42/65/50 45/67/46 46/71/48 44/66/51
f 44/66/51 46/71/48 47/72/47 41/63/52
f 41/63/52 47/72/47 48/73/49 43/64/53
f 48/73/49 45/67/46 42/65/50 43/64/53
o #ID27.002
v 0.344615 0.684799 -0.614352
v 0.000336 0.684799 -0.706601
v 0.351697 0.684799 -0.626618
v 0.261940 -0.600348 -0.471154
v 0.000336 -0.600348 -0.541250
v 0.000336 0.684799 -0.720765
v 0.257650 -0.600348 -0.463724
v 0.000336 -0.600348 -0.532671
vt 0.000000 0.000000
vt 0.000000 0.000000
vt 0.000000 0.000000
vt 0.000000 0.000000
vt 0.000000 0.000000
vt 0.000000 0.000000
vt 0.000000 0.000000
vt 0.000000 0.000000
vn -0.2566 0.1296 0.9578
vn 0.8660 0.0000 0.5000
vn -1.0000 0.0000 0.0000
vn 0.2565 -0.1337 -0.9573
vn 0.0000 -1.0000 0.0000
vn 0.0000 1.0000 0.0000
usemtl material_0_0.109
s off
f 49/74/54 50/75/54 56/76/54 55/77/54
f 49/74/55 55/77/55 52/78/55 51/79/55
f 54/80/56 53/81/56 56/76/56 50/75/56
f 51/79/57 52/78/57 53/81/57 54/80/57
f 56/76/58 53/81/58 52/78/58 55/77/58
f 51/79/59 54/80/59 50/75/59 49/74/59
o #ID27.003
v 0.608911 0.684799 -0.369404
v 0.344615 0.684799 -0.614352
v 0.643135 0.684799 -0.241676
v 0.261940 -0.600348 -0.471154
v 0.351697 0.684799 -0.626618
v 0.453447 -0.600348 -0.279647
v 0.257650 -0.600348 -0.463724
v 0.446017 -0.600348 -0.275357
vt 0.000000 0.000000
vt 0.000000 0.000000
vt 0.562242 0.006187
vt 0.625924 1.000778
vt 0.000000 0.000000
vt 0.000000 0.000000
vt 0.171524 -0.171524
vt 0.234307 -0.062782
vt 0.000000 0.000000
vt 0.000000 0.000000
vn 0.7008 -0.1337 -0.7008
vn -0.7505 0.1126 0.6513
vn 0.4976 -0.0989 0.8618
vn 0.9573 -0.1337 -0.2565
vn 0.0000 1.0000 -0.0000
vn 0.0000 -1.0000 0.0000
vn -0.5342 -0.7871 -0.3084
vn -0.6876 -0.6079 -0.3970
vn -0.8660 -0.0000 -0.5000
usemtl material_0_0.109
s off
f 57/82/60 62/83/60 60/84/60 61/85/60
f 59/86/61 58/87/61 63/88/61 64/89/61
f 62/83/62 59/86/62 64/89/62
f 62/83/63 57/82/63 59/86/63
f 57/82/64 61/85/64 58/87/64
f 57/82/64 58/87/64 59/86/64
s 1
f 64/90/65 63/88/66 60/91/67 62/83/65
f 58/87/68 61/85/68 60/91/67 63/88/66
o #ID27.004
v 0.643135 0.684799 -0.241676
v 0.703058 0.684799 -0.018043
v 0.688894 0.684799 -0.018043
v 0.596645 0.684799 -0.362322
v 0.668833 0.684799 -0.145771
v 0.446017 -0.600348 -0.275357
v 0.514964 -0.600348 -0.018043
v 0.453447 -0.600348 -0.279647
v 0.523543 -0.600348 -0.018043
vt 0.238213 0.063829
vt 0.000000 0.000000
vt 0.000000 0.000000
vt 0.000000 0.000000
vt 0.000000 0.000000
vt -0.313496 0.084001
vt 0.238213 -0.063829
vt 0.000000 0.000000
vt 0.234307 0.062782
vt 0.234307 -0.062782
vt -0.313496 -0.084001
vn 0.9573 -0.1337 -0.2565
vn 0.0000 1.0000 0.0000
vn 0.0000 -0.0000 1.0000
vn 0.9257 -0.1261 -0.3567
vn -0.9348 0.0862 -0.3447
vn -0.9578 0.1296 0.2566
vn -0.9471 0.1964 0.2538
vn -0.9533 0.1675 0.2512
vn -0.5000 0.0000 -0.8660
usemtl material_0_0.109
s off
f 73/92/69 69/93/69 66/94/69
f 69/93/70 65/95/70 68/96/70
f 69/93/70 67/97/70 66/94/70
f 72/98/69 65/95/69 69/93/69 73/92/69
f 73/92/71 66/94/71 67/99/71 71/100/71
f 65/95/72 72/98/72 68/96/72
s 1
f 70/101/73 71/100/74 67/99/75 68/102/76
f 71/100/70 72/98/70 70/101/70
f 72/98/70 71/100/70 73/92/70
f 69/93/70 68/96/76 67/97/75
f 72/98/77 70/101/73 68/96/76
o #ID27.005
v 0.608911 0.684799 0.333318
v 0.596645 0.684799 0.326236
v 0.688894 0.684799 -0.018043
v 0.523543 -0.600348 -0.018043
v 0.703058 0.684799 -0.018043
v 0.514964 -0.600348 -0.018043
v 0.446017 -0.600348 0.239271
v 0.453447 -0.600348 0.243561
vt -0.229495 0.229495
vt 0.000000 0.000000
vt 0.000000 0.000000
vt -0.313496 0.084001
vt 0.000000 0.000000
vt 0.000000 0.000000
vt 0.000000 0.000000
vt 0.559198 0.006187
vt 0.626021 0.006187
vt 0.000000 0.000000
vn 0.0000 1.0000 -0.0000
vn 0.0000 0.0000 -1.0000
vn 0.0000 -1.0000 0.0000
vn 0.9573 -0.1337 0.2565
vn -0.5000 0.0000 0.8660
vn -0.9578 0.1296 -0.2566
usemtl material_0_0.109
s off
f 75/103/78 74/104/78 78/105/78 76/106/78
f 78/105/79 77/107/79 79/108/79 76/106/79
f 77/107/80 81/109/80 80/110/80 79/111/80
f 77/107/81 78/105/81 74/104/81 81/109/81
f 80/110/82 81/109/82 74/104/82 75/112/82
s 1
f 79/111/83 80/110/83 75/103/83 76/106/83
o #ID27.006
v 0.351697 0.684799 0.590532
v 0.344615 0.684799 0.578266
v 0.596645 0.684799 0.326236
v 0.453447 -0.600348 0.243561
v 0.608911 0.684799 0.333318
v 0.257650 -0.600348 0.427638
v 0.261940 -0.600348 0.435068
v 0.446017 -0.600348 0.239271
vt 0.000000 0.000000
vt 0.000000 0.000000
vt 0.000000 0.000000
vt 0.000000 0.000000
vt 0.000000 0.000000
vt 0.000000 0.000000
vt -0.084001 0.313496
vt -0.229495 0.229495
vt 0.000000 0.000000
vt 0.000000 0.000000
vt 0.063829 0.238213
vt 0.171524 0.171524
vn 0.5000 -0.0000 -0.8660
vn 0.7008 -0.1337 0.7008
vn 0.0000 1.0000 0.0000
vn -0.8660 -0.0000 0.5000
vn -0.4949 -0.7142 -0.4949
vn -0.7011 0.1296 -0.7011
vn 0.0000 -1.0000 0.0000
usemtl material_0_0.109
s off
f 89/113/84 84/114/84 86/115/84 85/116/84
f 86/115/85 82/117/85 88/118/85 85/116/85
f 83/119/86 82/117/86 86/115/86 84/120/86
f 87/121/87 88/118/87 82/117/87 83/122/87
s 1
f 87/121/88 83/122/89 84/114/89 89/113/88
f 88/123/90 87/121/88 89/124/88 85/116/90
o #ID27.007
v 0.351697 0.684799 0.590532
v 0.000336 0.684799 0.670515
v 0.344615 0.684799 0.578266
v 0.261940 -0.600348 0.435068
v 0.000336 0.684799 0.684679
v 0.257650 -0.600348 0.427638
v 0.000336 -0.600348 0.505164
v 0.000336 -0.600348 0.496585
vt 0.000000 0.000000
vt 0.000000 0.000000
vt 0.000000 0.000000
vt 0.443458 0.006187
vt 0.000000 0.000000
vt 0.000000 0.000000
vt 0.000000 0.000000
vt 0.000000 0.000000
vt -0.084001 0.313496
vt 0.000000 0.000000
vt 0.308698 0.006187
vt 0.084001 0.313496
vn 0.8660 0.0000 -0.5000
vn 0.2565 -0.1337 0.9573
vn -1.0000 0.0000 0.0000
vn -0.1552 0.8001 -0.5794
vn -0.1812 -0.7142 -0.6761
vn 0.0000 -1.0000 -0.0000
vn 0.0000 1.0000 0.0000
usemtl material_0_0.109
s off
f 92/125/91 90/126/91 93/127/91 95/128/91
f 90/126/92 94/129/92 96/130/92 93/127/92
f 91/131/93 97/132/93 96/130/93 94/129/93
s 1
f 92/133/94 95/134/95 97/132/95 91/131/94
f 96/135/96 97/132/95 95/128/95 93/127/96
f 92/125/94 91/136/94 94/129/97 90/126/97
o #ID27.008
v 0.000336 0.684799 0.684679
v 0.000336 0.684799 0.670515
v -0.343943 0.684799 0.578266
v 0.000336 -0.600348 0.505164
v -0.351025 0.684799 0.590532
v -0.256978 -0.600348 0.427638
v -0.261268 -0.600348 0.435068
v 0.000336 -0.600348 0.496585
vt 0.000000 0.000000
vt 0.000000 0.000000
vt 0.132370 1.000778
vt 0.287228 1.000778
vt 0.285389 1.000778
vt 0.000000 0.000000
vt 0.000000 0.000000
vt 0.000000 0.000000
vt 0.000000 0.000000
vt 0.194072 0.006187
vt 0.000000 0.000000
vn 0.2566 0.1296 -0.9578
vn 1.0000 0.0000 0.0000
vn -0.2565 -0.1337 0.9573
vn -0.0000 1.0000 0.0000
vn -0.5900 0.7321 -0.3406
vn 0.0000 -1.0000 0.0000
vn -0.6876 -0.6079 -0.3970
vn -0.5342 -0.7871 -0.3084
vn -0.6392 0.6747 -0.3691
usemtl material_0_0.109
s off
f 105/137/98 103/138/98 100/139/98 99/140/98
f 98/141/99 101/142/99 105/137/99 99/140/99
f 101/142/100 98/143/100 102/144/100 104/145/100
s 1
f 98/141/101 99/140/101 100/139/102
f 101/142/103 104/145/104 103/138/105 105/137/103
f 98/141/101 100/139/102 102/144/106
f 103/146/105 104/145/104 102/144/106 100/147/102
o #ID27.009
v -0.343943 0.684799 0.578266
v -0.351025 0.684799 0.590532
v -0.608239 0.684799 0.333318
v -0.642463 0.684799 0.205590
v -0.445345 -0.600348 0.239271
v -0.452775 -0.600348 0.243561
v -0.261268 -0.600348 0.435068
v -0.256978 -0.600348 0.427638
vt 0.000000 0.000000
vt 0.127346 1.000778
vt 0.000000 0.000000
vt 0.123091 0.006187
vt 0.000000 0.000000
vt 0.132370 1.000778
vt 0.000000 0.000000
vt 0.000000 0.000000
vt 0.127249 0.006187
vt -0.174384 0.174384
vt -0.171524 0.171524
vn -0.7008 -0.1337 0.7008
vn -0.9573 -0.1337 0.2565
vn 0.0000 1.0000 0.0000
vn 0.7505 0.1126 -0.6513
vn -0.2951 -0.8072 -0.5112
vn 0.5342 -0.7871 0.3084
vn 0.6876 -0.6079 0.3970
vn -0.3752 -0.6611 -0.6498
vn -0.4976 -0.0989 -0.8618
vn 0.6392 0.6747 0.3691
vn 0.5966 0.7249 0.3444
usemtl material_0_0.109
s off
f 112/148/107 107/149/107 108/150/107 111/151/107
f 111/151/108 108/150/108 109/152/108
f 108/150/109 106/153/109 109/152/109
f 106/153/110 113/154/110 110/155/110 109/152/110
s 1
f 110/156/111 113/154/112 112/148/113 111/151/114
f 110/156/111 111/151/114 109/152/115
f 108/150/109 107/149/116 106/153/117
f 107/149/116 112/157/113 113/158/112 106/153/117
o #ID27.010
v -0.702385 0.684799 -0.018043
v -0.595973 0.684799 0.326236
v -0.608239 0.684799 0.333318
v -0.688222 0.684799 -0.018043
v -0.452775 -0.600348 0.243561
v -0.445345 -0.600348 0.239271
v -0.514292 -0.600348 -0.018043
v -0.522871 -0.600348 -0.018043
vt -0.234307 -0.062782
vt 0.000000 0.000000
vt 0.000000 0.000000
vt 0.000000 0.000000
vt -0.238213 -0.063829
vt 0.036100 1.000778
vt 0.000000 0.000000
vt 0.000000 0.000000
vt 0.036100 1.000778
vt 0.042963 1.000778
vt 0.000000 0.000000
vt 0.000000 0.000000
vn 0.9578 0.1296 -0.2566
vn 0.0000 0.0000 -1.0000
vn -0.9573 -0.1337 0.2565
vn 0.5000 0.0000 0.8660
vn 0.0000 -1.0000 0.0000
vn 0.0000 1.0000 0.0000
usemtl material_0_0.109
s off
f 120/159/118 117/160/118 115/161/118 119/162/118
f 121/163/119 114/164/119 117/160/119 120/159/119
f 121/165/120 118/166/120 116/167/120 114/164/120
f 118/166/121 119/162/121 115/168/121 116/167/121
s 1
f 118/166/122 121/165/122 120/169/122 119/162/122
f 114/170/123 116/167/123 115/161/123 117/160/123
o #ID27.011
v -0.688222 0.684799 -0.018043
v -0.702385 0.684799 -0.018043
v -0.595973 0.684799 -0.362322
v -0.608239 0.684799 -0.369404
v -0.514292 -0.600348 -0.018043
v -0.522871 -0.600348 -0.018043
v -0.452775 -0.600348 -0.279647
v -0.445345 -0.600348 -0.275357
vt 0.000000 0.000000
vt 0.000000 0.000000
vt 0.000000 0.000000
vt 0.127249 0.006187
vt -0.174384 -0.174384
vt 0.000000 0.000000
vt 0.123091 0.006187
vt 0.000000 0.000000
vt -0.171524 -0.171524
vt 0.000000 0.000000
vn 0.9578 0.1296 0.2566
vn 0.5000 0.0000 -0.8660
vn -0.9573 -0.1337 -0.2565
vn 0.0000 -0.0000 1.0000
vn 0.0000 1.0000 0.0000
vn 0.0000 -1.0000 0.0000
usemtl material_0_0.109
s off
f 129/171/124 124/172/124 122/173/124 126/174/124
f 128/175/125 125/176/125 124/172/125 129/171/125
f 128/175/126 127/177/126 123/178/126 125/176/126
f 126/174/127 122/173/127 123/178/127 127/177/127
f 123/178/128 122/173/128 124/172/128 125/176/128
s 1
f 129/179/129 126/174/129 127/180/129 128/175/129
o #ID27.012
v -0.595973 0.684799 -0.362322
v -0.608239 0.684799 -0.369404
v -0.343943 0.684799 -0.614352
v -0.351025 0.684799 -0.626618
v -0.445345 -0.600348 -0.275357
v -0.452775 -0.600348 -0.279647
v -0.261268 -0.600348 -0.471154
v -0.256978 -0.600348 -0.463724
vt 0.000000 0.000000
vt 0.000000 0.000000
vt 0.000000 0.000000
vt 0.000000 0.000000
vt 0.000000 0.000000
vt 0.000000 0.000000
vt -0.062782 -0.234307
vt 0.000000 0.000000
vt -0.174384 -0.174384
vt -0.063829 -0.238213
vn 0.7011 0.1296 0.7011
vn 0.0000 1.0000 0.0000
vn 0.8660 -0.0000 -0.5000
vn -0.5000 -0.0000 0.8660
vn 0.0000 -1.0000 0.0000
vn -0.7008 -0.1337 -0.7008
usemtl material_0_0.109
s off
f 130/181/130 134/182/130 137/183/130 132/184/130
f 131/185/131 130/181/131 132/184/131 133/186/131
f 133/186/132 132/184/132 137/187/132 136/188/132
f 131/185/133 135/189/133 134/182/133 130/181/133
f 137/187/134 134/182/134 135/189/134 136/190/134
s 1
f 136/188/135 135/189/135 131/185/135 133/186/135
