# Blender v2.92.0 OBJ File: ''
# www.blender.org
mtllib original-3.mtl
o Group3/mesh5/mesh5-geometry#mesh5-geometry
v -0.591975 0.614449 0.074829
v -0.591975 0.618654 0.078788
v -0.591206 0.616644 0.076710
v -0.594075 0.619942 0.080504
v -0.595917 0.682157 0.007101
v -0.594075 0.612657 0.073648
v -0.596743 0.684965 0.008331
v -0.596743 0.680759 0.004373
v -0.599000 0.688432 0.007732
v -0.596944 0.620161 0.081400
v -0.596944 0.611749 0.073484
v -0.599000 0.681147 0.000876
v -0.602083 0.691628 0.005466
v -0.599814 0.619253 0.081236
v -0.599814 0.611968 0.074380
v -0.602083 0.683216 -0.002451
v -0.605167 0.693696 0.002139
v -0.601914 0.617462 0.080055
v -0.602683 0.615266 0.078174
v -0.601914 0.613256 0.076096
v -0.605167 0.686412 -0.004718
v -0.607424 0.694084 -0.001358
v -0.607424 0.689878 -0.005316
v -0.608250 0.692686 -0.004086
vn 0.8550 -0.2930 -0.4280
vn 0.9962 0.0595 -0.0632
vn 0.9919 0.0871 -0.0925
vn 0.8545 0.4455 0.2671
vn 0.8631 0.4152 0.2875
vn 0.4832 0.6795 0.5522
vn 0.8631 -0.3121 -0.3970
vn 0.5082 -0.5908 -0.6267
vn 0.4987 0.6602 0.5616
vn 0.4987 -0.6006 -0.6250
vn -0.0152 0.7319 0.6812
vn -0.0286 -0.7292 -0.6837
vn -0.0000 0.7282 0.6854
vn 0.0000 -0.7282 -0.6854
vn -0.4818 0.6258 0.6133
vn -0.5411 -0.6143 -0.5743
vn -0.4987 0.6006 0.6250
vn -0.4987 -0.6602 -0.5616
vn -0.8370 0.3734 0.4000
vn -0.8933 -0.3273 -0.3081
vn -0.8631 0.3121 0.3970
vn -0.9962 0.0218 0.0845
vn -0.8631 -0.4152 -0.2875
vn -0.9962 -0.0595 0.0632
usemtl material_0_0.001
s 1
f 1//1 5//2 3//3
f 5//2 2//4 3//3
f 7//5 4//6 2//4
f 5//2 1//1 8//7
f 6//8 8//7 1//1
f 2//4 5//2 7//5
f 4//6 7//5 9//9
f 8//7 6//8 12//10
f 9//9 10//11 4//6
f 11//12 12//10 6//8
f 10//11 9//9 13//13
f 12//10 11//12 16//14
f 13//13 14//15 10//11
f 15//16 16//14 11//12
f 14//15 13//13 17//17
f 16//14 15//16 21//18
f 17//17 18//19 14//15
f 20//20 21//18 15//16
f 18//19 17//17 22//21
f 22//21 19//22 18//19
f 19//22 23//23 20//20
f 21//18 20//20 23//23
f 19//22 22//21 24//24
f 23//23 19//22 24//24
o Group3/mesh5/mesh5-geometry#mesh5-geometry.001
v -0.155270 0.164973 0.560834
v -0.155270 0.160767 0.556876
v -0.155022 0.163537 0.558145
v -0.155950 0.164687 0.564222
v -0.229361 0.183692 0.532517
v -0.229065 0.186448 0.533802
v -0.229361 0.187898 0.536475
v -0.155950 0.157402 0.557366
v -0.230172 0.187653 0.539820
v -0.156878 0.162758 0.567401
v -0.230172 0.180368 0.532964
v -0.156878 0.154346 0.559484
v -0.231280 0.185779 0.542940
v -0.157806 0.159702 0.569519
v -0.231280 0.177368 0.535023
v -0.157806 0.152417 0.562663
v -0.232387 0.182779 0.544999
v -0.158486 0.156338 0.570009
v -0.232387 0.175494 0.538143
v -0.158486 0.152132 0.566050
v -0.233198 0.179455 0.545446
v -0.158735 0.153567 0.568739
v -0.233198 0.175249 0.541488
v -0.233495 0.176699 0.544161
vn 0.9114 -0.2820 0.2997
vn 0.9114 -0.2820 0.2996
vn 0.5348 -0.0682 -0.8422
vn 0.2473 0.6641 -0.7056
vn 0.2260 0.3113 -0.9231
vn 0.5982 0.5464 -0.5862
vn 0.2260 0.9025 -0.3666
vn 0.5431 0.8396 0.0116
vn 0.1484 0.9810 0.1247
vn 0.1484 -0.1838 -0.9717
vn 0.3331 0.8157 0.4730
vn 0.1562 -0.5918 -0.7908
vn -0.0000 0.7282 0.6854
vn -0.0000 -0.7282 -0.6853
vn 0.0104 0.7309 0.6824
vn 0.0119 -0.7113 -0.7028
vn -0.1484 0.1839 0.9717
vn -0.1484 -0.9810 -0.1247
vn -0.0118 0.5496 0.8353
vn 0.0485 -0.9375 -0.3446
vn -0.2260 -0.3113 0.9231
vn -0.2260 -0.9025 0.3666
vn -0.1899 0.1405 0.9717
vn -0.0873 -0.9908 0.1038
vn -0.4077 -0.4682 0.7839
vn -0.2473 -0.6641 0.7056
usemtl material_0_0.001
s 1
f 25//25 26//26 27//25
f 26//26 25//25 28//26
f 29//27 27//28 26//29
f 30//30 25//31 27//28
f 31//32 28//33 25//31
f 26//26 28//26 32//25
f 27//28 29//27 30//30
f 32//34 29//27 26//29
f 25//31 30//30 31//32
f 28//33 31//32 33//35
f 32//25 28//26 34//26
f 29//27 32//34 35//36
f 33//35 34//37 28//33
f 32//25 34//26 36//25
f 36//38 35//36 32//34
f 34//37 33//35 37//39
f 36//25 34//26 38//26
f 35//36 36//38 39//40
f 37//39 38//41 34//37
f 36//25 38//26 40//25
f 40//42 39//40 36//38
f 38//41 37//39 41//43
f 40//25 38//26 42//26
f 39//40 40//42 43//44
f 41//43 42//45 38//41
f 40//25 42//26 44//26
f 44//46 43//44 40//42
f 42//45 41//43 45//47
f 44//26 42//26 46//26
f 43//44 44//46 47//48
f 48//49 42//45 45//47
f 42//45 48//49 46//50
f 46//50 47//48 44//46
f 47//48 46//50 48//49
o Group3/mesh5/mesh5-geometry#mesh5-geometry.002
v -0.229361 0.183692 0.532517
v -0.229065 0.186448 0.533802
v -0.229361 0.187898 0.536475
v -0.230172 0.187653 0.539820
v -0.299242 0.215104 0.499141
v -0.230172 0.180368 0.532964
v -0.298854 0.217819 0.500470
v -0.299242 0.219310 0.503099
v -0.300301 0.219177 0.506325
v -0.231280 0.185779 0.542940
v -0.300301 0.211892 0.499469
v -0.231280 0.177368 0.535023
v -0.301748 0.217456 0.509283
v -0.232387 0.182779 0.544999
v -0.301748 0.209044 0.501366
v -0.232387 0.175494 0.538143
v -0.303195 0.214608 0.511180
v -0.233198 0.179455 0.545446
v -0.303195 0.207323 0.504324
v -0.233198 0.175249 0.541488
v -0.233495 0.176699 0.544161
v -0.304255 0.211396 0.511508
v -0.304642 0.208681 0.510179
v -0.304255 0.207190 0.507550
vn 0.6460 -0.0962 -0.7573
vn 0.3561 0.6434 -0.6777
vn 0.2249 0.2072 -0.9521
vn 0.7471 0.4524 -0.4870
vn 0.2248 0.9413 -0.2517
vn 0.6535 0.7556 0.0448
vn 0.0591 0.9725 0.2251
vn 0.2407 -0.2142 -0.9467
vn 0.3880 0.7910 0.4731
vn 0.2171 -0.5895 -0.7781
vn -0.0244 0.7135 0.7002
vn -0.0259 -0.7555 -0.6546
vn 0.0151 0.7339 0.6791
vn 0.0193 -0.7086 -0.7054
vn -0.4006 0.2177 0.8900
vn -0.4567 -0.8324 -0.3139
vn -0.0733 0.5638 0.8227
vn -0.0183 -0.9323 -0.3611
vn -0.5755 -0.2720 0.7712
vn -0.6656 -0.7318 0.1462
vn -0.3019 0.1890 0.9344
vn -0.5440 -0.7250 0.4224
vn -0.5560 -0.6954 0.4552
vn -0.1953 -0.9784 0.0680
usemtl material_0_0.001
s 1
f 53//51 50//52 49//53
f 55//54 51//55 50//52
f 56//56 52//57 51//55
f 50//52 53//51 55//54
f 54//58 53//51 49//53
f 51//55 55//54 56//56
f 52//57 56//56 57//59
f 53//51 54//58 59//60
f 57//59 58//61 52//57
f 60//62 59//60 54//58
f 58//61 57//59 61//63
f 59//60 60//62 63//64
f 61//63 62//65 58//61
f 64//66 63//64 60//62
f 62//65 61//63 65//67
f 63//64 64//66 67//68
f 65//67 66//69 62//65
f 68//70 67//68 64//66
f 66//69 65//67 70//71
f 66//69 71//72 69//73
f 67//68 68//70 72//74
f 71//72 66//69 70//71
f 72//74 69//73 71//72
f 69//73 72//74 68//70
o Group3/mesh5/mesh5-geometry#mesh5-geometry.003
v -0.299242 0.215104 0.499141
v -0.298854 0.217819 0.500470
v -0.299242 0.219310 0.503099
v -0.300301 0.219177 0.506325
v -0.364026 0.254562 0.457216
v -0.300301 0.211892 0.499469
v -0.363554 0.257226 0.458599
v -0.364026 0.258768 0.461174
v -0.365316 0.258775 0.464251
v -0.301748 0.217456 0.509283
v -0.365316 0.251491 0.457395
v -0.301748 0.209044 0.501366
v -0.367078 0.257246 0.467005
v -0.303195 0.214608 0.511180
v -0.367078 0.248834 0.459089
v -0.303195 0.207323 0.504324
v -0.368840 0.254590 0.468699
v -0.304255 0.211396 0.511508
v -0.304642 0.208681 0.510179
v -0.368840 0.247305 0.461843
v -0.304255 0.207190 0.507550
v -0.370129 0.251518 0.468878
v -0.370602 0.248854 0.467494
v -0.370129 0.247312 0.464919
vn 0.7301 -0.1324 -0.6704
vn 0.4478 0.6163 -0.6479
vn 0.3219 0.1718 -0.9310
vn 0.8509 0.3567 -0.3857
vn 0.3223 0.9220 -0.2148
vn 0.7369 0.6705 0.0865
vn 0.1219 0.9594 0.2544
vn 0.2992 -0.2453 -0.9221
vn 0.4329 0.7633 0.4795
vn 0.2722 -0.5897 -0.7604
vn -0.0318 0.7124 0.7011
vn -0.0360 -0.7558 -0.6538
vn 0.0200 0.7353 0.6774
vn 0.0264 -0.7079 -0.7058
vn -0.4594 0.2351 0.8565
vn -0.5091 -0.7945 -0.3310
vn -0.1307 0.5750 0.8077
vn -0.0845 -0.9216 -0.3789
vn -0.6714 -0.2500 0.6977
vn -0.7597 -0.6415 0.1069
vn -0.3989 0.2324 0.8871
vn -0.6535 -0.6789 0.3348
vn -0.6638 -0.3138 0.6789
vn -0.4027 -0.8989 -0.1728
usemtl material_0_0.001
s 1
f 77//75 74//76 73//77
f 79//78 75//79 74//76
f 80//80 76//81 75//79
f 74//76 77//75 79//78
f 78//82 77//75 73//77
f 75//79 79//78 80//80
f 76//81 80//80 81//83
f 77//75 78//82 83//84
f 81//83 82//85 76//81
f 84//86 83//84 78//82
f 82//85 81//83 85//87
f 83//84 84//86 87//88
f 85//87 86//89 82//85
f 88//90 87//88 84//86
f 86//89 85//87 89//91
f 87//88 88//90 92//92
f 89//91 90//93 86//89
f 93//94 92//92 88//90
f 90//93 89//91 94//95
f 90//93 95//96 91//97
f 91//97 96//98 93//94
f 92//92 93//94 96//98
f 95//96 90//93 94//95
f 96//98 91//97 95//96
o Group3/mesh5/mesh5-geometry#mesh5-geometry.004
v -0.364026 0.254562 0.457216
v -0.363554 0.257226 0.458599
v -0.364026 0.258768 0.461174
v -0.365316 0.258775 0.464251
v -0.422607 0.301390 0.407460
v -0.365316 0.251491 0.457395
v -0.422058 0.303993 0.408908
v -0.422607 0.305596 0.411419
v -0.424105 0.305770 0.414318
v -0.367078 0.257246 0.467005
v -0.424105 0.298485 0.407462
v -0.367078 0.248834 0.459089
v -0.426151 0.304468 0.416831
v -0.368840 0.254590 0.468699
v -0.426151 0.296056 0.408914
v -0.368840 0.247305 0.461843
v -0.428197 0.302039 0.418282
v -0.370129 0.251518 0.468878
v -0.370602 0.248854 0.467494
v -0.370129 0.247312 0.464919
v -0.428197 0.294755 0.411426
v -0.429696 0.299134 0.418284
v -0.430244 0.296532 0.416836
v -0.429696 0.294928 0.414326
vn 0.7887 -0.1722 -0.5901
vn 0.5413 0.5799 -0.6088
vn 0.4168 0.1316 -0.8994
vn 0.9186 0.2674 -0.2908
vn 0.4172 0.8922 -0.1730
vn 0.7931 0.5951 0.1297
vn 0.1841 0.9404 0.2858
vn 0.3523 -0.2812 -0.8927
vn 0.4667 0.7356 0.4910
vn 0.3206 -0.5914 -0.7399
vn -0.0381 0.7130 0.7001
vn -0.0449 -0.7540 -0.6553
vn 0.0236 0.7347 0.6779
vn 0.0321 -0.7092 -0.7043
vn -0.5103 0.2631 0.8188
vn -0.5503 -0.7556 -0.3552
vn -0.1856 0.5825 0.7913
vn -0.1509 -0.9050 -0.3979
vn -0.7517 -0.2127 0.6243
vn -0.7529 -0.6076 0.2530
vn -0.4834 0.2670 0.8337
vn -0.7425 -0.6176 0.2594
vn -0.7507 -0.2240 0.6215
vn -0.4865 -0.8476 -0.2120
usemtl material_0_0.001
s 1
f 101//99 98//100 97//101
f 103//102 99//103 98//100
f 104//104 100//105 99//103
f 98//100 101//99 103//102
f 102//106 101//99 97//101
f 99//103 103//102 104//104
f 100//105 104//104 105//107
f 101//99 102//106 107//108
f 105//107 106//109 100//105
f 108//110 107//108 102//106
f 106//109 105//107 109//111
f 107//108 108//110 111//112
f 109//111 110//113 106//109
f 112//114 111//112 108//110
f 110//113 109//111 113//115
f 111//112 112//114 117//116
f 113//115 114//117 110//113
f 116//118 117//116 112//114
f 114//117 113//115 118//119
f 114//117 119//120 115//121
f 115//121 120//122 116//118
f 117//116 116//118 120//122
f 119//120 114//117 118//119
f 120//122 115//121 119//120
o Group3/mesh5/mesh5-geometry#mesh5-geometry.005
v -0.422607 0.301390 0.407460
v -0.422058 0.303993 0.408908
v -0.422607 0.305596 0.411419
v -0.424105 0.305770 0.414318
v -0.473980 0.354788 0.350725
v -0.424105 0.298485 0.407462
v -0.473980 0.358993 0.354683
v -0.473365 0.357321 0.352247
v -0.475661 0.359357 0.357381
v -0.426151 0.304468 0.416831
v -0.475661 0.352072 0.350525
v -0.426151 0.296056 0.408914
v -0.477957 0.358315 0.359617
v -0.428197 0.302039 0.418282
v -0.477957 0.349903 0.351701
v -0.428197 0.294755 0.411426
v -0.480253 0.356145 0.360793
v -0.429696 0.299134 0.418284
v -0.430244 0.296532 0.416836
v -0.429696 0.294928 0.414326
v -0.480253 0.348861 0.353937
v -0.481934 0.353430 0.360594
v -0.482549 0.350897 0.359072
v -0.481934 0.349225 0.356635
vn 0.8262 -0.2118 -0.5221
vn 0.6373 0.5318 -0.5577
vn 0.5103 0.0854 -0.8557
vn 0.8279 0.5322 0.1769
vn 0.5080 0.8519 -0.1271
vn 0.2457 0.9151 0.3197
vn 0.9593 0.1936 -0.2056
vn 0.3995 -0.3221 -0.8583
vn 0.4889 0.7102 0.5065
vn 0.3616 -0.5942 -0.7184
vn -0.0427 0.7153 0.6976
vn -0.0513 -0.7506 -0.6587
vn 0.0250 0.7331 0.6797
vn 0.0351 -0.7121 -0.7012
vn -0.5507 0.3019 0.7782
vn -0.5787 -0.7184 -0.3860
vn -0.2391 0.5871 0.7734
vn -0.2176 -0.8817 -0.4187
vn -0.8161 -0.1604 0.5552
vn -0.8165 -0.5435 0.1948
vn -0.5593 0.2920 0.7758
vn -0.8148 -0.5453 0.1968
vn -0.8179 -0.1435 0.5571
vn -0.4921 -0.8692 -0.0478
usemtl material_0_0.001
s 1
f 125//123 122//124 121//125
f 122//124 127//126 123//127
f 127//126 124//128 123//127
f 122//124 125//123 128//129
f 126//130 125//123 121//125
f 127//126 122//124 128//129
f 124//128 127//126 129//131
f 125//123 126//130 131//132
f 129//131 130//133 124//128
f 132//134 131//132 126//130
f 130//133 129//131 133//135
f 131//132 132//134 135//136
f 133//135 134//137 130//133
f 136//138 135//136 132//134
f 134//137 133//135 137//139
f 135//136 136//138 141//140
f 137//139 138//141 134//137
f 140//142 141//140 136//138
f 138//141 137//139 142//143
f 138//141 143//144 139//145
f 143//144 140//142 139//145
f 141//140 140//142 144//146
f 143//144 138//141 142//143
f 140//142 143//144 144//146
o Group3/mesh5/mesh5-geometry#mesh5-geometry.006
v -0.473980 0.354788 0.350725
v -0.473980 0.358993 0.354683
v -0.473365 0.357321 0.352247
v -0.475661 0.359357 0.357381
v -0.517268 0.413840 0.287980
v -0.475661 0.352072 0.350525
v -0.517268 0.418046 0.291938
v -0.516596 0.416297 0.289583
v -0.519102 0.418620 0.294413
v -0.477957 0.358315 0.359617
v -0.519102 0.411335 0.287557
v -0.477957 0.349903 0.351701
v -0.521609 0.417865 0.296345
v -0.480253 0.356145 0.360793
v -0.521609 0.409453 0.288428
v -0.480253 0.348861 0.353937
v -0.524115 0.415982 0.297216
v -0.481934 0.353430 0.360594
v -0.482549 0.350897 0.359072
v -0.524115 0.408697 0.290360
v -0.481934 0.349225 0.356635
v -0.525950 0.413477 0.296793
v -0.526621 0.411021 0.295189
v -0.525950 0.409271 0.292835
vn 0.8473 -0.2488 -0.4692
vn 0.7322 0.4668 -0.4959
vn 0.6012 0.0311 -0.7985
vn 0.8489 0.4818 0.2175
vn 0.5990 0.7972 -0.0761
vn 0.3057 0.8827 0.3568
vn 0.9802 0.1356 -0.1441
vn 0.4400 -0.3680 -0.8191
vn 0.5009 0.6891 0.5236
vn 0.3959 -0.5976 -0.6973
vn -0.0441 0.7186 0.6940
vn -0.0541 -0.7460 -0.6637
vn 0.0235 0.7306 0.6824
vn 0.0348 -0.7160 -0.6972
vn -0.5787 0.3500 0.7366
vn -0.5941 -0.6852 -0.4213
vn -0.2930 0.5894 0.7528
vn -0.2837 -0.8509 -0.4422
vn -0.8650 -0.0934 0.4931
vn -0.9057 -0.4201 -0.0574
vn -0.6302 0.3074 0.7130
vn -0.8738 -0.4636 0.1464
vn -0.8717 -0.0819 0.4831
vn -0.5881 -0.8037 -0.0906
usemtl material_0_0.001
s 1
f 149//147 147//148 145//149
f 147//148 151//150 146//151
f 151//150 148//152 146//151
f 147//148 149//147 152//153
f 150//154 149//147 145//149
f 151//150 147//148 152//153
f 148//152 151//150 153//155
f 149//147 150//154 155//156
f 153//155 154//157 148//152
f 156//158 155//156 150//154
f 154//157 153//155 157//159
f 155//156 156//158 159//160
f 157//159 158//161 154//157
f 160//162 159//160 156//158
f 158//161 157//159 161//163
f 159//160 160//162 164//164
f 161//163 162//165 158//161
f 165//166 164//164 160//162
f 162//165 161//163 166//167
f 162//165 167//168 163//169
f 167//168 165//166 163//169
f 164//164 165//166 168//170
f 167//168 162//165 166//167
f 165//166 167//168 168//170
o Group3/mesh5/mesh5-geometry#mesh5-geometry.007
v -0.517268 0.413840 0.287980
v -0.517268 0.418046 0.291938
v -0.516596 0.416297 0.289583
v -0.519102 0.418620 0.294413
v -0.551729 0.477538 0.220299
v -0.519102 0.411335 0.287557
v -0.551729 0.481744 0.224258
v -0.551012 0.479912 0.221991
v -0.553686 0.482544 0.226492
v -0.521609 0.417865 0.296345
v -0.553686 0.475260 0.219636
v -0.521609 0.409453 0.288428
v -0.556360 0.482098 0.228095
v -0.524115 0.415982 0.297216
v -0.556360 0.473687 0.220178
v -0.524115 0.408697 0.290360
v -0.559034 0.480525 0.228637
v -0.525950 0.413477 0.296793
v -0.526621 0.411021 0.295189
v -0.559034 0.473241 0.221781
v -0.525950 0.409271 0.292835
v -0.560991 0.478247 0.227974
v -0.561707 0.475873 0.226282
v -0.560991 0.474041 0.224015
vn 0.8574 -0.2807 -0.4314
vn 0.8196 0.3927 -0.4173
vn 0.6862 -0.0333 -0.7267
vn 0.8586 0.4462 0.2522
vn 0.6844 0.7291 -0.0081
vn 0.3624 0.8427 0.3982
vn 0.9907 0.0935 -0.0992
vn 0.4726 -0.4187 -0.7755
vn 0.5041 0.6731 0.5411
vn 0.4246 -0.6012 -0.6769
vn -0.0419 0.7226 0.6900
vn -0.0532 -0.7410 -0.6694
vn 0.0184 0.7279 0.6854
vn 0.0307 -0.7203 -0.6929
vn -0.5927 0.4055 0.6958
vn -0.5968 -0.6576 -0.4598
vn -0.3474 0.5912 0.7279
vn -0.3478 -0.8117 -0.4691
vn -0.8982 -0.0130 0.4394
vn -0.9196 -0.3744 -0.1193
vn -0.6974 0.3158 0.6433
vn -0.9223 -0.3711 0.1082
vn -0.9160 -0.0382 0.3993
vn -0.6778 -0.7222 -0.1380
usemtl material_0_0.001
s 1
f 173//171 171//172 169//173
f 171//172 175//174 170//175
f 175//174 172//176 170//175
f 171//172 173//171 176//177
f 174//178 173//171 169//173
f 175//174 171//172 176//177
f 172//176 175//174 177//179
f 173//171 174//178 179//180
f 177//179 178//181 172//176
f 180//182 179//180 174//178
f 178//181 177//179 181//183
f 179//180 180//182 183//184
f 181//183 182//185 178//181
f 184//186 183//184 180//182
f 182//185 181//183 185//187
f 183//184 184//186 188//188
f 185//187 186//189 182//185
f 189//190 188//188 184//186
f 186//189 185//187 190//191
f 186//189 191//192 187//193
f 191//192 189//190 187//193
f 188//188 189//190 192//194
f 191//192 186//189 190//191
f 189//190 191//192 192//194
o Group3/mesh5/mesh5-geometry#mesh5-geometry.008
v -0.551729 0.477538 0.220299
v -0.551729 0.481744 0.224258
v -0.551012 0.479912 0.221991
v -0.553686 0.482544 0.226492
v -0.576774 0.544791 0.148842
v -0.553686 0.475260 0.219636
v -0.576774 0.548997 0.152800
v -0.576025 0.547077 0.150626
v -0.578820 0.550037 0.154780
v -0.556360 0.482098 0.228095
v -0.578820 0.542752 0.147924
v -0.556360 0.473687 0.220178
v -0.581616 0.549917 0.156036
v -0.559034 0.480525 0.228637
v -0.581616 0.541506 0.148119
v -0.559034 0.473241 0.221781
v -0.584411 0.548671 0.156231
v -0.560991 0.478247 0.227974
v -0.561707 0.475873 0.226282
v -0.584411 0.541386 0.149375
v -0.560991 0.474041 0.224015
v -0.586458 0.546632 0.155313
v -0.587207 0.544346 0.153528
v -0.586458 0.542426 0.151355
vn 0.8611 -0.3058 -0.4062
vn 0.8964 0.3038 -0.3228
vn 0.7608 -0.1089 -0.6398
vn 0.8620 0.4229 0.2794
vn 0.7593 0.6468 0.0719
vn 0.4130 0.7949 0.4444
vn 0.9955 0.0649 -0.0690
vn 0.4957 -0.4735 -0.7281
vn 0.5015 0.6622 0.5568
vn 0.4492 -0.6052 -0.6572
vn -0.0361 0.7265 0.6862
vn -0.0483 -0.7361 -0.6751
vn 0.0099 0.7255 0.6881
vn 0.0230 -0.7243 -0.6891
vn -0.5918 0.4659 0.6578
vn -0.5877 -0.6366 -0.4993
vn -0.4023 0.5943 0.6964
vn -0.4076 -0.7640 -0.5001
vn -0.9154 0.0792 0.3948
vn -0.9207 -0.3451 -0.1823
vn -0.7612 0.3203 0.5639
vn -0.9602 -0.2676 0.0797
vn -0.9522 -0.0084 0.3054
vn -0.7573 -0.6246 -0.1905
usemtl material_0_0.001
s 1
f 197//195 195//196 193//197
f 195//196 199//198 194//199
f 199//198 196//200 194//199
f 195//196 197//195 200//201
f 198//202 197//195 193//197
f 199//198 195//196 200//201
f 196//200 199//198 201//203
f 197//195 198//202 203//204
f 201//203 202//205 196//200
f 204//206 203//204 198//202
f 202//205 201//203 205//207
f 203//204 204//206 207//208
f 205//207 206//209 202//205
f 208//210 207//208 204//206
f 206//209 205//207 209//211
f 207//208 208//210 212//212
f 209//211 210//213 206//209
f 213//214 212//212 208//210
f 210//213 209//211 214//215
f 210//213 215//216 211//217
f 215//216 213//214 211//217
f 212//212 213//214 216//218
f 215//216 210//213 214//215
f 213//214 215//216 216//218
o Group3/mesh5/mesh5-geometry#mesh5-geometry.009
v -0.576774 0.544791 0.148842
v -0.576774 0.548997 0.152800
v -0.576025 0.547077 0.150626
v -0.578820 0.550037 0.154780
v -0.591975 0.614449 0.074829
v -0.578820 0.542752 0.147924
v -0.591975 0.618654 0.078788
v -0.591206 0.616644 0.076710
v -0.594075 0.619942 0.080504
v -0.581616 0.549917 0.156036
v -0.594075 0.612657 0.073648
v -0.581616 0.541506 0.148119
v -0.596944 0.620161 0.081400
v -0.584411 0.548671 0.156231
v -0.596944 0.611749 0.073484
v -0.584411 0.541386 0.149375
v -0.599814 0.619253 0.081236
v -0.586458 0.546632 0.155313
v -0.587207 0.544346 0.153528
v -0.599814 0.611968 0.074380
v -0.586458 0.542426 0.151355
v -0.601914 0.617462 0.080055
v -0.602683 0.615266 0.078174
v -0.601914 0.613256 0.076096
vn 0.8618 -0.3252 -0.3893
vn 0.9561 0.2008 -0.2134
vn 0.8190 -0.1957 -0.5393
vn 0.8622 0.4078 0.3005
vn 0.8180 0.5513 0.1640
vn 0.4544 0.7400 0.4959
vn 0.9975 0.0481 -0.0511
vn 0.5080 -0.5313 -0.6780
vn 0.4959 0.6554 0.5697
vn 0.4710 -0.6099 -0.6373
vn -0.0270 0.7299 0.6830
vn -0.0398 -0.7320 -0.6801
vn -0.0012 0.7241 0.6897
vn 0.0124 -0.7272 -0.6863
vn -0.5759 0.5278 0.6243
vn -0.5684 -0.6223 -0.5382
vn -0.5211 0.5640 0.6406
vn -0.4602 -0.7080 -0.5356
vn -0.9158 0.1799 0.3591
vn -0.9113 -0.3305 -0.2456
vn -0.8849 0.2341 0.4027
vn -0.9864 -0.1546 0.0564
vn -0.9796 0.0109 0.2007
vn -0.8220 -0.5124 -0.2486
usemtl material_0_0.001
s 1
f 221//219 219//220 217//221
f 219//220 223//222 218//223
f 223//222 220//224 218//223
f 219//220 221//219 224//225
f 222//226 221//219 217//221
f 223//222 219//220 224//225
f 220//224 223//222 225//227
f 221//219 222//226 227//228
f 225//227 226//229 220//224
f 228//230 227//228 222//226
f 226//229 225//227 229//231
f 227//228 228//230 231//232
f 229//231 230//233 226//229
f 232//234 231//232 228//230
f 230//233 229//231 233//235
f 231//232 232//234 236//236
f 233//235 234//237 230//233
f 237//238 236//236 232//234
f 234//237 233//235 238//239
f 234//237 239//240 235//241
f 239//240 237//238 235//241
f 236//236 237//238 240//242
f 239//240 234//237 238//239
f 237//238 239//240 240//242
o Group3/mesh5/mesh5-geometry#mesh5-geometry.010
v -0.595917 0.682157 0.007101
v -0.596743 0.684965 0.008331
v -0.596743 0.680759 0.004373
v -0.599000 0.688432 0.007732
v -0.555878 0.682157 0.007101
v -0.599000 0.681147 0.000876
v -0.555878 0.684965 0.008331
v -0.555878 0.688432 0.007732
v -0.555878 0.680759 0.004373
v -0.602083 0.691628 0.005466
v -0.602083 0.683216 -0.002451
v -0.555878 0.681147 0.000876
v -0.555878 0.691628 0.005466
v -0.555878 0.683216 -0.002451
v -0.605167 0.693696 0.002139
v -0.605167 0.686412 -0.004718
v -0.555878 0.686412 -0.004718
v -0.555878 0.693696 0.002139
v -0.607424 0.694084 -0.001358
v -0.607424 0.689878 -0.005316
v -0.555878 0.689878 -0.005316
v -0.555878 0.694084 -0.001358
v -0.608250 0.692686 -0.004086
v -0.555878 0.692686 -0.004086
vn -0.0000 -0.9187 0.3951
vn 0.0000 -0.6853 0.7282
vn -0.0001 -0.3387 0.9409
vn 0.0000 -0.3387 0.9409
vn -0.0001 0.1602 0.9871
vn 0.0000 0.1601 0.9871
vn 0.0000 -0.9186 0.3951
vn 0.0000 -0.9950 -0.1001
vn -0.0000 0.7282 0.6854
vn 1.0000 -0.0000 0.0000
vn 0.0000 -0.7282 -0.6854
vn -0.0000 0.9950 0.1001
vn -0.0000 -0.1602 -0.9871
vn -0.0000 0.9186 -0.3951
vn -0.0001 0.3387 -0.9409
vn 0.0000 0.3387 -0.9409
vn 0.0000 0.6853 -0.7282
usemtl material_0_0.001
s 1
f 243//243 245//244 241//244
f 241//244 247//245 242//246
f 242//246 248//247 244//248
f 245//244 243//243 249//249
f 247//245 241//244 245//244
f 246//250 249//249 243//243
f 248//247 242//246 247//245
f 248//247 250//251 244//248
f 249//252 247//252 245//252
f 249//249 246//250 252//250
f 252//252 248//252 247//252
f 250//251 248//247 253//251
f 252//252 247//252 249//252
f 254//253 246//250 251//253
f 246//250 254//253 252//250
f 254//252 248//252 252//252
f 254//252 253//252 248//252
f 253//251 255//254 250//251
f 256//255 254//253 251//253
f 257//252 253//252 254//252
f 255//254 253//251 258//254
f 254//253 256//255 257//255
f 257//252 258//252 253//252
f 258//254 259//256 255//254
f 256//255 261//257 257//255
f 261//252 258//252 257//252
f 259//256 258//254 262//256
f 261//257 256//255 260//258
f 261//252 262//252 258//252
f 262//256 263//259 259//256
f 264//259 260//258 263//259
f 260//258 264//259 261//257
f 262//252 261//252 264//252
f 263//259 262//256 264//259
