# Blender v2.92.0 OBJ File: ''
# www.blender.org
mtllib original-2.mtl
o Group2/mesh1/mesh1-geometry#mesh1-geometry
v 0.604597 0.694084 -0.001358
v 0.605423 0.692686 -0.004086
v 0.602340 0.686412 -0.004718
v 0.602340 0.693696 0.002139
v 0.604597 0.689878 -0.005316
v 0.599257 0.683216 -0.002451
v 0.599856 0.615266 0.078174
v 0.599088 0.617462 0.080055
v 0.599088 0.613256 0.076096
v 0.596987 0.611968 0.074380
v 0.599257 0.691628 0.005466
v 0.596987 0.619253 0.081236
v 0.596173 0.681147 0.000876
v 0.594118 0.611749 0.073484
v 0.596173 0.688432 0.007732
v 0.594118 0.620161 0.081400
v 0.593916 0.680759 0.004373
v 0.591249 0.612657 0.073648
v 0.593916 0.684965 0.008331
v 0.591249 0.619942 0.080504
v 0.593090 0.682157 0.007101
v 0.589148 0.614449 0.074829
v 0.589148 0.618654 0.078788
v 0.588379 0.616644 0.076710
vn 0.8631 0.3121 0.3970
vn 0.9997 0.0169 -0.0180
vn 0.9962 -0.0595 0.0632
vn 0.4987 0.6006 0.6250
vn 0.8740 0.3680 0.3174
vn 0.8631 -0.4152 -0.2875
vn 0.8744 -0.3386 -0.3475
vn 0.4987 -0.6602 -0.5616
vn 0.5223 -0.6127 -0.5932
vn 0.0000 -0.7282 -0.6854
vn 0.4958 0.6368 0.5905
vn 0.0272 -0.7252 -0.6880
vn -0.0000 0.7282 0.6854
vn -0.4987 -0.6006 -0.6250
vn 0.0213 0.7331 0.6798
vn -0.4486 -0.6358 -0.6281
vn -0.4987 0.6602 0.5616
vn -0.8631 -0.3121 -0.3970
vn -0.4588 0.6818 0.5698
vn -0.8229 -0.3873 -0.4156
vn -0.8631 0.4152 0.2875
vn -0.9962 0.0595 -0.0632
vn -0.8307 0.4617 0.3111
vn -0.9959 0.0887 0.0197
usemtl material_0_0
s 1
f 1//1 7//2 2//3
f 4//4 8//5 1//1
f 7//2 5//6 2//3
f 9//7 3//8 5//6
f 10//9 6//10 3//8
f 7//2 1//1 8//5
f 8//5 4//4 12//11
f 5//6 7//2 9//7
f 3//8 9//7 10//9
f 6//10 10//9 14//12
f 11//13 12//11 4//4
f 14//12 13//14 6//10
f 12//11 11//13 16//15
f 13//14 14//12 18//16
f 15//17 16//15 11//13
f 18//16 17//18 13//14
f 16//15 15//17 20//19
f 17//18 18//16 22//20
f 19//21 20//19 15//17
f 22//20 21//22 17//18
f 20//19 19//21 23//23
f 21//22 22//20 24//24
f 21//22 23//23 19//21
f 23//23 21//22 24//24
o Group2/mesh1/mesh1-geometry#mesh1-geometry.001
v 0.230668 0.176699 0.544161
v 0.230371 0.175249 0.541488
v 0.230371 0.179455 0.545446
v 0.229561 0.175494 0.538143
v 0.229561 0.182779 0.544999
v 0.228453 0.177368 0.535023
v 0.155908 0.153567 0.568739
v 0.155659 0.152132 0.566050
v 0.155659 0.156338 0.570009
v 0.154980 0.152417 0.562663
v 0.228453 0.185779 0.542940
v 0.154980 0.159702 0.569519
v 0.227346 0.180368 0.532964
v 0.154052 0.154346 0.559484
v 0.154052 0.162758 0.567401
v 0.227346 0.187653 0.539820
v 0.226535 0.183692 0.532517
v 0.153123 0.157402 0.557366
v 0.153123 0.164687 0.564222
v 0.226238 0.186448 0.533802
v 0.226535 0.187898 0.536475
v 0.152444 0.160767 0.556876
v 0.152444 0.164973 0.560834
v 0.152195 0.163537 0.558145
vn 0.1205 -0.2088 0.9705
vn 0.2473 -0.6641 0.7056
vn 0.2246 -0.6678 0.7097
vn 0.2260 -0.9025 0.3666
vn 0.1148 -0.9558 0.2706
vn 0.1786 0.2051 0.9623
vn 0.2260 -0.3113 0.9230
vn 0.0027 -0.9741 -0.2261
vn 0.1484 -0.9810 -0.1247
vn -0.0167 -0.7149 -0.6991
vn 0.1484 0.1839 0.9717
vn 0.0000 -0.7282 -0.6854
vn -0.0164 0.7344 0.6785
vn -0.9114 -0.2820 0.2996
vn -0.3360 -0.2029 -0.9198
vn 0.0000 0.7282 0.6854
vn -0.1484 -0.1839 -0.9717
vn -0.4065 0.8526 0.3284
vn -0.4674 0.3191 -0.8245
vn -0.1484 0.9810 0.1247
vn -0.2260 0.3113 -0.9230
vn -0.4101 0.4506 -0.7929
vn -0.5795 0.7979 -0.1657
vn -0.2473 0.6641 -0.7056
vn -0.2260 0.9025 -0.3666
usemtl material_0_0
s 1
f 27//25 31//26 25//27
f 25//27 32//28 26//29
f 29//30 33//31 27//25
f 32//28 28//32 26//29
f 34//33 30//34 28//32
f 31//26 27//25 33//31
f 32//28 25//27 31//26
f 33//31 29//30 36//35
f 28//32 32//28 34//33
f 30//34 34//33 38//36
f 35//37 36//35 29//30
f 33//38 32//38 31//38
f 36//38 32//38 33//38
f 36//38 34//38 32//38
f 38//36 37//39 30//34
f 39//38 38//38 34//38
f 36//35 35//37 39//40
f 39//38 34//38 36//38
f 37//39 38//36 42//41
f 43//38 38//38 39//38
f 40//42 39//40 35//37
f 42//41 41//43 37//39
f 43//38 42//38 38//38
f 39//40 40//42 43//44
f 41//43 42//41 46//45
f 46//45 44//46 41//43
f 47//38 42//38 43//38
f 45//47 43//44 40//42
f 47//38 46//38 42//38
f 44//46 46//45 48//48
f 48//48 45//47 44//46
f 43//44 45//47 47//49
f 46//38 47//38 48//38
f 45//47 48//48 47//49
o Group2/mesh1/mesh1-geometry#mesh1-geometry.002
v 0.301816 0.208681 0.510179
v 0.301428 0.207190 0.507550
v 0.301428 0.211396 0.511508
v 0.300369 0.207323 0.504324
v 0.300369 0.214608 0.511180
v 0.298922 0.209044 0.501366
v 0.230668 0.176699 0.544161
v 0.230371 0.175249 0.541488
v 0.230371 0.179455 0.545446
v 0.229561 0.175494 0.538143
v 0.298922 0.217456 0.509283
v 0.229561 0.182779 0.544999
v 0.297475 0.211892 0.499469
v 0.228453 0.177368 0.535023
v 0.297475 0.219177 0.506325
v 0.228453 0.185779 0.542940
v 0.296415 0.215104 0.499141
v 0.227346 0.180368 0.532964
v 0.296028 0.217819 0.500470
v 0.296415 0.219310 0.503099
v 0.227346 0.187653 0.539820
v 0.226535 0.183692 0.532517
v 0.226238 0.186448 0.533802
v 0.226535 0.187898 0.536475
vn 0.2278 -0.1807 0.9568
vn 0.7015 -0.4884 0.5190
vn 0.3328 -0.6463 0.6867
vn 0.6350 -0.7725 -0.0041
vn 0.2219 -0.9446 0.2419
vn 0.2430 0.2304 0.9423
vn 0.6375 0.0531 0.7686
vn 0.0697 -0.9657 -0.2502
vn 0.4090 -0.8037 -0.4321
vn -0.0232 -0.7124 -0.7014
vn 0.2428 0.5683 0.7862
vn 0.0307 -0.7520 -0.6584
vn -0.0214 0.7366 0.6760
vn -0.3980 -0.2188 -0.8909
vn 0.0303 0.7098 0.7037
vn -0.0535 -0.5982 -0.7996
vn -0.4586 0.8207 0.3406
vn -0.5761 0.3031 -0.7591
vn 0.0182 0.9288 0.3701
vn -0.2983 -0.2057 -0.9321
vn -0.5420 0.3585 -0.7601
vn -0.6872 0.7139 -0.1344
vn -0.5526 0.7077 -0.4402
vn -0.1718 0.9831 -0.0627
usemtl material_0_0
s 1
f 51//50 55//51 49//52
f 49//52 56//53 50//54
f 53//55 57//56 51//50
f 56//53 52//57 50//54
f 58//58 54//59 52//57
f 55//51 51//50 57//56
f 56//53 49//52 55//51
f 57//56 53//55 60//60
f 52//57 56//53 58//58
f 54//59 58//58 62//61
f 59//62 60//60 53//55
f 62//61 61//63 54//59
f 60//60 59//62 64//64
f 61//63 62//61 66//65
f 63//66 64//64 59//62
f 66//65 65//67 61//63
f 64//64 63//66 69//68
f 65//67 66//65 70//69
f 70//69 67//70 65//67
f 68//71 69//68 63//66
f 67//70 70//69 71//72
f 71//72 68//71 67//70
f 69//68 68//71 72//73
f 68//71 71//72 72//73
o Group2/mesh1/mesh1-geometry#mesh1-geometry.003
v 0.367775 0.248854 0.467494
v 0.367303 0.251518 0.468878
v 0.367303 0.247312 0.464919
v 0.366013 0.247305 0.461843
v 0.366013 0.254590 0.468699
v 0.364251 0.248834 0.459089
v 0.301816 0.208681 0.510179
v 0.301428 0.207190 0.507550
v 0.301428 0.211396 0.511508
v 0.300369 0.207323 0.504324
v 0.364251 0.257246 0.467005
v 0.300369 0.214608 0.511180
v 0.362490 0.251491 0.457395
v 0.298922 0.209044 0.501366
v 0.362490 0.258775 0.464251
v 0.298922 0.217456 0.509283
v 0.361200 0.254562 0.457216
v 0.297475 0.211892 0.499469
v 0.360728 0.257226 0.458599
v 0.361200 0.258768 0.461174
v 0.297475 0.219177 0.506325
v 0.296415 0.215104 0.499141
v 0.296028 0.217819 0.500470
v 0.296415 0.219310 0.503099
vn 0.3336 -0.1474 0.9311
vn 0.8231 -0.3892 0.4135
vn 0.4421 -0.6148 0.6532
vn 0.7300 -0.6817 -0.0480
vn 0.3277 -0.9218 0.2073
vn 0.3026 0.2611 0.9167
vn 0.7323 0.0914 0.6748
vn 0.1366 -0.9513 -0.2763
vn 0.4619 -0.7694 -0.4413
vn -0.0295 -0.7119 -0.7016
vn 0.3009 0.5743 0.7613
vn 0.0399 -0.7520 -0.6579
vn -0.0265 0.7373 0.6751
vn -0.4536 -0.2454 -0.8568
vn 0.0381 0.7094 0.7038
vn -0.1080 -0.6091 -0.7857
vn -0.5013 0.7870 0.3597
vn -0.6708 0.2699 -0.6908
vn -0.0461 0.9209 0.3872
vn -0.3955 -0.2557 -0.8822
vn -0.6505 0.2735 -0.7086
vn -0.7713 0.6299 -0.0910
vn -0.6618 0.6702 -0.3358
vn -0.2702 0.9626 -0.0214
usemtl material_0_0
s 1
f 74//74 79//75 73//76
f 73//76 80//77 75//78
f 77//79 81//80 74//74
f 80//77 76//81 75//78
f 82//82 78//83 76//81
f 79//75 74//74 81//80
f 80//77 73//76 79//75
f 81//80 77//79 84//84
f 76//81 80//77 82//82
f 78//83 82//82 86//85
f 83//86 84//84 77//79
f 86//85 85//87 78//83
f 84//84 83//86 88//88
f 85//87 86//85 90//89
f 87//90 88//88 83//86
f 90//89 89//91 85//87
f 88//88 87//90 93//92
f 89//91 90//89 94//93
f 94//93 91//94 89//91
f 92//95 93//92 87//90
f 91//94 94//93 95//96
f 95//96 92//95 91//94
f 93//92 92//95 96//97
f 92//95 95//96 96//97
o Group2/mesh1/mesh1-geometry#mesh1-geometry.004
v 0.426869 0.299134 0.418284
v 0.426869 0.294928 0.414326
v 0.425371 0.294755 0.411426
v 0.427417 0.296532 0.416836
v 0.425371 0.302039 0.418282
v 0.423325 0.296056 0.408914
v 0.367775 0.248854 0.467494
v 0.367303 0.251518 0.468878
v 0.367303 0.247312 0.464919
v 0.366013 0.247305 0.461843
v 0.423325 0.304468 0.416831
v 0.366013 0.254590 0.468699
v 0.421278 0.298485 0.407462
v 0.364251 0.248834 0.459089
v 0.421278 0.305770 0.414318
v 0.364251 0.257246 0.467005
v 0.419780 0.301390 0.407460
v 0.419232 0.303993 0.408908
v 0.362490 0.251491 0.457395
v 0.419780 0.305596 0.411419
v 0.362490 0.258775 0.464251
v 0.361200 0.254562 0.457216
v 0.360728 0.257226 0.458599
v 0.361200 0.258768 0.461174
vn 0.4387 -0.1121 0.8916
vn 0.9043 -0.2927 0.3108
vn 0.5529 -0.5710 0.6068
vn 0.3569 0.2973 0.8856
vn 0.8004 0.1360 0.5839
vn 0.7984 -0.5940 -0.0983
vn 0.4326 -0.8863 0.1655
vn 0.2035 -0.9304 -0.3050
vn 0.5026 -0.7338 -0.4571
vn -0.0343 -0.7134 -0.7000
vn 0.3503 0.5827 0.7333
vn 0.0479 -0.7501 -0.6596
vn -0.0302 0.7361 0.6762
vn -0.4999 -0.2827 -0.8187
vn 0.0446 0.7107 0.7021
vn -0.1588 -0.6173 -0.7705
vn -0.5328 0.7536 0.3850
vn -0.7487 0.2172 -0.6263
vn -0.1099 0.9074 0.4056
vn -0.4764 -0.2993 -0.8267
vn -0.7379 0.1987 -0.6450
vn -0.8318 0.5536 -0.0398
vn -0.7476 0.6184 -0.2422
vn -0.3634 0.9314 0.0199
usemtl material_0_0
s 1
f 97//98 103//99 100//100
f 101//101 104//102 97//98
f 100//100 105//103 98//104
f 105//103 99//105 98//104
f 106//106 102//107 99//105
f 103//99 97//98 104//102
f 105//103 100//100 103//99
f 104//102 101//101 108//108
f 99//105 105//103 106//106
f 102//107 106//106 110//109
f 107//110 108//108 101//101
f 110//109 109//111 102//107
f 108//108 107//110 112//112
f 109//111 110//109 115//113
f 111//114 112//112 107//110
f 115//113 113//115 109//111
f 112//112 111//114 117//116
f 113//115 115//113 118//117
f 118//117 114//118 113//115
f 116//119 117//116 111//114
f 114//118 118//117 119//120
f 119//120 116//119 114//118
f 117//116 116//119 120//121
f 116//119 119//120 120//121
o Group2/mesh1/mesh1-geometry#mesh1-geometry.005
v 0.479107 0.353430 0.360594
v 0.479107 0.349225 0.356635
v 0.477426 0.348861 0.353937
v 0.479722 0.350897 0.359072
v 0.477426 0.356145 0.360793
v 0.475130 0.349903 0.351701
v 0.426869 0.299134 0.418284
v 0.426869 0.294928 0.414326
v 0.425371 0.294755 0.411426
v 0.475130 0.358315 0.359617
v 0.427417 0.296532 0.416836
v 0.425371 0.302039 0.418282
v 0.472834 0.352072 0.350525
v 0.423325 0.296056 0.408914
v 0.472834 0.359357 0.357381
v 0.423325 0.304468 0.416831
v 0.471153 0.354788 0.350725
v 0.470538 0.357321 0.352247
v 0.421278 0.298485 0.407462
v 0.471153 0.358993 0.354683
v 0.421278 0.305770 0.414318
v 0.419780 0.301390 0.407460
v 0.419232 0.303993 0.408908
v 0.419780 0.305596 0.411419
vn 0.8422 0.1850 0.5064
vn 0.6610 -0.5144 0.5464
vn 0.5368 -0.0667 0.8411
vn 0.4048 0.3393 0.8491
vn 0.8432 -0.5162 -0.1500
vn 0.5350 -0.8371 0.1145
vn 0.2695 -0.9021 -0.3371
vn 0.5307 -0.7000 -0.4778
vn -0.0365 -0.7163 -0.6969
vn 0.9552 -0.2027 0.2155
vn 0.3911 0.5918 0.7049
vn 0.0535 -0.7466 -0.6631
vn -0.0316 0.7338 0.6786
vn -0.5346 -0.3293 -0.7783
vn 0.0494 0.7135 0.6989
vn -0.2073 -0.6224 -0.7547
vn -0.5523 0.7229 0.4153
vn -0.8111 0.1506 -0.5652
vn -0.1734 0.8881 0.4256
vn -0.5436 -0.3362 -0.7691
vn -0.8154 0.5549 -0.1651
vn -0.8087 0.1377 -0.5719
vn -0.8714 0.4903 0.0168
vn -0.4540 0.8889 0.0612
usemtl material_0_0
s 1
f 127//122 124//123 121//124
f 125//125 127//122 121//124
f 124//123 128//126 122//127
f 128//126 123//128 122//127
f 129//129 126//130 123//128
f 124//123 127//122 131//131
f 127//122 125//125 132//132
f 128//126 124//123 131//131
f 123//128 128//126 129//129
f 126//130 129//129 134//133
f 130//134 132//132 125//125
f 134//133 133//135 126//130
f 132//132 130//134 136//136
f 133//135 134//133 139//137
f 135//138 136//136 130//134
f 139//137 137//139 133//135
f 136//136 135//138 141//140
f 137//139 139//137 142//141
f 137//139 143//142 138//143
f 140//144 141//140 135//138
f 143//142 137//139 142//141
f 143//142 140//144 138//143
f 141//140 140//144 144//145
f 140//144 143//142 144//145
o Group2/mesh1/mesh1-geometry#mesh1-geometry.006
v 0.523123 0.413477 0.296793
v 0.523123 0.409271 0.292835
v 0.521288 0.408697 0.290360
v 0.523795 0.411021 0.295189
v 0.521288 0.415982 0.297216
v 0.518782 0.409453 0.288428
v 0.479107 0.353430 0.360594
v 0.479107 0.349225 0.356635
v 0.477426 0.348861 0.353937
v 0.518782 0.417865 0.296345
v 0.479722 0.350897 0.359072
v 0.477426 0.356145 0.360793
v 0.516276 0.411335 0.287557
v 0.475130 0.349903 0.351701
v 0.516276 0.418620 0.294413
v 0.475130 0.358315 0.359617
v 0.514441 0.413840 0.287980
v 0.513770 0.416297 0.289583
v 0.472834 0.352072 0.350525
v 0.514441 0.418046 0.291938
v 0.472834 0.359357 0.357381
v 0.471153 0.354788 0.350725
v 0.470538 0.357321 0.352247
v 0.471153 0.358993 0.354683
vn 0.8674 0.2304 0.4411
vn 0.7613 -0.4444 0.4722
vn 0.6336 -0.0083 0.7736
vn 0.4452 0.3865 0.8077
vn 0.8688 -0.4527 -0.2005
vn 0.6321 -0.7731 0.0526
vn 0.3330 -0.8657 -0.3738
vn 0.5464 -0.6705 -0.5019
vn -0.0354 -0.7201 -0.6929
vn 0.9821 -0.1290 0.1370
vn 0.4230 0.6015 0.6777
vn 0.0555 -0.7420 -0.6681
vn -0.0300 0.7309 0.6819
vn -0.5555 -0.3837 -0.7377
vn 0.0507 0.7175 0.6947
vn -0.2548 -0.6251 -0.7378
vn -0.5597 0.6966 0.4489
vn -0.8568 0.0698 -0.5110
vn -0.2365 0.8624 0.4477
vn -0.6033 -0.3625 -0.7104
vn -0.8702 0.4814 -0.1050
vn -0.8686 0.0965 -0.4860
vn -0.8934 0.4428 0.0762
vn -0.5424 0.8337 0.1036
usemtl material_0_0
s 1
f 151//146 148//147 145//148
f 149//149 151//146 145//148
f 148//147 152//150 146//151
f 152//150 147//152 146//151
f 153//153 150//154 147//152
f 148//147 151//146 155//155
f 151//146 149//149 156//156
f 152//150 148//147 155//155
f 147//152 152//150 153//153
f 150//154 153//153 158//157
f 154//158 156//156 149//149
f 158//157 157//159 150//154
f 156//156 154//158 160//160
f 157//159 158//157 163//161
f 159//162 160//160 154//158
f 163//161 161//163 157//159
f 160//160 159//162 165//164
f 161//163 163//161 166//165
f 161//163 167//166 162//167
f 164//168 165//164 159//162
f 167//166 161//163 166//165
f 167//166 164//168 162//167
f 165//164 164//168 168//169
f 164//168 167//166 168//169
o Group2/mesh1/mesh1-geometry#mesh1-geometry.007
v 0.558164 0.478247 0.227974
v 0.558164 0.474041 0.224015
v 0.556207 0.473241 0.221781
v 0.558881 0.475873 0.226282
v 0.556207 0.480525 0.228637
v 0.553533 0.473687 0.220178
v 0.523123 0.413477 0.296793
v 0.523123 0.409271 0.292835
v 0.521288 0.408697 0.290360
v 0.553533 0.482098 0.228095
v 0.523795 0.411021 0.295189
v 0.521288 0.415982 0.297216
v 0.550860 0.475260 0.219636
v 0.518782 0.409453 0.288428
v 0.550860 0.482544 0.226492
v 0.518782 0.417865 0.296345
v 0.548902 0.477538 0.220299
v 0.548186 0.479912 0.221991
v 0.516276 0.411335 0.287557
v 0.548902 0.481744 0.224258
v 0.516276 0.418620 0.294413
v 0.514441 0.413840 0.287980
v 0.513770 0.416297 0.289583
v 0.514441 0.418046 0.291938
vn 0.8791 0.2733 0.3905
vn 0.8512 -0.3597 0.3822
vn 0.7204 0.0618 0.6908
vn 0.4765 0.4385 0.7620
vn 0.8804 -0.4050 -0.2469
vn 0.7191 -0.6946 -0.0217
vn 0.3913 -0.8210 -0.4157
vn 0.5509 -0.6469 -0.5273
vn -0.0305 -0.7244 -0.6887
vn 0.9944 -0.0723 0.0768
vn 0.4481 0.6107 0.6528
vn 0.0538 -0.7370 -0.6738
vn -0.0248 0.7277 0.6855
vn -0.5614 -0.4431 -0.6989
vn 0.0484 0.7220 0.6902
vn -0.3026 -0.6261 -0.7186
vn -0.5556 0.6759 0.4843
vn -0.8851 -0.0234 -0.4649
vn -0.2986 0.8292 0.4725
vn -0.6614 -0.3764 -0.6487
vn -0.9149 0.3995 -0.0578
vn -0.9185 0.0692 -0.3892
vn -0.9010 0.4117 0.1370
vn -0.6279 0.7640 0.1488
usemtl material_0_0
s 1
f 175//170 172//171 169//172
f 173//173 175//170 169//172
f 172//171 176//174 170//175
f 176//174 171//176 170//175
f 177//177 174//178 171//176
f 172//171 175//170 179//179
f 175//170 173//173 180//180
f 176//174 172//171 179//179
f 171//176 176//174 177//177
f 174//178 177//177 182//181
f 178//182 180//180 173//173
f 182//181 181//183 174//178
f 180//180 178//182 184//184
f 181//183 182//181 187//185
f 183//186 184//184 178//182
f 187//185 185//187 181//183
f 184//184 183//186 189//188
f 185//187 187//185 190//189
f 185//187 191//190 186//191
f 188//192 189//188 183//186
f 191//190 185//187 190//189
f 191//190 188//192 186//191
f 189//188 188//192 192//193
f 188//192 191//190 192//193
o Group2/mesh1/mesh1-geometry#mesh1-geometry.008
v 0.583631 0.546632 0.155313
v 0.583631 0.542426 0.151355
v 0.581585 0.541386 0.149375
v 0.584380 0.544346 0.153528
v 0.581585 0.548671 0.156231
v 0.578789 0.541506 0.148119
v 0.558164 0.478247 0.227974
v 0.558164 0.474041 0.224015
v 0.556207 0.473241 0.221781
v 0.578789 0.549917 0.156036
v 0.558881 0.475873 0.226282
v 0.556207 0.480525 0.228637
v 0.575994 0.542752 0.147924
v 0.553533 0.473687 0.220178
v 0.575994 0.550037 0.154780
v 0.553533 0.482098 0.228095
v 0.573948 0.544791 0.148842
v 0.550860 0.475260 0.219636
v 0.573198 0.547077 0.150626
v 0.573948 0.548997 0.152800
v 0.550860 0.482544 0.226492
v 0.548902 0.477538 0.220299
v 0.548186 0.479912 0.221991
v 0.548902 0.481744 0.224258
vn 0.8815 0.3111 0.3552
vn 0.9247 -0.2609 0.2773
vn 0.7917 0.1433 0.5939
vn 0.4973 0.4940 0.7132
vn 0.8826 -0.3722 -0.2872
vn 0.7908 -0.6024 -0.1083
vn 0.4412 -0.7685 -0.4634
vn 0.5465 -0.6298 -0.5520
vn -0.0221 -0.7282 -0.6850
vn 0.9990 -0.0307 0.0325
vn 0.4674 0.6196 0.6306
vn 0.0481 -0.7321 -0.6795
vn -0.0162 0.7248 0.6888
vn -0.5522 -0.5042 -0.6639
vn 0.0424 0.7265 0.6858
vn -0.3513 -0.6270 -0.6953
vn -0.5417 0.6613 0.5189
vn -0.8953 -0.1256 -0.4274
vn -0.3577 0.7882 0.5008
vn -0.7179 -0.3830 -0.5813
vn -0.9514 0.3070 -0.0236
vn -0.9583 0.0523 -0.2810
vn -0.8969 0.3956 0.1977
vn -0.7073 0.6787 0.1979
usemtl material_0_0
s 1
f 199//194 196//195 193//196
f 197//197 199//194 193//196
f 196//195 200//198 194//199
f 200//198 195//200 194//199
f 201//201 198//202 195//200
f 196//195 199//194 203//203
f 199//194 197//197 204//204
f 200//198 196//195 203//203
f 195//200 200//198 201//201
f 198//202 201//201 206//205
f 202//206 204//204 197//197
f 206//205 205//207 198//202
f 204//204 202//206 208//208
f 205//207 206//205 210//209
f 207//210 208//208 202//206
f 210//209 209//211 205//207
f 208//208 207//210 213//212
f 209//211 210//209 214//213
f 209//211 215//214 211//215
f 212//216 213//212 207//210
f 215//214 209//211 214//213
f 215//214 212//216 211//215
f 213//212 212//216 216//217
f 212//216 215//214 216//217
o Group2/mesh1/mesh1-geometry#mesh1-geometry.009
v 0.599856 0.615266 0.078174
v 0.599088 0.617462 0.080055
v 0.599088 0.613256 0.076096
v 0.596987 0.611968 0.074380
v 0.596987 0.619253 0.081236
v 0.594118 0.611749 0.073484
v 0.583631 0.546632 0.155313
v 0.583631 0.542426 0.151355
v 0.581585 0.541386 0.149375
v 0.594118 0.620161 0.081400
v 0.584380 0.544346 0.153528
v 0.581585 0.548671 0.156231
v 0.591249 0.612657 0.073648
v 0.578789 0.541506 0.148119
v 0.591249 0.619942 0.080504
v 0.578789 0.549917 0.156036
v 0.589148 0.614449 0.074829
v 0.575994 0.542752 0.147924
v 0.589148 0.618654 0.078788
v 0.575994 0.550037 0.154780
v 0.588379 0.616644 0.076710
v 0.573948 0.544791 0.148842
v 0.573198 0.547077 0.150626
v 0.573948 0.548997 0.152800
vn 0.8788 0.3426 0.3323
vn 0.9754 -0.1512 0.1606
vn 0.8412 0.2361 0.4864
vn 0.5064 0.5517 0.6627
vn 0.8795 -0.3516 -0.3206
vn 0.8408 -0.5003 -0.2068
vn 0.4791 -0.7097 -0.5165
vn 0.5360 -0.6188 -0.5742
vn -0.0109 -0.7311 -0.6822
vn 1.0000 -0.0016 0.0016
vn 0.4830 0.6280 0.6102
vn 0.0388 -0.7281 -0.6844
vn -0.0049 0.7228 0.6910
vn -0.5289 -0.5639 -0.6343
vn 0.0331 0.7304 0.6822
vn -0.4009 -0.6294 -0.6657
vn -0.5194 0.6525 0.5519
vn -0.8878 -0.2320 -0.3974
vn -0.4122 0.7388 0.5332
vn -0.7725 -0.3855 -0.5046
vn -0.8835 0.3912 0.2577
vn -0.9792 0.2028 0.0006
vn -0.9861 0.0438 -0.1606
vn -0.7765 0.5775 0.2519
usemtl material_0_0
s 1
f 223//218 217//219 218//220
f 221//221 223//218 218//220
f 217//219 224//222 219//223
f 224//222 220//224 219//223
f 225//225 222//226 220//224
f 217//219 223//218 227//227
f 223//218 221//221 228//228
f 224//222 217//219 227//227
f 220//224 224//222 225//225
f 222//226 225//225 230//229
f 226//230 228//228 221//221
f 230//229 229//231 222//226
f 228//228 226//230 232//232
f 229//231 230//229 234//233
f 231//234 232//232 226//230
f 234//233 233//235 229//231
f 232//232 231//234 236//236
f 233//235 234//233 238//237
f 235//238 236//236 231//234
f 233//235 239//239 237//240
f 239//239 233//235 238//237
f 236//236 235//238 240//241
f 239//239 235//238 237//240
f 235//238 239//239 240//241
o Group2/mesh1/mesh1-geometry#mesh1-geometry.010
v 0.553051 0.689878 -0.005316
v 0.553051 0.694084 -0.001358
v 0.553051 0.692686 -0.004086
v 0.553051 0.686412 -0.004718
v 0.604597 0.694084 -0.001358
v 0.605423 0.692686 -0.004086
v 0.602340 0.686412 -0.004718
v 0.553051 0.693696 0.002139
v 0.602340 0.693696 0.002139
v 0.604597 0.689878 -0.005316
v 0.599257 0.683216 -0.002451
v 0.553051 0.683216 -0.002451
v 0.553051 0.691628 0.005466
v 0.599257 0.691628 0.005466
v 0.596173 0.681147 0.000876
v 0.553051 0.681147 0.000876
v 0.553051 0.688432 0.007732
v 0.596173 0.688432 0.007732
v 0.593916 0.680759 0.004373
v 0.553051 0.680759 0.004373
v 0.553051 0.684965 0.008331
v 0.593916 0.684965 0.008331
v 0.593090 0.682157 0.007101
v 0.553051 0.682157 0.007101
vn -1.0000 -0.0000 0.0000
vn 0.0000 0.9186 -0.3951
vn 0.0000 0.6853 -0.7282
vn 0.0000 0.3387 -0.9409
vn -0.0000 -0.1602 -0.9871
vn 0.0000 -0.1601 -0.9871
vn -0.0000 0.9950 0.1001
vn -0.0000 -0.7282 -0.6854
vn 0.0000 0.7282 0.6853
vn 0.0000 -0.9950 -0.1001
vn 0.0000 0.7282 0.6854
vn 0.0000 0.1601 0.9871
vn 0.0000 -0.9186 0.3951
vn 0.0000 0.1602 0.9871
vn -0.0000 -0.9187 0.3951
vn -0.0000 -0.3387 0.9409
vn 0.0000 -0.6853 0.7282
usemtl material_0_0
s 1
f 241//242 242//242 243//242
f 242//242 241//242 244//242
f 245//243 243//244 242//243
f 246//244 241//245 243//244
f 241//245 247//246 244//247
f 242//242 244//242 248//242
f 243//244 245//243 246//244
f 242//243 249//248 245//243
f 241//245 246//244 250//245
f 247//246 241//245 250//245
f 251//249 244//247 247//246
f 248//242 244//242 252//242
f 249//248 242//243 248//248
f 244//247 251//249 252//249
f 248//242 252//242 253//242
f 248//248 254//250 249//248
f 255//251 252//249 251//249
f 253//242 252//242 256//242
f 254//250 248//248 253//252
f 252//249 255//251 256//251
f 253//242 256//242 257//242
f 253//252 258//253 254//250
f 259//254 256//251 255//251
f 257//242 256//242 260//242
f 258//253 253//252 257//255
f 256//251 259//254 260//256
f 257//242 260//242 261//242
f 257//255 262//257 258//253
f 263//258 260//256 259//254
f 261//242 260//242 264//242
f 262//257 257//255 261//257
f 260//256 263//258 264//258
f 264//258 262//257 261//257
f 262//257 264//258 263//258
