# Blender v2.79 (sub 0) OBJ File: ''
# www.blender.org
mtllib 102352_link_1_30.mtl
o Shape_IndexedFaceSet.030_Shape_IndexedFaceSet.7656
v -0.143783 -0.579977 0.460029
v -0.386698 -0.575213 0.282974
v 0.068018 -0.642572 0.363953
v -0.324551 -0.641703 0.356195
v 0.062151 -0.574453 0.414986
v 0.046820 -0.639432 0.476004
v -0.206790 -0.641703 0.280503
v -0.290867 -0.574453 0.280503
v 0.052509 -0.575881 0.486372
v -0.341349 -0.574453 0.356195
v -0.106965 -0.637041 0.462186
v -0.371338 -0.641119 0.282401
v 0.003270 -0.582866 0.499044
v -0.228519 -0.579751 0.425180
vn -0.4098 -0.3171 0.8553
vn -0.0028 -0.9996 0.0275
vn -0.0021 -1.0000 -0.0033
vn 0.2874 0.5900 -0.7545
vn 0.2740 0.3425 -0.8987
vn 0.9909 -0.0147 0.1335
vn 0.9751 -0.1179 0.1878
vn -0.0081 1.0000 -0.0054
vn 0.0000 1.0000 -0.0000
vn -0.0373 0.9916 0.1237
vn -0.0029 0.9998 0.0196
vn -0.0238 -0.9954 0.0926
vn -0.0036 -1.0000 -0.0056
vn -0.0258 0.0027 -0.9997
vn -0.0116 -0.0145 -0.9998
vn -0.8271 -0.2066 0.5227
vn -0.8323 -0.1985 0.5175
vn -0.0595 0.9537 0.2947
vn 0.2689 -0.1785 0.9465
vn -0.2567 -0.1294 0.9578
vn -0.0874 -0.4327 0.8973
vn -0.0859 0.9728 0.2153
vn -0.5216 -0.1303 0.8432
vn -0.3726 -0.2062 0.9048
usemtl Shape.7662
s off
f 4//1 11//1 14//1
f 4//2 3//2 6//2
f 3//3 4//3 7//3
f 5//4 3//4 8//4
f 3//5 7//5 8//5
f 3//6 5//6 9//6
f 6//7 3//7 9//7
f 8//8 2//8 10//8
f 5//9 8//9 10//9
f 1//10 9//10 10//10
f 9//11 5//11 10//11
f 4//12 6//12 11//12
f 7//13 4//13 12//13
f 2//14 8//14 12//14
f 8//15 7//15 12//15
f 4//16 10//16 12//16
f 10//17 2//17 12//17
f 9//18 1//18 13//18
f 6//19 9//19 13//19
f 1//20 11//20 13//20
f 11//21 6//21 13//21
f 1//22 10//22 14//22
f 10//23 4//23 14//23
f 11//24 1//24 14//24
