# Blender v2.79 (sub 0) OBJ File: ''
# www.blender.org
mtllib 102352_link_0_18.mtl
o Shape_IndexedFaceSet.018_Shape_IndexedFaceSet.16469
v -0.723539 0.555481 0.012287
v -0.737218 0.532681 -0.012795
v -0.737218 0.546361 -0.012795
v -0.737218 0.560039 0.016848
v -0.737218 0.541806 0.010006
vn -1.0000 0.0000 0.0000
vn 0.8779 0.0000 -0.4788
vn 0.1607 0.8962 -0.4135
vn 0.1915 -0.3448 0.9189
vn 0.6547 -0.7018 0.2808
usemtl Shape.16482
s off
f 4//1 2//1 5//1
f 1//2 2//2 3//2
f 3//1 2//1 4//1
f 1//3 3//3 4//3
f 1//4 4//4 5//4
f 2//5 1//5 5//5
