# Blender v2.79 (sub 0) OBJ File: ''
# www.blender.org
mtllib 102352_link_0_15.mtl
o Shape_IndexedFaceSet.015_Shape_IndexedFaceSet.16466
v 0.774575 0.582846 -0.065240
v 0.772294 0.578286 -0.067520
v 0.772294 0.578286 -0.065240
v 0.772294 0.582846 -0.067520
v 0.774575 0.578286 -0.067520
vn 0.0000 0.0000 -1.0000
vn -1.0000 0.0000 0.0000
vn -0.6665 0.3334 0.6668
vn 0.6665 0.3334 -0.6668
vn 0.6665 -0.3334 0.6668
vn 0.0000 -1.0000 0.0000
usemtl Shape.16479
s off
f 2//1 4//1 5//1
f 2//2 3//2 4//2
f 3//3 1//3 4//3
f 4//4 1//4 5//4
f 1//5 3//5 5//5
f 3//6 2//6 5//6
