# Blender v2.79 (sub 0) OBJ File: ''
# www.blender.org
mtllib 102352_link_1_10.mtl
o Shape_IndexedFaceSet.010_Shape_IndexedFaceSet.7636
v -0.240532 0.535311 -0.610643
v -0.447763 0.507736 -0.610979
v -0.448917 0.637692 -0.611804
v -0.462757 0.482369 -0.448274
v -0.450655 0.644578 -0.509768
v -0.218764 0.481517 -0.622588
v -0.324604 0.644578 -0.619053
v -0.472739 0.597526 -0.469305
v -0.282556 0.619329 -0.610643
v -0.450655 0.510093 -0.450912
v -0.450655 0.619329 -0.484570
v -0.220458 0.513553 -0.628027
v -0.447571 0.492674 -0.565308
vn -0.0726 -0.9926 -0.0968
vn -0.0591 0.9959 -0.0682
vn -0.9858 -0.0098 -0.1676
vn -0.9886 -0.1053 -0.1075
vn -0.9179 0.3945 -0.0423
vn 0.3913 0.8020 0.4513
vn 0.5989 0.0651 0.7982
vn 0.5721 -0.1735 0.8016
vn -0.1627 0.1636 0.9730
vn -0.2038 0.6916 0.6930
vn 0.4689 0.6239 0.6252
vn 0.5747 0.2874 0.7662
vn 0.5686 0.2422 0.7862
vn 0.3469 0.2762 0.8963
vn -0.0746 -0.0070 -0.9972
vn 0.7356 0.1510 0.6604
vn -0.0694 -0.1705 -0.9829
vn -0.0594 0.0212 -0.9980
vn 0.8085 0.4044 0.4275
vn 0.3896 0.3675 -0.8445
vn -0.8642 -0.4789 -0.1543
vn -0.1236 -0.9426 -0.3103
usemtl Shape.7642
s off
f 6//1 4//1 13//1
f 3//2 5//2 7//2
f 3//3 2//3 8//3
f 2//4 4//4 8//4
f 5//5 3//5 8//5
f 7//6 5//6 9//6
f 6//7 1//7 10//7
f 4//8 6//8 10//8
f 8//9 4//9 10//9
f 5//10 8//10 11//10
f 9//11 5//11 11//11
f 1//12 9//12 11//12
f 10//13 1//13 11//13
f 8//14 10//14 11//14
f 2//15 3//15 12//15
f 1//16 6//16 12//16
f 6//17 2//17 12//17
f 3//18 7//18 12//18
f 9//19 1//19 12//19
f 7//20 9//20 12//20
f 4//21 2//21 13//21
f 2//22 6//22 13//22
