# Blender v2.79 (sub 0) OBJ File: ''
# www.blender.org
mtllib 102352_link_1_8.mtl
o Shape_IndexedFaceSet.008_Shape_IndexedFaceSet.7634
v -0.730267 0.635920 0.024688
v -0.677684 0.484844 -0.190293
v -0.604055 0.486999 -0.187168
v -0.618919 0.484961 0.053342
v -0.618831 0.619330 -0.190293
v -0.753330 0.518498 0.045088
v -0.736506 0.636149 -0.181868
v -0.652479 0.644559 0.053512
v -0.736506 0.510089 -0.173468
v -0.694477 0.484844 0.045088
v -0.618831 0.543710 0.053512
v -0.752992 0.613806 -0.004766
v -0.644067 0.644559 -0.131442
v -0.736506 0.501679 0.053512
v -0.635655 0.627740 0.053512
v -0.746221 0.614314 0.041384
v -0.602007 0.526891 -0.190293
v -0.751361 0.539669 -0.064736
vn -0.9951 0.0481 -0.0866
vn 0.0295 -0.9995 -0.0066
vn -0.0672 0.0294 -0.9973
vn -0.1120 0.9937 0.0045
vn -0.2995 -0.0634 -0.9520
vn 0.0015 -1.0000 0.0001
vn -0.7119 0.7019 0.0223
vn 0.1076 0.9296 -0.3524
vn -0.0884 0.9961 -0.0040
vn -0.4023 -0.9149 -0.0339
vn -0.7001 -0.7136 -0.0264
vn -0.3763 -0.9261 -0.0268
vn -0.0853 -0.6079 0.7894
vn 0.0010 -0.0029 1.0000
vn 0.0000 0.0000 1.0000
vn 0.9787 0.1960 0.0608
vn 0.7383 0.6739 0.0277
vn 0.7066 0.7068 0.0321
vn -0.3115 0.7143 0.6267
vn -0.7598 0.6417 0.1044
vn -0.9865 0.0787 0.1439
vn -0.3943 0.0647 0.9167
vn -0.1570 0.0923 0.9833
vn 0.0446 -0.0803 -0.9958
vn 0.9970 -0.0464 0.0612
vn 0.0000 0.0000 -1.0000
vn 0.9976 -0.0017 0.0690
vn 0.9823 0.1788 0.0555
vn -0.9669 -0.2469 -0.0649
vn -0.9911 -0.0089 -0.1330
vn -0.9998 -0.0065 -0.0192
usemtl Shape.7640
s off
f 12//1 7//1 18//1
f 2//2 3//2 4//2
f 5//3 2//3 7//3
f 7//4 1//4 8//4
f 7//5 2//5 9//5
f 2//6 4//6 10//6
f 1//7 7//7 12//7
f 5//8 7//8 13//8
f 7//9 8//9 13//9
f 9//10 2//10 14//10
f 6//11 9//11 14//11
f 2//12 10//12 14//12
f 10//13 4//13 14//13
f 4//14 11//14 14//14
f 11//15 8//15 14//15
f 11//16 5//16 15//16
f 8//15 11//15 15//15
f 5//17 13//17 15//17
f 13//18 8//18 15//18
f 8//19 1//19 16//19
f 1//20 12//20 16//20
f 12//21 6//21 16//21
f 6//22 14//22 16//22
f 14//23 8//23 16//23
f 3//24 2//24 17//24
f 4//25 3//25 17//25
f 2//26 5//26 17//26
f 11//27 4//27 17//27
f 5//28 11//28 17//28
f 9//29 6//29 18//29
f 7//30 9//30 18//30
f 6//31 12//31 18//31
