# Blender v2.79 (sub 0) OBJ File: ''
# www.blender.org
mtllib 102352_link_1_33.mtl
o Shape_IndexedFaceSet.033_Shape_IndexedFaceSet.7659
v -0.136427 0.506024 0.683367
v -0.139621 0.484844 0.591559
v -0.131873 -0.616502 0.371644
v -0.290941 0.484844 0.524253
v -0.306006 -0.591160 0.272802
v -0.148033 -0.565944 0.473906
v -0.301625 0.499908 0.620557
v -0.299353 -0.574446 0.389831
v -0.168355 0.503682 0.686783
v -0.248897 -0.523950 0.440291
v -0.139621 0.459543 0.583118
v -0.279002 -0.612538 0.280859
v -0.299353 0.375451 0.599925
v -0.257309 -0.574446 0.423484
v -0.143297 -0.550070 0.466238
vn 0.9565 -0.1714 0.2359
vn 0.9992 0.0146 -0.0381
vn 0.1010 0.9687 -0.2270
vn 0.0213 0.9881 -0.1522
vn -0.9923 0.0411 -0.1165
vn -0.9982 -0.0147 0.0589
vn 0.1183 -0.1917 0.9743
vn -0.0651 0.9951 0.0742
vn -0.3799 -0.1875 0.9058
vn 0.9985 0.0175 -0.0524
vn 0.3887 0.2916 -0.8740
vn 0.3844 0.2050 -0.9001
vn 0.4193 0.1955 -0.8866
vn -0.6403 -0.7545 0.1442
vn 0.5209 0.1682 -0.8369
vn -0.9475 -0.0691 0.3122
vn -0.4361 -0.1549 0.8865
vn -0.4138 -0.1815 0.8921
vn -0.5633 -0.1749 0.8075
vn -0.1257 -0.8971 0.4236
vn -0.3928 -0.2309 0.8902
vn -0.1987 -0.9389 0.2810
vn -0.2268 -0.9318 0.2834
vn -0.6158 -0.1702 0.7693
vn 0.9888 -0.0362 0.1448
vn 0.9173 -0.0859 0.3888
usemtl Shape.7665
s off
f 6//1 3//1 15//1
f 2//2 1//2 3//2
f 1//3 2//3 4//3
f 1//4 4//4 7//4
f 4//5 5//5 7//5
f 7//6 5//6 8//6
f 6//7 1//7 9//7
f 1//8 7//8 9//8
f 6//9 9//9 10//9
f 2//10 3//10 11//10
f 4//11 2//11 11//11
f 5//12 4//12 11//12
f 5//13 11//13 12//13
f 8//14 5//14 12//14
f 11//15 3//15 12//15
f 7//16 8//16 13//16
f 9//17 7//17 13//17
f 10//18 9//18 13//18
f 10//19 13//19 14//19
f 3//20 6//20 14//20
f 6//21 10//21 14//21
f 12//22 3//22 14//22
f 8//23 12//23 14//23
f 13//24 8//24 14//24
f 3//25 1//25 15//25
f 1//26 6//26 15//26
