# Blender v2.79 (sub 0) OBJ File: ''
# www.blender.org
mtllib 102352_link_1_15.mtl
o Shape_IndexedFaceSet.015_Shape_IndexedFaceSet.7641
v -0.274155 0.644578 0.583143
v -0.156433 0.484875 0.583143
v -0.433856 0.619329 0.448658
v -0.449943 0.613405 0.583799
v -0.570623 0.631207 0.453604
v -0.400221 0.484875 0.448658
v -0.434533 0.516359 0.583355
v -0.582255 0.528863 0.452366
v -0.206885 0.602522 0.591550
v -0.528665 0.537845 0.523933
v -0.467491 0.644578 0.448658
v -0.427149 0.635476 0.583406
v -0.156433 0.484875 0.591550
v -0.206885 0.602522 0.583143
v -0.503297 0.488541 0.451938
v -0.368045 0.498350 0.579494
v -0.527406 0.606607 0.523902
vn -0.5149 0.6598 0.5474
vn 0.4795 0.1200 -0.8693
vn -0.0323 -0.0097 0.9994
vn -0.5463 -0.0906 0.8327
vn -0.4531 -0.7771 0.4368
vn 0.0000 0.0000 -1.0000
vn -0.0502 0.0178 -0.9986
vn -0.0227 -0.0095 -0.9997
vn -0.0091 0.1819 0.9833
vn -0.0297 0.0484 0.9984
vn -0.0590 0.9946 0.0849
vn -0.1230 0.9870 0.1035
vn 0.0000 -1.0000 0.0000
vn 0.9191 0.3941 0.0000
vn -0.0310 -0.0133 0.9994
vn 0.5094 0.2184 -0.8324
vn 0.5301 0.8479 0.0000
vn 0.4216 0.6744 -0.6061
vn 0.4433 0.5905 -0.6744
vn -0.0337 -0.0555 -0.9979
vn -0.4168 -0.8203 0.3917
vn -0.0337 -0.9978 0.0574
vn -0.0714 -0.9859 0.1515
vn -0.0805 -0.4839 0.8714
vn -0.2310 -0.9203 0.3157
vn -0.8345 0.0883 0.5439
vn -0.6123 0.0116 0.7905
vn -0.8013 0.0149 0.5981
vn -0.5355 0.5642 0.6285
usemtl Shape.7647
s off
f 12//1 5//1 17//1
f 3//2 2//2 6//2
f 4//3 7//3 9//3
f 7//4 4//4 10//4
f 8//5 7//5 10//5
f 3//6 6//6 11//6
f 8//7 5//7 11//7
f 6//8 8//8 11//8
f 9//9 1//9 12//9
f 4//10 9//10 12//10
f 1//11 11//11 12//11
f 11//12 5//12 12//12
f 6//13 2//13 13//13
f 2//14 9//14 13//14
f 9//15 7//15 13//15
f 2//16 3//16 14//16
f 9//14 2//14 14//14
f 1//17 9//17 14//17
f 11//18 1//18 14//18
f 3//19 11//19 14//19
f 8//20 6//20 15//20
f 7//21 8//21 15//21
f 6//22 13//22 15//22
f 15//23 13//23 16//23
f 13//24 7//24 16//24
f 7//25 15//25 16//25
f 5//26 8//26 17//26
f 10//27 4//27 17//27
f 8//28 10//28 17//28
f 4//29 12//29 17//29
