# Blender v2.79 (sub 0) OBJ File: ''
# www.blender.org
mtllib 102352_link_1_39.mtl
o Shape_IndexedFaceSet.039_Shape_IndexedFaceSet.7665
v 0.062168 -0.582853 0.490693
v 0.064440 0.472296 0.680158
v 0.254101 -0.607106 0.343176
v 0.255511 -0.566027 0.448686
v 0.247089 0.484844 0.566300
v 0.062168 0.468017 0.608339
v 0.265365 0.502181 0.663659
v 0.056431 -0.605565 0.408820
v 0.154638 -0.582853 0.482285
v 0.079914 0.503575 0.701176
v 0.227124 0.501850 0.679429
v 0.261034 -0.595565 0.346834
v 0.062168 0.442725 0.684011
v 0.179828 -0.557562 0.482285
v 0.244599 -0.613297 0.344060
v 0.078974 -0.549201 0.499133
v 0.062168 0.484844 0.616747
vn -1.0000 0.0047 0.0029
vn 0.0242 -0.9638 0.2657
vn -0.0271 0.9850 -0.1703
vn 0.1415 -0.1862 0.9723
vn 0.0230 0.9968 0.0767
vn 0.8094 -0.5508 0.2036
vn 0.1788 0.1981 -0.9637
vn 0.9980 -0.0213 0.0603
vn 0.9798 0.0519 -0.1932
vn -0.9972 -0.0139 0.0737
vn -0.3008 -0.1767 0.9372
vn -0.8797 0.1273 0.4582
vn 0.3813 -0.1858 0.9056
vn 0.3480 -0.3466 0.8711
vn 0.1885 -0.1878 0.9639
vn 0.3760 -0.1857 0.9078
vn 0.5403 -0.7866 0.2990
vn -0.2155 0.1942 -0.9570
vn -0.2342 0.1934 -0.9528
vn -0.3140 0.1751 -0.9332
vn 0.2721 -0.8873 0.3725
vn 0.0434 -0.9694 0.2417
vn 0.0869 -0.2829 0.9552
vn -0.1152 -0.1871 0.9756
vn 0.1336 -0.1869 0.9733
vn -0.2371 0.4342 -0.8690
vn -0.9998 0.0085 -0.0170
vn -0.9181 0.3814 0.1084
vn -0.0559 0.9772 -0.2050
vn -0.9952 0.0833 0.0521
usemtl Shape.7671
s off
f 8//1 13//1 17//1
f 1//2 8//2 9//2
f 7//3 5//3 10//3
f 10//4 9//4 11//4
f 7//5 10//5 11//5
f 4//6 3//6 12//6
f 3//7 5//7 12//7
f 7//8 4//8 12//8
f 5//9 7//9 12//9
f 8//10 1//10 13//10
f 1//11 10//11 13//11
f 10//12 2//12 13//12
f 4//13 7//13 14//13
f 9//14 4//14 14//14
f 11//15 9//15 14//15
f 7//16 11//16 14//16
f 3//17 4//17 15//17
f 5//18 3//18 15//18
f 6//19 5//19 15//19
f 8//20 6//20 15//20
f 4//21 9//21 15//21
f 9//22 8//22 15//22
f 1//23 9//23 16//23
f 10//24 1//24 16//24
f 9//25 10//25 16//25
f 5//26 6//26 17//26
f 6//27 8//27 17//27
f 2//28 10//28 17//28
f 10//29 5//29 17//29
f 13//30 2//30 17//30
