# Blender v2.79 (sub 0) OBJ File: ''
# www.blender.org
mtllib 102352_link_0_27.mtl
o Shape_IndexedFaceSet.027_Shape_IndexedFaceSet.16478
v 0.785975 0.594240 0.021409
v 0.774576 0.548650 0.012289
v 0.776857 0.546368 0.012289
v 0.785975 0.603369 0.012289
v 0.774576 0.601081 0.014570
vn -0.2042 0.0425 -0.9780
vn -0.1561 -0.1561 0.9753
vn -0.0000 0.0000 -1.0000
vn 0.9753 -0.1560 -0.1562
vn -0.0003 0.7068 0.7075
vn -0.5303 -0.0368 0.8470
usemtl Shape.16491
s off
f 4//1 2//1 5//1
f 1//2 2//2 3//2
f 3//3 2//3 4//3
f 1//4 3//4 4//4
f 1//5 4//5 5//5
f 2//6 1//6 5//6
