# Blender v2.79 (sub 0) OBJ File: ''
# www.blender.org
mtllib 102352_link_1_38.mtl
o Shape_IndexedFaceSet.038_Shape_IndexedFaceSet.7664
v 0.322868 -0.605899 0.291990
v 0.328412 -0.590593 0.298475
v 0.574962 0.484844 0.288905
v 0.448905 -0.540735 0.297317
v 0.428005 -0.606485 0.134047
v 0.642230 0.484739 0.137583
v 0.670278 0.495337 0.298903
v 0.524539 -0.557562 0.137583
v 0.734420 0.503000 0.167265
v 0.490886 -0.574388 0.221640
v 0.712993 0.471188 0.139610
v 0.465713 -0.582853 0.263685
v 0.625422 0.257739 0.297317
v 0.516135 -0.582853 0.154422
v 0.608577 0.484844 0.297317
v 0.703553 0.501433 0.239810
v 0.625422 0.409072 0.137583
vn -0.1245 0.0277 -0.9918
vn -0.9332 0.2165 0.2868
vn 0.1908 -0.4407 0.8771
vn -0.8942 0.2055 -0.3977
vn 0.0112 -0.0039 0.9999
vn -0.1701 0.9825 -0.0763
vn 0.0282 -0.0023 -0.9996
vn 0.0392 -0.0052 -0.9992
vn 0.8598 -0.1565 -0.4861
vn 0.1368 0.5958 -0.7914
vn 0.2467 -0.5427 0.8029
vn 0.1821 -0.9753 0.1248
vn 0.8593 -0.1824 0.4778
vn 0.2023 -0.0447 0.9783
vn 0.7780 -0.1720 0.6042
vn 0.3292 -0.5967 -0.7319
vn 0.9628 -0.1957 0.1865
vn 0.9115 -0.1876 0.3660
vn 0.2341 -0.9662 0.1080
vn 0.7721 -0.5263 0.3563
vn -0.2423 0.0642 0.9681
vn -0.0271 0.0081 0.9996
vn -0.1494 0.7882 0.5970
vn -0.1133 0.9928 0.0386
vn -0.1426 0.9890 -0.0393
vn 0.9056 -0.1855 0.3813
vn 0.8843 -0.1821 0.4299
vn 0.8664 -0.1667 0.4707
vn -0.8212 0.1615 -0.5473
vn -0.8775 0.1949 -0.4382
usemtl Shape.7670
s off
f 6//1 5//1 17//1
f 1//2 2//2 3//2
f 2//3 1//3 4//3
f 1//4 3//4 6//4
f 2//5 4//5 7//5
f 6//6 3//6 9//6
f 5//7 6//7 11//7
f 8//8 5//8 11//8
f 9//9 8//9 11//9
f 6//10 9//10 11//10
f 4//11 1//11 12//11
f 1//12 5//12 12//12
f 12//13 10//13 13//13
f 7//14 4//14 13//14
f 4//15 12//15 13//15
f 5//16 8//16 14//16
f 8//17 9//17 14//17
f 9//18 10//18 14//18
f 12//19 5//19 14//19
f 10//20 12//20 14//20
f 3//21 2//21 15//21
f 2//22 7//22 15//22
f 7//23 3//23 15//23
f 3//24 7//24 16//24
f 9//25 3//25 16//25
f 10//26 9//26 16//26
f 13//27 10//27 16//27
f 7//28 13//28 16//28
f 5//29 1//29 17//29
f 1//30 6//30 17//30
