# Blender v2.79 (sub 0) OBJ File: ''
# www.blender.org
mtllib 102352_link_1_0.mtl
o Shape_IndexedFaceSet_Shape_IndexedFaceSet.7626
v -0.742110 0.600060 0.097838
v -0.393847 0.496269 0.465607
v -0.402307 0.481939 0.455909
v -0.607856 0.545531 0.423755
v -0.467521 0.644578 0.448644
v -0.610411 0.484875 0.053512
v -0.635581 0.627740 0.053512
v -0.703823 0.508896 0.180383
v -0.653375 0.629464 0.338684
v -0.534766 0.484875 0.440174
v -0.716071 0.638050 0.069662
v -0.736380 0.520883 0.063742
v -0.661416 0.530245 0.339184
v -0.592691 0.623317 0.434776
v -0.433883 0.594111 0.440174
v -0.681082 0.488656 0.062867
v -0.734530 0.552913 0.160518
v -0.652418 0.644578 0.053512
v -0.723952 0.622656 0.177688
v -0.645348 0.636674 0.330605
v -0.653787 0.599178 0.362134
v -0.399712 0.532194 0.469578
v -0.450685 0.627740 0.440174
vn 0.7381 0.5244 0.4246
vn 0.8683 -0.2077 -0.4505
vn 0.8729 0.1538 -0.4630
vn -0.1126 -0.5105 0.8525
vn -0.0227 -0.9997 0.0044
vn -0.8275 0.1705 -0.5349
vn -0.6167 -0.6077 0.5004
vn -0.4936 -0.8347 0.2440
vn -0.2816 -0.0806 0.9561
vn -0.0521 -0.9986 0.0102
vn -0.2975 -0.9488 0.1059
vn -0.1394 -0.2130 -0.9671
vn -0.5022 -0.8632 0.0515
vn -0.9944 -0.0935 0.0499
vn -0.8432 -0.5054 0.1834
vn -0.8416 -0.4579 0.2863
vn 0.0000 0.0000 -1.0000
vn -0.0875 -0.0230 -0.9959
vn -0.2538 0.0926 -0.9628
vn -0.8167 0.5766 0.0226
vn -0.9759 0.1004 0.1935
vn -0.1868 0.9581 0.2173
vn -0.4295 0.8425 0.3251
vn -0.0643 0.9975 0.0301
vn -0.0942 0.9951 0.0308
vn -0.3685 0.9237 0.1047
vn -0.5356 0.8204 0.2001
vn -0.8341 -0.0889 0.5443
vn -0.7738 0.0615 0.6304
vn -0.7620 0.4029 0.5070
vn -0.9263 -0.0227 0.3762
vn -0.8782 0.3002 0.3723
vn -0.9311 0.0524 0.3609
vn 0.8720 0.1921 -0.4502
vn -0.1654 -0.1350 0.9769
vn -0.1274 0.1068 0.9861
vn -0.1976 -0.0445 0.9793
vn 0.8623 0.2736 -0.4260
vn 0.8903 0.4448 -0.0980
vn 0.8225 0.4109 -0.3933
vn 0.6699 0.6698 -0.3203
vn 0.6036 0.7456 -0.2824
usemtl Shape.7632
s off
f 5//1 22//1 23//1
f 2//2 3//2 6//2
f 2//3 6//3 7//3
f 3//4 2//4 10//4
f 6//5 3//5 10//5
f 1//6 11//6 12//6
f 10//7 4//7 13//7
f 8//8 10//8 13//8
f 4//9 10//9 14//9
f 6//10 10//10 16//10
f 10//11 8//11 16//11
f 12//12 6//12 16//12
f 8//13 12//13 16//13
f 1//14 12//14 17//14
f 12//15 8//15 17//15
f 8//16 13//16 17//16
f 7//17 6//17 18//17
f 6//18 12//18 18//18
f 12//19 11//19 18//19
f 11//20 1//20 19//20
f 1//21 17//21 19//21
f 14//22 5//22 20//22
f 9//23 14//23 20//23
f 5//24 18//24 20//24
f 18//25 11//25 20//25
f 11//26 19//26 20//26
f 19//27 9//27 20//27
f 13//28 4//28 21//28
f 4//29 14//29 21//29
f 14//30 9//30 21//30
f 17//31 13//31 21//31
f 9//32 19//32 21//32
f 19//33 17//33 21//33
f 2//34 7//34 22//34
f 10//35 2//35 22//35
f 5//36 14//36 22//36
f 14//37 10//37 22//37
f 7//38 15//38 22//38
f 22//39 15//39 23//39
f 15//40 7//40 23//40
f 7//41 18//41 23//41
f 18//42 5//42 23//42
