# Blender v2.79 (sub 0) OBJ File: ''
# www.blender.org
mtllib 102352_link_1_22.mtl
o Shape_IndexedFaceSet.022_Shape_IndexedFaceSet.7648
v -0.131200 -0.549201 -0.442505
v -0.119364 -0.613319 -0.431291
v 0.045337 0.459552 -0.661052
v -0.143472 0.507088 -0.733936
v 0.036918 -0.582853 -0.551823
v -0.139619 -0.582853 -0.526582
v 0.055225 -0.602685 -0.463577
v -0.131200 0.484844 -0.644225
v 0.049560 0.509227 -0.752071
v -0.001219 0.506774 -0.759178
v -0.080743 -0.574388 -0.543439
v -0.139671 -0.583155 -0.442419
v 0.045337 -0.574388 -0.551823
v -0.139619 0.190433 -0.677879
v 0.003298 -0.540735 -0.560237
v 0.045337 0.484844 -0.669466
v 0.016106 -0.613743 -0.458301
vn 0.2303 -0.9381 -0.2586
vn 0.1681 0.1817 0.9689
vn 0.1067 0.1904 0.9759
vn 0.1201 0.1902 0.9744
vn 0.0117 0.9709 0.2391
vn -0.0257 0.9872 -0.1571
vn 0.1449 -0.1801 -0.9729
vn -0.1007 -0.7024 -0.7046
vn -0.3674 0.0940 0.9253
vn -0.8291 -0.5591 -0.0025
vn -1.0000 -0.0037 -0.0006
vn -0.6038 0.1526 0.7824
vn -0.9890 0.0350 0.1440
vn 0.6781 -0.6744 -0.2922
vn 0.1804 -0.1794 -0.9671
vn 0.9925 -0.0260 -0.1195
vn -0.8324 -0.1064 -0.5438
vn -0.1724 -0.1737 -0.9696
vn -0.2456 -0.1861 -0.9513
vn -0.1533 -0.1825 -0.9712
vn 0.0122 -0.1865 -0.9824
vn -0.0873 -0.2617 -0.9612
vn -0.1205 -0.1857 -0.9752
vn 0.9978 0.0211 0.0633
vn 0.1344 0.3128 0.9403
vn 0.0407 0.9577 0.2848
vn 0.9982 0.0198 0.0569
vn -0.0612 -0.9544 -0.2921
vn -0.0461 -0.9454 -0.3225
vn 0.1903 -0.2161 0.9576
usemtl Shape.7654
s off
f 5//1 7//1 17//1
f 3//2 2//2 7//2
f 1//3 2//3 8//3
f 2//4 3//4 8//4
f 4//5 8//5 9//5
f 4//6 9//6 10//6
f 9//7 5//7 10//7
f 5//8 6//8 11//8
f 2//9 1//9 12//9
f 6//10 2//10 12//10
f 4//11 6//11 12//11
f 1//12 8//12 12//12
f 8//13 4//13 12//13
f 7//14 5//14 13//14
f 5//15 9//15 13//15
f 9//16 7//16 13//16
f 6//17 4//17 14//17
f 4//18 10//18 14//18
f 11//19 6//19 14//19
f 10//20 11//20 14//20
f 10//21 5//21 15//21
f 5//22 11//22 15//22
f 11//23 10//23 15//23
f 3//24 7//24 16//24
f 8//25 3//25 16//25
f 9//26 8//26 16//26
f 7//27 9//27 16//27
f 2//28 6//28 17//28
f 6//29 5//29 17//29
f 7//30 2//30 17//30
