# Blender v2.79 (sub 0) OBJ File: ''
# www.blender.org
mtllib 102352_link_0_13.mtl
o Shape_IndexedFaceSet.013_Shape_IndexedFaceSet.16464
v 0.833932 0.530474 0.017724
v 0.797381 0.530393 -0.021916
v 0.790541 0.482521 0.025966
v 0.786199 0.532460 0.028033
v 0.829294 0.489366 0.028249
v 0.836016 0.535057 -0.021796
v 0.787116 0.533941 -0.013597
v 0.833159 0.531914 0.027486
v 0.822454 0.484804 0.023688
v 0.783696 0.489366 0.028249
vn -0.9981 0.0579 -0.0199
vn 0.9940 -0.1017 0.0406
vn -0.6443 -0.4929 -0.5848
vn -0.1026 0.8630 -0.4947
vn -0.0169 0.9992 0.0352
vn 0.9919 -0.0885 0.0916
vn 0.0118 0.0169 0.9998
vn 0.0124 0.9979 0.0644
vn 0.9930 0.0997 0.0639
vn 0.0001 -0.7072 -0.7070
vn 0.1000 -0.7745 0.6247
vn 0.6826 -0.5830 -0.4406
vn 0.0845 -0.6811 -0.7273
vn 0.0000 0.0050 1.0000
vn 0.0000 -0.3164 0.9486
vn -0.6694 -0.4805 -0.5665
usemtl Shape.16477
s off
f 4//1 7//1 10//1
f 1//2 5//2 6//2
f 2//3 3//3 7//3
f 6//4 2//4 7//4
f 4//5 6//5 7//5
f 5//6 1//6 8//6
f 4//7 5//7 8//7
f 6//8 4//8 8//8
f 1//9 6//9 8//9
f 3//10 2//10 9//10
f 5//11 3//11 9//11
f 6//12 5//12 9//12
f 2//13 6//13 9//13
f 5//14 4//14 10//14
f 3//15 5//15 10//15
f 7//16 3//16 10//16
