# Blender v2.79 (sub 0) OBJ File: ''
# www.blender.org
mtllib 102367_link_0_5.mtl
o Shape_IndexedFaceSet.005_Shape_IndexedFaceSet.7910
v -0.224368 -0.009997 0.796650
v -0.418926 0.036955 0.711677
v -0.418926 0.047023 0.711677
v -0.200898 -0.004412 0.779876
v -0.404381 0.044782 0.737399
v -0.203129 0.003422 0.795528
v -0.418926 0.029135 0.726216
v -0.204245 -0.017824 0.786589
v -0.418926 0.034721 0.735164
v -0.206476 -0.004412 0.803363
v -0.416674 0.051498 0.719503
v -0.199761 0.002298 0.785467
v -0.199761 -0.014473 0.782111
v -0.418926 0.031363 0.716146
v -0.209844 -0.016707 0.796650
v -0.418926 0.051498 0.726216
v -0.416674 0.042547 0.736277
vn -0.9006 0.2046 0.3836
vn 0.2985 0.0000 -0.9544
vn -1.0000 0.0000 0.0000
vn -0.0532 0.7174 0.6946
vn -0.3211 -0.1028 0.9414
vn 0.3648 0.5588 -0.7448
vn 0.3388 0.7714 -0.5386
vn 0.2302 0.9726 -0.0316
vn 0.2622 -0.1809 -0.9479
vn 0.9410 -0.0710 0.3309
vn 0.7778 -0.4363 0.4523
vn 0.9647 0.0517 -0.2582
vn 0.9441 -0.0647 0.3233
vn -0.1511 -0.9652 -0.2135
vn 0.1040 -0.6209 -0.7769
vn 0.0100 -0.8054 -0.5927
vn -0.2112 -0.9774 -0.0090
vn -0.3489 -0.7553 0.5548
vn -0.3424 -0.7970 0.4976
vn 0.7519 -0.4625 0.4698
vn -0.1975 -0.4275 0.8821
vn 0.0452 0.8813 0.4704
vn -0.6593 0.7186 -0.2212
vn 0.1967 0.9782 0.0660
vn -0.1663 0.4834 0.8595
vn -0.3128 -0.0449 0.9487
vn -0.1911 0.7117 0.6760
usemtl Shape.7918
s off
f 16//1 9//1 17//1
f 2//2 3//2 4//2
f 3//3 2//3 7//3
f 3//3 7//3 9//3
f 6//4 5//4 10//4
f 9//5 1//5 10//5
f 4//6 3//6 12//6
f 3//7 11//7 12//7
f 11//8 6//8 12//8
f 2//9 4//9 13//9
f 6//10 10//10 13//10
f 10//11 8//11 13//11
f 4//12 12//12 13//12
f 12//13 6//13 13//13
f 7//3 2//3 14//3
f 8//14 7//14 14//14
f 2//15 13//15 14//15
f 13//16 8//16 14//16
f 7//17 8//17 15//17
f 1//18 9//18 15//18
f 9//19 7//19 15//19
f 8//20 10//20 15//20
f 10//21 1//21 15//21
f 5//22 6//22 16//22
f 3//3 9//3 16//3
f 11//23 3//23 16//23
f 6//24 11//24 16//24
f 10//25 5//25 17//25
f 9//26 10//26 17//26
f 5//27 16//27 17//27
