# Blender v2.79 (sub 0) OBJ File: ''
# www.blender.org
mtllib 102367_link_1_28.mtl
o Shape_IndexedFaceSet.028_Shape_IndexedFaceSet.10853
v 0.595700 0.305030 -0.535241
v 0.243921 -0.588682 -0.630267
v 0.237524 -0.602869 -0.573016
v 0.243921 0.333605 -0.763416
v 0.480369 0.349588 -0.413891
v 0.538675 -0.588682 -0.402127
v 0.255230 0.356087 -0.582771
v 0.681236 0.381167 -0.402127
v 0.386568 -0.569600 -0.573294
v 0.473039 -0.604895 -0.384397
v 0.443635 0.371579 -0.677833
v 0.272476 0.381167 -0.763416
v 0.510163 -0.588682 -0.459171
v 0.681236 0.352592 -0.421153
v 0.262972 -0.550614 -0.639780
v 0.481608 0.362086 -0.649293
v 0.605204 0.381167 -0.535241
v 0.272476 0.143452 -0.734877
v 0.538675 -0.588682 -0.421153
v 0.329543 -0.588682 -0.601798
v 0.247115 -0.603414 -0.563167
v 0.681236 0.314524 -0.402127
v 0.614708 0.324112 -0.516250
v 0.434131 0.324112 -0.677833
v 0.424584 -0.550614 -0.544754
v 0.243921 -0.179800 -0.696824
v 0.567188 0.200507 -0.544754
vn 0.6633 -0.1259 -0.7377
vn -0.9980 0.0190 0.0601
vn -0.1647 0.9525 0.2563
vn -0.5993 0.0293 0.8000
vn -0.0633 0.0313 0.9975
vn -0.8573 0.5147 -0.0104
vn -0.1115 0.9857 0.1262
vn 0.1942 0.9392 -0.2832
vn -0.0000 1.0000 0.0000
vn 0.8245 0.3136 -0.4710
vn 0.6197 0.3060 -0.7227
vn 0.6828 -0.0852 -0.7256
vn 0.1947 -0.1169 -0.9739
vn 0.2398 -0.9708 0.0000
vn 0.1700 -0.9772 -0.1275
vn 0.0770 -0.9697 -0.2317
vn 0.5125 -0.5621 -0.6491
vn 0.1206 -0.9809 -0.1528
vn 0.2934 -0.3674 -0.8826
vn 0.4352 -0.1281 -0.8912
vn -0.7157 0.0203 0.6981
vn -0.6203 0.0213 0.7841
vn 0.1031 -0.9826 -0.1547
vn 0.1080 -0.9836 -0.1446
vn 0.2704 -0.0427 0.9618
vn 0.0849 0.0000 0.9964
vn 1.0000 0.0000 0.0000
vn 0.9878 -0.1559 0.0000
vn 0.9471 -0.1434 -0.2870
vn 0.7620 -0.1270 -0.6351
vn 0.8253 -0.0497 -0.5625
vn 0.7491 -0.0935 -0.6558
vn 0.7934 -0.1281 -0.5950
vn 0.8302 -0.1257 -0.5431
vn 0.4415 -0.0884 -0.8929
vn 0.5781 -0.1158 -0.8077
vn 0.5827 -0.1249 -0.8030
vn 0.4353 -0.1073 -0.8938
vn 0.4772 -0.1271 -0.8696
vn 0.4518 -0.1253 -0.8833
vn 0.6491 -0.1942 -0.7355
vn 0.6353 -0.1269 -0.7618
vn -0.9931 -0.0188 -0.1156
vn -0.9957 -0.0120 -0.0924
vn -0.1693 -0.1583 -0.9728
vn 0.1334 -0.1275 -0.9828
vn 0.2480 -0.1348 -0.9593
vn 0.6995 -0.1268 -0.7033
vn 0.6723 -0.1169 -0.7310
vn 0.6724 -0.1277 -0.7291
usemtl Shape.10856
s off
f 25//1 16//1 27//1
f 4//2 3//2 7//2
f 7//3 5//3 8//3
f 5//4 7//4 10//4
f 8//5 5//5 10//5
f 4//6 7//6 12//6
f 7//7 8//7 12//7
f 11//8 12//8 17//8
f 12//9 8//9 17//9
f 8//10 14//10 17//10
f 16//11 11//11 17//11
f 1//12 16//12 17//12
f 4//13 12//13 18//13
f 6//14 10//14 19//14
f 10//15 13//15 19//15
f 3//16 2//16 20//16
f 9//17 13//17 20//17
f 13//18 10//18 20//18
f 2//19 15//19 20//19
f 15//20 18//20 20//20
f 7//21 3//21 21//21
f 10//22 7//22 21//22
f 3//23 20//23 21//23
f 20//24 10//24 21//24
f 10//25 6//25 22//25
f 8//26 10//26 22//26
f 14//27 8//27 22//27
f 6//28 19//28 22//28
f 19//29 14//29 22//29
f 13//30 1//30 23//30
f 17//31 14//31 23//31
f 1//32 17//32 23//32
f 19//33 13//33 23//33
f 14//34 19//34 23//34
f 12//35 11//35 24//35
f 11//36 16//36 24//36
f 16//37 9//37 24//37
f 18//38 12//38 24//38
f 9//39 20//39 24//39
f 20//40 18//40 24//40
f 13//41 9//41 25//41
f 9//42 16//42 25//42
f 2//43 3//43 26//43
f 3//44 4//44 26//44
f 15//45 2//45 26//45
f 4//46 18//46 26//46
f 18//47 15//47 26//47
f 1//48 13//48 27//48
f 16//49 1//49 27//49
f 13//50 25//50 27//50
