# Blender v2.79 (sub 0) OBJ File: ''
# www.blender.org
mtllib 102367_link_1_31.mtl
o Shape_IndexedFaceSet.031_Shape_IndexedFaceSet.10856
v -0.269534 -0.541120 0.624778
v -0.174445 0.381167 0.767396
v -0.193476 0.381167 0.767396
v -0.374106 0.381167 0.482188
v -0.393137 0.381167 0.691341
v -0.178968 -0.602921 0.575144
v -0.386460 -0.602523 0.468461
v -0.183104 0.342769 0.589412
v -0.393137 -0.588682 0.548780
v -0.174445 -0.588682 0.643820
v -0.393070 0.380872 0.482272
v -0.269534 0.352592 0.748382
v -0.172821 -0.595887 0.586285
v -0.383611 -0.531627 0.567794
v -0.307531 0.324112 0.729368
v -0.222011 -0.531627 0.643791
v -0.183971 0.133863 0.738861
vn -0.1575 -0.1308 0.9788
vn 0.0000 1.0000 0.0000
vn 0.4573 0.0067 -0.8893
vn 0.3070 0.9271 -0.2149
vn 0.4918 0.0153 -0.8706
vn -0.0853 -0.9830 0.1623
vn -0.3662 -0.3948 0.8426
vn -0.0903 -0.9740 0.2079
vn -0.0156 0.9999 -0.0014
vn -0.0046 0.0140 -0.9999
vn -1.0000 0.0000 -0.0003
vn -0.9966 -0.0055 -0.0819
vn -0.3385 0.3097 0.8886
vn 0.9986 0.0111 -0.0510
vn 0.8725 0.0112 -0.4885
vn 0.9996 -0.0037 0.0287
vn 0.6534 -0.7487 0.1122
vn -0.4507 -0.2136 0.8667
vn -0.7411 -0.0976 0.6643
vn -0.3658 -0.1275 0.9219
vn -0.4256 -0.0359 0.9042
vn -0.4517 -0.1266 0.8831
vn -0.4703 -0.1232 0.8739
vn -0.3133 -0.2607 0.9132
vn -0.3461 -0.1285 0.9293
vn -0.2146 -0.1261 0.9685
vn 0.0000 -0.1146 0.9934
vn 0.2960 -0.1207 0.9475
vn -0.1982 -0.1199 0.9728
usemtl Shape.10859
s off
f 16//1 10//1 17//1
f 3//2 2//2 4//2
f 3//2 4//2 5//2
f 4//3 6//3 7//3
f 4//4 2//4 8//4
f 6//5 4//5 8//5
f 7//6 6//6 9//6
f 1//7 9//7 10//7
f 9//8 6//8 10//8
f 5//9 4//9 11//9
f 4//10 7//10 11//10
f 9//11 5//11 11//11
f 7//12 9//12 11//12
f 3//13 5//13 12//13
f 8//14 2//14 13//14
f 6//15 8//15 13//15
f 2//16 10//16 13//16
f 10//17 6//17 13//17
f 9//18 1//18 14//18
f 5//19 9//19 14//19
f 1//20 12//20 15//20
f 12//21 5//21 15//21
f 14//22 1//22 15//22
f 5//23 14//23 15//23
f 1//24 10//24 16//24
f 12//25 1//25 16//25
f 12//26 16//26 17//26
f 2//27 3//27 17//27
f 10//28 2//28 17//28
f 3//29 12//29 17//29
