# Blender v2.79 (sub 0) OBJ File: ''
# www.blender.org
mtllib 102367_link_1_12.mtl
o Shape_IndexedFaceSet.012_Shape_IndexedFaceSet.10837
v 0.481603 0.523785 -0.421135
v 0.207961 0.376919 -0.607351
v 0.215396 0.381167 -0.592237
v 0.483552 0.380054 -0.410315
v 0.481603 0.381167 -0.601775
v 0.478710 0.537374 -0.607120
v 0.215396 0.514269 -0.592237
v 0.494451 0.457234 -0.392484
v 0.234444 0.523785 -0.601775
v 0.472092 0.514269 -0.402119
v 0.462581 0.381167 -0.411637
vn -0.4603 -0.0306 0.8872
vn 0.0156 -0.9999 -0.0060
vn 0.0209 -0.0338 -0.9992
vn -0.8973 0.0000 0.4414
vn 0.9905 -0.1374 -0.0109
vn 0.9976 0.0162 -0.0671
vn 0.9820 0.1889 -0.0015
vn -0.0242 0.0423 -0.9988
vn -0.0538 0.9958 0.0736
vn -0.4923 0.1215 -0.8619
vn -0.2665 0.8941 0.3598
vn -0.5952 0.0000 0.8036
vn 0.7353 0.3827 0.5593
vn -0.2439 0.9106 0.3337
vn -0.2817 -0.8787 0.3855
vn -0.0589 -0.9934 0.0982
vn -0.0728 -0.2147 0.9740
vn -0.5899 -0.0156 0.8073
usemtl Shape.10840
s off
f 8//1 10//1 11//1
f 4//2 2//2 5//2
f 5//3 2//3 6//3
f 2//4 3//4 7//4
f 4//5 5//5 8//5
f 5//6 6//6 8//6
f 6//7 1//7 8//7
f 6//8 2//8 9//8
f 1//9 6//9 9//9
f 2//10 7//10 9//10
f 9//11 7//11 10//11
f 7//12 3//12 10//12
f 8//13 1//13 10//13
f 1//14 9//14 10//14
f 3//15 2//15 11//15
f 2//16 4//16 11//16
f 4//17 8//17 11//17
f 10//18 3//18 11//18
