# Blender v2.79 (sub 0) OBJ File: ''
# www.blender.org
mtllib 102367_link_0_15.mtl
o Shape_IndexedFaceSet.015_Shape_IndexedFaceSet.7920
v -0.863968 0.454046 0.000505
v -0.870671 0.422737 0.025101
v -0.867322 0.422737 0.025101
v -0.871790 0.442863 0.030694
v -0.882975 0.454046 0.003860
v -0.856143 0.435039 0.030694
v -0.866206 0.433920 0.006094
v -0.865087 0.454046 0.018391
v -0.878499 0.427214 0.030694
v -0.878499 0.439504 0.003860
vn -0.9472 -0.2915 -0.1335
vn 0.0000 -0.8619 -0.5071
vn 0.9097 -0.2019 -0.3629
vn 0.7702 -0.5684 -0.2892
vn 0.0000 1.0000 0.0000
vn -0.3974 0.7764 0.4892
vn 0.8891 0.4544 0.0556
vn 0.3074 0.6148 0.7263
vn 0.0000 -0.7807 0.6249
vn -0.8062 0.3456 0.4801
vn 0.1906 -0.5446 0.8168
vn 0.0000 0.0000 1.0000
vn -0.1736 -0.0534 -0.9834
vn -0.2671 -0.8018 -0.5345
vn 0.0508 -0.2725 -0.9608
vn -0.6329 -0.7039 -0.3224
usemtl Shape.7928
s off
f 9//1 5//1 10//1
f 3//2 2//2 7//2
f 1//3 6//3 7//3
f 6//4 3//4 7//4
f 1//5 5//5 8//5
f 5//6 4//6 8//6
f 6//7 1//7 8//7
f 4//8 6//8 8//8
f 2//9 3//9 9//9
f 4//10 5//10 9//10
f 3//11 6//11 9//11
f 6//12 4//12 9//12
f 5//13 1//13 10//13
f 7//14 2//14 10//14
f 1//15 7//15 10//15
f 2//16 9//16 10//16
