# Blender v2.79 (sub 0) OBJ File: ''
# www.blender.org
mtllib 102367_link_0_14.mtl
o Shape_IndexedFaceSet.014_Shape_IndexedFaceSet.7919
v 0.853573 0.437273 -0.059872
v 0.870346 0.458519 -0.024102
v 0.849100 0.458519 -0.024102
v 0.862517 0.458519 -0.075534
v 0.866990 0.437273 -0.044230
v 0.846864 0.458519 -0.067700
v 0.850220 0.441746 -0.035283
v 0.869227 0.448451 -0.067700
vn 0.9856 -0.1686 0.0136
vn 0.0000 1.0000 -0.0000
vn -0.4049 -0.4260 -0.8091
vn 0.0000 -0.5547 0.8321
vn -0.1779 -0.9721 0.1526
vn 0.1881 -0.6910 0.6980
vn -0.9436 -0.3237 -0.0698
vn -0.9936 -0.1003 0.0510
vn 0.8692 0.4764 -0.1323
vn 0.0301 -0.6013 -0.7985
vn 0.4174 -0.8352 -0.3580
usemtl Shape.7927
s off
f 2//1 5//1 8//1
f 3//2 2//2 4//2
f 3//2 4//2 6//2
f 4//3 1//3 6//3
f 2//4 3//4 7//4
f 1//5 5//5 7//5
f 5//6 2//6 7//6
f 6//7 1//7 7//7
f 3//8 6//8 7//8
f 4//9 2//9 8//9
f 1//10 4//10 8//10
f 5//11 1//11 8//11
