# Blender v2.79 (sub 0) OBJ File: ''
# www.blender.org
mtllib 102367_link_0_2.mtl
o Shape_IndexedFaceSet.002_Shape_IndexedFaceSet.7907
v -0.872910 0.467460 0.073204
v -0.852787 0.345594 0.226375
v -0.852787 0.346707 0.224124
v -0.837129 0.345594 0.262153
v -0.858374 0.451801 0.064240
v -0.858374 0.351185 0.252093
v -0.879616 0.451789 0.065376
v -0.860611 0.466334 0.067607
v -0.838252 0.345594 0.235300
v -0.866203 0.445085 0.065376
v -0.880738 0.466334 0.064240
v -0.859489 0.345594 0.238666
v -0.846076 0.357901 0.249842
v -0.841603 0.375773 0.200657
v -0.843839 0.351185 0.218526
v -0.851668 0.347820 0.264364
v -0.874024 0.441734 0.073204
v -0.867317 0.471937 0.065376
v -0.868436 0.390331 0.176035
vn -0.9661 -0.2543 -0.0436
vn 0.0000 -1.0000 0.0000
vn -0.0530 -0.1061 -0.9929
vn -0.6204 0.6336 0.4622
vn -0.0532 -0.0818 -0.9952
vn -0.6307 -0.6956 -0.3439
vn 0.9333 0.3446 0.1012
vn 0.9867 0.1594 -0.0325
vn 0.9972 0.0628 -0.0417
vn 0.9826 -0.0820 -0.1665
vn 0.1688 -0.8835 -0.4369
vn 0.2309 -0.8974 -0.3760
vn 0.7253 -0.5434 -0.4227
vn 0.5208 -0.6918 -0.5002
vn 0.0903 -0.8431 -0.5301
vn -0.5490 0.6797 0.4864
vn -0.1315 -0.9834 0.1252
vn -0.7951 -0.5336 0.2882
vn -0.1151 0.8362 0.5362
vn 0.2098 0.7635 0.6108
vn -0.1496 -0.8461 -0.5117
vn -0.3441 -0.6884 -0.6385
vn -0.6351 -0.6908 -0.3456
vn -0.7111 -0.6333 -0.3055
vn 0.4993 0.7619 0.4126
vn 0.4981 0.2677 -0.8247
vn -0.3914 0.8910 0.2299
vn 0.0513 0.0790 -0.9956
vn 0.0475 0.8521 0.5213
vn 0.4801 0.7698 0.4206
vn -0.9718 0.1309 0.1960
vn -0.9956 -0.0721 0.0606
vn -0.9932 -0.0525 0.1043
usemtl Shape.7915
s off
f 7//1 12//1 19//1
f 4//2 2//2 9//2
f 7//3 5//3 10//3
f 6//4 1//4 11//4
f 5//5 7//5 11//5
f 3//6 2//6 12//6
f 2//2 4//2 12//2
f 8//7 4//7 14//7
f 5//8 8//8 14//8
f 4//9 9//9 14//9
f 9//10 5//10 14//10
f 2//11 3//11 15//11
f 9//12 2//12 15//12
f 5//13 9//13 15//13
f 10//14 5//14 15//14
f 3//15 10//15 15//15
f 1//16 6//16 16//16
f 12//17 4//17 16//17
f 6//18 12//18 16//18
f 13//19 1//19 16//19
f 4//20 13//20 16//20
f 10//21 3//21 17//21
f 7//22 10//22 17//22
f 3//23 12//23 17//23
f 12//24 7//24 17//24
f 4//25 8//25 18//25
f 8//26 5//26 18//26
f 11//27 1//27 18//27
f 5//28 11//28 18//28
f 1//29 13//29 18//29
f 13//30 4//30 18//30
f 6//31 11//31 19//31
f 11//32 7//32 19//32
f 12//33 6//33 19//33
