# Blender v2.79 (sub 0) OBJ File: ''
# www.blender.org
mtllib 102367_link_0_6.mtl
o Shape_IndexedFaceSet.006_Shape_IndexedFaceSet.7911
v 0.002612 -0.026773 0.817895
v -0.199761 -0.012240 0.781003
v -0.199761 -0.014475 0.782122
v -0.199761 -0.003297 0.803360
v 0.031704 -0.014479 0.801127
v 0.031704 -0.031244 0.798894
v -0.189679 -0.018943 0.798890
v -0.196385 0.002298 0.786592
v 0.031704 -0.014479 0.814543
v 0.026108 -0.034600 0.810068
v 0.031704 -0.020066 0.796656
v 0.031704 -0.021182 0.820132
v -0.189679 -0.018943 0.787711
v -0.171802 0.001178 0.796656
v -0.196385 -0.001058 0.782122
v -0.197495 -0.010008 0.804479
v 0.031704 -0.033484 0.815661
vn 1.0000 -0.0000 0.0000
vn -1.0000 0.0000 0.0000
vn 0.0323 -0.4475 -0.8937
vn -0.9590 0.2632 -0.1053
vn 0.0596 -0.1960 -0.9788
vn -0.0062 0.6404 0.7680
vn -0.0132 -0.7925 -0.6097
vn -0.4052 -0.9142 0.0000
vn -0.0375 -0.9517 -0.3046
vn -0.0724 -0.9974 0.0000
vn -0.0799 0.9503 0.3010
vn 0.0782 0.9937 -0.0805
vn 0.0767 0.9971 0.0000
vn 0.0108 0.8102 0.5860
vn -0.9258 0.3022 -0.2269
vn 0.0966 0.7960 -0.5976
vn 0.0699 0.0784 -0.9945
vn 0.1013 0.6216 -0.7768
vn -0.9436 -0.2929 0.1542
vn -0.6668 -0.7149 0.2104
vn -0.1031 -0.5908 0.8002
vn -0.0698 -0.0356 0.9969
vn -0.0604 0.1443 0.9877
vn -0.0997 -0.6755 0.7306
vn 0.3134 -0.9413 -0.1257
vn -0.0837 -0.9578 0.2749
vn -0.0066 -0.3416 0.9398
usemtl Shape.7919
s off
f 6//1 12//1 17//1
f 2//2 3//2 4//2
f 3//3 2//3 6//3
f 2//4 4//4 8//4
f 6//1 5//1 9//1
f 6//5 2//5 11//5
f 5//1 6//1 11//1
f 9//6 4//6 12//6
f 6//1 9//1 12//1
f 3//7 6//7 13//7
f 7//8 3//8 13//8
f 6//9 10//9 13//9
f 10//10 7//10 13//10
f 8//11 4//11 14//11
f 5//12 8//12 14//12
f 9//13 5//13 14//13
f 4//14 9//14 14//14
f 2//15 8//15 15//15
f 8//16 5//16 15//16
f 11//17 2//17 15//17
f 5//18 11//18 15//18
f 4//19 3//19 16//19
f 3//20 7//20 16//20
f 7//21 1//21 16//21
f 1//22 12//22 16//22
f 12//23 4//23 16//23
f 1//24 7//24 17//24
f 10//25 6//25 17//25
f 7//26 10//26 17//26
f 12//27 1//27 17//27
