# Blender v2.79 (sub 0) OBJ File: ''
# www.blender.org
mtllib 102367_link_1_27.mtl
o Shape_IndexedFaceSet.027_Shape_IndexedFaceSet.10852
v 0.053765 -0.303404 -0.725383
v 0.243921 0.381167 -0.763401
v 0.243921 -0.588682 -0.639808
v 0.053765 0.381167 -0.630314
v 0.069346 -0.602000 -0.617133
v 0.044246 0.381167 -0.810958
v 0.219019 -0.603456 -0.576910
v 0.044246 -0.588682 -0.687364
v 0.234403 0.381167 -0.582758
v 0.243921 0.228988 -0.753908
v 0.043660 -0.591531 -0.629924
v 0.244358 -0.590804 -0.582259
v 0.215365 -0.560107 -0.658839
v 0.082281 0.305030 -0.801442
v 0.046493 0.370256 -0.641092
v 0.234403 0.362086 -0.772917
v 0.072782 -0.569600 -0.687364
vn 0.1476 -0.1295 -0.9805
vn 0.0000 1.0000 -0.0000
vn -0.2594 0.0088 0.9657
vn 0.0446 -0.9785 -0.2015
vn -0.1709 -0.1246 -0.9774
vn 0.0499 -0.9765 -0.2096
vn -0.2546 0.0097 0.9670
vn -0.4441 0.0050 0.8959
vn -0.3555 -0.9333 -0.0499
vn -0.9999 -0.0013 -0.0103
vn 0.4403 -0.8971 -0.0364
vn 0.9986 0.0103 0.0526
vn 0.2053 0.0026 0.9787
vn 1.0000 -0.0002 -0.0036
vn 1.0000 -0.0011 -0.0076
vn 0.2139 -0.3844 -0.8981
vn 0.4626 -0.1225 -0.8781
vn 0.2255 -0.1246 -0.9662
vn -0.0000 -0.1240 -0.9923
vn -0.8512 0.5230 0.0449
vn -0.8331 0.0089 0.5531
vn -0.9999 0.0031 0.0134
vn 0.2173 0.3467 -0.9125
vn 0.7467 -0.0414 -0.6638
vn 0.2269 -0.1218 -0.9663
vn 0.1936 -0.0259 -0.9807
vn 0.0899 -0.1345 -0.9868
vn 0.2063 -0.3085 -0.9286
vn 0.2028 -0.1288 -0.9707
usemtl Shape.10855
s off
f 1//1 14//1 17//1
f 4//2 2//2 6//2
f 4//3 5//3 7//3
f 7//4 5//4 8//4
f 6//5 1//5 8//5
f 3//6 7//6 8//6
f 2//2 4//2 9//2
f 4//7 7//7 9//7
f 5//8 4//8 11//8
f 8//9 5//9 11//9
f 6//10 8//10 11//10
f 7//11 3//11 12//11
f 2//12 9//12 12//12
f 9//13 7//13 12//13
f 10//14 2//14 12//14
f 3//15 10//15 12//15
f 3//16 8//16 13//16
f 10//17 3//17 13//17
f 10//18 13//18 14//18
f 1//19 6//19 14//19
f 4//20 6//20 15//20
f 11//21 4//21 15//21
f 6//22 11//22 15//22
f 6//23 2//23 16//23
f 2//24 10//24 16//24
f 10//25 14//25 16//25
f 14//26 6//26 16//26
f 8//27 1//27 17//27
f 13//28 8//28 17//28
f 14//29 13//29 17//29
