# Blender v2.79 (sub 0) OBJ File: ''
# www.blender.org
mtllib 102367_link_1_18.mtl
o Shape_IndexedFaceSet.018_Shape_IndexedFaceSet.10843
v -0.083220 0.561729 0.821941
v -0.207995 0.385652 0.583761
v -0.030571 0.389408 0.615264
v -0.205333 0.388314 0.754695
v -0.032072 0.390910 0.779133
v -0.029283 0.511500 0.622614
v -0.212479 0.571334 0.748355
v -0.212479 0.495238 0.824470
v -0.022331 0.485744 0.843472
v -0.022331 0.571334 0.786440
v -0.212479 0.523774 0.586786
v -0.069886 0.485744 0.853000
v -0.186715 0.545585 0.823439
v -0.029099 0.546895 0.843184
vn -0.0963 0.6841 0.7230
vn 0.0128 -0.9998 0.0154
vn 0.0195 -0.9998 0.0093
vn -0.9968 -0.0775 0.0167
vn 0.9940 -0.1090 0.0101
vn 0.9992 -0.0082 -0.0394
vn -0.0395 0.9796 0.1973
vn 0.9994 -0.0188 -0.0282
vn 0.1742 0.0272 -0.9843
vn 0.1953 0.0569 -0.9791
vn -0.9995 -0.0324 -0.0039
vn -1.0000 0.0000 0.0000
vn 0.1298 0.9296 -0.3450
vn 0.0565 0.9578 -0.2819
vn -0.0985 -0.6357 0.7657
vn -0.1992 -0.5448 0.8145
vn 0.1620 -0.5654 0.8088
vn -0.1384 0.9213 0.3634
vn -0.8043 0.4202 0.4201
vn -0.1874 0.1159 0.9754
vn -0.1227 0.2366 0.9638
vn 0.0914 0.9106 0.4031
vn 0.9804 0.1093 0.1640
vn 0.1964 0.0264 0.9802
usemtl Shape.10846
s off
f 1//1 13//1 14//1
f 4//2 2//2 5//2
f 2//3 3//3 5//3
f 2//4 4//4 8//4
f 5//5 3//5 9//5
f 3//6 6//6 10//6
f 7//7 1//7 10//7
f 9//8 3//8 10//8
f 3//9 2//9 11//9
f 6//10 3//10 11//10
f 2//11 8//11 11//11
f 8//12 7//12 11//12
f 10//13 6//13 11//13
f 7//14 10//14 11//14
f 4//15 5//15 12//15
f 8//16 4//16 12//16
f 5//17 9//17 12//17
f 1//18 7//18 13//18
f 7//19 8//19 13//19
f 8//20 12//20 13//20
f 13//21 12//21 14//21
f 10//22 1//22 14//22
f 9//23 10//23 14//23
f 12//24 9//24 14//24
