# Blender v2.79 (sub 0) OBJ File: ''
# www.blender.org
mtllib 102367_link_0_10.mtl
o Shape_IndexedFaceSet.010_Shape_IndexedFaceSet.7915
v 0.418577 0.025774 0.719503
v 0.390635 0.020188 0.704974
v 0.390635 0.026894 0.704974
v 0.264297 -0.003287 0.782111
v 0.272127 -0.016710 0.765340
v 0.264297 0.003418 0.765340
v 0.427533 0.041431 0.704974
v 0.429768 0.020188 0.704974
v 0.274361 -0.014471 0.777641
v 0.264297 -0.009999 0.758627
v 0.444302 0.039197 0.707202
v 0.264297 0.002305 0.777641
v 0.405169 0.015716 0.706084
v 0.282192 -0.002174 0.777641
v 0.393996 0.033600 0.708327
v 0.443176 0.026894 0.707202
v 0.264297 0.001185 0.760862
vn -0.3749 0.8296 -0.4137
vn 0.0000 0.0000 -1.0000
vn -0.6684 -0.7009 0.2490
vn 0.2711 -0.9545 0.1245
vn -0.3909 0.0000 -0.9204
vn -0.7273 -0.6599 0.1886
vn -1.0000 0.0000 0.0000
vn 0.1335 0.0140 -0.9909
vn -0.1948 0.9769 0.0884
vn 0.0399 0.8396 0.5417
vn 0.1702 -0.9738 -0.1507
vn 0.0000 -0.2409 -0.9705
vn -0.1499 -0.6681 -0.7288
vn -0.1008 -0.7599 -0.6421
vn 0.4239 -0.2699 0.8646
vn 0.2485 -0.1583 0.9556
vn 0.3614 0.1507 0.9202
vn 0.1544 0.6169 0.7717
vn 0.1610 0.6433 0.7484
vn -0.2040 0.5177 -0.8309
vn -0.2276 0.9738 -0.0023
vn 0.4322 -0.3457 0.8329
vn 0.3647 -0.8531 0.3731
vn 0.4484 -0.0410 0.8929
vn 0.1715 -0.0157 -0.9851
vn -0.4281 0.1771 -0.8862
vn -0.4271 0.5664 -0.7048
usemtl Shape.7923
s off
f 6//1 15//1 17//1
f 2//2 3//2 7//2
f 2//2 7//2 8//2
f 4//3 5//3 9//3
f 5//4 8//4 9//4
f 3//5 2//5 10//5
f 5//6 4//6 10//6
f 4//7 6//7 10//7
f 8//8 7//8 11//8
f 6//7 4//7 12//7
f 7//9 6//9 12//9
f 11//10 7//10 12//10
f 8//11 5//11 13//11
f 2//12 8//12 13//12
f 10//13 2//13 13//13
f 5//14 10//14 13//14
f 9//15 1//15 14//15
f 4//16 9//16 14//16
f 1//17 11//17 14//17
f 12//18 4//18 14//18
f 11//19 12//19 14//19
f 7//20 3//20 15//20
f 6//21 7//21 15//21
f 1//22 9//22 16//22
f 9//23 8//23 16//23
f 11//24 1//24 16//24
f 8//25 11//25 16//25
f 3//26 10//26 17//26
f 10//7 6//7 17//7
f 15//27 3//27 17//27
