# SSTK version 0.8.0
# 11
mtllib original-11.mtl
o #ID91
v -0.590151 0.662441 -0.010776
v -0.661989 0.653327 -0.011947
v -0.589395 0.653327 -0.017854
v -0.662746 0.662441 -0.004869
v -0.662746 0.662441 -0.004869
v -0.590151 0.662441 -0.010776
v -0.661989 0.653327 -0.011947
v -0.589395 0.653327 -0.017854
v -0.660814 0.642714 -0.016453
v -0.588219 0.642714 -0.022360
v -0.660814 0.642714 -0.016453
v -0.588219 0.642714 -0.022360
v -0.663033 0.669434 0.004298
v -0.590438 0.669434 -0.001609
v -0.663033 0.669434 0.004298
v -0.590438 0.669434 -0.001609
v -0.659301 0.631325 -0.018081
v -0.586706 0.631325 -0.023988
v -0.659301 0.631325 -0.018081
v -0.586706 0.631325 -0.023988
v -0.662830 0.673830 0.014930
v -0.590235 0.673830 0.009023
v -0.662830 0.673830 0.014930
v -0.590235 0.673830 0.009023
v -0.657552 0.619936 -0.016718
v -0.584957 0.619936 -0.022626
v -0.657552 0.619936 -0.016718
v -0.584957 0.619936 -0.022626
v -0.662151 0.675329 0.026301
v -0.589556 0.675329 0.020394
v -0.662151 0.675329 0.026301
v -0.589556 0.675329 0.020394
v -0.583092 0.609323 -0.018367
v -0.655687 0.609323 -0.012460
v -0.655687 0.609323 -0.012460
v -0.583092 0.609323 -0.018367
v -0.661043 0.673830 0.037638
v -0.588448 0.673830 0.031731
v -0.661043 0.673830 0.037638
v -0.588448 0.673830 0.031731
v -0.581238 0.600209 -0.011501
v -0.653833 0.600209 -0.005594
v -0.653833 0.600209 -0.005594
v -0.581238 0.600209 -0.011501
v -0.659580 0.669434 0.048167
v -0.586985 0.669434 0.042260
v -0.659580 0.669434 0.048167
v -0.586985 0.669434 0.042260
v -0.652116 0.593216 0.003410
v -0.579521 0.593216 -0.002497
v -0.652116 0.593216 0.003410
v -0.579521 0.593216 -0.002497
v -0.657864 0.662441 0.057171
v -0.585269 0.662441 0.051264
v -0.657864 0.662441 0.057171
v -0.585269 0.662441 0.051264
v -0.650654 0.588820 0.013939
v -0.578059 0.588820 0.008032
v -0.650654 0.588820 0.013939
v -0.578059 0.588820 0.008032
v -0.583415 0.653327 0.058130
v -0.656009 0.653327 0.064037
v -0.656009 0.653327 0.064037
v -0.583415 0.653327 0.058130
v -0.649545 0.587320 0.025276
v -0.576950 0.587320 0.019368
v -0.649545 0.587320 0.025276
v -0.576950 0.587320 0.019368
v -0.581550 0.642714 0.062388
v -0.654144 0.642714 0.068295
v -0.654144 0.642714 0.068295
v -0.581550 0.642714 0.062388
v -0.648866 0.588820 0.036647
v -0.576272 0.588820 0.030740
v -0.648866 0.588820 0.036647
v -0.576272 0.588820 0.030740
v -0.652395 0.631325 0.069658
v -0.579801 0.631325 0.063751
v -0.652395 0.631325 0.069658
v -0.579801 0.631325 0.063751
v -0.648663 0.593216 0.047279
v -0.576069 0.593216 0.041372
v -0.648663 0.593216 0.047279
v -0.576069 0.593216 0.041372
v -0.650882 0.619936 0.068030
v -0.578287 0.619936 0.062123
v -0.650882 0.619936 0.068030
v -0.578287 0.619936 0.062123
v -0.648950 0.600209 0.056446
v -0.576355 0.600209 0.050539
v -0.648950 0.600209 0.056446
v -0.576355 0.600209 0.050539
v -0.649707 0.609323 0.063524
v -0.577112 0.609323 0.057617
v -0.649707 0.609323 0.063524
v -0.577112 0.609323 0.057617
vt 0.09143727 -4.233896
vt 0.1410785 -4.111341
vt 0.0820125 -4.217195
vt 0.1505033 -4.128043
vt 0.1314846 -4.094943
vt 0.07241857 -4.200797
vt 0.1574284 -4.148996
vt 0.07651733 -4.166765
vt 0.08085907 -4.190334
vt 0.1530867 -4.125428
vt 0.1218064 -4.078695
vt 0.06274043 -4.184549
vt 0.161382 -4.172775
vt 0.08481263 -4.214112
vt 0.1490368 -4.217562
vt 0.1032695 -4.089922
vt 0.1386331 -4.2319
vt 0.1136732 -4.075584
vt 0.1620946 -4.197758
vt 0.08634848 -4.142928
vt 0.08423218 -4.167591
vt 0.1642108 -4.173095
vt 0.1281715 -4.246006
vt 0.09280792 -4.104027
vt 0.1595176 -4.222242
vt 0.08165519 -4.192075
vt 0.1176019 -4.259677
vt 0.08223837 -4.117699
vt 0.1538266 -4.244559
vt 0.08707232 -4.15769
vt 0.08138139 -4.180007
vt 0.149331 -4.144263
vt 0.07026321 -4.133959
vt 0.1475987 -4.169132
vt 0.07199554 -4.109091
vt 0.1477605 -4.266542
vt 0.07531528 -4.20199
vt 0.06813039 -4.158646
vt 0.1454659 -4.193818
vt 0.06894049 -4.223698
vt 0.1413857 -4.28825
vt 0.0655534 -4.18313
vt 0.1428889 -4.218302
vt 0.06234453 -4.245209
vt 0.1347898 -4.309761
vt 0.1173848 -4.092625
vt 0.06298011 -4.211438
vt 0.1249768 -4.112515
vt 0.05538811 -4.191548
vt 0.1090969 -4.292382
vt 0.1461701 -4.153915
vt 0.134922 -4.142407
vt 0.120345 -4.30389
vt 0.07021954 -4.231891
vt 0.1322162 -4.132967
vt 0.09785157 -4.280857
vt 0.1236767 -4.130882
vt 0.07714468 -4.252845
vt 0.1391413 -4.153921
vt 0.08656945 -4.269546
vt 0.1123946 -4.119571
vt 0.07521337 -4.258665
vt 0.1010385 -4.10869
vt -1.606384 1.617393
vt -1.527075 1.617393
vt -1.604938 1.592376
vt -1.525628 1.592376
vt -1.604938 2.127056
vt -1.525628 2.127056
vt -1.603265 2.102038
vt -1.523955 2.102038
vt -1.606384 0.9733434
vt -1.607505 0.9983609
vt -1.527075 0.9733434
vt -1.528195 0.9983609
vt -1.603265 2.492615
vt -1.523955 2.492615
vt -1.601478 2.467597
vt -1.522168 2.467597
vt -1.607505 0.2871268
vt -1.608224 0.3121443
vt -1.528195 0.2871268
vt -1.528914 0.3121443
vt -1.601478 2.689159
vt -1.522168 2.689159
vt -1.5997 2.664141
vt -1.520391 2.664141
vt -1.608224 -0.4195095
vt -1.608491 -0.394492
vt -1.528914 -0.4195095
vt -1.529181 -0.394492
vt -1.598052 2.678276
vt -1.5997 2.703294
vt -1.518742 2.678276
vt -1.520391 2.703294
vt 1.608491 1.098409
vt 1.608289 1.073392
vt 1.529181 1.098409
vt 1.52898 1.073392
vt -1.596646 2.509039
vt -1.598052 2.534056
vt -1.517337 2.509039
vt -1.518742 2.534056
vt 1.608289 1.703307
vt 1.607632 1.678289
vt 1.52898 1.703307
vt 1.528322 1.678289
vt -1.596646 2.192979
vt -1.517337 2.192979
vt -1.595578 2.167962
vt -1.516269 2.167962
vt 1.607632 2.192979
vt 1.606564 2.167962
vt 1.528322 2.192979
vt 1.527254 2.167962
vt -1.595578 1.703307
vt -1.516269 1.703307
vt -1.594921 1.678289
vt -1.515611 1.678289
vt 1.605158 2.509039
vt 1.525848 2.509039
vt 1.606564 2.534056
vt 1.527254 2.534056
vt -1.594921 1.098409
vt -1.515611 1.098409
vt -1.59472 1.073392
vt -1.51541 1.073392
vt 1.60351 2.678276
vt 1.5242 2.678276
vt 1.605158 2.703294
vt 1.525848 2.703294
vt 1.59472 -0.4195095
vt 1.51541 -0.4195095
vt 1.594987 -0.394492
vt 1.515677 -0.394492
vt 1.60351 2.689159
vt 1.601732 2.664141
vt 1.5242 2.689159
vt 1.522423 2.664141
vt 1.594987 0.2871268
vt 1.515677 0.2871268
vt 1.595706 0.3121443
vt 1.516396 0.3121443
vt 1.601732 2.492615
vt 1.599946 2.467597
vt 1.522423 2.492615
vt 1.520636 2.467597
vt 1.595706 0.9733434
vt 1.516396 0.9733434
vt 1.596826 0.9983609
vt 1.517516 0.9983609
vt 1.599946 2.127056
vt 1.598272 2.102038
vt 1.520636 2.127056
vt 1.518963 2.102038
vt 1.598272 1.617393
vt 1.596826 1.592376
vt 1.518963 1.617393
vt 1.517516 1.592376
vn 0.057833835544148865 -0.7010722196979563 0.7107411555791833
vn 0.06980952641047004 -0.5090277995267517 0.8579145233246134
vn 0.07065282494015133 -0.4910206043218136 0.8682781492467821
vn 0.05685095392501822 -0.7131888020629913 0.6986627953811274
vn 0.07809192070517249 -0.26995811064659453 0.9597000939963996
vn 0.07857545056060553 -0.24770850478530834 0.9656429957423316
vn 0.04011442798501603 -0.8691146469400445 0.4929813010061502
vn 0.04097828981043019 -0.8629659664272546 0.5035975779851276
vn 0.08109739738391315 -0.011857910088078578 0.996635641599225
vn 0.08109735456027316 0.011863030464851525 0.9966355841487475
vn 0.020729330241197327 -0.9667846282558811 0.25475042185615504
vn 0.021246571633555946 -0.9650760738752661 0.26110678816783395
vn 0.07857313235515423 0.2478213119444996 0.9656142398587577
vn 0.07809423835967251 0.2698544950318954 0.9597290458489329
vn -0.000018085277998517158 -0.9999999751374954 -0.00022225645390879504
vn 0.00001765847752011912 -0.9999999762970565 0.00021701167044657833
vn 0.06981831171221442 0.5088430859177401 0.8580233780401135
vn 0.07064404348596645 0.491212073243979 0.8681705582541398
vn -0.020763027510036624 -0.9666747137399918 -0.25516444600359645
vn -0.021213625325469623 -0.9651861860051467 -0.26070214507247313
vn 0.05686885281129756 0.7129725016229752 0.6988820683845047
vn 0.057816318025589036 0.701292272932044 0.7105254543616094
vn -0.0401414465325421 -0.8689254601367813 -0.49331248615493
vn -0.04095185744423604 -0.8631565288847658 -0.5032730392296708
vn 0.04095185744423604 0.8631565288847658 0.5032730392296708
vn 0.0401414465325421 0.8689254601367813 0.49331248615493
vn -0.05686885281129756 -0.7129725016229752 -0.6988820683845047
vn -0.057816318025589036 -0.701292272932044 -0.7105254543616094
vn 0.021213625325469623 0.9651861860051467 0.26070214507247313
vn 0.020763027510036624 0.9666747137399918 0.25516444600359645
vn -0.07064404348596645 -0.491212073243979 -0.8681705582541398
vn -0.06981831171221442 -0.5088430859177401 -0.8580233780401135
vn -0.00001765847752011912 0.9999999762970565 -0.00021701167044657833
vn 0.000018085277998517158 0.9999999751374954 0.00022225645390879504
vn -0.07857313235515423 -0.2478213119444996 -0.9656142398587577
vn -0.07809423835967251 -0.2698544950318954 -0.9597290458489329
vn -0.021246571633555946 0.9650760738752661 -0.26110678816783395
vn -0.020729330241197327 0.9667846282558811 -0.25475042185615504
vn -0.08109735456027316 -0.011863030464851525 -0.9966355841487475
vn -0.08109739738391315 0.011857910088078578 -0.996635641599225
vn -0.04097828981043019 0.8629659664272546 -0.5035975779851276
vn -0.04011442798501603 0.8691146469400445 -0.4929813010061502
vn -0.07857545056060553 0.24770850478530834 -0.9656429957423316
vn -0.07809192070517249 0.26995811064659453 -0.9597000939963996
vn -0.057833835544148865 0.7010722196979563 -0.7107411555791833
vn -0.05685095392501822 0.7131888020629913 -0.6986627953811274
vn -0.07065282494015133 0.4910206043218136 -0.8682781492467821
vn -0.06980952641047004 0.5090277995267517 -0.8579145233246134
usemtl material_0_0
f 1/1/1 2/2/2 3/3/3
f 2/2/2 1/1/1 4/4/4
f 3/3/3 9/5/5 10/6/6
f 9/5/5 3/3/3 2/2/2
f 13/7/7 1/8/1 14/9/8
f 1/8/1 13/7/7 4/10/4
f 10/6/6 17/11/9 18/12/10
f 17/11/9 10/6/6 9/5/5
f 21/13/11 14/9/8 22/14/12
f 14/9/8 21/13/11 13/7/7
f 18/15/10 25/16/13 26/17/14
f 25/16/13 18/15/10 17/18/9
f 29/19/15 22/20/12 30/21/16
f 22/20/12 29/19/15 21/22/11
f 25/16/13 33/23/17 26/17/14
f 33/23/17 25/16/13 34/24/18
f 37/25/19 30/21/16 38/26/20
f 30/21/16 37/25/19 29/19/15
f 34/24/18 41/27/21 33/23/17
f 41/27/21 34/24/18 42/28/22
f 45/29/23 38/30/20 46/31/24
f 38/30/20 45/29/23 37/25/19
f 41/32/21 49/33/25 50/34/26
f 49/33/25 41/32/21 42/35/22
f 53/36/27 46/31/24 54/37/28
f 46/31/24 53/36/27 45/29/23
f 50/34/26 57/38/29 58/39/30
f 57/38/29 50/34/26 49/33/25
f 61/40/31 53/36/27 54/37/28
f 53/36/27 61/40/31 62/41/32
f 58/39/30 65/42/33 66/43/34
f 65/42/33 58/39/30 57/38/29
f 69/44/35 62/41/32 61/40/31
f 62/41/32 69/44/35 70/45/36
f 66/46/34 73/47/37 74/48/38
f 73/47/37 66/46/34 65/49/33
f 77/50/39 69/51/35 78/52/40
f 69/51/35 77/50/39 70/53/36
f 74/48/38 81/54/41 82/55/42
f 81/54/41 74/48/38 73/47/37
f 85/56/43 78/52/40 86/57/44
f 78/52/40 85/56/43 77/50/39
f 82/55/42 89/58/45 90/59/46
f 89/58/45 82/55/42 81/54/41
f 93/60/47 86/57/44 94/61/48
f 86/57/44 93/60/47 85/56/43
f 89/62/45 94/61/48 90/63/46
f 94/61/48 89/62/45 93/60/47
usemtl material_1_0
f 5/64/46 6/65/45 7/66/48
f 8/67/47 7/66/48 6/65/45
f 7/68/48 8/69/47 11/70/44
f 12/71/43 11/70/44 8/69/47
f 5/72/46 15/73/42 6/74/45
f 16/75/41 6/74/45 15/73/42
f 11/76/44 12/77/43 19/78/40
f 20/79/39 19/78/40 12/77/43
f 15/80/42 23/81/38 16/82/41
f 24/83/37 16/82/41 23/81/38
f 19/84/40 20/85/39 27/86/35
f 28/87/36 27/86/35 20/85/39
f 23/88/38 31/89/34 24/90/37
f 32/91/33 24/90/37 31/89/34
f 35/92/31 27/93/35 36/94/32
f 28/95/36 36/94/32 27/93/35
f 31/96/34 39/97/30 32/98/33
f 40/99/29 32/98/33 39/97/30
f 43/100/28 35/101/31 44/102/27
f 36/103/32 44/102/27 35/101/31
f 39/104/30 47/105/26 40/106/29
f 48/107/25 40/106/29 47/105/26
f 43/108/28 44/109/27 51/110/24
f 52/111/23 51/110/24 44/109/27
f 47/112/26 55/113/21 48/114/25
f 56/115/22 48/114/25 55/113/21
f 51/116/24 52/117/23 59/118/20
f 60/119/19 59/118/20 52/117/23
f 63/120/17 64/121/18 55/122/21
f 56/123/22 55/122/21 64/121/18
f 59/124/20 60/125/19 67/126/16
f 68/127/15 67/126/16 60/125/19
f 71/128/14 72/129/13 63/130/17
f 64/131/18 63/130/17 72/129/13
f 67/132/16 68/133/15 75/134/12
f 76/135/11 75/134/12 68/133/15
f 71/136/14 79/137/10 72/138/13
f 80/139/9 72/138/13 79/137/10
f 75/140/12 76/141/11 83/142/8
f 84/143/7 83/142/8 76/141/11
f 79/144/10 87/145/6 80/146/9
f 88/147/5 80/146/9 87/145/6
f 83/148/8 84/149/7 91/150/1
f 92/151/4 91/150/1 84/149/7
f 87/152/6 95/153/3 88/154/5
f 96/155/2 88/154/5 95/153/3
f 95/156/3 91/157/1 96/158/2
f 92/159/4 96/158/2 91/157/1
