# SSTK version 0.8.0
# 9
mtllib original-9.mtl
o #ID75
v 0.014613 0.216275 -0.624550
v -0.144025 0.306197 -0.625026
v 0.015295 0.306197 -0.637565
v -0.141315 0.216275 -0.612278
v -0.141315 0.216275 -0.612278
v 0.014613 0.216275 -0.624550
v -0.144025 0.306197 -0.625026
v 0.015295 0.306197 -0.637565
v -0.294672 0.306197 -0.571680
v -0.288754 0.216275 -0.560067
v -0.288754 0.216275 -0.560067
v -0.294672 0.306197 -0.571680
v 0.392890 0.306197 0.428728
v 0.255479 0.306197 0.508051
v 0.261184 0.306197 0.519248
v 0.384482 0.306197 0.419390
v 0.496680 0.306197 0.307205
v 0.486141 0.306197 0.300362
v 0.565481 0.306197 0.162961
v 0.553531 0.306197 0.159077
v 0.594605 0.306197 0.005823
v 0.582056 0.306197 0.005166
v 0.582066 0.306197 -0.153497
v 0.569775 0.306197 -0.150885
v 0.528720 0.306197 -0.304144
v 0.517523 0.306197 -0.298439
v 0.438200 0.306197 -0.435850
v 0.428862 0.306197 -0.427442
v 0.309834 0.306197 -0.529102
v 0.316678 0.306197 -0.539640
v 0.168549 0.306197 -0.596491
v 0.172432 0.306197 -0.608442
v 0.014638 0.306197 -0.625016
v 0.015295 0.306197 -0.637565
v -0.141412 0.306197 -0.612735
v -0.144025 0.306197 -0.625026
v -0.288967 0.306197 -0.560483
v -0.294672 0.306197 -0.571680
v 0.110537 0.306197 0.572594
v 0.107924 0.306197 0.560303
v -0.048783 0.306197 0.585133
v -0.048126 0.306197 0.572584
v -0.205921 0.306197 0.556010
v -0.202037 0.306197 0.544058
v -0.350166 0.306197 0.487208
v -0.343322 0.306197 0.476669
v -0.471689 0.306197 0.383418
v -0.462350 0.306197 0.375009
v -0.562208 0.306197 0.251712
v -0.551011 0.306197 0.246007
v -0.603263 0.306197 0.098452
v -0.615554 0.306197 0.101065
v -0.615544 0.306197 -0.057598
v -0.628093 0.306197 -0.058256
v -0.587019 0.306197 -0.211510
v -0.598970 0.306197 -0.215393
v -0.519630 0.306197 -0.352794
v -0.530168 0.306197 -0.359638
v -0.417970 0.306197 -0.471822
v -0.426378 0.306197 -0.481160
v -0.294672 0.306197 -0.571680
v -0.288967 0.306197 -0.560483
v -0.426378 0.306197 -0.481160
v -0.417970 0.306197 -0.471822
v -0.530168 0.306197 -0.359638
v -0.519630 0.306197 -0.352794
v -0.598970 0.306197 -0.215393
v -0.587019 0.306197 -0.211510
v -0.628093 0.306197 -0.058256
v -0.615544 0.306197 -0.057598
v -0.615554 0.306197 0.101065
v -0.603263 0.306197 0.098452
v -0.562208 0.306197 0.251712
v -0.551011 0.306197 0.246007
v -0.462350 0.306197 0.375009
v -0.471689 0.306197 0.383418
v -0.343322 0.306197 0.476669
v -0.350166 0.306197 0.487208
v -0.202037 0.306197 0.544058
v -0.205921 0.306197 0.556010
v -0.048126 0.306197 0.572584
v -0.048783 0.306197 0.585133
v 0.107924 0.306197 0.560303
v 0.110537 0.306197 0.572594
v 0.255479 0.306197 0.508051
v 0.261184 0.306197 0.519248
v -0.144025 0.306197 -0.625026
v -0.141412 0.306197 -0.612735
v 0.015295 0.306197 -0.637565
v 0.014638 0.306197 -0.625016
v 0.172432 0.306197 -0.608442
v 0.168549 0.306197 -0.596491
v 0.316678 0.306197 -0.539640
v 0.309834 0.306197 -0.529102
v 0.438200 0.306197 -0.435850
v 0.428862 0.306197 -0.427442
v 0.517523 0.306197 -0.298439
v 0.528720 0.306197 -0.304144
v 0.569775 0.306197 -0.150885
v 0.582066 0.306197 -0.153497
v 0.582056 0.306197 0.005166
v 0.594605 0.306197 0.005823
v 0.553531 0.306197 0.159077
v 0.565481 0.306197 0.162961
v 0.486141 0.306197 0.300362
v 0.496680 0.306197 0.307205
v 0.384482 0.306197 0.419390
v 0.392890 0.306197 0.428728
v 0.168405 0.216275 -0.596046
v 0.172432 0.306197 -0.608442
v 0.168405 0.216275 -0.596046
v 0.172432 0.306197 -0.608442
v 0.107827 0.216275 0.559846
v 0.249562 0.216275 0.496438
v 0.255266 0.216275 0.507634
v 0.105215 0.216275 0.547554
v -0.048101 0.216275 0.572117
v -0.047444 0.216275 0.559569
v -0.201893 0.216275 0.543614
v -0.198010 0.216275 0.531663
v -0.343067 0.216275 0.476277
v -0.336223 0.216275 0.465738
v -0.462003 0.216275 0.374696
v -0.452664 0.216275 0.366288
v -0.550595 0.216275 0.245794
v -0.539398 0.216275 0.240089
v -0.602806 0.216275 0.098355
v -0.590514 0.216275 0.095742
v -0.602529 0.216275 -0.056916
v -0.615077 0.216275 -0.057573
v -0.574623 0.216275 -0.207482
v -0.586574 0.216275 -0.211365
v -0.508699 0.216275 -0.345695
v -0.519237 0.216275 -0.352539
v -0.409248 0.216275 -0.462136
v -0.417657 0.216275 -0.471475
v -0.283050 0.216275 -0.548870
v -0.288754 0.216275 -0.560067
v 0.384169 0.216275 0.419043
v 0.375760 0.216275 0.409704
v 0.485749 0.216275 0.300107
v 0.475210 0.216275 0.293263
v 0.553086 0.216275 0.158933
v 0.541135 0.216275 0.155050
v 0.581589 0.216275 0.005141
v 0.569041 0.216275 0.004484
v 0.569317 0.216275 -0.150787
v 0.557026 0.216275 -0.148175
v 0.517107 0.216275 -0.298227
v 0.505910 0.216275 -0.292522
v 0.419176 0.216275 -0.418720
v 0.428515 0.216275 -0.427129
v 0.302735 0.216275 -0.518171
v 0.309579 0.216275 -0.528709
v 0.164522 0.216275 -0.584095
v 0.168405 0.216275 -0.596046
v 0.013956 0.216275 -0.612001
v 0.014613 0.216275 -0.624550
v -0.138703 0.216275 -0.599986
v -0.141315 0.216275 -0.612278
v -0.288754 0.216275 -0.560067
v -0.283050 0.216275 -0.548870
v -0.141315 0.216275 -0.612278
v -0.138703 0.216275 -0.599986
v 0.014613 0.216275 -0.624550
v 0.013956 0.216275 -0.612001
v 0.168405 0.216275 -0.596046
v 0.164522 0.216275 -0.584095
v 0.309579 0.216275 -0.528709
v 0.302735 0.216275 -0.518171
v 0.428515 0.216275 -0.427129
v 0.419176 0.216275 -0.418720
v 0.517107 0.216275 -0.298227
v 0.505910 0.216275 -0.292522
v 0.557026 0.216275 -0.148175
v 0.569317 0.216275 -0.150787
v 0.569041 0.216275 0.004484
v 0.581589 0.216275 0.005141
v 0.541135 0.216275 0.155050
v 0.553086 0.216275 0.158933
v 0.475210 0.216275 0.293263
v 0.485749 0.216275 0.300107
v 0.375760 0.216275 0.409704
v 0.384169 0.216275 0.419043
v 0.249562 0.216275 0.496438
v 0.255266 0.216275 0.507634
v -0.417657 0.216275 -0.471475
v -0.409248 0.216275 -0.462136
v -0.519237 0.216275 -0.352539
v -0.508699 0.216275 -0.345695
v -0.586574 0.216275 -0.211365
v -0.574623 0.216275 -0.207482
v -0.615077 0.216275 -0.057573
v -0.602529 0.216275 -0.056916
v -0.602806 0.216275 0.098355
v -0.590514 0.216275 0.095742
v -0.539398 0.216275 0.240089
v -0.550595 0.216275 0.245794
v -0.452664 0.216275 0.366288
v -0.462003 0.216275 0.374696
v -0.336223 0.216275 0.465738
v -0.343067 0.216275 0.476277
v -0.198010 0.216275 0.531663
v -0.201893 0.216275 0.543614
v -0.047444 0.216275 0.559569
v -0.048101 0.216275 0.572117
v 0.105215 0.216275 0.547554
v 0.107827 0.216275 0.559846
v -0.417657 0.216275 -0.471475
v -0.426378 0.306197 -0.481160
v -0.426378 0.306197 -0.481160
v -0.417657 0.216275 -0.471475
v -0.350166 0.306197 0.487208
v -0.462003 0.216275 0.374696
v -0.343067 0.216275 0.476277
v -0.471689 0.306197 0.383418
v -0.471689 0.306197 0.383418
v -0.350166 0.306197 0.487208
v -0.462003 0.216275 0.374696
v -0.343067 0.216275 0.476277
v -0.205921 0.306197 0.556010
v -0.201893 0.216275 0.543614
v -0.205921 0.306197 0.556010
v -0.201893 0.216275 0.543614
v -0.048783 0.306197 0.585133
v -0.048101 0.216275 0.572117
v -0.048783 0.306197 0.585133
v -0.048101 0.216275 0.572117
v 0.110537 0.306197 0.572594
v 0.107827 0.216275 0.559846
v 0.110537 0.306197 0.572594
v 0.107827 0.216275 0.559846
v 0.255266 0.216275 0.507634
v 0.261184 0.306197 0.519248
v 0.255266 0.216275 0.507634
v 0.261184 0.306197 0.519248
v 0.384169 0.216275 0.419043
v 0.392890 0.306197 0.428728
v 0.384169 0.216275 0.419043
v 0.392890 0.306197 0.428728
v 0.485749 0.216275 0.300107
v 0.496680 0.306197 0.307205
v 0.485749 0.216275 0.300107
v 0.496680 0.306197 0.307205
v 0.553086 0.216275 0.158933
v 0.565481 0.306197 0.162961
v 0.553086 0.216275 0.158933
v 0.565481 0.306197 0.162961
v 0.594605 0.306197 0.005823
v 0.581589 0.216275 0.005141
v 0.594605 0.306197 0.005823
v 0.581589 0.216275 0.005141
v 0.582066 0.306197 -0.153497
v 0.569317 0.216275 -0.150787
v 0.582066 0.306197 -0.153497
v 0.569317 0.216275 -0.150787
v 0.528720 0.306197 -0.304144
v 0.517107 0.216275 -0.298227
v 0.528720 0.306197 -0.304144
v 0.517107 0.216275 -0.298227
v 0.438200 0.306197 -0.435850
v 0.428515 0.216275 -0.427129
v 0.438200 0.306197 -0.435850
v 0.428515 0.216275 -0.427129
v 0.316678 0.306197 -0.539640
v 0.309579 0.216275 -0.528709
v 0.316678 0.306197 -0.539640
v 0.309579 0.216275 -0.528709
v -0.519237 0.216275 -0.352539
v -0.530168 0.306197 -0.359638
v -0.530168 0.306197 -0.359638
v -0.519237 0.216275 -0.352539
v -0.586574 0.216275 -0.211365
v -0.598970 0.306197 -0.215393
v -0.598970 0.306197 -0.215393
v -0.586574 0.216275 -0.211365
v -0.628093 0.306197 -0.058256
v -0.615077 0.216275 -0.057573
v -0.628093 0.306197 -0.058256
v -0.615077 0.216275 -0.057573
v -0.615554 0.306197 0.101065
v -0.602806 0.216275 0.098355
v -0.615554 0.306197 0.101065
v -0.602806 0.216275 0.098355
v -0.562208 0.306197 0.251712
v -0.550595 0.216275 0.245794
v -0.562208 0.306197 0.251712
v -0.550595 0.216275 0.245794
vt 6.144162 7.387138
vt 7.435424 8.129057
vt 6.130268 8.129057
vt 7.42153 7.387138
vt 5.18696 7.623251
vt 6.478222 8.36517
vt 5.173067 8.36517
vt 6.464329 7.623251
vt 0.3582644 3.898977
vt 0.2905312 5.192967
vt 0.1879074 5.192967
vt 0.4573914 3.925538
vt 0.8577258 2.69317
vt 0.9466006 2.744482
vt 1.652254 1.657721
vt 1.72482 1.730287
vt 2.687704 0.8631923
vt 2.739016 0.9520672
vt 3.89351 0.3637309
vt 3.920071 0.4628579
vt 5.1875 0.1933739
vt 5.1875 0.2959977
vt 6.48149 0.3637309
vt 6.454929 0.4628579
vt 7.635984 0.9520672
vt 7.687296 0.8631923
vt 8.65018 1.730287
vt 8.722746 1.657721
vt 9.428399 2.744482
vt 9.517274 2.69317
vt 9.917609 3.925538
vt 10.01674 3.898977
vt 10.08447 5.192967
vt 10.18709 5.192967
vt 0.3582644 6.486956
vt 0.4573914 6.460395
vt 0.8577258 7.692763
vt 0.9466006 7.641451
vt 1.652254 8.728212
vt 1.72482 8.655646
vt 2.687704 9.522741
vt 2.739016 9.433866
vt 3.89351 10.0222
vt 3.920071 9.923075
vt 5.1875 10.19256
vt 5.1875 10.08994
vt 6.454929 9.923075
vt 6.48149 10.0222
vt 7.635984 9.433866
vt 7.687296 9.522741
vt 8.65018 8.655646
vt 8.722746 8.728212
vt 9.428399 7.641451
vt 9.517274 7.692763
vt 9.917609 6.460395
vt 10.01674 6.486956
vt 6.639123 7.123831
vt 7.930385 7.86575
vt 6.625229 7.86575
vt 7.916492 7.123831
vt -0.4610801 6.459407
vt -0.3969738 5.192967
vt -0.29435 5.192967
vt -0.560207 6.432846
vt -0.9499078 7.639542
vt -1.038783 7.58823
vt -1.72752 8.652946
vt -1.800086 8.58038
vt -2.740925 9.430559
vt -2.792237 9.341684
vt -3.92106 9.919386
vt -3.947621 9.82026
vt -5.1875 10.08612
vt -5.1875 9.983493
vt -6.45394 9.919386
vt -6.427379 9.82026
vt -7.582763 9.341684
vt -7.634075 9.430559
vt -8.574914 8.58038
vt -8.64748 8.652946
vt -9.336217 7.58823
vt -9.425092 7.639542
vt -9.814793 6.432846
vt -9.91392 6.459407
vt -9.978026 5.192967
vt -10.08065 5.192967
vt -0.4610801 3.926526
vt -0.560207 3.953087
vt -0.9499078 2.746392
vt -1.038783 2.797703
vt -1.72752 1.732987
vt -1.800086 1.805553
vt -2.740925 0.9553743
vt -2.792237 1.044249
vt -3.92106 0.4665466
vt -3.947621 0.5656736
vt -5.1875 0.2998166
vt -5.1875 0.4024403
vt -6.427379 0.5656736
vt -6.45394 0.4665466
vt -7.582763 1.044249
vt -7.634075 0.9553743
vt -8.574914 1.805553
vt -8.64748 1.732987
vt -9.336217 2.797703
vt -9.425092 2.746392
vt -9.814793 3.953087
vt -9.91392 3.926526
vt 5.11012 7.816079
vt 3.818858 8.557998
vt 3.832751 7.816079
vt 5.124013 8.557998
vt -6.12731 8.130073
vt -7.418572 7.388154
vt -6.141203 7.388154
vt -7.432465 8.130073
vt -6.62422 7.86684
vt -7.915482 7.124921
vt -6.638114 7.124921
vt -7.929376 7.86684
vt -6.625229 7.594283
vt -7.916492 6.852364
vt -6.639123 6.852364
vt -7.930385 7.594283
vt -6.130268 7.330976
vt -7.42153 6.589057
vt -6.144162 6.589057
vt -7.435424 7.330976
vt -6.478222 7.094863
vt -5.18696 6.352944
vt -5.173067 7.094863
vt -6.464329 6.352944
vt -5.124013 6.902035
vt -3.832751 6.160116
vt -3.818858 6.902035
vt -5.11012 6.160116
vt -3.465083 6.765632
vt -2.173821 6.023713
vt -2.159927 6.765632
vt -3.451189 6.023713
vt -1.614485 6.694951
vt -0.3232232 5.953032
vt -0.3093297 6.694951
vt -1.600592 5.953032
vt 1.606821 6.694807
vt 0.3155585 5.952888
vt 1.592927 5.952888
vt 0.3016649 6.694807
vt 3.457941 6.765211
vt 2.166679 6.023293
vt 3.444047 6.023293
vt 2.152785 6.765211
vt 5.11788 6.901366
vt 3.826618 6.159447
vt 5.103986 6.159447
vt 3.812724 6.901366
vt 6.473516 7.093991
vt 5.182254 6.352072
vt 6.459623 6.352072
vt 5.168361 7.093991
vt 7.432465 7.32996
vt 6.141203 6.588041
vt 7.418572 6.588041
vt 6.12731 7.32996
vt 7.929376 7.593193
vt 6.638114 6.851274
vt 7.915482 6.851274
vt 6.62422 7.593193
vt 3.451189 7.952482
vt 2.159927 8.694401
vt 2.173821 7.952482
vt 3.465083 8.694401
vt 1.600592 8.023163
vt 0.3093297 8.765082
vt 0.3232232 8.023163
vt 1.614485 8.765082
vt -0.3016649 8.765226
vt -1.592927 8.023307
vt -0.3155585 8.023307
vt -1.606821 8.765226
vt -2.152785 8.694822
vt -3.444047 7.952903
vt -2.166679 7.952903
vt -3.457941 8.694822
vt -3.812724 8.558667
vt -5.103986 7.816749
vt -3.826618 7.816749
vt -5.11788 8.558667
vt -5.168361 8.366042
vt -6.459623 7.624123
vt -5.182254 7.624123
vt -6.473516 8.366042
vn 0.051794726758552935 -0.14344420281948428 -0.9883021132009632
vn -0.20576159029265587 -0.1434442035279416 -0.9680319872992171
vn 0.20576159029265587 0.1434442035279416 0.9680319872992171
vn -0.051794726758552935 0.14344420281948428 0.9883021132009632
vn -0.4492955144619806 -0.14344420091774185 -0.8817920967594429
vn -0.44929551446198057 -0.14344420091774185 -0.8817920967594429
vn 0.44929551446198057 0.14344420091774185 0.8817920967594429
vn 0.4492955144619806 0.14344420091774185 0.8817920967594429
vn 0 1 0
vn 0 -1 0
vn 0.305821266490988 -0.14344419403122147 -0.9412210771973721
vn -0.305821266490988 0.14344419403122147 0.9412210771973721
vn -0.6622107005613379 -0.1434442035279415 -0.7354595492182397
vn 0.6622107005613379 0.1434442035279415 0.7354595492182397
vn -0.5390065927823509 -0.14344420281948386 0.8299973816914389
vn -0.7354595492182397 -0.14344420352794118 0.6622107005613381
vn 0.7354595492182397 0.14344420352794118 -0.6622107005613381
vn 0.5390065927823509 0.14344420281948386 -0.8299973816914389
vn -0.305821266490988 -0.143444194031221 0.9412210771973721
vn 0.305821266490988 0.143444194031221 -0.9412210771973721
vn -0.05179472675855292 -0.14344420281948383 0.9883021132009632
vn 0.05179472675855292 0.14344420281948383 -0.9883021132009632
vn 0.20576159029265587 -0.1434442035279412 0.9680319872992171
vn -0.20576159029265587 0.1434442035279412 -0.9680319872992171
vn 0.44929551446198035 -0.14344420091774154 0.8817920967594431
vn -0.44929551446198035 0.14344420091774154 -0.8817920967594431
vn 0.662210700561338 -0.14344420352794132 0.7354595492182399
vn -0.662210700561338 0.14344420352794132 -0.7354595492182399
vn 0.8299973816914389 -0.14344420281948408 0.5390065927823507
vn -0.8299973816914389 0.14344420281948408 -0.5390065927823507
vn 0.941221077197372 -0.1434441940312213 0.30582126649098795
vn -0.941221077197372 0.1434441940312213 -0.30582126649098795
vn 0.9883021132009634 -0.1434442028194842 0.05179472675855284
vn -0.9883021132009634 0.1434442028194842 -0.05179472675855284
vn 0.968031987299217 -0.14344420352794154 -0.205761590292656
vn -0.968031987299217 0.14344420352794154 0.205761590292656
vn 0.881792096759443 -0.14344420091774188 -0.44929551446198013
vn 0.881792096759443 -0.1434442009177419 -0.4492955144619805
vn -0.881792096759443 0.14344420091774188 0.44929551446198013
vn -0.881792096759443 0.1434442009177419 0.4492955144619805
vn 0.7354595492182397 -0.14344420352794163 -0.6622107005613381
vn -0.7354595492182397 0.14344420352794163 0.6622107005613381
vn 0.5390065927823507 -0.14344420281948433 -0.8299973816914388
vn -0.5390065927823507 0.14344420281948433 0.8299973816914388
vn -0.8299973816914389 -0.14344420281948414 -0.5390065927823507
vn 0.8299973816914389 0.14344420281948414 0.5390065927823507
vn -0.941221077197372 -0.14344419403122122 -0.30582126649098795
vn 0.941221077197372 0.14344419403122122 0.30582126649098795
vn -0.9883021132009634 -0.143444202819484 -0.0517947267585528
vn 0.9883021132009634 0.143444202819484 0.0517947267585528
vn -0.9680319872992171 -0.14344420352794124 0.20576159029265606
vn 0.9680319872992171 0.14344420352794124 -0.20576159029265606
vn -0.8817920967594431 -0.14344420091774152 0.44929551446198046
vn 0.8817920967594431 0.14344420091774152 -0.44929551446198046
usemtl material_0_0
f 1/1/1 2/2/2 3/3/1
f 2/2/2 1/1/1 4/4/2
f 5/4/3 6/1/4 7/2/3
f 8/3/4 7/2/3 6/1/4
f 4/5/2 9/6/5 2/7/2
f 9/6/5 4/5/2 10/8/6
f 11/8/7 5/5/3 12/6/8
f 7/7/3 12/6/8 5/5/3
f 13/9/9 14/10/9 15/11/9
f 14/10/9 13/9/9 16/12/9
f 16/12/9 13/9/9 17/13/9
f 16/12/9 17/13/9 18/14/9
f 18/14/9 17/13/9 19/15/9
f 18/14/9 19/15/9 20/16/9
f 20/16/9 19/15/9 21/17/9
f 20/16/9 21/17/9 22/18/9
f 22/18/9 21/17/9 23/19/9
f 22/18/9 23/19/9 24/20/9
f 24/20/9 23/19/9 25/21/9
f 24/20/9 25/21/9 26/22/9
f 26/22/9 25/21/9 27/23/9
f 26/22/9 27/23/9 28/24/9
f 28/24/9 27/23/9 29/25/9
f 29/25/9 27/23/9 30/26/9
f 29/25/9 30/26/9 31/27/9
f 31/27/9 30/26/9 32/28/9
f 31/27/9 32/28/9 33/29/9
f 33/29/9 32/28/9 34/30/9
f 33/29/9 34/30/9 35/31/9
f 35/31/9 34/30/9 36/32/9
f 35/31/9 36/32/9 37/33/9
f 37/33/9 36/32/9 38/34/9
f 14/10/9 39/35/9 15/11/9
f 39/35/9 14/10/9 40/36/9
f 39/35/9 40/36/9 41/37/9
f 41/37/9 40/36/9 42/38/9
f 41/37/9 42/38/9 43/39/9
f 43/39/9 42/38/9 44/40/9
f 43/39/9 44/40/9 45/41/9
f 45/41/9 44/40/9 46/42/9
f 45/41/9 46/42/9 47/43/9
f 47/43/9 46/42/9 48/44/9
f 47/43/9 48/44/9 49/45/9
f 49/45/9 48/44/9 50/46/9
f 49/45/9 50/46/9 51/47/9
f 49/45/9 51/47/9 52/48/9
f 52/48/9 51/47/9 53/49/9
f 52/48/9 53/49/9 54/50/9
f 54/50/9 53/49/9 55/51/9
f 54/50/9 55/51/9 56/52/9
f 56/52/9 55/51/9 57/53/9
f 56/52/9 57/53/9 58/54/9
f 58/54/9 57/53/9 59/55/9
f 58/54/9 59/55/9 60/56/9
f 60/56/9 59/55/9 37/33/9
f 60/56/9 37/33/9 38/34/9
f 61/34/10 62/33/10 63/56/10
f 62/33/10 64/55/10 63/56/10
f 63/56/10 64/55/10 65/54/10
f 64/55/10 66/53/10 65/54/10
f 65/54/10 66/53/10 67/52/10
f 66/53/10 68/51/10 67/52/10
f 67/52/10 68/51/10 69/50/10
f 68/51/10 70/49/10 69/50/10
f 69/50/10 70/49/10 71/48/10
f 70/49/10 72/47/10 71/48/10
f 71/48/10 72/47/10 73/45/10
f 72/47/10 74/46/10 73/45/10
f 74/46/10 75/44/10 73/45/10
f 73/45/10 75/44/10 76/43/10
f 75/44/10 77/42/10 76/43/10
f 76/43/10 77/42/10 78/41/10
f 77/42/10 79/40/10 78/41/10
f 78/41/10 79/40/10 80/39/10
f 79/40/10 81/38/10 80/39/10
f 80/39/10 81/38/10 82/37/10
f 81/38/10 83/36/10 82/37/10
f 82/37/10 83/36/10 84/35/10
f 83/36/10 85/10/10 84/35/10
f 86/11/10 84/35/10 85/10/10
f 61/34/10 87/32/10 62/33/10
f 62/33/10 87/32/10 88/31/10
f 87/32/10 89/30/10 88/31/10
f 88/31/10 89/30/10 90/29/10
f 89/30/10 91/28/10 90/29/10
f 90/29/10 91/28/10 92/27/10
f 91/28/10 93/26/10 92/27/10
f 92/27/10 93/26/10 94/25/10
f 93/26/10 95/23/10 94/25/10
f 94/25/10 95/23/10 96/24/10
f 96/24/10 95/23/10 97/22/10
f 95/23/10 98/21/10 97/22/10
f 97/22/10 98/21/10 99/20/10
f 98/21/10 100/19/10 99/20/10
f 99/20/10 100/19/10 101/18/10
f 100/19/10 102/17/10 101/18/10
f 101/18/10 102/17/10 103/16/10
f 102/17/10 104/15/10 103/16/10
f 103/16/10 104/15/10 105/14/10
f 104/15/10 106/13/10 105/14/10
f 105/14/10 106/13/10 107/12/10
f 106/13/10 108/9/10 107/12/10
f 107/12/10 108/9/10 85/10/10
f 86/11/10 85/10/10 108/9/10
f 109/57/11 3/58/1 110/59/11
f 3/58/1 109/57/11 1/60/1
f 6/60/4 111/57/12 8/58/4
f 112/59/12 8/58/4 111/57/12
f 113/61/10 114/62/10 115/63/10
f 114/62/10 113/61/10 116/64/10
f 116/64/10 113/61/10 117/65/10
f 116/64/10 117/65/10 118/66/10
f 118/66/10 117/65/10 119/67/10
f 118/66/10 119/67/10 120/68/10
f 120/68/10 119/67/10 121/69/10
f 120/68/10 121/69/10 122/70/10
f 122/70/10 121/69/10 123/71/10
f 122/70/10 123/71/10 124/72/10
f 124/72/10 123/71/10 125/73/10
f 124/72/10 125/73/10 126/74/10
f 126/74/10 125/73/10 127/75/10
f 126/74/10 127/75/10 128/76/10
f 128/76/10 127/75/10 129/77/10
f 129/77/10 127/75/10 130/78/10
f 129/77/10 130/78/10 131/79/10
f 131/79/10 130/78/10 132/80/10
f 131/79/10 132/80/10 133/81/10
f 133/81/10 132/80/10 134/82/10
f 133/81/10 134/82/10 135/83/10
f 135/83/10 134/82/10 136/84/10
f 135/83/10 136/84/10 137/85/10
f 137/85/10 136/84/10 138/86/10
f 114/62/10 139/87/10 115/63/10
f 139/87/10 114/62/10 140/88/10
f 139/87/10 140/88/10 141/89/10
f 141/89/10 140/88/10 142/90/10
f 141/89/10 142/90/10 143/91/10
f 143/91/10 142/90/10 144/92/10
f 143/91/10 144/92/10 145/93/10
f 145/93/10 144/92/10 146/94/10
f 145/93/10 146/94/10 147/95/10
f 147/95/10 146/94/10 148/96/10
f 147/95/10 148/96/10 149/97/10
f 149/97/10 148/96/10 150/98/10
f 149/97/10 150/98/10 151/99/10
f 149/97/10 151/99/10 152/100/10
f 152/100/10 151/99/10 153/101/10
f 152/100/10 153/101/10 154/102/10
f 154/102/10 153/101/10 155/103/10
f 154/102/10 155/103/10 156/104/10
f 156/104/10 155/103/10 157/105/10
f 156/104/10 157/105/10 158/106/10
f 158/106/10 157/105/10 159/107/10
f 158/106/10 159/107/10 160/108/10
f 160/108/10 159/107/10 137/85/10
f 160/108/10 137/85/10 138/86/10
f 161/86/9 162/85/9 163/108/9
f 162/85/9 164/107/9 163/108/9
f 163/108/9 164/107/9 165/106/9
f 164/107/9 166/105/9 165/106/9
f 165/106/9 166/105/9 167/104/9
f 166/105/9 168/103/9 167/104/9
f 167/104/9 168/103/9 169/102/9
f 168/103/9 170/101/9 169/102/9
f 169/102/9 170/101/9 171/100/9
f 170/101/9 172/99/9 171/100/9
f 171/100/9 172/99/9 173/97/9
f 172/99/9 174/98/9 173/97/9
f 174/98/9 175/96/9 173/97/9
f 173/97/9 175/96/9 176/95/9
f 175/96/9 177/94/9 176/95/9
f 176/95/9 177/94/9 178/93/9
f 177/94/9 179/92/9 178/93/9
f 178/93/9 179/92/9 180/91/9
f 179/92/9 181/90/9 180/91/9
f 180/91/9 181/90/9 182/89/9
f 181/90/9 183/88/9 182/89/9
f 182/89/9 183/88/9 184/87/9
f 183/88/9 185/62/9 184/87/9
f 186/63/9 184/87/9 185/62/9
f 161/86/9 187/84/9 162/85/9
f 162/85/9 187/84/9 188/83/9
f 187/84/9 189/82/9 188/83/9
f 188/83/9 189/82/9 190/81/9
f 189/82/9 191/80/9 190/81/9
f 190/81/9 191/80/9 192/79/9
f 191/80/9 193/78/9 192/79/9
f 192/79/9 193/78/9 194/77/9
f 193/78/9 195/75/9 194/77/9
f 194/77/9 195/75/9 196/76/9
f 196/76/9 195/75/9 197/74/9
f 195/75/9 198/73/9 197/74/9
f 197/74/9 198/73/9 199/72/9
f 198/73/9 200/71/9 199/72/9
f 199/72/9 200/71/9 201/70/9
f 200/71/9 202/69/9 201/70/9
f 201/70/9 202/69/9 203/68/9
f 202/69/9 204/67/9 203/68/9
f 203/68/9 204/67/9 205/66/9
f 204/67/9 206/65/9 205/66/9
f 205/66/9 206/65/9 207/64/9
f 206/65/9 208/61/9 207/64/9
f 207/64/9 208/61/9 185/62/9
f 186/63/9 185/62/9 208/61/9
f 209/109/13 9/110/5 10/111/6
f 9/110/5 209/109/13 210/112/13
f 211/112/14 212/109/14 12/110/8
f 11/111/7 12/110/8 212/109/14
f 213/113/15 214/114/16 215/115/15
f 214/114/16 213/113/15 216/116/16
f 217/116/17 218/113/18 219/114/17
f 220/115/18 219/114/17 218/113/18
f 221/117/19 215/118/15 222/119/19
f 215/118/15 221/117/19 213/120/15
f 218/120/18 223/117/20 220/118/18
f 224/119/20 220/118/18 223/117/20
f 225/121/21 222/122/19 226/123/21
f 222/122/19 225/121/21 221/124/19
f 223/124/20 227/121/22 224/122/20
f 228/123/22 224/122/20 227/121/22
f 229/125/23 226/126/21 230/127/23
f 226/126/21 229/125/23 225/128/21
f 227/128/22 231/125/24 228/126/22
f 232/127/24 228/126/22 231/125/24
f 229/129/23 233/130/25 234/131/25
f 233/130/25 229/129/23 230/132/23
f 232/132/24 231/129/24 235/130/26
f 236/131/26 235/130/26 231/129/24
f 234/133/25 237/134/27 238/135/27
f 237/134/27 234/133/25 233/136/25
f 235/136/26 236/133/26 239/134/28
f 240/135/28 239/134/28 236/133/26
f 238/137/27 241/138/29 242/139/29
f 241/138/29 238/137/27 237/140/27
f 239/140/28 240/137/28 243/138/30
f 244/139/30 243/138/30 240/137/28
f 242/141/29 245/142/31 246/143/31
f 245/142/31 242/141/29 241/144/29
f 243/144/30 244/141/30 247/142/32
f 248/143/32 247/142/32 244/141/30
f 249/145/33 245/146/31 250/147/33
f 245/146/31 249/145/33 246/148/31
f 248/148/32 251/145/34 247/146/32
f 252/147/34 247/146/32 251/145/34
f 253/149/35 250/150/33 254/151/35
f 250/150/33 253/149/35 249/152/33
f 251/152/34 255/149/36 252/150/34
f 256/151/36 252/150/34 255/149/36
f 257/153/37 254/154/35 258/155/38
f 254/154/35 257/153/37 253/156/35
f 255/156/36 259/153/39 256/154/36
f 260/155/40 256/154/36 259/153/39
f 261/157/41 258/158/38 262/159/41
f 258/158/38 261/157/41 257/160/37
f 259/160/39 263/157/42 260/158/40
f 264/159/42 260/158/40 263/157/42
f 265/161/43 262/162/41 266/163/43
f 262/162/41 265/161/43 261/164/41
f 263/164/42 267/161/44 264/162/42
f 268/163/44 264/162/42 267/161/44
f 110/165/11 266/166/43 109/167/11
f 266/166/43 110/165/11 265/168/43
f 267/168/44 112/165/12 268/166/44
f 111/167/12 268/166/44 112/165/12
f 269/169/45 210/170/13 209/171/13
f 210/170/13 269/169/45 270/172/45
f 271/172/46 272/169/46 211/170/14
f 212/171/14 211/170/14 272/169/46
f 273/173/47 270/174/45 269/175/45
f 270/174/45 273/173/47 274/176/47
f 275/176/48 276/173/48 271/174/46
f 272/175/46 271/174/46 276/173/48
f 277/177/49 273/178/47 278/179/49
f 273/178/47 277/177/49 274/180/47
f 275/180/48 279/177/50 276/178/48
f 280/179/50 276/178/48 279/177/50
f 281/181/51 278/182/49 282/183/51
f 278/182/49 281/181/51 277/184/49
f 279/184/50 283/181/52 280/182/50
f 284/183/52 280/182/50 283/181/52
f 285/185/53 282/186/51 286/187/53
f 282/186/51 285/185/53 281/188/51
f 283/188/52 287/185/54 284/186/52
f 288/187/54 284/186/52 287/185/54
f 216/189/16 286/190/53 214/191/16
f 286/190/53 216/189/16 285/192/53
f 287/192/54 217/189/17 288/190/54
f 219/191/17 288/190/54 217/189/17
