# SSTK version 0.8.0
# 6
mtllib original-6.mtl
o #ID51
v -0.115224 -0.562827 -0.489528
v -0.237385 -0.477688 -0.459248
v -0.117790 -0.477688 -0.501599
v -0.231783 -0.562827 -0.448253
v -0.231783 -0.562827 -0.448253
v -0.115224 -0.562827 -0.489528
v -0.237385 -0.477688 -0.459248
v -0.117790 -0.477688 -0.501599
v -0.333686 -0.562827 -0.378216
v -0.237385 -0.477688 -0.459248
v -0.231783 -0.562827 -0.448253
v -0.341944 -0.477688 -0.387387
v -0.341944 -0.477688 -0.387387
v -0.333686 -0.562827 -0.378216
v -0.237385 -0.477688 -0.459248
v -0.231783 -0.562827 -0.448253
v 0.008046 -0.562827 -0.499230
v -0.117790 -0.477688 -0.501599
v 0.008691 -0.477688 -0.511553
v -0.115224 -0.562827 -0.489528
v -0.115224 -0.562827 -0.489528
v 0.008046 -0.562827 -0.499230
v -0.117790 -0.477688 -0.501599
v 0.008691 -0.477688 -0.511553
v -0.198431 -0.562827 -0.382797
v -0.115224 -0.562827 -0.489528
v -0.099950 -0.562827 -0.417671
v -0.231783 -0.562827 -0.448253
v -0.231783 -0.562827 -0.448253
v -0.198431 -0.562827 -0.382797
v -0.115224 -0.562827 -0.489528
v -0.099950 -0.562827 -0.417671
v -0.413991 -0.562827 -0.284191
v -0.341944 -0.477688 -0.387387
v -0.333686 -0.562827 -0.378216
v -0.424341 -0.477688 -0.290913
v -0.424341 -0.477688 -0.290913
v -0.413991 -0.562827 -0.284191
v -0.341944 -0.477688 -0.387387
v -0.333686 -0.562827 -0.378216
v -0.333686 -0.562827 -0.378216
v -0.198431 -0.562827 -0.382797
v -0.284530 -0.562827 -0.323623
v -0.231783 -0.562827 -0.448253
v -0.231783 -0.562827 -0.448253
v -0.333686 -0.562827 -0.378216
v -0.198431 -0.562827 -0.382797
v -0.284530 -0.562827 -0.323623
v 0.129626 -0.562827 -0.476696
v 0.008691 -0.477688 -0.511553
v 0.133439 -0.477688 -0.488433
v 0.008046 -0.562827 -0.499230
v 0.008046 -0.562827 -0.499230
v 0.129626 -0.562827 -0.476696
v 0.008691 -0.477688 -0.511553
v 0.133439 -0.477688 -0.488433
v -0.099950 -0.562827 -0.417671
v 0.008046 -0.562827 -0.499230
v 0.004201 -0.562827 -0.425868
v -0.115224 -0.562827 -0.489528
v -0.115224 -0.562827 -0.489528
v -0.099950 -0.562827 -0.417671
v 0.008046 -0.562827 -0.499230
v 0.004201 -0.562827 -0.425868
v -0.467224 -0.562827 -0.172586
v -0.424341 -0.477688 -0.290913
v -0.413991 -0.562827 -0.284191
v -0.478961 -0.477688 -0.176399
v -0.478961 -0.477688 -0.176399
v -0.467224 -0.562827 -0.172586
v -0.424341 -0.477688 -0.290913
v -0.413991 -0.562827 -0.284191
v -0.413991 -0.562827 -0.284191
v -0.284530 -0.562827 -0.323623
v -0.352380 -0.562827 -0.244181
v -0.333686 -0.562827 -0.378216
v -0.333686 -0.562827 -0.378216
v -0.413991 -0.562827 -0.284191
v -0.284530 -0.562827 -0.323623
v -0.352380 -0.562827 -0.244181
v 0.133439 -0.477688 -0.488433
v 0.241231 -0.562827 -0.423463
v 0.129626 -0.562827 -0.476696
v 0.247952 -0.477688 -0.433813
v 0.247952 -0.477688 -0.433813
v 0.133439 -0.477688 -0.488433
v 0.241231 -0.562827 -0.423463
v 0.129626 -0.562827 -0.476696
v 0.004201 -0.562827 -0.425868
v 0.129626 -0.562827 -0.476696
v 0.106925 -0.562827 -0.406829
v 0.008046 -0.562827 -0.499230
v 0.008046 -0.562827 -0.499230
v 0.004201 -0.562827 -0.425868
v 0.129626 -0.562827 -0.476696
v 0.106925 -0.562827 -0.406829
v -0.502081 -0.477688 -0.051652
v -0.467224 -0.562827 -0.172586
v -0.489758 -0.562827 -0.051006
v -0.478961 -0.477688 -0.176399
v -0.478961 -0.477688 -0.176399
v -0.502081 -0.477688 -0.051652
v -0.467224 -0.562827 -0.172586
v -0.489758 -0.562827 -0.051006
v -0.467224 -0.562827 -0.172586
v -0.352380 -0.562827 -0.244181
v -0.397357 -0.562827 -0.149885
v -0.413991 -0.562827 -0.284191
v -0.413991 -0.562827 -0.284191
v -0.467224 -0.562827 -0.172586
v -0.352380 -0.562827 -0.244181
v -0.397357 -0.562827 -0.149885
v 0.106925 -0.562827 -0.406829
v 0.241231 -0.562827 -0.423463
v 0.201221 -0.562827 -0.361852
v 0.129626 -0.562827 -0.476696
v 0.129626 -0.562827 -0.476696
v 0.106925 -0.562827 -0.406829
v 0.241231 -0.562827 -0.423463
v 0.201221 -0.562827 -0.361852
v -0.492127 -0.477688 0.074830
v -0.489758 -0.562827 -0.051006
v -0.480056 -0.562827 0.072264
v -0.502081 -0.477688 -0.051652
v -0.502081 -0.477688 -0.051652
v -0.492127 -0.477688 0.074830
v -0.489758 -0.562827 -0.051006
v -0.480056 -0.562827 0.072264
v -0.489758 -0.562827 -0.051006
v -0.397357 -0.562827 -0.149885
v -0.416396 -0.562827 -0.047161
v -0.467224 -0.562827 -0.172586
v -0.467224 -0.562827 -0.172586
v -0.489758 -0.562827 -0.051006
v -0.397357 -0.562827 -0.149885
v -0.416396 -0.562827 -0.047161
v -0.449776 -0.477688 0.194425
v -0.480056 -0.562827 0.072264
v -0.438781 -0.562827 0.188822
v -0.492127 -0.477688 0.074830
v -0.492127 -0.477688 0.074830
v -0.449776 -0.477688 0.194425
v -0.480056 -0.562827 0.072264
v -0.438781 -0.562827 0.188822
v -0.480056 -0.562827 0.072264
v -0.416396 -0.562827 -0.047161
v -0.408199 -0.562827 0.056990
v -0.489758 -0.562827 -0.051006
v -0.489758 -0.562827 -0.051006
v -0.480056 -0.562827 0.072264
v -0.416396 -0.562827 -0.047161
v -0.408199 -0.562827 0.056990
v -0.377915 -0.477688 0.298984
v -0.438781 -0.562827 0.188822
v -0.368744 -0.562827 0.290726
v -0.449776 -0.477688 0.194425
v -0.449776 -0.477688 0.194425
v -0.377915 -0.477688 0.298984
v -0.438781 -0.562827 0.188822
v -0.368744 -0.562827 0.290726
v -0.438781 -0.562827 0.188822
v -0.408199 -0.562827 0.056990
v -0.373325 -0.562827 0.155471
v -0.480056 -0.562827 0.072264
v -0.480056 -0.562827 0.072264
v -0.438781 -0.562827 0.188822
v -0.408199 -0.562827 0.056990
v -0.373325 -0.562827 0.155471
v -0.281440 -0.477688 0.381381
v -0.368744 -0.562827 0.290726
v -0.274719 -0.562827 0.371031
v -0.377915 -0.477688 0.298984
v -0.377915 -0.477688 0.298984
v -0.281440 -0.477688 0.381381
v -0.368744 -0.562827 0.290726
v -0.274719 -0.562827 0.371031
v -0.438781 -0.562827 0.188822
v -0.314151 -0.562827 0.241570
v -0.368744 -0.562827 0.290726
v -0.373325 -0.562827 0.155471
v -0.373325 -0.562827 0.155471
v -0.438781 -0.562827 0.188822
v -0.314151 -0.562827 0.241570
v -0.368744 -0.562827 0.290726
v -0.166927 -0.477688 0.436001
v -0.274719 -0.562827 0.371031
v -0.163114 -0.562827 0.424264
v -0.281440 -0.477688 0.381381
v -0.281440 -0.477688 0.381381
v -0.166927 -0.477688 0.436001
v -0.274719 -0.562827 0.371031
v -0.163114 -0.562827 0.424264
v -0.368744 -0.562827 0.290726
v -0.234709 -0.562827 0.309420
v -0.274719 -0.562827 0.371031
v -0.314151 -0.562827 0.241570
v -0.314151 -0.562827 0.241570
v -0.368744 -0.562827 0.290726
v -0.234709 -0.562827 0.309420
v -0.274719 -0.562827 0.371031
v -0.042179 -0.477688 0.459121
v -0.163114 -0.562827 0.424264
v -0.041534 -0.562827 0.446798
v -0.166927 -0.477688 0.436001
v -0.166927 -0.477688 0.436001
v -0.042179 -0.477688 0.459121
v -0.163114 -0.562827 0.424264
v -0.041534 -0.562827 0.446798
v -0.274719 -0.562827 0.371031
v -0.140413 -0.562827 0.354397
v -0.163114 -0.562827 0.424264
v -0.234709 -0.562827 0.309420
v -0.234709 -0.562827 0.309420
v -0.274719 -0.562827 0.371031
v -0.140413 -0.562827 0.354397
v -0.163114 -0.562827 0.424264
v 0.084302 -0.477688 0.449167
v -0.041534 -0.562827 0.446798
v 0.081736 -0.562827 0.437096
v -0.042179 -0.477688 0.459121
v -0.042179 -0.477688 0.459121
v 0.084302 -0.477688 0.449167
v -0.041534 -0.562827 0.446798
v 0.081736 -0.562827 0.437096
v -0.163114 -0.562827 0.424264
v -0.037689 -0.562827 0.373435
v -0.041534 -0.562827 0.446798
v -0.140413 -0.562827 0.354397
v -0.140413 -0.562827 0.354397
v -0.163114 -0.562827 0.424264
v -0.037689 -0.562827 0.373435
v -0.041534 -0.562827 0.446798
v 0.084302 -0.477688 0.449167
v 0.198295 -0.562827 0.395821
v 0.203897 -0.477688 0.406816
v 0.081736 -0.562827 0.437096
v 0.081736 -0.562827 0.437096
v 0.084302 -0.477688 0.449167
v 0.198295 -0.562827 0.395821
v 0.203897 -0.477688 0.406816
v -0.041534 -0.562827 0.446798
v 0.066462 -0.562827 0.365239
v 0.081736 -0.562827 0.437096
v -0.037689 -0.562827 0.373435
v -0.037689 -0.562827 0.373435
v -0.041534 -0.562827 0.446798
v 0.066462 -0.562827 0.365239
v 0.081736 -0.562827 0.437096
v 0.203897 -0.477688 0.406816
v 0.300198 -0.562827 0.325784
v 0.308456 -0.477688 0.334955
v 0.198295 -0.562827 0.395821
v 0.198295 -0.562827 0.395821
v 0.203897 -0.477688 0.406816
v 0.300198 -0.562827 0.325784
v 0.308456 -0.477688 0.334955
v 0.081736 -0.562827 0.437096
v 0.164943 -0.562827 0.330365
v 0.198295 -0.562827 0.395821
v 0.066462 -0.562827 0.365239
v 0.066462 -0.562827 0.365239
v 0.081736 -0.562827 0.437096
v 0.164943 -0.562827 0.330365
v 0.198295 -0.562827 0.395821
v 0.308456 -0.477688 0.334955
v 0.380503 -0.562827 0.231759
v 0.390853 -0.477688 0.238480
v 0.300198 -0.562827 0.325784
v 0.300198 -0.562827 0.325784
v 0.308456 -0.477688 0.334955
v 0.380503 -0.562827 0.231759
v 0.390853 -0.477688 0.238480
v 0.164943 -0.562827 0.330365
v 0.300198 -0.562827 0.325784
v 0.198295 -0.562827 0.395821
v 0.251042 -0.562827 0.271191
v 0.251042 -0.562827 0.271191
v 0.164943 -0.562827 0.330365
v 0.300198 -0.562827 0.325784
v 0.198295 -0.562827 0.395821
v 0.390853 -0.477688 0.238480
v 0.433736 -0.562827 0.120154
v 0.445473 -0.477688 0.123967
v 0.380503 -0.562827 0.231759
v 0.380503 -0.562827 0.231759
v 0.390853 -0.477688 0.238480
v 0.433736 -0.562827 0.120154
v 0.445473 -0.477688 0.123967
v 0.251042 -0.562827 0.271191
v 0.380503 -0.562827 0.231759
v 0.300198 -0.562827 0.325784
v 0.318892 -0.562827 0.191748
v 0.318892 -0.562827 0.191748
v 0.251042 -0.562827 0.271191
v 0.380503 -0.562827 0.231759
v 0.300198 -0.562827 0.325784
v 0.468593 -0.477688 -0.000781
v 0.433736 -0.562827 0.120154
v 0.456270 -0.562827 -0.001427
v 0.445473 -0.477688 0.123967
v 0.445473 -0.477688 0.123967
v 0.468593 -0.477688 -0.000781
v 0.433736 -0.562827 0.120154
v 0.456270 -0.562827 -0.001427
v 0.318892 -0.562827 0.191748
v 0.433736 -0.562827 0.120154
v 0.380503 -0.562827 0.231759
v 0.363869 -0.562827 0.097452
v 0.363869 -0.562827 0.097452
v 0.318892 -0.562827 0.191748
v 0.433736 -0.562827 0.120154
v 0.380503 -0.562827 0.231759
v 0.363869 -0.562827 0.097452
v 0.456270 -0.562827 -0.001427
v 0.433736 -0.562827 0.120154
v 0.382908 -0.562827 -0.005271
v 0.382908 -0.562827 -0.005271
v 0.363869 -0.562827 0.097452
v 0.456270 -0.562827 -0.001427
v 0.433736 -0.562827 0.120154
vt -1.878023 -3.859443
vt -1.780136 -3.59265
vt -1.910561 -3.683754
vt -1.750909 -3.770652
vt -1.148383 -5.281796
vt -1.148337 -5.012509
vt -1.054723 -5.285368
vt -1.054676 -5.009065
vt -1.637169 -3.759228
vt -1.771442 -3.779195
vt -1.642364 -3.572163
vt -1.093269 -5.593816
vt -1.183276 -5.541883
vt -1.057468 -5.326952
vt -1.970587 -3.992127
vt -2.024753 -3.839268
vt -1.859295 -3.840562
vt -1.153332 -4.743407
vt -1.059801 -4.732952
vt -1.6351 -3.683573
vt -1.767367 -3.553622
vt -1.748153 -3.708926
vt -1.633562 -3.523615
vt -1.227689 -5.260859
vt -1.22765 -5.033337
vt -1.525826 -3.80707
vt -1.658108 -3.756852
vt -1.506636 -3.623689
vt -1.170418 -5.8718
vt -1.250637 -5.775047
vt -1.101302 -5.632562
vt -1.521401 -3.563086
vt -1.656069 -3.682766
vt -1.543588 -3.716797
vt -1.65453 -3.522808
vt -1.25717 -5.480608
vt -2.042827 -4.168205
vt -2.114928 -4.048592
vt -1.954941 -3.964196
vt -1.186105 -6.333545
vt -1.186059 -6.064258
vt -1.092444 -6.337116
vt -1.092397 -6.060814
vt -1.727794 -3.698852
vt -1.872371 -3.641794
vt -1.833714 -3.781861
vt -1.747008 -3.543547
vt -1.220997 -6.593632
vt -1.294892 -6.532357
vt -1.265411 -6.312608
vt -1.424468 -3.910917
vt -1.545744 -3.793936
vt -1.382201 -3.743718
vt -1.280912 -6.100378
vt -1.345877 -5.965397
vt -1.183191 -5.905069
vt -1.418171 -3.659271
vt -1.563738 -3.705164
vt -1.459493 -3.79626
vt -1.541551 -3.551452
vt -1.314084 -5.677609
vt -2.089819 -4.375677
vt -2.031329 -4.133126
vt -2.174943 -4.297462
vt -1.097523 -5.784701
vt -1.191054 -5.795156
vt -1.815353 -3.761591
vt -1.962387 -3.781317
vt -1.906921 -3.8966
vt -1.85401 -3.621525
vt -1.265372 -6.085086
vt -1.277539 -3.924069
vt -1.442008 -3.887921
vt -1.340003 -4.063693
vt -1.382221 -6.288232
vt -1.444614 -6.148481
vt -1.570792 -3.945879
vt -1.468326 -4.044716
vt -1.394553 -5.838437
vt -1.891808 -3.867517
vt -2.03128 -3.96268
vt -1.962785 -4.045324
vt -1.947274 -3.752233
vt -1.265701 -6.049274
vt -1.269921 -5.821909
vt -1.199782 -4.152453
vt -1.353969 -4.0324
vt -1.278187 -4.254984
vt -1.39933 -6.312491
vt -1.521497 -6.441504
vt -1.563679 -6.274218
vt -1.265551 -3.992143
vt -1.403088 -3.886321
vt -1.335584 -4.069457
vt -1.345447 -3.775389
vt -1.407455 -5.863276
vt -1.490878 -6.017966
vt -1.15423 -4.413304
vt -1.287627 -4.217529
vt -1.243231 -4.471757
vt -1.541163 -6.45608
vt -1.675862 -6.517458
vt -1.694958 -6.334038
vt -1.226562 -4.206146
vt -1.345719 -4.032735
vt -1.304214 -4.244574
vt -1.275686 -3.955421
vt -1.591477 -6.124201
vt -1.143987 -4.688846
vt -1.216192 -4.391102
vt -1.236331 -4.657359
vt -1.123323 -4.415651
vt -1.696744 -6.521358
vt -1.834797 -6.510919
vt -1.829505 -6.323864
vt -1.281033 -4.126436
vt -1.293825 -4.352515
vt -1.201052 -4.123522
vt -1.702395 -6.174743
vt -1.16975 -4.960302
vt -1.261441 -4.921923
vt -1.855471 -6.503877
vt -1.987469 -6.422332
vt -1.958152 -6.24439
vt -1.313187 -4.612987
vt -1.296172 -4.388024
vt -1.816075 -6.166147
vt -1.200577 -5.229638
vt -1.291485 -5.18442
vt -2.006528 -6.404828
vt -2.123476 -6.257735
vt -2.07213 -6.101032
vt -1.337412 -4.871826
vt -1.316197 -4.648295
vt -1.924769 -6.098999
vt -1.31994 -5.418496
vt -1.301866 -5.089559
vt -1.389752 -5.293568
vt -1.229764 -5.209172
vt -2.13962 -6.230961
vt -2.233547 -6.028344
vt -2.163672 -5.903559
vt -1.27359 -4.827905
vt -1.413061 -4.923069
vt -1.357595 -5.038353
vt -1.342085 -4.745261
vt -2.021069 -5.977875
vt -1.434132 -5.57401
vt -1.374105 -5.265637
vt -1.485398 -5.417202
vt -2.245677 -5.994126
vt -2.310183 -5.749792
vt -2.22654 -5.665429
vt -1.342483 -5.009269
vt -1.489517 -5.028994
vt -1.45086 -5.169061
vt -1.397949 -4.893985
vt -2.098414 -5.811029
vt -1.593784 -5.487112
vt -1.564557 -5.665114
vt -1.46667 -5.398321
vt -2.317471 -5.710461
vt -2.25645 -5.40287
vt -2.34816 -5.441061
vt -1.432499 -5.148791
vt -1.577075 -5.091734
vt -1.557861 -5.247038
vt -1.471156 -5.008724
vt -2.151532 -5.609832
vt -1.662614 -5.453516
vt -1.783468 -5.2275
vt -1.799211 -5.412189
vt -1.650339 -5.267777
vt -2.35011 -5.399298
vt -2.251363 -5.133775
vt -2.344891 -5.123193
vt -1.537503 -5.236963
vt -1.669769 -5.107012
vt -1.671308 -5.266971
vt -1.556717 -5.081659
vt -2.176803 -5.387995
vt -1.886699 -5.131315
vt -1.925806 -5.301562
vt -1.763318 -5.239133
vt -2.34137 -5.081843
vt -2.211626 -4.876483
vt -2.300597 -4.817847
vt -1.648801 -5.107819
vt -1.761282 -5.073788
vt -2.172505 -5.160636
vt -1.973965 -4.984972
vt -2.033771 -5.129174
vt -1.868741 -5.152982
vt -2.291845 -4.779729
vt -2.139947 -4.648527
vt -2.218299 -4.545834
vt -1.811715 -4.791127
vt -1.958738 -4.771101
vt -1.850443 -4.931115
vt -1.903214 -4.655931
vt -2.138931 -4.943248
vt -2.067154 -5.333695
vt -1.902685 -5.369843
vt -2.00469 -5.194071
vt -1.962491 -5.514046
vt -2.204912 -4.513546
vt -2.103603 -4.325691
vt -2.041211 -4.465442
vt -1.888116 -4.685045
vt -2.027539 -4.589596
vt -1.943641 -4.800215
vt -1.959002 -4.507092
vt -2.078369 -4.750647
vt -1.901781 -4.904265
vt -2.039319 -4.798443
vt -1.959423 -5.015196
vt -1.969286 -4.721129
vt -1.994946 -4.595958
vn -0.3304126821947808 -0.14224189660987446 -0.9330566447401126
vn 0.3304126821947808 0.14224189660987446 0.9330566447401126
vn -0.5606469805447128 -0.1422418966098744 -0.8157464103843315
vn 0.5606469805447128 0.1422418966098744 0.8157464103843315
vn -0.07766131487298249 -0.1422418932886616 -0.9867806057913058
vn 0.07766131487298249 0.1422418932886616 0.9867806057913058
vn 0 -1 0
vn 0 1 0
vn -0.7526741042487798 -0.1422418932886615 -0.6428444108701218
vn 0.7526741042487798 0.1422418932886615 0.6428444108701218
vn 0.1803825220022933 -0.1422418958884905 -0.9732571031388059
vn -0.1803825220022933 0.1422418958884905 0.9732571031388059
vn -0.893407722539688 -0.1422418958884903 -0.42613364612583166
vn 0.893407722539688 0.1422418958884903 0.42613364612583166
vn 0.4261336461258317 -0.14224189588849048 -0.893407722539688
vn -0.4261336461258317 0.14224189588849048 0.893407722539688
vn -0.9732571031388058 -0.1422418958884902 -0.18038252200229313
vn 0.9732571031388058 0.1422418958884902 0.18038252200229313
vn -0.9867806057913059 -0.1422418932886613 0.07766131487298264
vn 0.9867806057913059 0.1422418932886613 -0.07766131487298264
vn -0.9330566447401126 -0.14224189660987413 0.33041268219478104
vn 0.9330566447401126 0.14224189660987413 -0.33041268219478104
vn -0.8157464103843315 -0.1422418966098741 0.5606469805447131
vn 0.8157464103843315 0.1422418966098741 -0.5606469805447131
vn -0.6428444108701218 -0.14224189328866116 0.7526741042487799
vn 0.6428444108701218 0.14224189328866116 -0.7526741042487799
vn -0.4261336461258317 -0.14224189588849 0.893407722539688
vn 0.4261336461258317 0.14224189588849 -0.893407722539688
vn -0.1803825220022933 -0.14224189588849004 0.9732571031388059
vn 0.1803825220022933 0.14224189588849004 -0.9732571031388059
vn 0.07766131487298249 -0.1422418932886612 0.9867806057913058
vn -0.07766131487298249 0.1422418932886612 -0.9867806057913058
vn 0.3304126821947808 -0.14224189660987413 0.9330566447401126
vn -0.3304126821947808 0.14224189660987413 -0.9330566447401126
vn 0.5606469805447128 -0.14224189660987419 0.8157464103843315
vn -0.5606469805447128 0.14224189660987419 -0.8157464103843315
vn 0.7526741042487798 -0.14224189328866135 0.6428444108701218
vn -0.7526741042487798 0.14224189328866135 -0.6428444108701218
vn 0.893407722539688 -0.1422418958884903 0.42613364612583166
vn -0.893407722539688 0.1422418958884903 -0.42613364612583166
vn 0.9732571031388058 -0.14224189588849034 0.18038252200229313
vn -0.9732571031388058 0.14224189588849034 -0.18038252200229313
usemtl material_0_0
f 1/1/1 2/2/1 3/3/1
f 2/2/1 1/1/1 4/4/1
f 5/5/2 6/6/2 7/7/2
f 8/8/2 7/7/2 6/6/2
f 9/9/3 10/2/3 11/10/3
f 10/2/3 9/9/3 12/11/3
f 13/12/4 14/13/4 15/14/4
f 16/5/4 15/14/4 14/13/4
f 17/15/5 18/3/5 19/16/5
f 18/3/5 17/15/5 20/17/5
f 21/6/6 22/18/6 23/8/6
f 24/19/6 23/8/6 22/18/6
f 25/20/7 26/21/7 27/22/7
f 26/21/7 25/20/7 28/23/7
f 29/5/8 30/24/8 31/6/8
f 32/25/8 31/6/8 30/24/8
f 33/26/9 34/11/9 35/27/9
f 34/11/9 33/26/9 36/28/9
f 37/29/10 38/30/10 39/31/10
f 40/13/10 39/31/10 38/30/10
f 41/32/7 42/33/7 43/34/7
f 42/33/7 41/32/7 44/35/7
f 45/5/8 46/13/8 47/24/8
f 48/36/8 47/24/8 46/13/8
f 49/37/11 50/16/11 51/38/11
f 50/16/11 49/37/11 52/39/11
f 53/40/12 54/41/12 55/42/12
f 56/43/12 55/42/12 54/41/12
f 57/44/7 58/45/7 59/46/7
f 58/45/7 57/44/7 60/47/7
f 61/48/8 62/49/8 63/40/8
f 64/50/8 63/40/8 62/49/8
f 65/51/13 66/28/13 67/52/13
f 66/28/13 65/51/13 68/53/13
f 69/54/14 70/55/14 71/56/14
f 72/30/14 71/56/14 70/55/14
f 73/57/7 74/58/7 75/59/7
f 74/58/7 73/57/7 76/60/7
f 77/13/8 78/30/8 79/36/8
f 80/61/8 79/36/8 78/30/8
f 81/38/15 82/62/15 83/63/15
f 82/62/15 81/38/15 84/64/15
f 85/65/16 86/43/16 87/66/16
f 88/41/16 87/66/16 86/43/16
f 89/67/7 90/68/7 91/69/7
f 90/68/7 89/67/7 92/70/7
f 93/40/8 94/50/8 95/41/8
f 96/71/8 95/41/8 94/50/8
f 97/72/17 98/73/17 99/74/17
f 98/73/17 97/72/17 100/53/17
f 101/54/18 102/75/18 103/55/18
f 104/76/18 103/55/18 102/75/18
f 105/51/7 106/77/7 107/78/7
f 106/77/7 105/51/7 108/52/7
f 109/30/8 110/55/8 111/61/8
f 112/79/8 111/61/8 110/55/8
f 113/80/7 114/81/7 115/82/7
f 114/81/7 113/80/7 116/83/7
f 117/41/8 118/84/8 119/66/8
f 120/85/8 119/66/8 118/84/8
f 121/86/19 122/87/19 123/88/19
f 122/87/19 121/86/19 124/72/19
f 125/89/20 126/90/20 127/76/20
f 128/91/20 127/76/20 126/90/20
f 129/92/7 130/93/7 131/94/7
f 130/93/7 129/92/7 132/95/7
f 133/55/8 134/76/8 135/96/8
f 136/97/8 135/96/8 134/76/8
f 137/98/21 138/99/21 139/100/21
f 138/99/21 137/98/21 140/86/21
f 141/101/22 142/102/22 143/91/22
f 144/103/22 143/91/22 142/102/22
f 145/104/7 146/105/7 147/106/7
f 146/105/7 145/104/7 148/107/7
f 149/76/8 150/91/8 151/97/8
f 152/108/8 151/97/8 150/91/8
f 153/109/23 154/110/23 155/111/23
f 154/110/23 153/109/23 156/112/23
f 157/113/24 158/114/24 159/103/24
f 160/115/24 159/103/24 158/114/24
f 161/110/7 162/116/7 163/117/7
f 162/116/7 161/110/7 164/118/7
f 165/91/8 166/103/8 167/108/8
f 168/119/8 167/108/8 166/103/8
f 169/120/25 170/111/25 171/121/25
f 170/111/25 169/120/25 172/109/25
f 173/122/26 174/123/26 175/115/26
f 176/124/26 175/115/26 174/123/26
f 177/110/7 178/125/7 179/111/7
f 178/125/7 177/110/7 180/126/7
f 181/119/8 182/103/8 183/127/8
f 184/115/8 183/127/8 182/103/8
f 185/128/27 186/121/27 187/129/27
f 186/121/27 185/128/27 188/120/27
f 189/130/28 190/131/28 191/124/28
f 192/132/28 191/124/28 190/131/28
f 193/111/7 194/133/7 195/121/7
f 194/133/7 193/111/7 196/134/7
f 197/127/8 198/115/8 199/135/8
f 200/124/8 199/135/8 198/115/8
f 201/136/29 202/137/29 203/138/29
f 202/137/29 201/136/29 204/139/29
f 205/140/30 206/141/30 207/132/30
f 208/142/30 207/132/30 206/141/30
f 209/143/7 210/144/7 211/145/7
f 210/144/7 209/143/7 212/146/7
f 213/135/8 214/124/8 215/147/8
f 216/132/8 215/147/8 214/124/8
f 217/148/31 218/149/31 219/150/31
f 218/149/31 217/148/31 220/136/31
f 221/151/32 222/152/32 223/142/32
f 224/153/32 223/142/32 222/152/32
f 225/154/7 226/155/7 227/156/7
f 226/155/7 225/154/7 228/157/7
f 229/147/8 230/132/8 231/158/8
f 232/142/8 231/158/8 230/132/8
f 233/148/33 234/159/33 235/160/33
f 234/159/33 233/148/33 236/161/33
f 237/153/34 238/162/34 239/163/34
f 240/164/34 239/163/34 238/162/34
f 241/165/7 242/166/7 243/167/7
f 242/166/7 241/165/7 244/168/7
f 245/158/8 246/142/8 247/169/8
f 248/153/8 247/169/8 246/142/8
f 249/170/35 250/171/35 251/172/35
f 250/171/35 249/170/35 252/173/35
f 253/163/36 254/174/36 255/175/36
f 256/176/36 255/175/36 254/174/36
f 257/177/7 258/178/7 259/179/7
f 258/178/7 257/177/7 260/180/7
f 261/169/8 262/153/8 263/181/8
f 264/163/8 263/181/8 262/153/8
f 265/172/37 266/182/37 267/183/37
f 266/182/37 265/172/37 268/184/37
f 269/175/38 270/185/38 271/186/38
f 272/187/38 271/186/38 270/185/38
f 273/188/7 274/171/7 275/173/7
f 274/171/7 273/188/7 276/189/7
f 277/190/8 278/181/8 279/175/8
f 280/163/8 279/175/8 278/181/8
f 281/183/39 282/191/39 283/192/39
f 282/191/39 281/183/39 284/193/39
f 285/186/40 286/194/40 287/195/40
f 288/196/40 287/195/40 286/194/40
f 289/197/7 290/198/7 291/199/7
f 290/198/7 289/197/7 292/200/7
f 293/201/8 294/190/8 295/186/8
f 296/175/8 295/186/8 294/190/8
f 297/202/41 298/203/41 299/204/41
f 298/203/41 297/202/41 300/205/41
f 301/206/42 302/207/42 303/195/42
f 304/208/42 303/195/42 302/207/42
f 305/209/7 306/210/7 307/211/7
f 306/210/7 305/209/7 308/212/7
f 309/213/8 310/201/8 311/195/8
f 312/186/8 311/195/8 310/201/8
f 313/214/7 314/215/7 315/216/7
f 314/215/7 313/214/7 316/217/7
f 317/218/8 318/213/8 319/208/8
f 320/195/8 319/208/8 318/213/8
