# Blender v2.79 (sub 0) OBJ File: ''
# www.blender.org
mtllib 102358_link_1_8.mtl
o Shape_IndexedFaceSet.008_Shape_IndexedFaceSet.6415
v -0.187340 0.578976 -0.578212
v -0.200322 -0.436097 -0.376241
v -0.195511 -0.496645 -0.367425
v -0.206700 -0.480723 -0.433609
v -0.143000 -0.480723 -0.459071
v -0.143000 0.544819 -0.541858
v -0.200322 0.544819 -0.522735
v -0.141275 -0.496127 -0.397238
v -0.206700 0.538429 -0.586442
v -0.149379 0.525649 -0.592823
v -0.168490 -0.091981 -0.516354
v -0.207038 -0.486401 -0.375092
v -0.143694 0.565186 -0.590464
v -0.205794 0.574215 -0.540226
v -0.200322 -0.091981 -0.503612
v -0.155745 -0.480723 -0.459071
v -0.187589 0.538429 -0.592823
v -0.143000 0.570274 -0.548218
vn 0.0825 0.9831 0.1633
vn 0.0465 0.1475 0.9880
vn 0.3133 0.1415 0.9391
vn -0.1089 -0.9705 -0.2151
vn 0.4772 0.1217 0.8703
vn 0.2351 -0.1266 -0.9637
vn -0.4976 0.0861 0.8631
vn -0.6326 -0.7705 -0.0784
vn -0.6838 0.1078 0.7217
vn -1.0000 -0.0009 -0.0059
vn 0.9996 -0.0029 -0.0286
vn 0.7863 -0.0765 -0.6130
vn -0.8197 0.4605 -0.3405
vn -0.9181 0.0620 0.3915
vn -0.9999 0.0038 0.0167
vn -0.8759 -0.0716 -0.4772
vn -0.3687 -0.1248 -0.9211
vn -0.3676 -0.1474 -0.9182
vn -0.1081 -0.9703 -0.2164
vn 0.0000 -0.9703 -0.2417
vn 0.0000 -0.1458 -0.9893
vn -0.4418 -0.1520 -0.8841
vn -0.2995 0.3251 -0.8970
vn -0.3143 -0.1237 -0.9412
vn -0.0406 -0.1215 -0.9918
vn -0.1547 0.3358 -0.9291
vn 0.0190 0.0568 -0.9982
vn 0.3079 0.2306 0.9230
vn 0.9999 0.0037 0.0149
vn 0.2684 0.9558 -0.1195
vn 0.9999 -0.0007 -0.0163
vn 0.1398 0.5254 0.8393
usemtl Shape.6423
s off
f 1//1 14//1 18//1
f 2//2 3//2 7//2
f 3//3 6//3 7//3
f 3//4 4//4 8//4
f 6//5 3//5 8//5
f 10//6 5//6 11//6
f 3//7 2//7 12//7
f 4//8 3//8 12//8
f 2//9 7//9 12//9
f 9//10 4//10 12//10
f 8//11 5//11 13//11
f 5//12 10//12 13//12
f 1//13 9//13 14//13
f 12//14 7//14 14//14
f 9//15 12//15 14//15
f 4//16 9//16 15//16
f 9//17 11//17 15//17
f 15//18 11//18 16//18
f 8//19 4//19 16//19
f 5//20 8//20 16//20
f 11//21 5//21 16//21
f 4//22 15//22 16//22
f 9//23 1//23 17//23
f 11//24 9//24 17//24
f 10//25 11//25 17//25
f 1//26 13//26 17//26
f 13//27 10//27 17//27
f 7//28 6//28 18//28
f 6//29 8//29 18//29
f 13//30 1//30 18//30
f 8//31 13//31 18//31
f 14//32 7//32 18//32
