# Blender v2.79 (sub 0) OBJ File: ''
# www.blender.org
mtllib 102358_link_1_45.mtl
o Shape_IndexedFaceSet.045_Shape_IndexedFaceSet.6452
v 0.283823 -0.028450 0.375423
v 0.277441 0.544808 0.464599
v 0.277441 0.538457 0.528305
v 0.341139 0.086226 0.426394
v 0.447102 0.580570 0.377619
v 0.273112 -0.042932 0.431889
v 0.352272 -0.045698 0.374684
v 0.417549 0.544808 0.439129
v 0.409279 0.575356 0.378909
v 0.462136 0.544808 0.388174
v 0.379326 0.544808 0.477334
v 0.280019 0.580820 0.513762
v 0.352752 -0.036757 0.369969
v 0.277441 0.041711 0.388174
v 0.322028 0.092637 0.439129
v 0.379326 0.583033 0.470974
v 0.462136 0.532046 0.375423
v 0.372962 0.073585 0.388174
v 0.309299 0.538457 0.515539
v 0.277441 0.086226 0.458209
v 0.325721 -0.048533 0.404402
v 0.281019 0.577473 0.482461
vn -0.0871 0.9903 -0.1087
vn -1.0000 0.0073 0.0007
vn 0.7004 -0.1362 0.7007
vn -0.9980 0.0629 0.0063
vn -0.1248 -0.4576 -0.8804
vn -0.0763 0.0216 -0.9969
vn -0.9785 -0.0528 -0.1992
vn -0.9970 0.0116 -0.0763
vn -0.5045 0.1098 -0.8564
vn -0.5608 0.1243 -0.8185
vn 0.5171 -0.1369 0.8449
vn 0.7255 0.4569 0.5147
vn 0.7374 0.1998 0.6452
vn 0.7021 0.1169 0.7024
vn -0.0488 0.9969 -0.0617
vn -0.0386 0.0332 -0.9987
vn 0.9088 0.2949 -0.2952
vn 0.9523 -0.1808 -0.2459
vn -0.0501 0.0192 -0.9986
vn 0.7373 -0.1412 0.6606
vn 0.7450 -0.1410 0.6519
vn 0.9660 -0.1828 0.1830
vn 0.9719 -0.1850 0.1452
vn 0.3567 0.2839 0.8901
vn 0.4840 -0.1344 0.8647
vn 0.4636 0.1454 0.8740
vn 0.3726 0.2945 0.8800
vn -0.8210 -0.0874 0.5641
vn 0.4094 -0.1953 0.8912
vn 0.3682 -0.1424 0.9188
vn 0.4067 -0.1430 0.9023
vn -0.2472 -0.9263 -0.2845
vn -0.2362 -0.9245 -0.2992
vn 0.4362 -0.2042 0.8764
vn 0.4978 -0.1949 0.8451
vn 0.7223 -0.1911 0.6646
vn 0.7400 -0.2009 0.6419
vn -0.5583 0.4443 -0.7006
vn -0.1405 0.9709 -0.1938
vn -0.9900 0.1335 -0.0459
usemtl Shape.6460
s off
f 12//1 5//1 22//1
f 3//2 2//2 6//2
f 4//3 8//3 11//3
f 2//4 3//4 12//4
f 7//5 1//5 13//5
f 1//6 9//6 13//6
f 1//7 6//7 14//7
f 6//8 2//8 14//8
f 9//9 1//9 14//9
f 2//10 9//10 14//10
f 4//11 11//11 15//11
f 10//12 5//12 16//12
f 8//13 10//13 16//13
f 11//14 8//14 16//14
f 5//15 12//15 16//15
f 9//16 5//16 17//16
f 5//17 10//17 17//17
f 7//18 13//18 17//18
f 13//19 9//19 17//19
f 8//20 4//20 18//20
f 10//21 8//21 18//21
f 17//22 10//22 18//22
f 7//23 17//23 18//23
f 12//24 3//24 19//24
f 15//25 11//25 19//25
f 11//26 16//26 19//26
f 16//27 12//27 19//27
f 3//28 6//28 20//28
f 6//29 15//29 20//29
f 19//30 3//30 20//30
f 15//31 19//31 20//31
f 6//32 1//32 21//32
f 1//33 7//33 21//33
f 15//34 6//34 21//34
f 4//35 15//35 21//35
f 18//36 4//36 21//36
f 7//37 18//37 21//37
f 9//38 2//38 22//38
f 5//39 9//39 22//39
f 2//40 12//40 22//40
