# Blender v2.79 (sub 0) OBJ File: ''
# www.blender.org
mtllib 102358_link_1_13.mtl
o Shape_IndexedFaceSet.013_Shape_IndexedFaceSet.6420
v -0.569105 0.579496 -0.102633
v -0.574980 0.585013 0.056980
v -0.581352 0.588045 0.058760
v -0.557067 0.245462 0.063291
v -0.518841 0.271000 0.063291
v -0.557067 0.251886 -0.108700
v -0.608013 0.551154 -0.064086
v -0.512462 0.245462 -0.108700
v -0.557067 0.646721 -0.013158
v -0.608013 0.538426 0.063291
v -0.595265 0.633992 -0.057722
v -0.550698 0.621223 -0.070450
v -0.601634 0.532081 -0.108700
v -0.557067 0.557539 0.063291
v -0.601634 0.621223 0.025058
v -0.550698 0.544810 -0.108700
v -0.518841 0.245462 0.063291
v -0.563408 0.271000 0.025058
vn -0.9866 -0.1622 -0.0162
vn -0.1425 -0.9891 -0.0369
vn 0.4672 0.6012 0.6483
vn 0.0000 0.0000 1.0000
vn 0.9948 0.0990 0.0222
vn 0.9918 0.1131 0.0599
vn -0.0448 0.6224 -0.7814
vn 0.1497 0.9094 -0.3881
vn -0.9849 -0.1567 -0.0738
vn 0.0000 0.0000 -1.0000
vn -0.4654 0.4191 -0.7796
vn -0.9642 0.1644 -0.2081
vn 0.4355 0.4615 0.7729
vn 0.5900 0.5255 0.6130
vn 0.9796 0.1307 0.1525
vn -0.0426 0.1135 0.9926
vn 0.1337 0.7453 0.6532
vn -0.5805 0.3778 0.7213
vn -0.9967 0.0805 0.0080
vn -0.9864 0.1558 -0.0519
vn -0.4236 0.8996 0.1062
vn 0.4811 0.3924 -0.7839
vn 0.9616 0.1228 -0.2454
vn -0.0381 0.1525 -0.9876
vn 0.9993 0.0000 0.0371
vn 0.0000 -1.0000 -0.0000
vn -0.9671 -0.2543 -0.0095
vn -0.9861 -0.1644 -0.0233
vn -0.9840 -0.1711 0.0489
usemtl Shape.6428
s off
f 10//1 7//1 18//1
f 4//2 6//2 8//2
f 3//3 2//3 9//3
f 4//4 5//4 10//4
f 5//5 8//5 12//5
f 9//6 5//6 12//6
f 1//7 11//7 12//7
f 11//8 9//8 12//8
f 6//9 7//9 13//9
f 8//10 6//10 13//10
f 11//11 1//11 13//11
f 7//12 11//12 13//12
f 2//13 3//13 14//13
f 9//14 2//14 14//14
f 5//15 9//15 14//15
f 10//4 5//4 14//4
f 3//16 10//16 14//16
f 3//17 9//17 15//17
f 10//18 3//18 15//18
f 7//19 10//19 15//19
f 11//20 7//20 15//20
f 9//21 11//21 15//21
f 1//22 12//22 16//22
f 12//23 8//23 16//23
f 13//24 1//24 16//24
f 8//10 13//10 16//10
f 5//4 4//4 17//4
f 8//25 5//25 17//25
f 4//26 8//26 17//26
f 6//27 4//27 18//27
f 7//28 6//28 18//28
f 4//29 10//29 18//29
