# Blender v2.79 (sub 0) OBJ File: ''
# www.blender.org
mtllib 102358_link_0_2.mtl
o Shape_IndexedFaceSet.002_Shape_IndexedFaceSet.4844
v -0.483422 0.620667 0.530894
v -0.483422 0.609069 0.530894
v -0.555958 0.603261 0.368378
v -0.555958 0.629371 0.403216
v -0.510983 0.594556 0.530894
v -0.518234 0.630825 0.530894
v -0.555958 0.590197 0.395962
v -0.557414 0.596009 0.449636
v -0.499379 0.635179 0.527983
v -0.557414 0.627923 0.443845
v -0.554502 0.620662 0.378543
v -0.525485 0.609064 0.530878
v -0.497923 0.597453 0.514922
v -0.554502 0.616307 0.468471
v -0.490673 0.629367 0.523624
v -0.557414 0.590197 0.427874
v -0.555958 0.596009 0.375648
v -0.500828 0.594556 0.530894
v -0.508079 0.635179 0.530894
v -0.526941 0.623568 0.525088
v -0.525485 0.598906 0.520729
v -0.554502 0.610513 0.371289
v -0.557414 0.629371 0.420620
v -0.483422 0.611966 0.527983
vn 0.9106 -0.0171 -0.4129
vn 0.0000 0.0000 1.0000
vn -0.9831 0.1463 -0.1097
vn -0.0014 -0.0003 1.0000
vn -0.9915 0.0233 0.1282
vn -0.8921 -0.2319 0.3879
vn 0.6230 0.7374 0.2611
vn 0.4508 0.8585 -0.2444
vn 0.8408 0.3730 -0.3923
vn 0.4883 0.8316 -0.2647
vn -1.0000 0.0000 0.0000
vn 0.7815 -0.5355 -0.3201
vn 0.5646 -0.7935 -0.2270
vn -0.9990 -0.0314 -0.0313
vn -0.9865 -0.1573 -0.0450
vn 0.6402 -0.7678 -0.0228
vn 0.3383 -0.9348 -0.1080
vn 0.0709 -0.9975 0.0032
vn 0.0000 -0.9991 0.0423
vn 0.2793 0.4746 0.8347
vn -0.0135 0.9991 -0.0404
vn -0.3899 0.9093 0.1452
vn -0.7214 0.6223 0.3039
vn -0.6614 0.2199 0.7171
vn -0.8048 0.4944 0.3284
vn -0.9002 0.0805 0.4279
vn -0.5778 -0.5769 0.5774
vn -0.8339 -0.3901 0.3904
vn -0.4227 -0.8772 0.2276
vn -0.4377 -0.8687 0.2320
vn 0.8675 0.2893 -0.4047
vn -0.7856 0.3598 -0.5034
vn -0.9904 0.1106 -0.0829
vn -0.9997 -0.0047 -0.0255
vn -0.0987 0.9951 -0.0083
vn -0.2485 0.9667 0.0603
vn 1.0000 0.0000 0.0000
vn 0.8534 -0.3694 -0.3677
vn 0.8536 -0.3688 -0.3678
vn 0.9016 0.1373 -0.4103
usemtl Shape.4848
s off
f 3//1 22//1 24//1
f 2//2 1//2 5//2
f 5//2 1//2 6//2
f 3//3 4//3 11//3
f 5//4 6//4 12//4
f 10//5 8//5 14//5
f 8//6 12//6 14//6
f 9//7 1//7 15//7
f 4//8 9//8 15//8
f 1//9 11//9 15//9
f 11//10 4//10 15//10
f 8//11 10//11 16//11
f 2//12 13//12 17//12
f 13//13 7//13 17//13
f 16//14 3//14 17//14
f 7//15 16//15 17//15
f 2//2 5//2 18//2
f 13//16 2//16 18//16
f 7//17 13//17 18//17
f 16//18 7//18 18//18
f 5//19 16//19 18//19
f 6//2 1//2 19//2
f 1//20 9//20 19//20
f 9//21 4//21 19//21
f 10//22 6//22 19//22
f 6//23 10//23 20//23
f 12//24 6//24 20//24
f 10//25 14//25 20//25
f 14//26 12//26 20//26
f 5//27 12//27 21//27
f 12//28 8//28 21//28
f 16//29 5//29 21//29
f 8//30 16//30 21//30
f 11//31 1//31 22//31
f 3//32 11//32 22//32
f 4//33 3//33 23//33
f 3//34 16//34 23//34
f 16//11 10//11 23//11
f 19//35 4//35 23//35
f 10//36 19//36 23//36
f 1//37 2//37 24//37
f 2//38 17//38 24//38
f 17//39 3//39 24//39
f 22//40 1//40 24//40
