# Blender v2.79 (sub 0) OBJ File: ''
# www.blender.org
mtllib 102358_link_1_20.mtl
o Shape_IndexedFaceSet.020_Shape_IndexedFaceSet.6427
v 0.411194 -0.461615 0.076026
v 0.468524 -0.474349 -0.032251
v 0.462143 -0.455248 0.050539
v 0.417574 -0.448877 -0.076849
v 0.409219 -0.494994 0.087887
v 0.411194 -0.493458 -0.076849
v 0.462143 -0.493458 0.082402
v 0.468524 -0.493458 -0.076849
v 0.462143 -0.448877 -0.076849
v 0.455774 -0.448877 0.082402
vn 0.0000 1.0000 0.0000
vn -0.9895 0.1416 -0.0295
vn -0.9984 0.0550 -0.0115
vn 0.9965 0.0537 0.0644
vn 0.0000 -1.0000 -0.0093
vn 0.0000 0.0000 -1.0000
vn 0.9949 -0.0930 0.0399
vn 0.0291 -0.9996 0.0012
vn 0.9642 0.2647 0.0132
vn 0.9881 0.1414 -0.0606
vn -0.2831 0.9567 0.0679
vn -0.2272 0.3380 0.9133
vn 0.9760 0.1394 0.1672
vn 0.1027 0.0147 0.9946
vn 0.7806 0.6242 0.0312
usemtl Shape.6435
s off
f 9//1 4//1 10//1
f 1//2 4//2 6//2
f 5//3 1//3 6//3
f 2//4 3//4 7//4
f 5//5 6//5 8//5
f 6//6 4//6 8//6
f 2//7 7//7 8//7
f 7//8 5//8 8//8
f 3//9 2//9 9//9
f 2//10 8//10 9//10
f 8//6 4//6 9//6
f 4//11 1//11 10//11
f 1//12 5//12 10//12
f 7//13 3//13 10//13
f 5//14 7//14 10//14
f 3//15 9//15 10//15
