# Blender v2.79 (sub 0) OBJ File: ''
# www.blender.org
mtllib 102358_link_1_12.mtl
o Shape_IndexedFaceSet.012_Shape_IndexedFaceSet.6419
v -0.429661 -0.480723 -0.108700
v -0.518819 0.245391 0.063291
v -0.557038 0.245391 0.063291
v -0.422345 -0.486415 0.064640
v -0.474247 -0.480652 0.063291
v -0.550671 0.200755 -0.108700
v -0.506085 0.219875 -0.102319
v -0.467880 -0.480652 -0.108700
v -0.406264 -0.495165 -0.106971
v -0.544303 0.092506 -0.102319
v -0.486982 0.035148 0.063291
v -0.512452 0.245391 -0.108700
v -0.523175 -0.096684 0.048206
v -0.423293 -0.448809 0.063291
v -0.557038 0.245391 -0.051341
v -0.557038 0.213478 0.063291
v -0.512452 0.226272 0.056911
v -0.474247 -0.480652 0.025058
vn -0.9920 -0.1253 -0.0183
vn 0.0000 0.0018 1.0000
vn -0.0000 0.0000 -1.0000
vn -0.1113 -0.9930 0.0402
vn -0.0002 -0.1192 -0.9929
vn -0.6828 -0.0830 -0.7259
vn 0.0936 0.0142 0.9955
vn 0.0000 1.0000 0.0000
vn 0.0792 0.0090 -0.9968
vn 0.9114 0.1298 -0.3905
vn 0.9954 0.0284 0.0918
vn 0.3192 0.0420 0.9468
vn 0.9895 0.1302 0.0635
vn -0.9961 -0.0623 -0.0621
vn -0.6541 0.5601 -0.5084
vn -0.0100 0.0000 0.9999
vn -0.0263 -0.0031 0.9996
vn -0.9725 -0.1160 0.2019
vn -0.9941 -0.1087 0.0029
vn -1.0000 0.0000 0.0000
vn -0.9969 -0.0760 -0.0212
vn 0.9899 0.1380 0.0340
vn 0.8707 0.1319 0.4738
vn 0.9896 0.1336 0.0529
vn 0.9516 0.3052 0.0352
vn 0.9681 0.2488 0.0287
vn -0.2088 -0.9780 0.0000
vn -0.2290 -0.9734 -0.0109
vn -0.9902 -0.1315 -0.0471
vn -0.9920 -0.1264 0.0000
usemtl Shape.6427
s off
f 13//1 10//1 18//1
f 2//2 3//2 4//2
f 6//3 1//3 8//3
f 4//4 5//4 9//4
f 8//5 1//5 9//5
f 6//6 8//6 10//6
f 2//7 4//7 11//7
f 3//8 2//8 12//8
f 1//3 6//3 12//3
f 9//9 1//9 12//9
f 7//10 9//10 12//10
f 4//11 9//11 14//11
f 11//12 4//12 14//12
f 9//13 11//13 14//13
f 6//14 10//14 15//14
f 3//8 12//8 15//8
f 12//15 6//15 15//15
f 4//16 3//16 16//16
f 5//17 4//17 16//17
f 13//18 5//18 16//18
f 10//19 13//19 16//19
f 3//20 15//20 16//20
f 15//21 10//21 16//21
f 9//22 7//22 17//22
f 2//23 11//23 17//23
f 11//24 9//24 17//24
f 12//25 2//25 17//25
f 7//26 12//26 17//26
f 9//27 5//27 18//27
f 8//28 9//28 18//28
f 10//29 8//29 18//29
f 5//30 13//30 18//30
