# Blender v2.79 (sub 0) OBJ File: ''
# www.blender.org
mtllib 102358_link_1_18.mtl
o Shape_IndexedFaceSet.018_Shape_IndexedFaceSet.6425
v 0.301943 -0.450850 -0.355709
v 0.140271 -0.494368 -0.404192
v 0.143652 -0.493458 -0.395336
v 0.313978 -0.494725 -0.277253
v 0.296530 -0.493458 -0.376238
v 0.167948 -0.448414 -0.402977
v 0.302902 -0.448877 -0.293438
v 0.243022 -0.451840 -0.393678
vn 0.0600 0.9911 -0.1189
vn -0.1053 -0.9843 0.1413
vn 0.9839 -0.0412 -0.1740
vn 0.0084 -0.9999 -0.0143
vn -0.8289 0.4922 0.2659
vn 0.0295 0.9990 -0.0321
vn -0.5624 0.1511 0.8129
vn 0.9736 0.2274 -0.0222
vn -0.5692 0.4263 0.7031
vn 0.5094 0.3202 -0.7988
vn 0.1742 -0.1816 -0.9678
vn 0.1207 -0.0465 -0.9916
usemtl Shape.6433
s off
f 6//1 1//1 8//1
f 3//2 2//2 4//2
f 1//3 4//3 5//3
f 4//4 2//4 5//4
f 2//5 3//5 6//5
f 1//6 6//6 7//6
f 3//7 4//7 7//7
f 4//8 1//8 7//8
f 6//9 3//9 7//9
f 1//10 5//10 8//10
f 5//11 2//11 8//11
f 2//12 6//12 8//12
