# Blender v2.79 (sub 0) OBJ File: ''
# www.blender.org
mtllib 102358_link_1_26.mtl
o Shape_IndexedFaceSet.026_Shape_IndexedFaceSet.6433
v 0.551340 0.220049 -0.095942
v 0.581545 0.592020 0.077827
v 0.581282 0.602371 0.071099
v 0.500384 0.207315 0.082384
v 0.544975 0.532075 -0.095942
v 0.538611 0.169022 0.082384
v 0.602285 0.538442 -0.095942
v 0.500384 0.169022 -0.095942
v 0.551340 0.633946 0.037785
v 0.595911 0.532075 0.082384
v 0.551340 0.633946 -0.025875
v 0.589546 0.640312 0.031431
v 0.551340 0.576643 0.082384
v 0.500384 0.207315 -0.095942
v 0.544975 0.175481 -0.076828
v 0.602285 0.551176 0.044156
v 0.588131 0.582537 -0.092640
v 0.557694 0.583010 -0.095942
vn 0.0757 0.8098 -0.5818
vn -0.0000 0.0000 -1.0000
vn -0.6997 -0.6985 0.1500
vn -0.0000 0.0000 1.0000
vn -0.9929 0.1186 0.0000
vn -0.1644 0.9864 0.0000
vn 0.8009 0.3405 0.4925
vn -0.0057 0.7232 0.6906
vn 0.8821 0.2421 0.4041
vn -0.1477 0.5364 0.8310
vn -0.2245 0.5985 0.7690
vn -0.9757 0.1346 0.1730
vn 0.0990 0.0990 0.9902
vn -1.0000 0.0000 0.0000
vn -0.9850 0.1352 -0.1072
vn 0.9867 -0.1579 -0.0396
vn 0.4090 -0.4084 -0.8161
vn 0.1574 -0.9870 -0.0337
vn 0.9841 -0.1553 0.0865
vn 0.9543 0.1713 0.2447
vn 0.9901 0.1397 -0.0127
vn 0.9878 -0.1552 0.0141
vn 0.9864 -0.1611 0.0329
vn 0.4395 0.8123 -0.3833
vn 0.9370 0.3125 -0.1562
vn -0.9380 0.2342 -0.2554
vn 0.1089 0.1089 -0.9881
usemtl Shape.6441
s off
f 11//1 17//1 18//1
f 1//2 5//2 7//2
f 5//2 1//2 8//2
f 6//3 4//3 8//3
f 4//4 6//4 10//4
f 4//5 9//5 11//5
f 11//6 9//6 12//6
f 3//7 2//7 12//7
f 9//8 3//8 12//8
f 2//9 10//9 12//9
f 2//10 3//10 13//10
f 3//11 9//11 13//11
f 9//12 4//12 13//12
f 10//13 2//13 13//13
f 4//4 10//4 13//4
f 5//2 8//2 14//2
f 8//14 4//14 14//14
f 11//15 5//15 14//15
f 4//5 11//5 14//5
f 1//16 7//16 15//16
f 8//17 1//17 15//17
f 6//18 8//18 15//18
f 10//19 6//19 16//19
f 12//20 10//20 16//20
f 7//21 12//21 16//21
f 15//22 7//22 16//22
f 6//23 15//23 16//23
f 11//24 12//24 17//24
f 12//25 7//25 17//25
f 7//2 5//2 18//2
f 5//26 11//26 18//26
f 17//27 7//27 18//27
