# Blender v2.79 (sub 0) OBJ File: ''
# www.blender.org
mtllib 102358_link_1_10.mtl
o Shape_IndexedFaceSet.010_Shape_IndexedFaceSet.6417
v -0.378715 0.003555 -0.306171
v -0.563423 0.538429 -0.236106
v -0.537915 0.538429 -0.306171
v -0.499706 0.512974 -0.229730
v -0.357785 -0.494564 -0.228742
v -0.365988 -0.480723 -0.306171
v -0.292251 -0.495134 -0.300660
v -0.474199 0.551209 -0.299788
v -0.416924 -0.480723 -0.229730
v -0.461471 -0.091981 -0.287046
v -0.554890 0.574159 -0.230374
v -0.480588 -0.091981 -0.242473
v -0.410560 -0.480723 -0.255216
v -0.448743 -0.085591 -0.306171
v -0.491778 0.576520 -0.305248
v -0.518798 0.589444 -0.236106
v -0.305674 -0.496602 -0.281722
v -0.544305 0.576560 -0.287046
vn -0.0722 0.9749 -0.2104
vn 0.0000 0.0000 -1.0000
vn 0.0749 0.0020 -0.9972
vn 0.9844 0.1711 0.0420
vn 0.8978 0.1558 0.4119
vn -0.0125 -0.0008 0.9999
vn -0.3989 -0.0516 0.9155
vn -0.0171 -0.0016 0.9999
vn -0.9330 -0.1192 -0.3397
vn -0.7932 -0.1103 0.5988
vn -0.9121 -0.1225 -0.3912
vn -0.9085 -0.1509 -0.3897
vn -0.2266 -0.9723 -0.0566
vn -0.9570 -0.1646 -0.2390
vn -0.8087 -0.1156 -0.5768
vn -0.7986 -0.1523 -0.5823
vn -0.7435 -0.1557 -0.6504
vn 0.0161 0.0048 -0.9999
vn 0.3992 0.0803 -0.9133
vn 0.8572 0.2515 0.4494
vn 0.1103 0.1099 0.9878
vn 0.7849 0.5876 0.1969
vn 0.7112 0.1009 0.6957
vn -0.1737 -0.9647 -0.1979
vn 0.8049 0.1248 0.5802
vn -0.1882 -0.9682 -0.1646
vn -0.1834 -0.9726 -0.1429
vn -0.9396 0.0141 -0.3421
vn -0.9526 0.2543 -0.1671
vn -0.3017 0.3866 -0.8715
vn -0.3944 0.9183 -0.0348
usemtl Shape.6425
s off
f 16//1 15//1 18//1
f 3//2 1//2 6//2
f 6//3 1//3 7//3
f 7//4 1//4 8//4
f 4//5 7//5 8//5
f 5//6 4//6 11//6
f 2//7 9//7 11//7
f 9//8 5//8 11//8
f 2//9 3//9 12//9
f 9//10 2//10 12//10
f 3//11 10//11 12//11
f 12//12 10//12 13//12
f 5//13 9//13 13//13
f 9//14 12//14 13//14
f 3//2 6//2 14//2
f 10//15 3//15 14//15
f 13//16 10//16 14//16
f 6//17 13//17 14//17
f 1//18 3//18 15//18
f 8//19 1//19 15//19
f 4//20 8//20 16//20
f 11//21 4//21 16//21
f 8//22 15//22 16//22
f 4//23 5//23 17//23
f 6//24 7//24 17//24
f 7//25 4//25 17//25
f 13//26 6//26 17//26
f 5//27 13//27 17//27
f 3//28 2//28 18//28
f 2//29 11//29 18//29
f 15//30 3//30 18//30
f 11//31 16//31 18//31
