# Blender v2.79 (sub 0) OBJ File: ''
# www.blender.org
mtllib 102358_link_1_3.mtl
o Shape_IndexedFaceSet.003_Shape_IndexedFaceSet.6410
v 0.181859 -0.538049 -0.420822
v 0.462020 -0.494058 -0.049117
v 0.461013 -0.494150 -0.080595
v -0.021942 -0.493467 0.082402
v 0.443031 -0.538049 0.082402
v -0.017723 -0.493851 -0.473341
v -0.021942 -0.538049 0.082402
v -0.021942 -0.538049 -0.452647
v 0.299974 -0.494284 -0.363544
v 0.389207 -0.530308 -0.226969
v 0.459018 -0.493758 0.078740
v 0.443031 -0.538049 -0.089619
v 0.164561 -0.494117 -0.445225
v 0.411301 -0.494183 -0.228684
v 0.308635 -0.524587 -0.339145
v 0.029044 -0.538049 -0.459012
vn 0.1503 -0.1574 -0.9760
vn 0.0000 -1.0000 -0.0000
vn 0.0000 0.0000 1.0000
vn -0.9958 0.0915 -0.0076
vn -1.0000 -0.0000 0.0000
vn 0.0076 0.0797 0.9968
vn 0.9410 -0.3377 0.0229
vn 0.0006 1.0000 -0.0007
vn 0.9270 -0.3739 -0.0286
vn 0.9181 -0.3963 0.0000
vn 0.1398 -0.9840 -0.1102
vn 0.4981 -0.2629 -0.8263
vn 0.0017 1.0000 -0.0016
vn 0.0089 1.0000 -0.0032
vn 0.0054 1.0000 -0.0022
vn 0.9022 -0.3073 -0.3028
vn 0.7950 -0.5024 -0.3399
vn 0.0034 1.0000 -0.0035
vn 0.5186 -0.4414 -0.7323
vn 0.2442 -0.9436 -0.2235
vn 0.7404 -0.2803 -0.6110
vn 0.7101 -0.4596 -0.5335
vn -0.1128 -0.4125 -0.9040
vn 0.2216 -0.4054 -0.8869
usemtl Shape.6418
s off
f 6//1 13//1 16//1
f 1//2 5//2 7//2
f 5//3 4//3 7//3
f 4//4 6//4 8//4
f 7//5 4//5 8//5
f 1//2 7//2 8//2
f 4//6 5//6 11//6
f 5//7 2//7 11//7
f 6//8 4//8 11//8
f 3//9 2//9 12//9
f 5//2 1//2 12//2
f 2//10 5//10 12//10
f 1//11 10//11 12//11
f 9//12 1//12 13//12
f 6//13 11//13 13//13
f 13//13 11//13 14//13
f 2//14 3//14 14//14
f 11//15 2//15 14//15
f 3//16 12//16 14//16
f 12//17 10//17 14//17
f 9//18 13//18 14//18
f 1//19 9//19 15//19
f 10//20 1//20 15//20
f 9//21 14//21 15//21
f 14//22 10//22 15//22
f 1//2 8//2 16//2
f 8//23 6//23 16//23
f 13//24 1//24 16//24
