# Blender v2.79 (sub 0) OBJ File: ''
# www.blender.org
mtllib 102358_link_0_17.mtl
o Shape_IndexedFaceSet.017_Shape_IndexedFaceSet.4859
v 0.635339 0.597450 0.002712
v 0.578760 0.590201 -0.026305
v 0.578760 0.601801 -0.026305
v 0.604876 0.601801 0.024482
v 0.619371 0.577142 0.012869
v 0.578760 0.584399 0.007067
v 0.578760 0.616311 -0.004531
v 0.623724 0.617763 0.007067
v 0.612115 0.591652 -0.019047
v 0.604876 0.610505 -0.019047
v 0.578760 0.577142 -0.013240
v 0.620822 0.581496 -0.007434
v 0.619371 0.616311 0.017224
v 0.612115 0.588749 0.024482
v 0.578760 0.610505 0.005616
v 0.629529 0.581496 0.012869
v 0.626627 0.609054 -0.005982
v 0.600522 0.581496 -0.019047
v 0.578760 0.616311 -0.013240
v 0.630980 0.610505 0.011422
vn 0.7547 0.6107 -0.2397
vn -1.0000 0.0000 0.0000
vn 0.2126 0.0000 -0.9771
vn 0.2382 0.0915 -0.9669
vn -0.2115 -0.9204 0.3289
vn 0.6961 -0.1937 -0.6913
vn 0.1281 -0.9716 -0.1992
vn -0.0617 0.9914 0.1153
vn -0.2230 -0.7556 0.6159
vn -0.4254 -0.2359 0.8737
vn 0.3021 0.1676 0.9384
vn -0.5750 0.0454 0.8169
vn -0.2938 0.6459 0.7046
vn -0.2571 0.8388 0.4799
vn 0.7931 -0.5053 -0.3401
vn 0.3885 -0.9063 -0.1666
vn 0.2566 -0.5987 0.7587
vn 0.6872 -0.0280 -0.7260
vn 0.3366 0.8161 -0.4698
vn 0.5144 0.1975 -0.8345
vn 0.2163 -0.2469 -0.9446
vn -0.0471 -0.7065 -0.7062
vn 0.4320 -0.4931 -0.7551
vn 0.1316 -0.9643 -0.2300
vn -0.0323 0.9995 0.0000
vn -0.0165 0.6690 -0.7430
vn 0.1283 0.9277 -0.3505
vn 0.5521 0.7590 0.3451
vn 0.4848 0.1012 0.8688
vn 0.8814 -0.0205 0.4719
vn 0.5586 0.0134 0.8293
vn 0.8550 0.4534 -0.2517
usemtl Shape.4863
s off
f 17//1 8//1 20//1
f 3//2 2//2 6//2
f 3//2 6//2 7//2
f 2//3 3//3 9//3
f 9//4 3//4 10//4
f 6//2 2//2 11//2
f 5//5 6//5 11//5
f 9//6 1//6 12//6
f 5//7 11//7 12//7
f 8//8 7//8 13//8
f 6//9 5//9 14//9
f 4//10 6//10 14//10
f 13//11 4//11 14//11
f 6//12 4//12 15//12
f 7//2 6//2 15//2
f 4//13 13//13 15//13
f 13//14 7//14 15//14
f 12//15 1//15 16//15
f 5//16 12//16 16//16
f 14//17 5//17 16//17
f 1//18 9//18 17//18
f 10//19 8//19 17//19
f 9//20 10//20 17//20
f 2//21 9//21 18//21
f 11//22 2//22 18//22
f 9//23 12//23 18//23
f 12//24 11//24 18//24
f 3//2 7//2 19//2
f 7//25 8//25 19//25
f 10//26 3//26 19//26
f 8//27 10//27 19//27
f 8//28 13//28 20//28
f 13//29 14//29 20//29
f 16//30 1//30 20//30
f 14//31 16//31 20//31
f 1//32 17//32 20//32
