# Blender v2.79 (sub 0) OBJ File: ''
# www.blender.org
mtllib 102358_link_1_16.mtl
o Shape_IndexedFaceSet.016_Shape_IndexedFaceSet.6423
v -0.480595 -0.073070 0.241670
v -0.302268 0.003401 0.420005
v -0.327754 -0.461613 0.254428
v -0.423271 -0.002972 0.228913
v -0.321911 -0.482946 0.338073
v -0.405505 -0.486239 0.232564
v -0.302268 0.003401 0.369052
v -0.372335 -0.092188 0.381771
v -0.302268 -0.461613 0.286244
v -0.474223 0.003401 0.228913
v -0.353221 -0.423377 0.228913
v -0.301394 -0.463893 0.350134
v -0.365964 0.003401 0.381771
v -0.308640 -0.098560 0.426384
v -0.455110 -0.085815 0.279904
v -0.353221 -0.092188 0.400869
v -0.480595 -0.092188 0.228913
v -0.461481 0.003401 0.260768
v -0.385078 -0.461613 0.267146
vn -0.7705 -0.1645 0.6158
vn 0.3621 -0.8858 -0.2901
vn 0.3430 -0.9072 -0.2434
vn 0.1227 0.9810 -0.1506
vn -0.0000 1.0000 0.0000
vn 0.3537 -0.3447 -0.8695
vn 0.7482 0.1247 -0.6517
vn 0.7764 0.1021 -0.6219
vn 0.7782 0.1101 -0.6182
vn 0.0000 0.0000 -1.0000
vn 1.0000 0.0019 0.0000
vn 0.6911 -0.7219 -0.0352
vn 0.9999 0.0024 -0.0136
vn 0.9561 -0.0416 0.2902
vn -0.3537 -0.1978 0.9142
vn -0.8452 -0.1648 0.5084
vn -0.7735 0.0516 0.6317
vn -0.6968 -0.1679 0.6974
vn -0.7060 0.0471 0.7066
vn -0.5120 0.1022 0.8529
vn -0.5078 -0.1762 0.8433
vn -0.4858 0.0848 0.8700
vn -0.9472 -0.1780 0.2668
vn -0.9929 0.0662 -0.0992
vn -0.0477 -0.0183 -0.9987
vn -0.9196 0.1380 0.3678
vn -0.8206 0.0632 0.5680
vn -0.7826 0.0766 0.6178
vn -0.7603 -0.2251 0.6094
vn -0.7607 -0.1683 0.6269
vn -0.7920 -0.1675 0.5871
usemtl Shape.6431
s off
f 8//1 15//1 19//1
f 6//2 3//2 9//2
f 5//3 6//3 9//3
f 7//4 4//4 10//4
f 2//5 7//5 10//5
f 3//6 6//6 11//6
f 4//7 7//7 11//7
f 9//8 3//8 11//8
f 7//9 9//9 11//9
f 10//10 4//10 11//10
f 7//11 2//11 12//11
f 5//12 9//12 12//12
f 9//13 7//13 12//13
f 2//5 10//5 13//5
f 12//14 2//14 14//14
f 5//15 12//15 14//15
f 1//16 6//16 15//16
f 8//17 13//17 15//17
f 8//18 5//18 16//18
f 13//19 8//19 16//19
f 2//20 13//20 16//20
f 5//21 14//21 16//21
f 14//22 2//22 16//22
f 6//23 1//23 17//23
f 1//24 10//24 17//24
f 11//25 6//25 17//25
f 10//10 11//10 17//10
f 10//26 1//26 18//26
f 13//5 10//5 18//5
f 1//27 15//27 18//27
f 15//28 13//28 18//28
f 6//29 5//29 19//29
f 5//30 8//30 19//30
f 15//31 6//31 19//31
