# Blender v2.79 (sub 0) OBJ File: ''
# www.blender.org
mtllib 102358_link_1_40.mtl
o Shape_IndexedFaceSet.040_Shape_IndexedFaceSet.6447
v 0.228757 0.579359 -0.563097
v 0.341110 0.226357 -0.388982
v 0.341110 0.493879 -0.433577
v 0.341110 0.557551 -0.510010
v 0.200982 0.194502 -0.522730
v 0.200982 0.563929 -0.529090
v 0.341110 0.194502 -0.439956
v 0.213739 0.194502 -0.465433
v 0.239224 0.538414 -0.573704
v 0.334731 0.583066 -0.452713
v 0.200982 0.532113 -0.580083
v 0.344518 0.184895 -0.384333
v 0.334731 0.226357 -0.388982
v 0.200982 0.232736 -0.478191
v 0.220117 0.194502 -0.516351
v 0.200982 0.589444 -0.541848
v 0.334731 0.532113 -0.439956
vn -0.5259 0.1399 0.8390
vn 0.4549 0.3305 -0.8269
vn 0.5446 -0.1589 -0.8235
vn 0.9936 0.0865 0.0721
vn 0.3358 0.8738 -0.3517
vn -1.0000 0.0000 0.0000
vn 0.1137 0.2763 -0.9543
vn 0.1886 -0.1645 -0.9682
vn 0.5479 0.1376 0.8252
vn 0.9999 0.0127 0.0106
vn 0.9979 -0.0122 -0.0633
vn -0.0849 -0.9962 0.0189
vn -0.5284 -0.0296 0.8485
vn 0.0000 0.1644 0.9864
vn 0.0000 0.1114 0.9938
vn -0.9462 -0.2454 0.2107
vn -0.5493 0.0938 0.8303
vn -0.5462 0.1272 0.8280
vn 0.3115 -0.1731 -0.9343
vn 0.5263 -0.1682 -0.8335
vn 0.1110 -0.9782 -0.1757
vn 0.0352 -0.9938 -0.1054
vn 0.1866 0.9594 -0.2114
vn -0.4983 0.3877 0.7755
vn -0.3989 0.5088 -0.7629
vn 0.4369 0.2185 0.8726
vn -0.5073 0.2093 0.8360
vn -0.0008 0.1644 0.9864
usemtl Shape.6455
s off
f 6//1 13//1 17//1
f 1//2 4//2 9//2
f 4//3 7//3 9//3
f 3//4 4//4 10//4
f 4//5 1//5 10//5
f 5//6 6//6 11//6
f 1//7 9//7 11//7
f 9//8 5//8 11//8
f 3//9 2//9 12//9
f 4//10 3//10 12//10
f 7//11 4//11 12//11
f 8//12 5//12 12//12
f 8//13 12//13 13//13
f 2//14 3//14 13//14
f 12//15 2//15 13//15
f 6//6 5//6 14//6
f 5//16 8//16 14//16
f 8//17 13//17 14//17
f 13//18 6//18 14//18
f 5//19 9//19 15//19
f 9//20 7//20 15//20
f 7//21 12//21 15//21
f 12//22 5//22 15//22
f 10//23 1//23 16//23
f 6//24 10//24 16//24
f 11//6 6//6 16//6
f 1//25 11//25 16//25
f 3//26 10//26 17//26
f 10//27 6//27 17//27
f 13//28 3//28 17//28
