# Blender v2.79 (sub 0) OBJ File: ''
# www.blender.org
mtllib 102358_link_0_10.mtl
o Shape_IndexedFaceSet.010_Shape_IndexedFaceSet.4852
v 0.455398 0.623569 0.616491
v 0.475726 0.614867 0.541064
v 0.475726 0.625017 0.541064
v 0.348043 0.619222 0.667284
v 0.366913 0.643885 0.667284
v 0.384325 0.604713 0.668734
v 0.506177 0.600354 0.541064
v 0.511992 0.636625 0.541064
v 0.394464 0.639531 0.668734
v 0.506177 0.606166 0.559924
v 0.364014 0.607615 0.661472
v 0.491681 0.639526 0.541064
v 0.349501 0.633727 0.667284
v 0.400279 0.616320 0.668734
v 0.509093 0.626466 0.561373
v 0.491681 0.600354 0.541064
v 0.497479 0.638077 0.562823
v 0.408977 0.643885 0.639713
v 0.519248 0.617773 0.541064
v 0.474268 0.633723 0.546875
v 0.461213 0.606166 0.561373
v 0.372711 0.639531 0.649862
v 0.369812 0.604713 0.668734
v 0.401720 0.629372 0.668734
v 0.485865 0.600354 0.565735
v 0.393023 0.607615 0.668734
v 0.501836 0.619222 0.570085
v 0.382867 0.643885 0.668734
vn -0.0483 0.0161 0.9987
vn -0.7030 0.0000 -0.7112
vn 0.0000 0.0000 -1.0000
vn -0.7029 0.0707 -0.7078
vn 0.0000 0.0000 1.0000
vn 0.1413 0.9896 0.0282
vn 0.6088 0.5360 0.5848
vn 0.6709 0.6204 0.4061
vn -0.0639 0.9932 -0.0974
vn 0.0997 0.9942 0.0396
vn 0.7865 -0.5902 0.1819
vn 0.8907 0.3428 0.2986
vn 0.8544 -0.1581 0.4949
vn -0.4148 0.4561 -0.7874
vn -0.6525 0.3420 -0.6762
vn -0.6468 -0.4149 -0.6399
vn -0.6062 -0.5433 -0.5808
vn -0.5260 -0.5783 -0.6236
vn -0.4195 -0.8171 -0.3955
vn -0.2953 0.8991 -0.3230
vn -0.4705 0.8065 -0.3581
vn -0.4143 0.7894 -0.4530
vn -0.5910 0.5251 -0.6124
vn -0.5562 -0.8230 0.1152
vn -0.0623 0.0063 0.9980
vn -0.2357 -0.9526 -0.1925
vn 0.6912 -0.0763 0.7186
vn 0.6919 0.2253 0.6859
vn 0.6360 0.4543 0.6238
vn 0.3368 -0.8998 0.2773
vn 0.0000 -1.0000 0.0000
vn 0.0000 -0.9991 0.0423
vn -0.0474 -0.9988 -0.0112
vn 0.5977 -0.4982 0.6282
vn 0.2985 -0.8947 0.3321
vn 0.3531 -0.8555 0.3786
vn 0.6900 -0.1614 0.7056
vn 0.6678 -0.3060 0.6785
vn 0.7070 0.1282 0.6955
vn 0.8191 -0.1570 0.5517
vn -0.0894 0.1533 0.9841
vn 0.3339 0.8893 0.3125
vn 0.0000 1.0000 0.0000
vn 0.2786 0.9271 0.2507
usemtl Shape.4856
s off
f 13//1 23//1 28//1
f 3//2 2//2 4//2
f 2//3 3//3 7//3
f 7//3 3//3 8//3
f 8//3 3//3 12//3
f 3//4 4//4 13//4
f 9//5 6//5 14//5
f 2//3 7//3 16//3
f 8//6 12//6 17//6
f 9//7 15//7 17//7
f 15//8 8//8 17//8
f 12//9 5//9 18//9
f 17//10 12//10 18//10
f 7//3 8//3 19//3
f 10//11 7//11 19//11
f 8//12 15//12 19//12
f 15//13 10//13 19//13
f 12//14 3//14 20//14
f 3//15 13//15 20//15
f 4//16 2//16 21//16
f 11//17 4//17 21//17
f 2//18 16//18 21//18
f 16//19 11//19 21//19
f 5//20 12//20 22//20
f 13//21 5//21 22//21
f 12//22 20//22 22//22
f 20//23 13//23 22//23
f 6//5 9//5 23//5
f 4//24 11//24 23//24
f 13//25 4//25 23//25
f 11//26 16//26 23//26
f 14//27 1//27 24//27
f 9//5 14//5 24//5
f 1//28 15//28 24//28
f 15//29 9//29 24//29
f 7//30 10//30 25//30
f 16//31 7//31 25//31
f 6//32 23//32 25//32
f 23//33 16//33 25//33
f 14//5 6//5 26//5
f 10//34 14//34 26//34
f 6//35 25//35 26//35
f 25//36 10//36 26//36
f 1//37 14//37 27//37
f 14//38 10//38 27//38
f 15//39 1//39 27//39
f 10//40 15//40 27//40
f 5//41 13//41 28//41
f 9//42 17//42 28//42
f 18//43 5//43 28//43
f 17//44 18//44 28//44
f 23//5 9//5 28//5
