# Blender v2.79 (sub 0) OBJ File: ''
# www.blender.org
mtllib 102358_link_1_5.mtl
o Shape_IndexedFaceSet.005_Shape_IndexedFaceSet.6412
v -0.187590 -0.474996 0.423121
v -0.343811 -0.492556 0.309873
v -0.353211 -0.493460 0.311744
v -0.021969 -0.493460 0.407254
v -0.283079 -0.461616 0.305353
v -0.021969 -0.461616 0.464604
v -0.047454 -0.493460 0.464604
v -0.308596 -0.461616 0.356327
v -0.021969 -0.461616 0.413630
v -0.276723 -0.493460 0.305353
v -0.283079 -0.493460 0.375438
vn -0.6693 -0.0940 0.7370
vn -0.2133 0.2821 -0.9354
vn 0.0000 -1.0000 -0.0000
vn -0.2533 0.2027 0.9459
vn 0.7376 -0.5903 0.3278
vn -0.4200 0.8828 -0.2103
vn -0.1984 0.8275 0.5252
vn 0.0000 1.0000 0.0000
vn 0.3767 0.1819 -0.9083
vn 1.0000 0.0000 0.0000
vn -0.0534 -0.7674 -0.6390
vn 0.3704 0.0739 -0.9259
vn -0.0674 -0.0135 -0.9976
vn -0.3055 -0.5049 0.8073
vn -0.4649 0.1511 0.8724
usemtl Shape.6420
s off
f 8//1 3//1 11//1
f 2//2 3//2 5//2
f 3//3 4//3 7//3
f 6//4 1//4 7//4
f 4//5 6//5 7//5
f 5//6 3//6 8//6
f 1//7 6//7 8//7
f 6//8 5//8 8//8
f 4//9 5//9 9//9
f 6//10 4//10 9//10
f 5//8 6//8 9//8
f 3//11 2//11 10//11
f 4//3 3//3 10//3
f 5//12 4//12 10//12
f 2//13 5//13 10//13
f 7//14 1//14 11//14
f 3//3 7//3 11//3
f 1//15 8//15 11//15
