# Blender v2.79 (sub 0) OBJ File: ''
# www.blender.org
mtllib 102358_link_1_0.mtl
o Shape_IndexedFaceSet_Shape_IndexedFaceSet.6407
v -0.341623 -0.482235 -0.325065
v -0.022013 -0.493471 0.063291
v -0.422774 -0.479719 0.072712
v -0.448742 -0.538047 0.063238
v -0.022013 -0.538047 -0.452669
v -0.016362 -0.480006 -0.432668
v -0.022013 -0.538047 0.063291
v -0.391478 -0.529867 -0.233737
v -0.459968 -0.481747 -0.112276
v -0.154094 -0.512416 -0.447074
v -0.278311 -0.534108 -0.342025
v -0.121464 -0.481582 -0.457655
v -0.468121 -0.481493 0.055964
v -0.458164 -0.512427 -0.100926
v -0.292775 -0.512360 -0.371189
v -0.098425 -0.538047 -0.446309
v -0.403296 -0.482000 -0.253060
v -0.027613 -0.481433 -0.471457
v -0.287589 -0.482045 -0.380534
v -0.400878 -0.506398 -0.252349
v -0.366312 -0.534128 -0.243123
vn -0.0454 -0.9981 -0.0406
vn 0.0349 0.9990 0.0275
vn 0.0235 0.0000 0.9997
vn -0.0001 -0.1603 0.9871
vn 0.0000 -1.0000 0.0000
vn 0.9999 0.0000 0.0114
vn 0.9953 -0.0969 0.0000
vn -0.3465 0.0019 0.9380
vn -0.0379 0.9993 -0.0033
vn -0.9959 -0.0764 -0.0481
vn -0.4540 -0.8839 -0.1119
vn -0.9461 -0.3237 0.0038
vn -0.4155 -0.8158 -0.4023
vn -0.2929 -0.8304 -0.4740
vn -0.3281 -0.7304 -0.5990
vn -0.0086 0.9999 -0.0075
vn -0.0152 0.9999 -0.0079
vn 0.9604 0.0025 -0.2787
vn -0.0067 0.9994 -0.0348
vn -0.1428 -0.1827 -0.9727
vn -0.0786 -0.3210 -0.9438
vn -0.1154 -0.2791 -0.9533
vn -0.0109 0.9998 -0.0174
vn -0.4176 0.1335 -0.8988
vn -0.7131 -0.0922 -0.6950
vn -0.4718 -0.1850 -0.8621
vn -0.0567 0.9970 -0.0518
vn -0.0092 0.9999 -0.0087
vn -0.9167 -0.1849 -0.3542
vn -0.7694 -0.5566 -0.3133
vn -0.7320 -0.1814 -0.6567
vn -0.5876 -0.6340 -0.5027
vn -0.7563 -0.0938 -0.6475
vn -0.9229 -0.1023 -0.3713
vn -0.1896 -0.9798 -0.0635
vn -0.2401 -0.9469 -0.2138
vn -0.0305 -0.9993 -0.0210
usemtl Shape.6415
s off
f 11//1 16//1 21//1
f 3//2 2//2 6//2
f 2//3 3//3 7//3
f 3//4 4//4 7//4
f 4//5 5//5 7//5
f 6//6 2//6 7//6
f 5//7 6//7 7//7
f 4//8 3//8 13//8
f 3//9 9//9 13//9
f 13//10 9//10 14//10
f 8//11 4//11 14//11
f 4//12 13//12 14//12
f 11//13 8//13 15//13
f 5//5 4//5 16//5
f 11//14 15//14 16//14
f 15//15 10//15 16//15
f 3//16 6//16 17//16
f 9//17 3//17 17//17
f 6//18 5//18 18//18
f 12//19 6//19 18//19
f 10//20 12//20 18//20
f 5//21 16//21 18//21
f 16//22 10//22 18//22
f 6//23 12//23 19//23
f 12//24 10//24 19//24
f 15//25 1//25 19//25
f 10//26 15//26 19//26
f 1//27 17//27 19//27
f 17//28 6//28 19//28
f 14//29 9//29 20//29
f 8//30 14//30 20//30
f 1//31 15//31 20//31
f 15//32 8//32 20//32
f 17//33 1//33 20//33
f 9//34 17//34 20//34
f 4//35 8//35 21//35
f 8//36 11//36 21//36
f 16//37 4//37 21//37
