# Blender v2.79 (sub 0) OBJ File: ''
# www.blender.org
mtllib 102358_link_0_15.mtl
o Shape_IndexedFaceSet.015_Shape_IndexedFaceSet.4857
v -0.516977 0.590303 0.024437
v -0.586435 0.584398 -0.037913
v -0.586435 0.595996 -0.037913
v -0.555957 0.597446 0.025933
v -0.535655 0.610506 -0.005990
v -0.544361 0.574241 -0.017596
v -0.586435 0.574241 -0.008890
v -0.586435 0.610506 -0.016146
v -0.540008 0.572791 0.025933
v -0.541463 0.611956 0.025933
v -0.538559 0.593096 -0.023402
v -0.521147 0.581494 0.002709
v -0.518243 0.606152 0.012871
v -0.569016 0.604703 -0.033557
v -0.586435 0.571342 -0.024851
v -0.586435 0.598899 -0.003097
v -0.566111 0.582948 -0.035007
v -0.529853 0.572791 0.023027
v -0.554501 0.584398 0.025933
v -0.586435 0.610506 -0.026301
v -0.534206 0.613409 0.014321
v -0.521147 0.607602 0.025933
v -0.532758 0.603253 -0.014696
v -0.519699 0.594546 -0.000197
v -0.586435 0.581494 -0.003097
v -0.513890 0.590201 0.021577
v -0.548714 0.609056 0.025933
vn -0.5804 0.6085 0.5412
vn -1.0000 0.0000 0.0000
vn 0.0000 0.0000 1.0000
vn 0.6712 -0.3989 -0.6248
vn -0.1626 -0.9708 0.1763
vn 0.1415 0.0000 -0.9899
vn 0.4756 -0.3893 -0.7888
vn 0.1983 0.0915 -0.9759
vn 0.3515 0.1089 -0.9298
vn 0.0506 -0.7064 -0.7060
vn 0.1565 -0.7913 -0.5911
vn 0.2650 -0.2694 0.9259
vn 0.4391 -0.8785 -0.1882
vn 0.0796 -0.9948 -0.0639
vn 0.0065 -0.9997 0.0226
vn -0.4879 -0.6092 0.6251
vn -0.1163 0.6206 -0.7755
vn 0.1494 0.9155 -0.3735
vn -0.0936 0.9934 0.0658
vn 0.3968 0.9043 -0.1576
vn -0.0555 0.9985 0.0000
vn 0.0581 0.9877 -0.1453
vn 0.1096 -0.0594 0.9922
vn 0.2031 0.9479 0.2456
vn 0.4131 0.9106 -0.0092
vn 0.5958 0.7033 -0.3877
vn 0.3140 0.7782 -0.5438
vn 0.4294 0.4337 -0.7921
vn 0.7637 -0.2199 -0.6070
vn 0.7688 0.1020 -0.6313
vn 0.7856 0.4165 -0.4575
vn -0.6897 0.0000 0.7241
vn -0.6671 -0.0744 0.7413
vn -0.5471 -0.5224 0.6541
vn 0.5863 -0.4834 0.6501
vn 0.7379 -0.6743 0.0274
vn 0.6780 0.1005 0.7282
vn 0.9241 0.3435 0.1673
vn 0.9436 -0.1682 -0.2853
vn 0.9635 0.1376 -0.2296
vn -0.3489 0.8722 0.3428
vn -0.6252 0.3901 0.6760
usemtl Shape.4861
s off
f 8//1 16//1 27//1
f 3//2 2//2 7//2
f 3//2 7//2 8//2
f 4//3 9//3 10//3
f 6//4 11//4 12//4
f 7//2 2//2 15//2
f 9//5 7//5 15//5
f 8//2 7//2 16//2
f 2//6 3//6 17//6
f 11//7 6//7 17//7
f 3//8 14//8 17//8
f 14//9 11//9 17//9
f 15//10 2//10 17//10
f 6//11 15//11 17//11
f 1//12 9//12 18//12
f 6//13 12//13 18//13
f 15//14 6//14 18//14
f 9//15 15//15 18//15
f 9//3 4//3 19//3
f 7//16 9//16 19//16
f 3//2 8//2 20//2
f 14//17 3//17 20//17
f 5//18 14//18 20//18
f 8//19 10//19 21//19
f 13//20 5//20 21//20
f 20//21 8//21 21//21
f 5//22 20//22 21//22
f 9//23 1//23 22//23
f 10//3 9//3 22//3
f 21//24 10//24 22//24
f 13//25 21//25 22//25
f 5//26 13//26 23//26
f 14//27 5//27 23//27
f 11//28 14//28 23//28
f 12//29 11//29 24//29
f 11//30 23//30 24//30
f 23//31 13//31 24//31
f 4//32 16//32 25//32
f 16//2 7//2 25//2
f 19//33 4//33 25//33
f 7//34 19//34 25//34
f 1//35 18//35 26//35
f 18//36 12//36 26//36
f 22//37 1//37 26//37
f 13//38 22//38 26//38
f 12//39 24//39 26//39
f 24//40 13//40 26//40
f 4//3 10//3 27//3
f 10//41 8//41 27//41
f 16//42 4//42 27//42
