# Blender v2.79 (sub 0) OBJ File: ''
# www.blender.org
mtllib 102358_link_1_36.mtl
o Shape_IndexedFaceSet.036_Shape_IndexedFaceSet.6443
v -0.327717 0.162690 -0.388982
v -0.213085 0.169057 -0.459054
v -0.327717 0.149912 -0.452713
v -0.334089 0.582991 -0.465433
v -0.206700 0.557564 -0.522730
v -0.206700 0.162690 -0.516351
v -0.327717 0.538418 -0.522730
v -0.219457 0.538418 -0.580083
v -0.208170 0.584372 -0.565414
v -0.327717 0.538418 -0.452713
v -0.206700 0.149912 -0.465433
v -0.334089 0.149912 -0.446334
v -0.334089 0.149912 -0.388982
v -0.327717 0.570299 -0.522730
v -0.244932 0.149912 -0.497252
v -0.334089 0.532093 -0.516351
v -0.206700 0.532093 -0.580083
v -0.219457 0.582991 -0.522730
v -0.206700 0.525726 -0.516351
vn 1.0000 -0.0000 0.0000
vn 0.5229 -0.1074 0.8456
vn 0.0000 -1.0000 0.0000
vn -0.3179 0.1586 0.9348
vn -0.5999 0.1391 0.7879
vn 0.4984 -0.2486 0.8305
vn -1.0000 -0.0000 0.0000
vn -0.4681 0.0000 -0.8837
vn -0.3510 0.3619 -0.8636
vn -0.1953 0.9527 -0.2328
vn -0.4679 -0.1567 -0.8698
vn -0.4624 -0.1558 -0.8729
vn -0.3955 -0.1666 -0.9032
vn 0.1985 -0.9506 -0.2386
vn -0.6290 -0.1379 -0.7651
vn -0.7016 -0.1284 -0.7009
vn -0.9802 0.1401 -0.1400
vn -0.7075 0.0000 -0.7067
vn -0.0840 -0.1694 -0.9820
vn 0.1345 0.2712 -0.9531
vn 0.9994 0.0321 -0.0143
vn 0.0186 0.9991 0.0372
vn 0.8670 0.4350 0.2433
vn 0.4259 0.3041 0.8521
vn 0.4597 0.2306 0.8576
vn 0.5122 0.1273 0.8494
vn 0.4724 0.1474 0.8690
vn 0.4726 0.1731 0.8641
vn 0.8123 0.0783 0.5780
usemtl Shape.6451
s off
f 11//1 5//1 19//1
f 2//2 1//2 11//2
f 6//1 5//1 11//1
f 3//3 11//3 12//3
f 12//3 11//3 13//3
f 1//4 10//4 13//4
f 10//5 4//5 13//5
f 11//6 1//6 13//6
f 4//7 12//7 13//7
f 8//8 7//8 14//8
f 9//9 8//9 14//9
f 4//10 9//10 14//10
f 3//11 7//11 15//11
f 7//12 8//12 15//12
f 8//13 6//13 15//13
f 11//3 3//3 15//3
f 6//14 11//14 15//14
f 7//15 3//15 16//15
f 12//7 4//7 16//7
f 3//16 12//16 16//16
f 4//17 14//17 16//17
f 14//18 7//18 16//18
f 5//1 6//1 17//1
f 6//19 8//19 17//19
f 8//20 9//20 17//20
f 9//21 5//21 17//21
f 9//22 4//22 18//22
f 5//23 9//23 18//23
f 4//24 10//24 18//24
f 10//25 5//25 18//25
f 1//26 2//26 19//26
f 10//27 1//27 19//27
f 5//28 10//28 19//28
f 2//29 11//29 19//29
