# Blender v2.79 (sub 0) OBJ File: ''
# www.blender.org
mtllib 102358_link_1_14.mtl
o Shape_IndexedFaceSet.014_Shape_IndexedFaceSet.6421
v -0.455124 0.149852 0.228896
v -0.544313 0.079763 0.063324
v -0.420929 -0.490157 0.055594
v -0.416927 -0.461613 0.222526
v -0.344584 -0.489233 0.236375
v -0.499700 0.124354 0.063324
v -0.480601 -0.098601 0.228896
v -0.467863 -0.461613 0.076049
v -0.499700 0.149852 0.222526
v -0.525177 -0.092196 0.101532
v -0.544313 0.149852 0.088790
v -0.448764 0.137103 0.222526
v -0.518817 0.086108 0.171560
v -0.359594 -0.410617 0.222526
v -0.467863 -0.461613 0.063324
v -0.506078 0.149852 0.063324
v -0.531555 -0.092196 0.076049
v -0.423306 -0.461613 0.209784
v -0.423306 -0.436055 0.063324
v -0.544313 0.092512 0.095161
v -0.493340 0.073419 0.228896
v -0.410567 -0.461613 0.228896
vn -0.1223 -0.0236 0.9922
vn 0.0000 1.0000 0.0000
vn 0.8337 0.1504 0.5313
vn -0.9412 -0.0939 0.3247
vn 0.9750 0.1587 -0.1557
vn 0.9377 0.1527 -0.3122
vn -0.1773 -0.0250 -0.9838
vn -0.5196 -0.8544 0.0000
vn -0.0178 0.0097 -0.9998
vn 0.1026 0.0257 -0.9944
vn -0.5306 0.2895 -0.7967
vn 0.8109 0.5292 -0.2496
vn 0.9213 0.2304 -0.3132
vn -0.9568 -0.1650 0.2395
vn -0.7372 -0.1041 -0.6676
vn -0.9855 -0.1699 0.0000
vn -0.3752 -0.9125 0.1631
vn -0.3818 -0.9042 0.1912
vn -0.8823 -0.1625 0.4417
vn -0.4634 -0.8726 0.1544
vn -0.9336 -0.1641 0.3185
vn -0.9355 -0.1666 0.3117
vn 0.9168 0.0957 -0.3877
vn 0.8343 0.1137 -0.5394
vn 0.9170 0.1074 -0.3841
vn 0.9141 0.1246 -0.3858
vn -1.0000 0.0000 0.0000
vn -0.9480 0.0351 0.3163
vn -0.9474 0.0294 0.3186
vn -0.9471 -0.0875 0.3087
vn -0.9660 -0.0917 0.2418
vn -0.9970 -0.0718 0.0288
vn -0.0174 0.0087 0.9998
vn -0.0697 -0.0052 0.9976
vn -0.1411 0.0706 0.9875
vn -0.9172 -0.0679 0.3925
vn -0.9165 -0.0431 0.3977
vn -0.3927 -0.8319 0.3920
vn -0.7012 -0.1353 0.7001
usemtl Shape.6429
s off
f 5//1 7//1 22//1
f 9//2 1//2 11//2
f 1//3 5//3 12//3
f 10//4 7//4 13//4
f 12//5 5//5 14//5
f 6//6 12//6 14//6
f 2//7 3//7 15//7
f 3//8 8//8 15//8
f 3//9 2//9 16//9
f 6//10 3//10 16//10
f 2//11 11//11 16//11
f 11//2 1//2 16//2
f 1//12 12//12 16//12
f 12//13 6//13 16//13
f 8//14 10//14 17//14
f 2//15 15//15 17//15
f 15//16 8//16 17//16
f 3//17 5//17 18//17
f 5//18 4//18 18//18
f 4//19 7//19 18//19
f 8//20 3//20 18//20
f 7//21 10//21 18//21
f 10//22 8//22 18//22
f 5//23 3//23 19//23
f 3//24 6//24 19//24
f 14//25 5//25 19//25
f 6//26 14//26 19//26
f 11//27 2//27 20//27
f 9//28 11//28 20//28
f 13//29 9//29 20//29
f 10//30 13//30 20//30
f 17//31 10//31 20//31
f 2//32 17//32 20//32
f 5//33 1//33 21//33
f 7//34 5//34 21//34
f 1//35 9//35 21//35
f 13//36 7//36 21//36
f 9//37 13//37 21//37
f 4//38 5//38 22//38
f 7//39 4//39 22//39
