# Blender v2.79 (sub 0) OBJ File: ''
# www.blender.org
mtllib 102358_link_1_28.mtl
o Shape_IndexedFaceSet.028_Shape_IndexedFaceSet.6435
v 0.277410 -0.442472 0.311742
v 0.153316 -0.063061 0.497883
v 0.271038 0.016141 0.388186
v 0.277410 -0.092223 0.445477
v 0.144298 -0.496390 0.379519
v 0.162778 -0.474353 0.439099
v 0.150022 -0.003064 0.451837
v 0.277410 -0.474353 0.375448
v 0.188253 0.016141 0.490049
v 0.277410 0.016141 0.439099
v 0.280955 -0.488000 0.306425
v 0.181882 -0.092223 0.496428
v 0.271038 -0.442472 0.311742
v 0.150022 -0.092223 0.502824
v 0.150022 -0.474353 0.439099
v 0.150022 0.016141 0.458215
v 0.277410 0.016141 0.388186
v 0.150022 -0.034848 0.445477
v 0.271038 -0.474353 0.381808
vn 0.4651 -0.1530 0.8719
vn -0.0000 1.0000 0.0000
vn 0.4955 0.0510 0.8671
vn 0.9985 -0.0098 0.0532
vn 0.9998 0.0013 0.0218
vn 0.4705 0.0243 0.8821
vn 0.0000 0.1644 -0.9864
vn 0.0000 0.1160 -0.9932
vn -0.4717 0.0002 -0.8818
vn -0.2064 0.1861 0.9606
vn 0.1944 -0.1550 0.9686
vn 0.1966 0.0461 0.9794
vn 0.0000 -0.9379 0.3469
vn -0.9947 -0.0170 0.1018
vn 0.0000 -0.1645 0.9864
vn -0.4814 0.2763 -0.8318
vn -0.9978 0.0207 -0.0624
vn -0.6024 0.3373 0.7234
vn -0.9998 0.0081 0.0198
vn -0.8929 0.1714 0.4164
vn 0.5343 0.1390 -0.8338
vn 1.0000 0.0070 0.0000
vn -0.4798 0.1721 -0.8603
vn -0.9764 0.0424 -0.2117
vn -0.4726 0.1449 -0.8693
vn -0.5095 0.1279 -0.8509
vn 0.1582 -0.9410 0.2990
vn 0.7006 -0.1286 0.7019
vn 0.1645 -0.9666 0.1966
vn 0.1995 -0.9593 0.1999
vn 0.4622 -0.1541 0.8733
usemtl Shape.6443
s off
f 4//1 12//1 19//1
f 3//2 9//2 10//2
f 9//3 4//3 10//3
f 4//4 8//4 11//4
f 10//5 4//5 11//5
f 4//6 9//6 12//6
f 3//7 1//7 13//7
f 1//8 11//8 13//8
f 11//9 5//9 13//9
f 9//10 2//10 14//10
f 6//11 12//11 14//11
f 12//12 9//12 14//12
f 5//13 6//13 15//13
f 14//14 5//14 15//14
f 6//15 14//15 15//15
f 3//16 7//16 16//16
f 7//17 5//17 16//17
f 2//18 9//18 16//18
f 9//2 3//2 16//2
f 5//19 14//19 16//19
f 14//20 2//20 16//20
f 1//7 3//7 17//7
f 3//2 10//2 17//2
f 11//21 1//21 17//21
f 10//22 11//22 17//22
f 7//23 3//23 18//23
f 5//24 7//24 18//24
f 3//25 13//25 18//25
f 13//26 5//26 18//26
f 6//27 5//27 19//27
f 8//28 4//28 19//28
f 5//29 11//29 19//29
f 11//30 8//30 19//30
f 12//31 6//31 19//31
