# Blender v2.79 (sub 0) OBJ File: ''
# www.blender.org
mtllib 102358_link_1_6.mtl
o Shape_IndexedFaceSet.006_Shape_IndexedFaceSet.6413
v -0.302251 -0.461612 0.298983
v -0.176202 0.565805 0.569988
v -0.175553 0.583650 0.558763
v -0.170605 -0.496631 0.371420
v -0.302251 -0.092055 0.432748
v -0.295878 0.525657 0.451838
v -0.184525 -0.493274 0.425847
v -0.302251 0.538414 0.521898
v -0.174850 0.532035 0.515544
v -0.206700 -0.092055 0.490046
v -0.302251 -0.461612 0.356334
v -0.295878 -0.429719 0.298983
v -0.225818 0.538414 0.566514
v -0.301049 0.579528 0.476529
v -0.174850 0.532035 0.572895
v -0.174850 -0.436097 0.432775
v -0.299214 -0.492193 0.291014
v -0.193968 -0.079401 0.496427
v -0.302251 0.576687 0.521898
v -0.174850 0.589444 0.534661
v -0.264016 0.544793 0.547397
v -0.219445 -0.092055 0.483691
v -0.276761 -0.461612 0.375451
v -0.289506 0.583066 0.470955
vn 0.4540 0.2815 -0.8453
vn -1.0000 0.0000 -0.0000
vn 0.5438 0.1186 -0.8308
vn 0.4553 0.1407 -0.8791
vn -0.9460 0.0555 -0.3193
vn 0.9889 0.0516 0.1392
vn -0.1139 0.0807 0.9902
vn 0.9480 -0.1912 0.2543
vn 0.9967 -0.0116 0.0804
vn -0.7025 0.1133 -0.7026
vn -0.0628 -0.9970 0.0454
vn -0.9951 -0.0988 0.0000
vn -0.4366 -0.8224 0.3647
vn 0.5304 0.0793 -0.8440
vn -0.5144 0.1355 -0.8468
vn -0.3042 -0.1669 0.9379
vn -0.3439 -0.1233 0.9309
vn -0.1380 -0.1187 0.9833
vn 0.2459 -0.1575 0.9564
vn 0.5285 -0.1216 0.8402
vn -0.2648 0.5203 0.8119
vn -0.2917 0.4194 0.8596
vn -0.9996 0.0056 -0.0261
vn 0.9997 0.0071 -0.0214
vn 0.9991 0.0231 0.0347
vn 1.0000 0.0032 0.0048
vn -0.1197 0.9661 0.2288
vn -0.5372 -0.1181 0.8351
vn -0.5548 0.0000 0.8320
vn -0.4067 0.2211 0.8864
vn -0.4401 -0.1655 0.8826
vn -0.4429 -0.1212 0.8883
vn -0.5201 -0.1210 0.8455
vn -0.4603 -0.1202 0.8796
vn -0.5919 -0.1632 0.7893
vn -0.5421 -0.4287 0.7228
vn -0.5167 -0.1659 0.8399
vn -0.5161 -0.1661 0.8403
vn 0.4424 0.2387 -0.8644
vn -0.4901 0.3239 -0.8093
vn -0.2691 0.9616 0.0531
vn -0.1088 0.9894 0.0967
usemtl Shape.6421
s off
f 20//1 9//1 24//1
f 1//2 5//2 8//2
f 5//2 1//2 11//2
f 9//3 4//3 12//3
f 6//4 9//4 12//4
f 6//5 1//5 14//5
f 3//6 2//6 15//6
f 2//7 13//7 15//7
f 7//8 4//8 16//8
f 4//9 15//9 16//9
f 1//10 6//10 17//10
f 4//11 7//11 17//11
f 11//12 1//12 17//12
f 7//13 11//13 17//13
f 12//14 4//14 17//14
f 6//15 12//15 17//15
f 10//16 7//16 18//16
f 13//17 10//17 18//17
f 15//18 13//18 18//18
f 7//19 16//19 18//19
f 16//20 15//20 18//20
f 2//21 3//21 19//21
f 1//2 8//2 19//2
f 13//22 2//22 19//22
f 14//23 1//23 19//23
f 4//24 9//24 20//24
f 3//25 15//25 20//25
f 15//26 4//26 20//26
f 19//27 3//27 20//27
f 8//28 5//28 21//28
f 19//29 8//29 21//29
f 13//30 19//30 21//30
f 7//31 10//31 22//31
f 10//32 13//32 22//32
f 21//33 5//33 22//33
f 13//34 21//34 22//34
f 5//35 11//35 23//35
f 11//36 7//36 23//36
f 22//37 5//37 23//37
f 7//38 22//38 23//38
f 9//39 6//39 24//39
f 6//40 14//40 24//40
f 14//41 19//41 24//41
f 19//42 20//42 24//42
