# SSTK version 0.8.0
# 8
mtllib original-8.mtl
o #ID67
v 0.566816 0.711012 -0.00162
v 0.6132878500229737 0.55483611 0.00680295054303897
v 0.640178 0.711012 0.002225
v 0.5404224833481324 0.55483611 0.0029839797561906738
v 0.5404224833481324 0.55483611 0.0029839797561906738
v 0.566816 0.711012 -0.00162
v 0.6132878500229737 0.55483611 0.00680295054303897
v 0.640178 0.711012 0.002225
v 0.6132878500229737 0.55483611 0.00680295054303897
v 0.5138803880719434 0.55483611 0.14619389441744135
v 0.5832744145907289 0.55483611 0.16874221036101225
v 0.5404224833481324 0.55483611 0.0029839797561906738
v 0.5404224833481324 0.55483611 0.0029839797561906738
v 0.6132878500229737 0.55483611 0.00680295054303897
v 0.5138803880719434 0.55483611 0.14619389441744135
v 0.5832744145907289 0.55483611 0.16874221036101225
v 0.627168 0.711012 -0.163084
v 0.566816 0.711012 -0.00162
v 0.640178 0.711012 0.002225
v 0.55531 0.711012 -0.14781
v 0.55531 0.711012 -0.14781
v 0.627168 0.711012 -0.163084
v 0.566816 0.711012 -0.00162
v 0.640178 0.711012 0.002225
v 0.4511767613503517 0.55483611 0.27765488698828145
v 0.5123706779039305 0.55483611 0.31739502747009873
v 0.4511767613503517 0.55483611 0.27765488698828145
v 0.5123706779039305 0.55483611 0.31739502747009873
v 0.6003659228612321 0.55483611 -0.15738696930172189
v 0.55531 0.711012 -0.14781
v 0.627168 0.711012 -0.163084
v 0.5289953678987984 0.55483611 -0.1422163685739401
v 0.5289953678987984 0.55483611 -0.1422163685739401
v 0.6003659228612321 0.55483611 -0.15738696930172189
v 0.55531 0.711012 -0.14781
v 0.627168 0.711012 -0.163084
v 0.35658448025098327 0.55483611 0.38840801949800324
v 0.4054087057305936 0.55483611 0.4426314452890069
v 0.35658448025098327 0.55483611 0.38840801949800324
v 0.4054087057305936 0.55483611 0.4426314452890069
v 0.5453896284469695 0.55483611 -0.31263682255287506
v 0.5289953678987984 0.55483611 -0.1422163685739401
v 0.6003659228612321 0.55483611 -0.15738696930172189
v 0.4803767411065424 0.55483611 -0.27951159635985096
v 0.4803767411065424 0.55483611 -0.27951159635985096
v 0.5453896284469695 0.55483611 -0.31263682255287506
v 0.5289953678987984 0.55483611 -0.1422163685739401
v 0.6003659228612321 0.55483611 -0.15738696930172189
v 0.23655159635985096 0.55483611 0.47090474110654235
v 0.26967682255287506 0.55483611 0.5359176284469696
v 0.23655159635985096 0.55483611 0.47090474110654235
v 0.26967682255287506 0.55483611 0.5359176284469696
v 0.4521034452890069 0.55483611 -0.4483687057305936
v 0.3978800194980032 0.55483611 -0.39954448025098327
v 0.3978800194980032 0.55483611 -0.39954448025098327
v 0.4521034452890069 0.55483611 -0.4483687057305936
v 0.11442696930172189 0.55483611 0.5908939228612322
v 0.0992563685739401 0.55483611 0.5195233678987983
v 0.0992563685739401 0.55483611 0.5195233678987983
v 0.11442696930172189 0.55483611 0.5908939228612322
v 0.2871268869882815 0.55483611 -0.49413676135035167
v 0.3268670274700987 0.55483611 -0.5553306779039304
v 0.3268670274700987 0.55483611 -0.5553306779039304
v 0.2871268869882815 0.55483611 -0.49413676135035167
v -0.04976295054303897 0.55483611 0.6038158500229738
v -0.045943979756190675 0.55483611 0.5309504833481324
v -0.045943979756190675 0.55483611 0.5309504833481324
v -0.04976295054303897 0.55483611 0.6038158500229738
v 0.15566589441744136 0.55483611 -0.5568403880719432
v 0.17821421036101226 0.55483611 -0.6262344145907288
v 0.17821421036101226 0.55483611 -0.6262344145907288
v 0.15566589441744136 0.55483611 -0.5568403880719432
v -0.21170221036101225 0.55483611 0.5738024145907288
v -0.18915389441744135 0.55483611 0.5044083880719434
v -0.18915389441744135 0.55483611 0.5044083880719434
v -0.21170221036101225 0.55483611 0.5738024145907288
v 0.012455979756190675 0.55483611 -0.5833824833481325
v 0.01627495054303897 0.55483611 -0.6562478500229736
v 0.01627495054303897 0.55483611 -0.6562478500229736
v 0.012455979756190675 0.55483611 -0.5833824833481325
v -0.36035502747009873 0.55483611 0.5028986779039306
v -0.32061488698828144 0.55483611 0.4417047613503517
v -0.32061488698828144 0.55483611 0.4417047613503517
v -0.36035502747009873 0.55483611 0.5028986779039306
v -0.1327443685739401 0.55483611 -0.5719553678987983
v -0.14791496930172188 0.55483611 -0.643325922861232
v -0.14791496930172188 0.55483611 -0.643325922861232
v -0.1327443685739401 0.55483611 -0.5719553678987983
v -0.48559144528900694 0.55483611 0.39593670573059364
v -0.43136801949800324 0.55483611 0.3471124802509833
v -0.43136801949800324 0.55483611 0.3471124802509833
v -0.48559144528900694 0.55483611 0.39593670573059364
v -0.270039596359851 0.55483611 -0.5233367411065424
v -0.3031648225528751 0.55483611 -0.5883496284469694
v -0.3031648225528751 0.55483611 -0.5883496284469694
v -0.270039596359851 0.55483611 -0.5233367411065424
v -0.5788776284469694 0.55483611 0.260204822552875
v -0.5138647411065422 0.55483611 0.22707959635985098
v -0.5138647411065422 0.55483611 0.22707959635985098
v -0.5788776284469694 0.55483611 0.260204822552875
v -0.43889670573059364 0.55483611 -0.4950634452890069
v -0.390073473481357 0.55483611 -0.4408400194980032
v -0.43889670573059364 0.55483611 -0.4950634452890069
v -0.390073473481357 0.55483611 -0.4408400194980032
v -0.5624833678987982 0.55483611 0.08978436857394011
v -0.6338539228612321 0.55483611 0.10495496930172188
v -0.6338539228612321 0.55483611 0.10495496930172188
v -0.5624833678987982 0.55483611 0.08978436857394011
v -0.5458586779039305 0.55483611 -0.36982702747009877
v -0.4846647613503517 0.55483611 -0.3300868869882815
v -0.5458586779039305 0.55483611 -0.36982702747009877
v -0.4846647613503517 0.55483611 -0.3300868869882815
v -0.588798 0.711012 0.095378
v -0.6338539228612321 0.55483611 0.10495496930172188
v -0.5624833678987982 0.55483611 0.08978436857394011
v -0.660656 0.711012 0.110652
v -0.660656 0.711012 0.110652
v -0.588798 0.711012 0.095378
v -0.6338539228612321 0.55483611 0.10495496930172188
v -0.5624833678987982 0.55483611 0.08978436857394011
v -0.6167624145907287 0.55483611 -0.22117421036101226
v -0.5473683880719433 0.55483611 -0.19862589441744136
v -0.6167624145907287 0.55483611 -0.22117421036101226
v -0.5473683880719433 0.55483611 -0.19862589441744136
v -0.600304 0.711012 -0.050812
v -0.660656 0.711012 0.110652
v -0.588798 0.711012 0.095378
v -0.673666 0.711012 -0.054657
v -0.673666 0.711012 -0.054657
v -0.600304 0.711012 -0.050812
v -0.660656 0.711012 0.110652
v -0.588798 0.711012 0.095378
v -0.6467768432533474 0.55483611 -0.05923495054303897
v -0.5739104833481325 0.55483611 -0.05541597975619067
v -0.6467768432533474 0.55483611 -0.05923495054303897
v -0.5739104833481325 0.55483611 -0.05541597975619067
v -0.6467768432533474 0.55483611 -0.05923495054303897
v -0.600304 0.711012 -0.050812
v -0.5739104833481325 0.55483611 -0.05541597975619067
v -0.673666 0.711012 -0.054657
v -0.673666 0.711012 -0.054657
v -0.6467768432533474 0.55483611 -0.05923495054303897
v -0.600304 0.711012 -0.050812
v -0.5739104833481325 0.55483611 -0.05541597975619067
vt -0.2113293 -12.0782
vt -0.3823109 -12.20512
vt -0.2077275 -12.23803
vt -0.3859127 -12.0453
vt -0.2966307 -11.87112
vt -0.3754892 -11.84426
vt -0.3026635 -12.19025
vt -0.2212998 -12.59813
vt -0.1294271 -12.27077
vt -0.1414298 -12.58923
vt -0.2961216 -11.50407
vt -0.3754275 -11.48314
vt -0.296176 -11.82343
vt -0.6348825 -12.23936
vt -0.5298917 -12.5367
vt -0.4814907 -12.40932
vt -0.6832835 -12.36674
vt -0.3024839 -11.13725
vt -0.3821262 -11.12226
vt -0.2965599 -11.45638
vt -0.02308742 -3.175644
vt 0.01638741 -2.808643
vt -0.06325748 -2.823572
vt 0.05191165 -3.119997
vt -0.3157087 -10.77115
vt -0.3955756 -10.76214
vt -0.3038147 -11.08962
vt 0.01046371 -3.530478
vt 0.05678111 -3.166689
vt 0.08645192 -3.480485
vt -0.3179301 -10.72366
vt -0.4157571 -10.40328
vt -0.3357774 -10.40631
vt 0.1142197 -3.843307
vt 0.09044388 -3.52751
vt 0.03734886 -3.887575
vt -0.3388863 -10.35902
vt -0.4426422 -10.04619
vt -0.3626621 -10.04322
vt 0.1351759 -4.207954
vt 0.1173285 -3.890597
vt 0.05753032 -4.246434
vt -0.366654 -9.996194
vt -0.4761933 -9.691353
vt -0.3963248 -9.682398
vt 0.1492913 -4.573914
vt 0.1373973 -4.255444
vt 0.0709798 -4.606554
vt -0.02187149 -5.791357
vt -0.06122112 -5.424302
vt -0.1015113 -5.776319
vt 0.01375896 -5.480052
vt 0.1565461 -4.940675
vt 0.1506221 -4.621537
vt 0.07767843 -4.967428
vt 0.01864434 -5.433366
vt -0.02754895 -5.069514
vt 0.04842219 -5.119611
vt 0.15693 -5.307721
vt 0.1569844 -4.988364
vt 0.07761684 -5.32855
vt 0.05243019 -5.072591
vt -0.0005419994 -4.712454
vt 0.07631369 -4.756827
vt 0.1564753 -5.35541
vt 0.07079509 -5.689415
vt 0.1504425 -5.67454
vt 0.09739433 -4.392209
vt 0.07943868 -4.70954
vt 0.01976188 -4.353622
vt 0.1490955 -5.722161
vt 0.05722277 -6.049516
vt 0.1370928 -6.040615
vt -0.2737947 -10.43544
vt -0.4179846 -10.21332
vt -0.4454331 -10.3636
vt -0.2463463 -10.28516
vt 0.1195236 -3.29247
vt 0.04015594 -3.632656
vt 0.1194691 -3.611828
vt 0.04021753 -3.271534
vt 0.2862181 -4.059173
vt 0.1943454 -4.386527
vt 0.2742154 -4.377627
vt 0.2079177 -4.026427
vt 0.1190144 -3.659517
vt 0.0333342 -3.993521
vt 0.1129816 -3.978646
vt 0.2043159 -3.866601
vt 0.02973241 -3.833695
vt -0.3337927 2.444331
vt -0.3094959 2.791663
vt -0.2537988 2.444331
vt -0.229502 2.791663
vt 0.3858303 0.3253428
vt 0.3458333 0.1867893
vt 0.2591487 0.5197552
vt 0.2025845 0.4066267
vt 0.5268438 0.1545364
vt 0.5061398 0
vt 0.37932 0.2767491
vt 0.339323 0.1381956
vt 0.1619425 0.7731183
vt 0.09266576 0.6931244
vt 0.2361465 2.427083
vt 0.1561526 2.427083
vt 0.2109926 2.77417
vt 0.1309986 2.77417
vt 0.1008362 1.068166
vt 0.02356797 1.026758
vt 0.6916667 0.1614456
vt 0.6916667 0.001457745
vt 0.5333541 0.2031301
vt 0.5126502 0.04859368
vt 0.07999393 1.384791
vt 0 1.384791
vt 0.8499792 0.2031301
vt 0.8706832 0.04859368
vt 0.1008362 1.701416
vt 0.02356797 1.742824
vt 1.0375 0.1867893
vt 0.997503 0.3253428
vt 0.1619425 1.996464
vt 0.09266576 2.076458
vt 1.180749 0.4066267
vt 1.124185 0.5197552
vt 0.2591487 2.249827
vt 0.2025845 2.362955
vt 1.290668 0.6931244
vt 1.221391 0.7731183
vt 0.3858303 2.444239
vt 0.3458333 2.582793
vt 1.359765 1.026758
vt 1.282497 1.068166
vt 0.5333541 2.566452
vt 0.5126502 2.720988
vt 1.383333 1.384791
vt 1.303339 1.384791
vt 0.6916667 2.608137
vt 0.6916667 2.768124
vt 1.359765 1.742824
vt 1.282497 1.701416
vt 0.8706832 2.720988
vt 0.8499792 2.566452
vt 1.290668 2.076458
vt 1.221391 1.996464
vt -1.56464 2.77417
vt -1.484646 2.77417
vt -1.539486 2.427083
vt -1.459492 2.427083
vt 1.180749 2.362955
vt 1.124185 2.249827
vt 1.04401 2.631387
vt 1.004013 2.492833
vt 0.8771935 2.769582
vt 0.8564895 2.615046
vt 1.0375 2.582793
vt 0.997503 2.444239
vt 1.661429 2.753755
vt 1.637132 2.406423
vt 1.581435 2.753755
vt 1.557138 2.406423
vn -0.0522991128295356 0.03748766974521212 0.9979275912681829
vn 0 1 0
vn -0.20791172677600145 0 -0.9781475930906447
vn 0.20791172677600145 0 0.9781475930906447
vn 0.0522991128295356 0.03748766974521167 -0.9979275912681829
vn 0.0522991128295356 -0.03748766974521212 -0.9979275912681829
vn 0 -1 0
vn -0.0522991128295356 -0.03748766974521167 0.9979275912681829
usemtl material_0_0
f 1/1/1 2/2/1 3/3/1
f 2/2/1 1/1/1 4/4/1
f 9/2/2 10/5/2 11/6/2
f 10/5/2 9/2/2 12/7/2
f 17/8/2 18/9/2 19/3/2
f 18/9/2 17/8/2 20/10/2
f 11/6/2 25/11/2 26/12/2
f 25/11/2 11/6/2 10/13/2
f 29/14/3 30/15/3 31/16/3
f 30/15/3 29/14/3 32/17/3
f 26/12/2 37/18/2 38/19/2
f 37/18/2 26/12/2 25/20/2
f 41/21/2 42/22/2 43/23/2
f 42/22/2 41/21/2 44/24/2
f 38/19/2 49/25/2 50/26/2
f 49/25/2 38/19/2 37/27/2
f 53/28/2 44/29/2 41/21/2
f 44/29/2 53/28/2 54/30/2
f 49/31/2 57/32/2 50/26/2
f 57/32/2 49/31/2 58/33/2
f 53/28/2 61/34/2 54/35/2
f 61/34/2 53/28/2 62/36/2
f 58/37/2 65/38/2 57/32/2
f 65/38/2 58/37/2 66/39/2
f 62/36/2 69/40/2 61/41/2
f 69/40/2 62/36/2 70/42/2
f 66/43/2 73/44/2 65/38/2
f 73/44/2 66/43/2 74/45/2
f 70/42/2 77/46/2 69/47/2
f 77/46/2 70/42/2 78/48/2
f 74/49/2 81/50/2 73/51/2
f 81/50/2 74/49/2 82/52/2
f 78/48/2 85/53/2 77/54/2
f 85/53/2 78/48/2 86/55/2
f 82/56/2 89/57/2 81/50/2
f 89/57/2 82/56/2 90/58/2
f 86/55/2 93/59/2 85/60/2
f 93/59/2 86/55/2 94/61/2
f 90/62/2 97/63/2 89/57/2
f 97/63/2 90/62/2 98/64/2
f 93/65/2 101/66/2 102/67/2
f 101/66/2 93/65/2 94/61/2
f 105/68/2 97/63/2 98/69/2
f 97/63/2 105/68/2 106/70/2
f 102/71/2 109/72/2 110/73/2
f 109/72/2 102/71/2 101/66/2
f 113/74/4 114/75/4 115/76/4
f 114/75/4 113/74/4 116/77/4
f 110/78/2 121/79/2 122/80/2
f 121/79/2 110/78/2 109/81/2
f 125/82/2 126/83/2 127/84/2
f 126/83/2 125/82/2 128/85/2
f 122/86/2 133/87/2 134/88/2
f 133/87/2 122/86/2 121/79/2
f 137/87/5 138/89/5 139/90/5
f 138/89/5 137/87/5 140/85/5
usemtl material_1_0
f 5/91/6 6/92/6 7/93/6
f 8/94/6 7/93/6 6/92/6
f 13/95/7 14/96/7 15/97/7
f 16/98/7 15/97/7 14/96/7
f 21/99/7 22/100/7 23/101/7
f 24/102/7 23/101/7 22/100/7
f 15/97/7 16/98/7 27/103/7
f 28/104/7 27/103/7 16/98/7
f 33/105/4 34/106/4 35/107/4
f 36/108/4 35/107/4 34/106/4
f 27/103/7 28/104/7 39/109/7
f 40/110/7 39/109/7 28/104/7
f 45/111/7 46/112/7 47/113/7
f 48/114/7 47/113/7 46/112/7
f 39/109/7 40/110/7 51/115/7
f 52/116/7 51/115/7 40/110/7
f 55/117/7 56/118/7 45/111/7
f 46/112/7 45/111/7 56/118/7
f 59/119/7 51/115/7 60/120/7
f 52/116/7 60/120/7 51/115/7
f 63/121/7 56/118/7 64/122/7
f 55/117/7 64/122/7 56/118/7
f 67/123/7 59/119/7 68/124/7
f 60/120/7 68/124/7 59/119/7
f 71/125/7 63/121/7 72/126/7
f 64/122/7 72/126/7 63/121/7
f 75/127/7 67/123/7 76/128/7
f 68/124/7 76/128/7 67/123/7
f 79/129/7 71/125/7 80/130/7
f 72/126/7 80/130/7 71/125/7
f 83/131/7 75/127/7 84/132/7
f 76/128/7 84/132/7 75/127/7
f 87/133/7 79/129/7 88/134/7
f 80/130/7 88/134/7 79/129/7
f 91/135/7 83/131/7 92/136/7
f 84/132/7 92/136/7 83/131/7
f 95/137/7 87/133/7 96/138/7
f 88/134/7 96/138/7 87/133/7
f 99/139/7 91/135/7 100/140/7
f 92/136/7 100/140/7 91/135/7
f 95/137/7 96/138/7 103/141/7
f 104/142/7 103/141/7 96/138/7
f 107/143/7 108/144/7 100/140/7
f 99/139/7 100/140/7 108/144/7
f 103/141/7 104/142/7 111/145/7
f 112/146/7 111/145/7 104/142/7
f 117/147/3 118/148/3 119/149/3
f 120/150/3 119/149/3 118/148/3
f 111/145/7 112/146/7 123/151/7
f 124/152/7 123/151/7 112/146/7
f 129/153/7 130/154/7 131/155/7
f 132/156/7 131/155/7 130/154/7
f 123/151/7 124/152/7 135/157/7
f 136/158/7 135/157/7 124/152/7
f 141/159/8 142/160/8 143/161/8
f 144/162/8 143/161/8 142/160/8