# SSTK version 0.8.0
# 12
mtllib original-12.mtl
o #ID99
v 0.2031341054805306 -0.33254859000000003 0.21798351263846977
v 0.051576252024227345 -0.33254859000000003 0.2952056868412828
v 0.13243812453362058 -0.33254859000000003 0.2665714058762147
v 0.2588452625521711 -0.33254859000000003 0.15275374813948908
v -0.03394214332404355 -0.33254859000000003 0.3019358726731097
v 0.29577576466269706 -0.33254859000000003 0.07532758136075218
v -0.11828758136075218 -0.33254859000000003 0.28630376466269714
v 0.31140865725994016 -0.33254859000000003 -0.009018641262786922
v -0.1957137481394891 -0.33254859000000003 0.24937326255217113
v 0.30467768684128277 -0.33254859000000003 -0.09453625202422736
v -0.26094351263846977 -0.33254859000000003 0.19366210548053064
v 0.27604262128938417 -0.33254859000000003 -0.17539812453362058
v -0.3095314058762147 -0.33254859000000003 0.1229661245336206
v 0.22745551263846975 -0.33254859000000003 -0.2460941054805306
v -0.3381656868412828 -0.33254859000000003 0.042104252024227365
v 0.16222574813948906 -0.33254859000000003 -0.30180526255217116
v -0.3448966572599402 -0.33254859000000003 -0.04341414332404353
v 0.08479958136075216 -0.33254859000000003 -0.33873576466269706
v -0.32926376466269713 -0.33254859000000003 -0.12775958136075216
v 0.0004533587372130589 -0.33254859000000003 -0.35436865725994016
v -0.2923332625521711 -0.33254859000000003 -0.2051857481394891
v -0.08506425202422736 -0.33254859000000003 -0.34763768684128277
v -0.23662210548053064 -0.33254859000000003 -0.27041551263846975
v -0.16592612453362063 -0.33254859000000003 -0.3190034058762147
v -0.16592612453362063 -0.33254859000000003 -0.3190034058762147
v -0.08506425202422736 -0.33254859000000003 -0.34763768684128277
v -0.23662210548053064 -0.33254859000000003 -0.27041551263846975
v -0.2923332625521711 -0.33254859000000003 -0.2051857481394891
v 0.0004533587372130589 -0.33254859000000003 -0.35436865725994016
v -0.32926376466269713 -0.33254859000000003 -0.12775958136075216
v 0.08479958136075216 -0.33254859000000003 -0.33873576466269706
v -0.3448966572599402 -0.33254859000000003 -0.04341414332404353
v 0.16222574813948906 -0.33254859000000003 -0.30180526255217116
v -0.3381656868412828 -0.33254859000000003 0.042104252024227365
v 0.22745551263846975 -0.33254859000000003 -0.2460941054805306
v -0.3095314058762147 -0.33254859000000003 0.1229661245336206
v 0.27604262128938417 -0.33254859000000003 -0.17539812453362058
v -0.26094351263846977 -0.33254859000000003 0.19366210548053064
v 0.30467768684128277 -0.33254859000000003 -0.09453625202422736
v -0.1957137481394891 -0.33254859000000003 0.24937326255217113
v 0.31140865725994016 -0.33254859000000003 -0.009018641262786922
v -0.11828758136075218 -0.33254859000000003 0.28630376466269714
v 0.29577576466269706 -0.33254859000000003 0.07532758136075218
v -0.03394214332404355 -0.33254859000000003 0.3019358726731097
v 0.2588452625521711 -0.33254859000000003 0.15275374813948908
v 0.051576252024227345 -0.33254859000000003 0.2952056868412828
v 0.2031341054805306 -0.33254859000000003 0.21798351263846977
v 0.13243812453362058 -0.33254859000000003 0.2665714058762147
vt -2.405019 -10.45638
vt -2.35662 -9.994266
vt -2.396029 -10.21895
vt -2.382976 -10.69037
vt -2.289478 -9.797636
vt -2.331404 -10.90498
vt -2.199177 -9.642461
vt -2.253817 -11.08558
vt -2.091873 -9.539316
vt -2.155501 -11.21987
vt -1.974876 -9.495232
vt -2.043158 -11.29869
vt -1.856162 -9.513211
vt -1.924444 -11.31667
vt -1.743819 -9.592028
vt -1.807447 -11.27258
vt -1.645503 -9.726313
vt -1.700143 -11.16944
vt -1.567916 -9.906914
vt -1.609842 -11.01426
vt -1.516344 -10.12152
vt -1.5427 -10.81763
vt -1.494301 -10.35552
vt -1.503291 -10.59295
vt 1.147723 1.384791
vt 1.132183 1.148719
vt 1.132183 1.620863
vt 1.086623 1.840847
vt 1.086623 0.9287348
vt 1.014147 2.029752
vt 1.014147 0.7398301
vt 0.9196948 2.174704
vt 0.9196948 0.5948785
vt 0.8097027 2.265824
vt 0.8097027 0.5037581
vt 0.6916667 2.296904
vt 0.6916667 0.4726786
vt 0.5736306 2.265824
vt 0.5736306 0.5037581
vt 0.4636385 2.174704
vt 0.4636385 0.5948785
vt 0.3691862 2.029752
vt 0.3691862 0.7398301
vt 0.2967104 1.840847
vt 0.2967104 0.9287348
vt 0.2511502 1.620863
vt 0.2511502 1.148719
vt 0.2356104 1.384791
vn 0 1 0
vn 0 -1 0
usemtl material_0_0
f 1/1/1 2/2/1 3/3/1
f 2/2/1 1/1/1 4/4/1
f 2/2/1 4/4/1 5/5/1
f 5/5/1 4/4/1 6/6/1
f 5/5/1 6/6/1 7/7/1
f 7/7/1 6/6/1 8/8/1
f 7/7/1 8/8/1 9/9/1
f 9/9/1 8/8/1 10/10/1
f 9/9/1 10/10/1 11/11/1
f 11/11/1 10/10/1 12/12/1
f 11/11/1 12/12/1 13/13/1
f 13/13/1 12/12/1 14/14/1
f 13/13/1 14/14/1 15/15/1
f 15/15/1 14/14/1 16/16/1
f 15/15/1 16/16/1 17/17/1
f 17/17/1 16/16/1 18/18/1
f 17/17/1 18/18/1 19/19/1
f 19/19/1 18/18/1 20/20/1
f 19/19/1 20/20/1 21/21/1
f 21/21/1 20/20/1 22/22/1
f 21/21/1 22/22/1 23/23/1
f 23/23/1 22/22/1 24/24/1
usemtl material_1_0
f 25/25/2 26/26/2 27/27/2
f 27/27/2 26/26/2 28/28/2
f 26/26/2 29/29/2 28/28/2
f 28/28/2 29/29/2 30/30/2
f 29/29/2 31/31/2 30/30/2
f 30/30/2 31/31/2 32/32/2
f 31/31/2 33/33/2 32/32/2
f 32/32/2 33/33/2 34/34/2
f 33/33/2 35/35/2 34/34/2
f 34/34/2 35/35/2 36/36/2
f 35/35/2 37/37/2 36/36/2
f 36/36/2 37/37/2 38/38/2
f 37/37/2 39/39/2 38/38/2
f 38/38/2 39/39/2 40/40/2
f 39/39/2 41/41/2 40/40/2
f 40/40/2 41/41/2 42/42/2
f 41/41/2 43/43/2 42/42/2
f 42/42/2 43/43/2 44/44/2
f 43/43/2 45/45/2 44/44/2
f 44/44/2 45/45/2 46/46/2
f 45/45/2 47/47/2 46/46/2
f 48/48/2 46/46/2 47/47/2