# SSTK version 0.8.0
# 5
mtllib original-5.mtl
o #ID43
v 0.00400528371155796 -0.29062569000000005 -0.42212946142530233
v -0.12922245975508861 0.25301030999999996 -0.5553837190996744
v 0.011569521056102622 0.25301030999999996 -0.566464727421794
v -0.09917231307054172 -0.29062569000000005 -0.41400945113294335
v -0.09917231307054172 -0.29062569000000005 -0.41400945113294335
v 0.00400528371155796 -0.29062569000000005 -0.42212946142530233
v -0.12922245975508861 0.25301030999999996 -0.5553837190996744
v 0.011569521056102622 0.25301030999999996 -0.566464727421794
v -0.09917231307054172 -0.29062569000000005 -0.41400945113294335
v -0.2623485777969533 0.25301030999999996 -0.5082412454089986
v -0.12922245975508861 0.25301030999999996 -0.5553837190996744
v -0.1967316031519699 -0.29062569000000005 -0.37946147269797426
v -0.1967316031519699 -0.29062569000000005 -0.37946147269797426
v -0.09917231307054172 -0.29062569000000005 -0.41400945113294335
v -0.2623485777969533 0.25301030999999996 -0.5082412454089986
v -0.12922245975508861 0.25301030999999996 -0.5553837190996744
v 0.10576797604881942 -0.29062569000000005 -0.40326857067577726
v 0.011569521056102622 0.25301030999999996 -0.566464727421794
v 0.1504312022070195 0.25301030999999996 -0.5407280134611556
v 0.00400528371155796 -0.29062569000000005 -0.42212946142530233
v 0.00400528371155796 -0.29062569000000005 -0.42212946142530233
v 0.10576797604881942 -0.29062569000000005 -0.40326857067577726
v 0.011569521056102622 0.25301030999999996 -0.566464727421794
v 0.1504312022070195 0.25301030999999996 -0.5407280134611556
v -0.1967316031519699 -0.29062569000000005 -0.37946147269797426
v -0.37873651689265486 0.25301030999999996 -0.428249553706067
v -0.2623485777969533 0.25301030999999996 -0.5082412454089986
v -0.2820254750841239 -0.29062569000000005 -0.32084105204905633
v -0.2820254750841239 -0.29062569000000005 -0.32084105204905633
v -0.1967316031519699 -0.29062569000000005 -0.37946147269797426
v -0.37873651689265486 0.25301030999999996 -0.428249553706067
v -0.2623485777969533 0.25301030999999996 -0.5082412454089986
v 0.1504312022070195 0.25301030999999996 -0.5407280134611556
v 0.19918185827333248 -0.29062569000000005 -0.3587129834302371
v 0.10576797604881942 -0.29062569000000005 -0.40326857067577726
v 0.2779001496248407 0.25301030999999996 -0.4799286466174257
v 0.2779001496248407 0.25301030999999996 -0.4799286466174257
v 0.1504312022070195 0.25301030999999996 -0.5407280134611556
v 0.19918185827333248 -0.29062569000000005 -0.3587129834302371
v 0.10576797604881942 -0.29062569000000005 -0.40326857067577726
v -0.34924098343023713 -0.29062569000000005 -0.24214185827333248
v -0.37873651689265486 0.25301030999999996 -0.428249553706067
v -0.2820254750841239 -0.29062569000000005 -0.32084105204905633
v -0.47045664661742564 0.25301030999999996 -0.3208601496248407
v -0.47045664661742564 0.25301030999999996 -0.3208601496248407
v -0.34924098343023713 -0.29062569000000005 -0.24214185827333248
v -0.37873651689265486 0.25301030999999996 -0.428249553706067
v -0.2820254750841239 -0.29062569000000005 -0.32084105204905633
v 0.2779001496248407 0.25301030999999996 -0.4799286466174257
v 0.27788105204905633 -0.29062569000000005 -0.2914974750841239
v 0.19918185827333248 -0.29062569000000005 -0.3587129834302371
v 0.385289553706067 0.25301030999999996 -0.38820851689265484
v 0.385289553706067 0.25301030999999996 -0.38820851689265484
v 0.2779001496248407 0.25301030999999996 -0.4799286466174257
v 0.27788105204905633 -0.29062569000000005 -0.2914974750841239
v 0.19918185827333248 -0.29062569000000005 -0.3587129834302371
v -0.3937965706757773 -0.29062569000000005 -0.14872797604881943
v -0.47045664661742564 0.25301030999999996 -0.3208601496248407
v -0.34924098343023713 -0.29062569000000005 -0.24214185827333248
v -0.5312560134611557 0.25301030999999996 -0.1933912022070195
v -0.5312560134611557 0.25301030999999996 -0.1933912022070195
v -0.3937965706757773 -0.29062569000000005 -0.14872797604881943
v -0.47045664661742564 0.25301030999999996 -0.3208601496248407
v -0.34924098343023713 -0.29062569000000005 -0.24214185827333248
v 0.385289553706067 0.25301030999999996 -0.38820851689265484
v 0.33650147269797426 -0.29062569000000005 -0.2062036031519699
v 0.27788105204905633 -0.29062569000000005 -0.2914974750841239
v 0.4652812454089987 0.25301030999999996 -0.2718205777969533
v 0.4652812454089987 0.25301030999999996 -0.2718205777969533
v 0.385289553706067 0.25301030999999996 -0.38820851689265484
v 0.33650147269797426 -0.29062569000000005 -0.2062036031519699
v 0.27788105204905633 -0.29062569000000005 -0.2914974750841239
v -0.5569927274217941 0.25301030999999996 -0.05452952105610262
v -0.3937965706757773 -0.29062569000000005 -0.14872797604881943
v -0.4126574614253024 -0.29062569000000005 -0.04696528371155796
v -0.5312560134611557 0.25301030999999996 -0.1933912022070195
v -0.5312560134611557 0.25301030999999996 -0.1933912022070195
v -0.5569927274217941 0.25301030999999996 -0.05452952105610262
v -0.3937965706757773 -0.29062569000000005 -0.14872797604881943
v -0.4126574614253024 -0.29062569000000005 -0.04696528371155796
v 0.4652812454089987 0.25301030999999996 -0.2718205777969533
v 0.3710494511329433 -0.29062569000000005 -0.1086443130705417
v 0.33650147269797426 -0.29062569000000005 -0.2062036031519699
v 0.5124237190996743 0.25301030999999996 -0.1386944597550886
v 0.5124237190996743 0.25301030999999996 -0.1386944597550886
v 0.4652812454089987 0.25301030999999996 -0.2718205777969533
v 0.3710494511329433 -0.29062569000000005 -0.1086443130705417
v 0.33650147269797426 -0.29062569000000005 -0.2062036031519699
v -0.5459117190996743 0.25301030999999996 0.08626153749055908
v -0.4126574614253024 -0.29062569000000005 -0.04696528371155796
v -0.4045374511329433 -0.29062569000000005 0.05621151862672093
v -0.5569927274217941 0.25301030999999996 -0.05452952105610262
v -0.5569927274217941 0.25301030999999996 -0.05452952105610262
v -0.5459117190996743 0.25301030999999996 0.08626153749055908
v -0.4126574614253024 -0.29062569000000005 -0.04696528371155796
v -0.4045374511329433 -0.29062569000000005 0.05621151862672093
v 0.5124237190996743 0.25301030999999996 -0.1386944597550886
v 0.3791694614253024 -0.29062569000000005 -0.005466716288442024
v 0.3710494511329433 -0.29062569000000005 -0.1086443130705417
v 0.5235047274217939 0.25301030999999996 0.0020975210561026275
v 0.5235047274217939 0.25301030999999996 0.0020975210561026275
v 0.5124237190996743 0.25301030999999996 -0.1386944597550886
v 0.3791694614253024 -0.29062569000000005 -0.005466716288442024
v 0.3710494511329433 -0.29062569000000005 -0.1086443130705417
v -0.49876924540899875 0.25301030999999996 0.21938765553242376
v -0.4045374511329433 -0.29062569000000005 0.05621151862672093
v -0.3699894726979743 -0.29062569000000005 0.15377160315196992
v -0.5459117190996743 0.25301030999999996 0.08626153749055908
v -0.5459117190996743 0.25301030999999996 0.08626153749055908
v -0.49876924540899875 0.25301030999999996 0.21938765553242376
v -0.4045374511329433 -0.29062569000000005 0.05621151862672093
v -0.3699894726979743 -0.29062569000000005 0.15377160315196992
v 0.5235047274217939 0.25301030999999996 0.0020975210561026275
v 0.36030857067577726 -0.29062569000000005 0.09629597604881943
v 0.3791694614253024 -0.29062569000000005 -0.005466716288442024
v 0.49776801346115557 0.25301030999999996 0.1409592022070195
v 0.49776801346115557 0.25301030999999996 0.1409592022070195
v 0.5235047274217939 0.25301030999999996 0.0020975210561026275
v 0.36030857067577726 -0.29062569000000005 0.09629597604881943
v 0.3791694614253024 -0.29062569000000005 -0.005466716288442024
v -0.418777553706067 0.25301030999999996 0.33577651689265486
v -0.3699894726979743 -0.29062569000000005 0.15377160315196992
v -0.3113690520490563 -0.29062569000000005 0.2390654750841239
v -0.49876924540899875 0.25301030999999996 0.21938765553242376
v -0.49876924540899875 0.25301030999999996 0.21938765553242376
v -0.418777553706067 0.25301030999999996 0.33577651689265486
v -0.3699894726979743 -0.29062569000000005 0.15377160315196992
v -0.3113690520490563 -0.29062569000000005 0.2390654750841239
v 0.4369677243528961 0.25301030999999996 0.26842814962484074
v 0.36030857067577726 -0.29062569000000005 0.09629597604881943
v 0.49776801346115557 0.25301030999999996 0.1409592022070195
v 0.3157529834302371 -0.29062569000000005 0.18970985827333248
v 0.3157529834302371 -0.29062569000000005 0.18970985827333248
v 0.4369677243528961 0.25301030999999996 0.26842814962484074
v 0.36030857067577726 -0.29062569000000005 0.09629597604881943
v 0.49776801346115557 0.25301030999999996 0.1409592022070195
v -0.31138814962484074 0.25301030999999996 0.4274957243528961
v -0.3113690520490563 -0.29062569000000005 0.2390654750841239
v -0.23266985827333247 -0.29062569000000005 0.30628098343023713
v -0.418777553706067 0.25301030999999996 0.33577651689265486
v -0.418777553706067 0.25301030999999996 0.33577651689265486
v -0.31138814962484074 0.25301030999999996 0.4274957243528961
v -0.3113690520490563 -0.29062569000000005 0.2390654750841239
v -0.23266985827333247 -0.29062569000000005 0.30628098343023713
v 0.34524851689265484 0.25301030999999996 0.375817553706067
v 0.3157529834302371 -0.29062569000000005 0.18970985827333248
v 0.4369677243528961 0.25301030999999996 0.26842814962484074
v 0.24853747508412388 -0.29062569000000005 0.2684090520490563
v 0.24853747508412388 -0.29062569000000005 0.2684090520490563
v 0.34524851689265484 0.25301030999999996 0.375817553706067
v 0.3157529834302371 -0.29062569000000005 0.18970985827333248
v 0.4369677243528961 0.25301030999999996 0.26842814962484074
v -0.1839192022070195 0.25301030999999996 0.48829601346115564
v -0.23266985827333247 -0.29062569000000005 0.30628098343023713
v -0.13925597604881942 -0.29062569000000005 0.3508365706757773
v -0.31138814962484074 0.25301030999999996 0.4274957243528961
v -0.31138814962484074 0.25301030999999996 0.4274957243528961
v -0.1839192022070195 0.25301030999999996 0.48829601346115564
v -0.23266985827333247 -0.29062569000000005 0.30628098343023713
v -0.13925597604881942 -0.29062569000000005 0.3508365706757773
v 0.2288605777969533 0.25301030999999996 0.45580924540899875
v 0.24853747508412388 -0.29062569000000005 0.2684090520490563
v 0.34524851689265484 0.25301030999999996 0.375817553706067
v 0.1632436031519699 -0.29062569000000005 0.3270294726979743
v 0.1632436031519699 -0.29062569000000005 0.3270294726979743
v 0.2288605777969533 0.25301030999999996 0.45580924540899875
v 0.24853747508412388 -0.29062569000000005 0.2684090520490563
v 0.34524851689265484 0.25301030999999996 0.375817553706067
v -0.045057521056102626 0.25301030999999996 0.514032727421794
v -0.13925597604881942 -0.29062569000000005 0.3508365706757773
v -0.037493283711557975 -0.29062569000000005 0.36969746142530235
v -0.1839192022070195 0.25301030999999996 0.48829601346115564
v -0.1839192022070195 0.25301030999999996 0.48829601346115564
v -0.045057521056102626 0.25301030999999996 0.514032727421794
v -0.13925597604881942 -0.29062569000000005 0.3508365706757773
v -0.037493283711557975 -0.29062569000000005 0.36969746142530235
v 0.0957344597550886 0.25301030999999996 0.5029517190996744
v 0.1632436031519699 -0.29062569000000005 0.3270294726979743
v 0.2288605777969533 0.25301030999999996 0.45580924540899875
v 0.0656843130705417 -0.29062569000000005 0.3615774511329433
v 0.0656843130705417 -0.29062569000000005 0.3615774511329433
v 0.0957344597550886 0.25301030999999996 0.5029517190996744
v 0.1632436031519699 -0.29062569000000005 0.3270294726979743
v 0.2288605777969533 0.25301030999999996 0.45580924540899875
v 0.0957344597550886 0.25301030999999996 0.5029517190996744
v -0.037493283711557975 -0.29062569000000005 0.36969746142530235
v 0.0656843130705417 -0.29062569000000005 0.3615774511329433
v -0.045057521056102626 0.25301030999999996 0.514032727421794
v -0.045057521056102626 0.25301030999999996 0.514032727421794
v 0.0957344597550886 0.25301030999999996 0.5029517190996744
v -0.037493283711557975 -0.29062569000000005 0.36969746142530235
v 0.0656843130705417 -0.29062569000000005 0.3615774511329433
vt -0.9610155 -4.72191
vt -0.2912518 -4.980993
vt -0.2974379 -4.647735
vt -0.9557527 -5.005427
vt -0.2913087 -5.314481
vt -0.9558011 -5.28914
vt -0.9554347 -4.361334
vt -0.9606974 -4.077817
vt -0.2909338 -4.3369
vt -0.2971198 -4.003642
vt -0.9715819 -4.438985
vt -0.3098581 -4.315174
vt -1.009043 -2.743091
vt -0.3348988 -2.951841
vt -0.3473191 -2.61928
vt -0.9984765 -3.026016
vt -0.9554831 -4.645047
vt -0.2909906 -4.670388
vt -0.9874373 -4.15705
vt -0.3284952 -3.983776
vt -0.9932138 -3.309534
vt -0.3287128 -3.285099
vt -0.2972904 -5.003637
vt -0.9608425 -4.928557
vt -1.008559 -3.8765
vt -0.3533229 -3.654006
vt -0.6297109 -6.911439
vt -0.6546511 -7.241175
vt -1.288594 -6.737266
vt -1.309812 -7.017787
vt -0.9932622 -3.593246
vt -0.3287697 -3.618587
vt -0.3098241 -5.336181
vt -0.9715055 -5.211467
vt -1.034919 -3.597728
vt -0.3843066 -3.326327
vt -0.6109608 -6.580067
vt -1.272642 -6.455353
vt -0.3350694 -3.951837
vt -0.9986216 -3.876757
vt -0.3285742 -5.667554
vt -0.987457 -5.493381
vt -1.066478 -3.321126
vt -0.4214026 -3.001197
vt -0.5984271 -6.247522
vt -1.261979 -6.172442
vt -0.3476031 -4.284381
vt -1.009285 -4.159667
vt -0.3535144 -5.99729
vt -1.008675 -5.773902
vt -1.103193 -3.04708
vt -0.4645591 -2.679072
vt -0.5921273 -5.914273
vt -1.25662 -5.888932
vt -0.3663532 -4.615753
vt -1.025236 -4.44158
vt -0.3846098 -6.324927
vt -1.035129 -6.052638
vt -1.145012 -2.775976
vt -0.5137154 -2.360405
vt -0.5920705 -5.580785
vt -1.256571 -5.60522
vt -0.3912934 -4.945489
vt -1.046454 -4.722101
vt -0.4218168 -6.650007
vt -1.066783 -6.329197
vt -0.5688027 -2.045643
vt -1.191878 -2.508194
vt -1.261834 -5.321702
vt -0.5982565 -5.247528
vt -0.4223888 -5.273127
vt -1.072908 -5.000837
vt -0.4650831 -6.972072
vt -1.103591 -6.603192
vt -0.6297437 -1.735226
vt -1.243723 -2.244108
vt -1.272401 -5.038777
vt -0.6106767 -4.914966
vt -0.4595958 -5.598206
vt -1.104562 -5.277397
vt -0.5143481 -7.290672
vt -1.145503 -6.874239
vt -0.696453 -1.42959
vt -1.300475 -1.98409
vt -1.301236 -7.665914
vt -0.6974032 -8.221238
vt -1.362904 -7.921416
vt -0.7698897 -8.521566
vt -0.8467942 -0.8343672
vt -1.499347 -1.232053
vt -1.428377 -1.477707
vt -0.9302153 -0.5456154
vt -0.5695428 -7.605359
vt -1.19246 -7.141958
vt -0.768837 -1.129163
vt -1.362056 -1.728503
vt -1.244395 -7.405973
vt -0.6305897 -7.915693
vn -0.07766131487298249 -0.1422418932886616 -0.9867806057913058
vn 0.07766131487298249 0.1422418932886616 0.9867806057913058
vn -0.3304126821947808 -0.14224189660987446 -0.9330566447401126
vn 0.3304126821947808 0.14224189660987446 0.9330566447401126
vn 0.1803825220022933 -0.1422418958884905 -0.9732571031388059
vn -0.1803825220022933 0.1422418958884905 0.9732571031388059
vn -0.5606469805447128 -0.1422418966098744 -0.8157464103843315
vn 0.5606469805447128 0.1422418966098744 0.8157464103843315
vn 0.4261336461258317 -0.14224189588849048 -0.893407722539688
vn -0.4261336461258317 0.14224189588849048 0.893407722539688
vn -0.7526741042487798 -0.1422418932886615 -0.6428444108701218
vn 0.7526741042487798 0.1422418932886615 0.6428444108701218
vn 0.6428444108701217 -0.1422418932886616 -0.7526741042487797
vn -0.6428444108701217 0.1422418932886616 0.7526741042487797
vn -0.893407722539688 -0.1422418958884903 -0.42613364612583166
vn 0.893407722539688 0.1422418958884903 0.42613364612583166
vn 0.8157464103843314 -0.1422418966098745 -0.560646980544713
vn -0.8157464103843314 0.1422418966098745 0.560646980544713
vn -0.9732571031388058 -0.1422418958884902 -0.18038252200229313
vn 0.9732571031388058 0.1422418958884902 0.18038252200229313
vn 0.9330566447401124 -0.14224189660987444 -0.330412682194781
vn -0.9330566447401124 0.14224189660987444 0.330412682194781
vn -0.9867806057913059 -0.1422418932886613 0.07766131487298264
vn 0.9867806057913059 0.1422418932886613 -0.07766131487298264
vn 0.9867806057913057 -0.14224189328866152 -0.0776613148729826
vn -0.9867806057913057 0.14224189328866152 0.0776613148729826
vn -0.9330566447401126 -0.14224189660987413 0.33041268219478104
vn 0.9330566447401126 0.14224189660987413 -0.33041268219478104
vn 0.9732571031388058 -0.14224189588849034 0.18038252200229313
vn -0.9732571031388058 0.14224189588849034 -0.18038252200229313
vn -0.8157464103843315 -0.1422418966098741 0.5606469805447131
vn 0.8157464103843315 0.1422418966098741 -0.5606469805447131
vn 0.893407722539688 -0.1422418958884903 0.42613364612583166
vn -0.893407722539688 0.1422418958884903 -0.42613364612583166
vn -0.6428444108701218 -0.14224189328866116 0.7526741042487799
vn 0.6428444108701218 0.14224189328866116 -0.7526741042487799
vn 0.7526741042487798 -0.14224189328866135 0.6428444108701218
vn -0.7526741042487798 0.14224189328866135 -0.6428444108701218
vn -0.4261336461258317 -0.14224189588849 0.893407722539688
vn 0.4261336461258317 0.14224189588849 -0.893407722539688
vn 0.5606469805447128 -0.14224189660987419 0.8157464103843315
vn -0.5606469805447128 0.14224189660987419 -0.8157464103843315
vn -0.1803825220022933 -0.14224189588849004 0.9732571031388059
vn 0.1803825220022933 0.14224189588849004 -0.9732571031388059
vn 0.3304126821947808 -0.14224189660987413 0.9330566447401126
vn -0.3304126821947808 0.14224189660987413 -0.9330566447401126
vn 0.07766131487298249 -0.1422418932886612 0.9867806057913058
vn -0.07766131487298249 0.1422418932886612 -0.9867806057913058
usemtl material_0_0
f 1/1/1 2/2/1 3/3/1
f 2/2/1 1/1/1 4/4/1
f 5/4/2 6/1/2 7/2/2
f 8/3/2 7/2/2 6/1/2
f 9/4/3 10/5/3 11/2/3
f 10/5/3 9/4/3 12/6/3
f 13/7/4 14/8/4 15/9/4
f 16/10/4 15/9/4 14/8/4
f 17/11/5 18/3/5 19/12/5
f 18/3/5 17/11/5 20/1/5
f 21/1/6 22/11/6 23/3/6
f 24/12/6 23/3/6 22/11/6
f 25/13/7 26/14/7 27/15/7
f 26/14/7 25/13/7 28/16/7
f 29/17/8 30/7/8 31/18/8
f 32/9/8 31/18/8 30/7/8
f 33/12/9 34/19/9 35/11/9
f 34/19/9 33/12/9 36/20/9
f 37/20/10 38/12/10 39/19/10
f 40/11/10 39/19/10 38/12/10
f 41/21/11 42/14/11 43/16/11
f 42/14/11 41/21/11 44/22/11
f 45/23/12 46/24/12 47/18/12
f 48/17/12 47/18/12 46/24/12
f 49/20/13 50/25/13 51/19/13
f 50/25/13 49/20/13 52/26/13
f 53/27/14 54/28/14 55/29/14
f 56/30/14 55/29/14 54/28/14
f 57/31/15 58/22/15 59/21/15
f 58/22/15 57/31/15 60/32/15
f 61/33/16 62/34/16 63/23/16
f 64/24/16 63/23/16 62/34/16
f 65/26/17 66/35/17 67/25/17
f 66/35/17 65/26/17 68/36/17
f 69/37/18 70/27/18 71/38/18
f 72/29/18 71/38/18 70/27/18
f 73/39/19 74/31/19 75/40/19
f 74/31/19 73/39/19 76/32/19
f 77/33/20 78/41/20 79/34/20
f 80/42/20 79/34/20 78/41/20
f 81/36/21 82/43/21 83/35/21
f 82/43/21 81/36/21 84/44/21
f 85/45/22 86/37/22 87/46/22
f 88/38/22 87/46/22 86/37/22
f 89/47/23 90/40/23 91/48/23
f 90/40/23 89/47/23 92/39/23
f 93/41/24 94/49/24 95/42/24
f 96/50/24 95/42/24 94/49/24
f 97/44/25 98/51/25 99/43/25
f 98/51/25 97/44/25 100/52/25
f 101/53/26 102/45/26 103/54/26
f 104/46/26 103/54/26 102/45/26
f 105/55/27 106/48/27 107/56/27
f 106/48/27 105/55/27 108/47/27
f 109/49/28 110/57/28 111/50/28
f 112/58/28 111/50/28 110/57/28
f 113/52/29 114/59/29 115/51/29
f 114/59/29 113/52/29 116/60/29
f 117/61/30 118/53/30 119/62/30
f 120/54/30 119/62/30 118/53/30
f 121/63/31 122/56/31 123/64/31
f 122/56/31 121/63/31 124/55/31
f 125/57/32 126/65/32 127/58/32
f 128/66/32 127/58/32 126/65/32
f 129/67/33 130/59/33 131/60/33
f 130/59/33 129/67/33 132/68/33
f 133/69/34 134/70/34 135/62/34
f 136/61/34 135/62/34 134/70/34
f 137/71/35 138/64/35 139/72/35
f 138/64/35 137/71/35 140/63/35
f 141/65/36 142/73/36 143/66/36
f 144/74/36 143/66/36 142/73/36
f 145/75/37 146/68/37 147/67/37
f 146/68/37 145/75/37 148/76/37
f 149/77/38 150/78/38 151/69/38
f 152/70/38 151/69/38 150/78/38
f 153/79/39 154/72/39 155/80/39
f 154/72/39 153/79/39 156/71/39
f 157/73/40 158/81/40 159/74/40
f 160/82/40 159/74/40 158/81/40
f 161/83/41 162/76/41 163/75/41
f 162/76/41 161/83/41 164/84/41
f 165/85/42 166/86/42 167/87/42
f 168/88/42 167/87/42 166/86/42
f 169/89/43 170/90/43 171/91/43
f 170/90/43 169/89/43 172/92/43
f 173/81/44 174/93/44 175/82/44
f 176/94/44 175/82/44 174/93/44
f 177/95/45 178/84/45 179/83/45
f 178/84/45 177/95/45 180/96/45
f 181/97/46 182/98/46 183/85/46
f 184/86/46 183/85/46 182/98/46
f 185/95/47 186/91/47 187/96/47
f 186/91/47 185/95/47 188/89/47
f 189/93/48 190/98/48 191/94/48
f 192/97/48 191/94/48 190/98/48